<?xml version="1.0" encoding="UTF-8" standalone="no"?>
<!-- Generator: Adobe Illustrator 19.0.0, SVG Export Plug-In . SVG Version: 6.00 Build 0)  -->

<svg
   xmlns:dc="http://purl.org/dc/elements/1.1/"
   xmlns:cc="http://creativecommons.org/ns#"
   xmlns:rdf="http://www.w3.org/1999/02/22-rdf-syntax-ns#"
   xmlns:svg="http://www.w3.org/2000/svg"
   xmlns="http://www.w3.org/2000/svg"
   xmlns:sodipodi="http://sodipodi.sourceforge.net/DTD/sodipodi-0.dtd"
   xmlns:inkscape="http://www.inkscape.org/namespaces/inkscape"
   version="1.1"
   id="Capa_1"
   x="0px"
   y="0px"
   viewBox="0 0 512 512"
   style="enable-background:new 0 0 512 512;"
   xml:space="preserve"
   sodipodi:docname="laptop.svg"
   inkscape:version="0.92.4 5da689c313, 2019-01-14"><metadata
   id="metadata55"><rdf:RDF><cc:Work
       rdf:about=""><dc:format>image/svg+xml</dc:format><dc:type
         rdf:resource="http://purl.org/dc/dcmitype/StillImage" /><dc:title></dc:title></cc:Work></rdf:RDF></metadata><defs
   id="defs53" /><sodipodi:namedview
   pagecolor="#ffffff"
   bordercolor="#666666"
   borderopacity="1"
   objecttolerance="10"
   gridtolerance="10"
   guidetolerance="10"
   inkscape:pageopacity="0"
   inkscape:pageshadow="2"
   inkscape:window-width="1920"
   inkscape:window-height="1004"
   id="namedview51"
   showgrid="false"
   inkscape:zoom="0.4609375"
   inkscape:cx="15.186441"
   inkscape:cy="256"
   inkscape:window-x="0"
   inkscape:window-y="0"
   inkscape:window-maximized="1"
   inkscape:current-layer="Capa_1" />
<g
   id="g6"
   style="fill:#0000ff">
	<g
   id="g4"
   style="fill:#0000ff">
		<path
   d="m 511.976,416.063 c -0.005,-0.075 -0.004,-0.149 -0.011,-0.224 -0.027,-0.297 -0.07,-0.588 -0.131,-0.873 -0.006,-0.028 -0.015,-0.056 -0.022,-0.084 -0.059,-0.262 -0.132,-0.518 -0.218,-0.768 -0.023,-0.067 -0.048,-0.132 -0.073,-0.198 -0.084,-0.227 -0.179,-0.448 -0.284,-0.663 -0.018,-0.038 -0.03,-0.077 -0.049,-0.115 L 471.076,334.02 V 73.72 c 0,-8.006 -6.513,-14.519 -14.519,-14.519 H 55.441 c -8.006,0 -14.519,6.513 -14.519,14.519 V 334.018 L 0.811,413.137 c -0.019,0.038 -0.031,0.077 -0.049,0.115 -0.105,0.215 -0.199,0.436 -0.284,0.662 -0.025,0.066 -0.05,0.132 -0.073,0.199 -0.085,0.251 -0.159,0.508 -0.218,0.77 -0.006,0.027 -0.015,0.054 -0.021,0.081 -0.061,0.286 -0.104,0.577 -0.131,0.874 -0.007,0.074 -0.007,0.149 -0.011,0.223 C 0.014,416.217 0,416.371 0,416.529 v 19.026 c 0,9.509 7.735,17.244 17.244,17.244 h 477.512 c 9.509,0 17.244,-7.735 17.244,-17.244 v -19.026 c 0,-0.158 -0.014,-0.312 -0.024,-0.466 z M 55.923,74.203 H 456.077 V 328.312 H 55.923 Z M 53.029,343.311 H 458.97 l 33.318,65.717 h -164.78 l -8.271,-29.989 c -1.684,-6.105 -7.282,-10.369 -13.615,-10.369 h -99.246 c -6.333,0 -11.932,4.264 -13.615,10.368 l -8.271,29.99 H 19.711 Z m 258.919,65.718 H 200.052 l 6.993,-25.358 h 97.91 z M 497,435.554 c 0,1.237 -1.007,2.244 -2.244,2.244 H 17.244 c -1.237,0 -2.244,-1.007 -2.244,-2.244 v -11.526 h 482 z"
   id="path2"
   inkscape:connector-curvature="0"
   style="fill:#0000ff" />
	</g>
</g>
<g
   id="g12"
   style="fill:#0000ff">
	<g
   id="g10"
   style="fill:#0000ff">
		<path
   d="m 432.577,213.756 c -4.143,0 -7.5,3.357 -7.5,7.5 v 76.055 H 86.923 v -76.055 c 0,-4.143 -3.357,-7.5 -7.5,-7.5 -4.143,0 -7.5,3.357 -7.5,7.5 v 79.294 c 0,6.485 5.275,11.761 11.761,11.761 h 344.633 c 6.485,0 11.761,-5.275 11.761,-11.761 v -79.294 c -10e-4,-4.141 -3.358,-7.5 -7.501,-7.5 z"
   id="path8"
   inkscape:connector-curvature="0"
   style="fill:#0000ff" />
	</g>
</g>
<g
   id="g18"
   style="fill:#0000ff">
	<g
   id="g16"
   style="fill:#0000ff">
		<path
   d="M 428.316,90.203 H 83.684 c -6.485,0 -11.761,5.275 -11.761,11.761 v 79.294 c 0,4.143 3.357,7.5 7.5,7.5 4.143,0 7.5,-3.357 7.5,-7.5 v -76.055 h 338.154 v 76.055 c 0,4.143 3.357,7.5 7.5,7.5 4.143,0 7.5,-3.357 7.5,-7.5 v -79.294 c 0,-6.487 -5.275,-11.761 -11.761,-11.761 z"
   id="path14"
   inkscape:connector-curvature="0"
   style="fill:#0000ff" />
	</g>
</g>
<g
   id="g20">
</g>
<g
   id="g22">
</g>
<g
   id="g24">
</g>
<g
   id="g26">
</g>
<g
   id="g28">
</g>
<g
   id="g30">
</g>
<g
   id="g32">
</g>
<g
   id="g34">
</g>
<g
   id="g36">
</g>
<g
   id="g38">
</g>
<g
   id="g40">
</g>
<g
   id="g42">
</g>
<g
   id="g44">
</g>
<g
   id="g46">
</g>
<g
   id="g48">
</g>
</svg>