<?xml version="1.0" encoding="UTF-8" standalone="no"?>
<svg
   xmlns:dc="http://purl.org/dc/elements/1.1/"
   xmlns:cc="http://creativecommons.org/ns#"
   xmlns:rdf="http://www.w3.org/1999/02/22-rdf-syntax-ns#"
   xmlns:svg="http://www.w3.org/2000/svg"
   xmlns="http://www.w3.org/2000/svg"
   xmlns:sodipodi="http://sodipodi.sourceforge.net/DTD/sodipodi-0.dtd"
   xmlns:inkscape="http://www.inkscape.org/namespaces/inkscape"
   width="20"
   height="20"
   viewBox="0 0 5.2916664 5.2916664"
   version="1.1"
   id="svg8"
   inkscape:version="1.0.2 (e86c870879, 2021-01-15)"
   sodipodi:docname="latency.svg"
   inkscape:export-filename="/home/yeison/Development/piton/art/icon_lite.png"
   inkscape:export-xdpi="96"
   inkscape:export-ydpi="96">
  <defs
     id="defs2">
    <clipPath
       id="clipPath20"
       clipPathUnits="userSpaceOnUse">
      <path
         inkscape:connector-curvature="0"
         id="path18"
         d="M 0,708 V 5000 H 4292 V 708 Z" />
    </clipPath>
    <clipPath
       id="clipPath32"
       clipPathUnits="userSpaceOnUse">
      <path
         inkscape:connector-curvature="0"
         id="path30"
         d="m 4276,0 v 5000 h 724 V 0 Z" />
    </clipPath>
    <clipPath
       id="clipPath44"
       clipPathUnits="userSpaceOnUse">
      <path
         inkscape:connector-curvature="0"
         id="path42"
         d="M 0,724 H 4292 V 0 H 0 Z" />
    </clipPath>
  </defs>
  <sodipodi:namedview
     id="base"
     pagecolor="#ffffff"
     bordercolor="#666666"
     borderopacity="1.0"
     inkscape:pageopacity="0.0"
     inkscape:pageshadow="2"
     inkscape:zoom="20.770049"
     inkscape:cx="9.6465418"
     inkscape:cy="7.0297264"
     inkscape:document-units="px"
     inkscape:current-layer="layer1"
     showgrid="true"
     inkscape:window-width="1920"
     inkscape:window-height="1004"
     inkscape:window-x="0"
     inkscape:window-y="0"
     inkscape:window-maximized="1"
     inkscape:showpageshadow="false"
     units="px"
     inkscape:pagecheckerboard="false"
     showguides="true"
     inkscape:snap-bbox="true"
     inkscape:bbox-paths="true"
     inkscape:bbox-nodes="true"
     inkscape:snap-bbox-edge-midpoints="true"
     inkscape:snap-bbox-midpoints="true"
     inkscape:snap-nodes="true"
     inkscape:object-paths="true"
     inkscape:snap-intersection-paths="true"
     inkscape:snap-smooth-nodes="true"
     inkscape:snap-midpoints="true"
     inkscape:snap-global="true"
     fit-margin-top="0"
     fit-margin-left="0"
     fit-margin-right="0"
     fit-margin-bottom="0"
     inkscape:guide-bbox="true"
     inkscape:document-rotation="0">
    <inkscape:grid
       type="xygrid"
       id="grid974"
       empspacing="8"
       spacingx="0.26458332"
       spacingy="0.26458332"
       dotted="false"
       visible="true"
       enabled="true"
       snapvisiblegridlinesonly="true"
       originx="0"
       originy="0" />
  </sodipodi:namedview>
  <metadata
     id="metadata5">
    <rdf:RDF>
      <cc:Work
         rdf:about="">
        <dc:format>image/svg+xml</dc:format>
        <dc:type
           rdf:resource="http://purl.org/dc/dcmitype/StillImage" />
        <dc:title></dc:title>
      </cc:Work>
    </rdf:RDF>
  </metadata>
  <g
     inkscape:label="Layer 1"
     inkscape:groupmode="layer"
     id="layer1"
     transform="translate(0,-291.70835)">
    <g
       id="g847"
       transform="matrix(0.05207439,0,0,0.05207453,-0.90125164,282.41203)">
      <g
         id="g851">
        <g
           id="g1059"
           transform="matrix(1.9986219,0,0,1.9986185,17.324484,-313.52314)">
          <path
             inkscape:transform-center-y="3.175"
             style="opacity:1;fill:none;fill-opacity:0.49382719;stroke:#000000;stroke-width:0.07000433;stroke-linecap:round;stroke-linejoin:round;stroke-miterlimit:4;stroke-dasharray:none;stroke-dashoffset:0;stroke-opacity:1;paint-order:stroke fill markers"
             d="M 25.399999,271.60002 -8.0000008e-7,246.20002 H 50.799999 Z"
             id="path883"
             inkscape:connector-curvature="0"
             sodipodi:nodetypes="cccc" />
          <path
             sodipodi:nodetypes="cccc"
             inkscape:connector-curvature="0"
             id="path880"
             d="m 25.399999,271.60002 25.399999,25.4 H 0 Z"
             inkscape:transform-center-y="-3.1749995"
             style="opacity:1;fill:none;fill-opacity:0.49382719;stroke:#000000;stroke-width:0.07000433;stroke-linecap:round;stroke-linejoin:round;stroke-miterlimit:4;stroke-dasharray:none;stroke-dashoffset:0;stroke-opacity:1;paint-order:stroke fill markers" />
          <rect
             ry="5.0534658"
             y="253.84885"
             x="7.6487389"
             height="35.528759"
             width="35.528786"
             id="rect870"
             style="opacity:1;fill:none;fill-opacity:0.49382719;stroke:#000000;stroke-width:0.06184419;stroke-linecap:round;stroke-linejoin:round;stroke-miterlimit:4;stroke-dasharray:none;stroke-dashoffset:0;stroke-opacity:1;paint-order:stroke fill markers" />
          <circle
             r="25.396828"
             cy="271.60001"
             cx="25.4"
             id="path872"
             style="opacity:1;fill:none;fill-opacity:0.49382719;stroke:#000000;stroke-width:0.07635882;stroke-linecap:round;stroke-linejoin:round;stroke-miterlimit:4;stroke-dasharray:none;stroke-dashoffset:0;stroke-opacity:1;paint-order:stroke fill markers" />
          <circle
             transform="rotate(-45)"
             cx="-174.08969"
             cy="210.01071"
             r="12.656071"
             id="path876"
             style="opacity:1;fill:none;fill-opacity:0.49382719;stroke:#000000;stroke-width:0.07399406;stroke-linecap:round;stroke-linejoin:round;stroke-miterlimit:4;stroke-dasharray:none;stroke-dashoffset:0;stroke-opacity:1;paint-order:stroke fill markers" />
          <path
             inkscape:transform-center-x="-3.1749999"
             sodipodi:nodetypes="cccc"
             inkscape:connector-curvature="0"
             id="path904"
             d="m 25.4,271.60002 -25.40000040000004,25.4 v -50.8 z"
             style="opacity:1;fill:none;fill-opacity:0.49382719;stroke:#000000;stroke-width:0.07000433;stroke-linecap:round;stroke-linejoin:round;stroke-miterlimit:4;stroke-dasharray:none;stroke-dashoffset:0;stroke-opacity:1;paint-order:stroke fill markers" />
          <path
             inkscape:transform-center-x="3.175"
             style="opacity:1;fill:none;fill-opacity:0.49382719;stroke:#000000;stroke-width:0.07000433;stroke-linecap:round;stroke-linejoin:round;stroke-miterlimit:4;stroke-dasharray:none;stroke-dashoffset:0;stroke-opacity:1;paint-order:stroke fill markers"
             d="m 25.399999,271.60002 25.4,-25.4 v 50.8 z"
             id="path906"
             inkscape:connector-curvature="0"
             sodipodi:nodetypes="cccc" />
          <rect
             ry="5.0514922"
             y="256.39301"
             x="2.5663135"
             height="30.440479"
             width="45.693634"
             id="rect837"
             style="opacity:1;fill:none;fill-opacity:0.49382719;stroke:#000000;stroke-width:0.0657438;stroke-linecap:round;stroke-linejoin:round;stroke-miterlimit:4;stroke-dasharray:none;stroke-dashoffset:0;stroke-opacity:1;paint-order:stroke fill markers" />
          <rect
             style="opacity:1;fill:none;fill-opacity:0.49382719;stroke:#000000;stroke-width:0.0657438;stroke-linecap:round;stroke-linejoin:round;stroke-miterlimit:4;stroke-dasharray:none;stroke-dashoffset:0;stroke-opacity:1;paint-order:stroke fill markers"
             id="rect831"
             width="45.693588"
             height="30.44051"
             x="248.76645"
             y="-40.633385"
             ry="5.051497"
             transform="rotate(90)" />
        </g>
      </g>
    </g>
    <path
       style="opacity:1;fill:#ffc107;fill-opacity:1;stroke:none;stroke-width:0.38596651;stroke-miterlimit:4;stroke-dasharray:none;stroke-opacity:1"
       d="m 50.206421,401.67683 c 110.217209,0.71279 55.108609,0.3564 0,0 z"
       id="rect997"
       inkscape:connector-curvature="0" />
    <g
       id="g1014"
       transform="matrix(0.00992187,0,0,0.00992187,0.5771233,291.97293)"
       style="fill:#0000ff">
      <path
         d="m 376.5,48 h -32 v -8 c 0,-4.417969 -3.58203,-8 -8,-8 h -73.47266 c 0.94922,-2.5625 1.44532,-5.269531 1.47266,-8 0,-13.253906 -10.74609,-24 -24,-24 -13.25391,0 -24,10.746094 -24,24 0.0273,2.730469 0.52344,5.4375 1.47266,8 H 144.5 c -4.41797,0 -8,3.582031 -8,8 v 8 h -32 c -22.082031,0.02734 -39.972656,17.917969 -40,40 v 352 c 0.02734,22.08203 17.917969,39.97266 40,40 h 272 c 22.08203,-0.0273 39.97266,-17.91797 40,-40 V 88 c -0.0273,-22.082031 -17.91797,-39.972656 -40,-40 z m -144,-24 c 0,-4.417969 3.58203,-8 8,-8 4.41797,0 8,3.582031 8,8 0,4.417969 -3.58203,8 -8,8 -4.41797,0 -8,-3.582031 -8,-8 z m -80,24 h 176 v 40 c 0,4.417969 -3.58203,8 -8,8 h -160 c -4.41797,0 -8,-3.582031 -8,-8 z m 8,64 h 160 c 10.13281,-0.043 19.14844,-6.44531 22.52734,-16 H 360.5 c 4.41797,0 8,3.582031 8,8 v 320 c 0,4.41797 -3.58203,8 -8,8 h -240 c -4.41797,0 -8,-3.58203 -8,-8 V 104 c 0,-4.417969 3.58203,-8 8,-8 h 17.47266 c 3.3789,9.55469 12.39453,15.95703 22.52734,16 z m 240,328 c 0,13.25391 -10.74609,24 -24,24 h -272 c -13.253906,0 -24,-10.74609 -24,-24 V 88 c 0,-13.253906 10.746094,-24 24,-24 h 32 v 16 h -16 c -13.25391,0 -24,10.746094 -24,24 v 320 c 0,13.25391 10.74609,24 24,24 h 240 c 13.25391,0 24,-10.74609 24,-24 V 104 c 0,-13.253906 -10.74609,-24 -24,-24 h -16 V 64 h 32 c 13.25391,0 24,10.746094 24,24 z m 0,0"
         id="path976"
         style="fill:#0000ff" />
      <path
         d="m 232.5,136 h 16 v 16 h -16 z m 0,0"
         id="path978"
         style="fill:#0000ff" />
      <path
         d="m 264.5,136 h 16 v 16 h -16 z m 0,0"
         id="path980"
         style="fill:#0000ff" />
      <path
         d="m 200.5,136 h 16 v 16 h -16 z m 0,0"
         id="path982"
         style="fill:#0000ff" />
      <path
         d="m 24.5,120 c -13.253906,0 -24,10.74609 -24,24 v 256 c 0,1.01953 0.191406,2.02734 0.566406,2.97656 l 16,40 c 1.214844,3.04297 4.160156,5.03906 7.433594,5.03906 3.273438,0 6.21875,-1.99609 7.433594,-5.03906 l 16,-40 C 48.308594,402.02734 48.5,401.01953 48.5,400 V 144 c 0,-13.25391 -10.746094,-24 -24,-24 z m 0,16 c 4.417969,0 8,3.58203 8,8 v 8 h -16 v -8 c 0,-4.41797 3.582031,-8 8,-8 z m -8,248 V 168 h 16 v 216 z m 8,34.46484 L 17.117188,400 h 14.765624 z m 0,0"
         id="path984"
         style="fill:#0000ff" />
      <path
         d="m 282.84375,293.65625 11.3125,-11.3125 L 280.5,268.6875 V 248 h -16 v 24 c 0,2.12109 0.84375,4.15625 2.34375,5.65625 z m 0,0"
         id="path986"
         style="fill:#0000ff" />
      <path
         d="m 286.15625,306.34375 -11.3125,11.3125 5.65625,5.65625 V 336 h 16 v -16 c 0,-2.12109 -0.84375,-4.15625 -2.34375,-5.65625 z m 0,0"
         id="path988"
         style="fill:#0000ff" />
      <path
         d="m 128.5,280 v 40 c 0,2.12109 0.84375,4.15625 2.34375,5.65625 L 152.5,347.3125 V 360 c 0,3.67187 2.5,6.87109 6.0625,7.76172 l 27.73828,6.93359 6.61328,19.83203 c 1.08985,3.26563 4.14453,5.46875 7.58594,5.47266 h 24 c 2.12109,0 4.15625,-0.84375 5.65625,-2.34375 L 240.5,387.3125 l 10.34375,10.34375 c 1.5,1.5 3.53516,2.34375 5.65625,2.34375 h 24 c 3.44141,-0.004 6.49609,-2.20703 7.58594,-5.47266 l 6.61328,-19.83203 27.73828,-6.93359 C 326,366.87109 328.5,363.67187 328.5,360 v -12.6875 l 21.65625,-21.65625 c 1.5,-1.5 2.34375,-3.53516 2.34375,-5.65625 v -40 c -0.004,-1.57813 -0.46875,-3.125 -1.34375,-4.44141 L 336.5,253.60156 V 224 c 0,-2.12109 -0.84375,-4.15625 -2.34375,-5.65625 l -16,-16 C 316.65625,200.84375 314.62109,200 312.5,200 h -18.23047 l -6.18359,-18.52734 C 286.99609,178.20703 283.94141,176.00391 280.5,176 h -24 c -2.12109,0 -4.15625,0.84375 -5.65625,2.34375 L 240.5,188.6875 230.15625,178.34375 C 228.65625,176.84375 226.62109,176 224.5,176 h -24 c -3.44141,0.004 -6.49609,2.20703 -7.58594,5.47266 L 186.73047,200 H 168.5 c -2.12109,0 -4.15625,0.84375 -5.65625,2.34375 l -16,16 c -1.5,1.5 -2.34375,3.53516 -2.34375,5.65625 v 29.60156 l -14.65625,21.98438 C 128.97266,276.89453 128.50781,278.42969 128.5,280 Z m 131.3125,-88 h 14.91797 l 4.61719,13.83984 -12.50391,12.50391 c -1.5,1.5 -2.34375,3.53516 -2.34375,5.65625 v 8 h 16 v -4.6875 L 291.8125,216 h 17.375 L 320.5,227.3125 v 25.375 l -13.65625,13.65625 c -1.5,1.5 -2.34375,3.53516 -2.34375,5.65625 v 8 h 16 v -4.6875 l 6.76172,-6.75391 9.23828,13.83985 v 34.26562 l -8,8 V 312 h -16 v 41.75391 L 290.95703,359.14453 280.5,348.6875 V 344 h -16 v 8 c 0,2.12109 0.84375,4.15625 2.34375,5.65625 L 279.34766,370.16016 274.73047,384 H 259.8125 L 248.5,372.6875 V 203.3125 Z M 144.5,282.39844 l 9.23828,-13.86328 6.76172,6.7539 V 280 h 16 v -8 c 0,-2.12109 -0.84375,-4.15625 -2.34375,-5.65625 L 160.5,252.6875 v -25.375 L 171.8125,216 h 17.375 L 200.5,227.3125 V 232 h 16 v -8 c 0,-2.12109 -0.84375,-4.15625 -2.34375,-5.65625 L 201.65234,205.83984 206.26953,192 H 221.1875 L 232.5,203.3125 v 169.375 L 221.1875,384 h -14.91797 l -4.61719,-13.83984 12.50391,-12.50391 c 1.5,-1.5 2.34375,-3.53516 2.34375,-5.65625 v -8 h -16 v 4.6875 L 190.04297,359.14453 168.5,353.75391 V 312 h -16 v 12.6875 l -8,-8 z m 0,0"
         id="path990"
         style="fill:#0000ff" />
      <path
         d="m 214.15625,277.65625 c 1.5,-1.5 2.34375,-3.53516 2.34375,-5.65625 v -24 h -16 v 20.6875 l -13.65625,13.65625 11.3125,11.3125 z m 0,0"
         id="path992"
         style="fill:#0000ff" />
      <path
         d="m 200.5,323.3125 5.65625,-5.65625 -11.3125,-11.3125 -8,8 c -1.5,1.5 -2.34375,3.53516 -2.34375,5.65625 v 16 h 16 z m 0,0"
         id="path994"
         style="fill:#0000ff" />
    </g>
  </g>
</svg>
