<?xml version="1.0" encoding="UTF-8" standalone="no"?>
<!-- Created with Inkscape (http://www.inkscape.org/) -->

<svg
   width="20"
   height="20"
   viewBox="0 0 5.2916664 5.2916664"
   version="1.1"
   id="svg8"
   inkscape:version="1.1.1 (3bf5ae0d25, 2021-09-20)"
   sodipodi:docname="brain_settings.svg"
   inkscape:export-filename="/home/yeison/Development/piton/art/icon_lite.png"
   inkscape:export-xdpi="96"
   inkscape:export-ydpi="96"
   xmlns:inkscape="http://www.inkscape.org/namespaces/inkscape"
   xmlns:sodipodi="http://sodipodi.sourceforge.net/DTD/sodipodi-0.dtd"
   xmlns="http://www.w3.org/2000/svg"
   xmlns:svg="http://www.w3.org/2000/svg"
   xmlns:rdf="http://www.w3.org/1999/02/22-rdf-syntax-ns#"
   xmlns:cc="http://creativecommons.org/ns#"
   xmlns:dc="http://purl.org/dc/elements/1.1/">
  <sodipodi:namedview
     id="base"
     pagecolor="#ffffff"
     bordercolor="#666666"
     borderopacity="1.0"
     inkscape:pageopacity="0.0"
     inkscape:pageshadow="2"
     inkscape:zoom="18.099334"
     inkscape:cx="4.8896826"
     inkscape:cy="12.901027"
     inkscape:document-units="px"
     inkscape:current-layer="layer1"
     showgrid="true"
     inkscape:window-width="1920"
     inkscape:window-height="1006"
     inkscape:window-x="0"
     inkscape:window-y="0"
     inkscape:window-maximized="1"
     inkscape:showpageshadow="false"
     units="px"
     inkscape:pagecheckerboard="false"
     showguides="true"
     inkscape:snap-bbox="true"
     inkscape:bbox-paths="true"
     inkscape:bbox-nodes="true"
     inkscape:snap-bbox-edge-midpoints="true"
     inkscape:snap-bbox-midpoints="true"
     inkscape:snap-nodes="true"
     inkscape:object-paths="true"
     inkscape:snap-intersection-paths="true"
     inkscape:snap-smooth-nodes="true"
     inkscape:snap-midpoints="true"
     inkscape:snap-global="true"
     fit-margin-top="0"
     fit-margin-left="0"
     fit-margin-right="0"
     fit-margin-bottom="0"
     inkscape:guide-bbox="true">
    <inkscape:grid
       type="xygrid"
       id="grid974"
       empspacing="8"
       spacingx="0.26458332"
       spacingy="0.26458332"
       dotted="false"
       visible="true"
       enabled="true"
       snapvisiblegridlinesonly="true"
       originx="0"
       originy="0" />
  </sodipodi:namedview>
  <metadata
     id="metadata5">
    <rdf:RDF>
      <cc:Work
         rdf:about="">
        <dc:format>image/svg+xml</dc:format>
        <dc:type
           rdf:resource="http://purl.org/dc/dcmitype/StillImage" />
      </cc:Work>
    </rdf:RDF>
  </metadata>
  <defs
     id="defs2" />
  <g
     inkscape:label="Layer 1"
     inkscape:groupmode="layer"
     id="layer1"
     transform="translate(0,-291.70835)">
    <g
       id="g847"
       transform="matrix(0.05207439,0,0,0.05207453,-0.90125164,282.41203)">
      <g
         id="g851">
        <g
           id="g1059"
           transform="matrix(1.9986219,0,0,1.9986185,17.324484,-313.52314)">
          <path
             inkscape:transform-center-y="3.175"
             style="opacity:1;fill:none;fill-opacity:0.49382719;stroke:#000000;stroke-width:0.07000433;stroke-linecap:round;stroke-linejoin:round;stroke-miterlimit:4;stroke-dasharray:none;stroke-dashoffset:0;stroke-opacity:1;paint-order:stroke fill markers"
             d="M 25.399999,271.60002 -8.0000008e-7,246.20002 H 50.799999 Z"
             id="path883"
             inkscape:connector-curvature="0"
             sodipodi:nodetypes="cccc" />
          <path
             sodipodi:nodetypes="cccc"
             inkscape:connector-curvature="0"
             id="path880"
             d="m 25.399999,271.60002 25.399999,25.4 H 0 Z"
             inkscape:transform-center-y="-3.1749995"
             style="opacity:1;fill:none;fill-opacity:0.49382719;stroke:#000000;stroke-width:0.07000433;stroke-linecap:round;stroke-linejoin:round;stroke-miterlimit:4;stroke-dasharray:none;stroke-dashoffset:0;stroke-opacity:1;paint-order:stroke fill markers" />
          <rect
             ry="5.0534658"
             y="253.84885"
             x="7.6487389"
             height="35.528759"
             width="35.528786"
             id="rect870"
             style="opacity:1;fill:none;fill-opacity:0.49382719;stroke:#000000;stroke-width:0.06184419;stroke-linecap:round;stroke-linejoin:round;stroke-miterlimit:4;stroke-dasharray:none;stroke-dashoffset:0;stroke-opacity:1;paint-order:stroke fill markers" />
          <circle
             r="25.396828"
             cy="271.60001"
             cx="25.4"
             id="path872"
             style="opacity:1;fill:none;fill-opacity:0.49382719;stroke:#000000;stroke-width:0.07635882;stroke-linecap:round;stroke-linejoin:round;stroke-miterlimit:4;stroke-dasharray:none;stroke-dashoffset:0;stroke-opacity:1;paint-order:stroke fill markers" />
          <circle
             transform="rotate(-45)"
             cx="-174.08969"
             cy="210.01071"
             r="12.656071"
             id="path876"
             style="opacity:1;fill:none;fill-opacity:0.49382719;stroke:#000000;stroke-width:0.07399406;stroke-linecap:round;stroke-linejoin:round;stroke-miterlimit:4;stroke-dasharray:none;stroke-dashoffset:0;stroke-opacity:1;paint-order:stroke fill markers" />
          <path
             inkscape:transform-center-x="-3.1749999"
             sodipodi:nodetypes="cccc"
             inkscape:connector-curvature="0"
             id="path904"
             d="m 25.4,271.60002 -25.40000040000004,25.4 v -50.8 z"
             style="opacity:1;fill:none;fill-opacity:0.49382719;stroke:#000000;stroke-width:0.07000433;stroke-linecap:round;stroke-linejoin:round;stroke-miterlimit:4;stroke-dasharray:none;stroke-dashoffset:0;stroke-opacity:1;paint-order:stroke fill markers" />
          <path
             inkscape:transform-center-x="3.175"
             style="opacity:1;fill:none;fill-opacity:0.49382719;stroke:#000000;stroke-width:0.07000433;stroke-linecap:round;stroke-linejoin:round;stroke-miterlimit:4;stroke-dasharray:none;stroke-dashoffset:0;stroke-opacity:1;paint-order:stroke fill markers"
             d="m 25.399999,271.60002 25.4,-25.4 v 50.8 z"
             id="path906"
             inkscape:connector-curvature="0"
             sodipodi:nodetypes="cccc" />
          <rect
             ry="5.0514922"
             y="256.39301"
             x="2.5663135"
             height="30.440479"
             width="45.693634"
             id="rect837"
             style="opacity:1;fill:none;fill-opacity:0.49382719;stroke:#000000;stroke-width:0.0657438;stroke-linecap:round;stroke-linejoin:round;stroke-miterlimit:4;stroke-dasharray:none;stroke-dashoffset:0;stroke-opacity:1;paint-order:stroke fill markers" />
          <rect
             style="opacity:1;fill:none;fill-opacity:0.49382719;stroke:#000000;stroke-width:0.0657438;stroke-linecap:round;stroke-linejoin:round;stroke-miterlimit:4;stroke-dasharray:none;stroke-dashoffset:0;stroke-opacity:1;paint-order:stroke fill markers"
             id="rect831"
             width="45.693588"
             height="30.44051"
             x="248.76645"
             y="-40.633385"
             ry="5.051497"
             transform="rotate(90)" />
        </g>
      </g>
    </g>
    <path
       style="opacity:1;fill:#ffc107;fill-opacity:1;stroke:none;stroke-width:0.38596651;stroke-miterlimit:4;stroke-dasharray:none;stroke-opacity:1"
       d="m 50.206421,401.67683 c 110.217209,0.71279 55.108609,0.3564 0,0 z"
       id="rect997"
       inkscape:connector-curvature="0" />
    <path
       style="fill:#0000ff;stroke-width:0.0103868"
       d="m 2.161428,297.00073 -0.022181,-0.0107 -0.011532,-0.0223 -0.011532,-0.0223 -0.033857,-0.27379 -0.033857,-0.27379 -0.1100516,-0.0392 -0.1100515,-0.0392 -0.1006236,-0.0483 -0.1006238,-0.0483 -0.012183,0.008 -0.012183,0.008 -0.210331,0.1634 -0.2103312,0.16339 -0.019716,0.006 -0.019716,0.006 -0.019639,-0.007 -0.019639,-0.007 -0.33059551,-0.32842 -0.3305955,-0.32842 -0.00984,-0.0248 -0.00984,-0.0248 0.00628,-0.0198 0.00628,-0.0198 0.1633918,-0.21033 0.1633919,-0.21033 0.00702,-0.0114 0.00702,-0.0114 -0.048032,-0.10249 -0.048032,-0.10248 -0.038979,-0.10902 -0.03898,-0.109 -0.2737908,-0.0338 -0.2737911,-0.0338 -0.022223,-0.0115 -0.022223,-0.0115 -0.011534,-0.0253 -0.011534,-0.0254 v -0.45604 -0.45605 l 0.011534,-0.0254 0.011534,-0.0254 0.022223,-0.0115 0.022223,-0.0115 0.2737911,-0.0338 0.2737908,-0.0338 0.03898,-0.10901 0.038979,-0.10901 0.048032,-0.10249 0.048032,-0.10249 -0.00702,-0.0114 -0.00702,-0.0114 -0.1633919,-0.21033 -0.1633918,-0.21033 -0.00626,-0.0198 -0.00626,-0.0198 0.00679,-0.0197 0.00679,-0.0197 0.328421,-0.33059 0.32842061,-0.3306 0.024743,-0.01 0.024743,-0.01 0.019806,0.006 0.019806,0.006 0.2103311,0.1634 0.210331,0.16339 0.012183,0.008 0.012183,0.008 0.1006237,-0.0483 0.1006235,-0.0483 0.1100517,-0.0392 0.1100515,-0.0392 0.033856,-0.27379 0.033857,-0.27379 0.011483,-0.0222 0.011483,-0.0222 0.025315,-0.0115 0.025315,-0.0115 h 0.4560539 0.456043 l 0.025312,0.0115 0.025312,0.0115 0.011481,0.0222 0.011481,0.0222 0.033854,0.27379 0.033854,0.27379 0.1090061,0.0389 0.1090072,0.039 0.102489,0.0481 0.1024899,0.0481 0.011363,-0.007 0.011363,-0.007 0.2103313,-0.16339 0.2103303,-0.16339 0.019807,-0.006 0.019807,-0.006 0.028153,0.0107 0.028153,0.0107 0.3212425,0.32144 0.3212424,0.32144 0.010587,0.0278 0.010587,0.0278 -0.00629,0.0199 -0.00629,0.0198 -0.1633917,0.21033 -0.1633918,0.21033 -0.00698,0.0114 -0.00698,0.0114 0.048029,0.10248 0.048029,0.1025 0.038975,0.109 0.038985,0.10901 0.2737908,0.0338 0.2737908,0.0338 0.022225,0.0115 0.022225,0.0115 0.01153,0.0254 0.01153,0.0253 v 0.45605 0.45604 l -0.01153,0.0254 -0.01153,0.0254 -0.022225,0.0115 -0.022225,0.0115 -0.2737908,0.0338 -0.2737908,0.0338 -0.038985,0.10902 -0.038975,0.109 -0.048029,0.10249 -0.048029,0.10249 0.00698,0.0113 0.00698,0.0114 0.1633918,0.21034 0.1633917,0.21033 0.00629,0.0198 0.00629,0.0197 -0.01042,0.0274 -0.01042,0.0274 -0.3209751,0.32172 -0.3209761,0.32171 -0.028585,0.0109 -0.028585,0.0109 -0.019807,-0.006 -0.019807,-0.006 -0.2103313,-0.16338 -0.2103313,-0.16339 -0.011363,-0.007 -0.011363,-0.007 -0.102489,0.0481 -0.1024899,0.0481 -0.1090062,0.039 -0.1090062,0.0389 -0.033854,0.27379 -0.033854,0.27379 -0.011481,0.0222 -0.011481,0.0222 -0.025312,0.0115 -0.025312,0.0115 -0.4591287,-7e-4 -0.4591288,-7e-4 -0.022181,-0.0107 z m 0.8518711,-0.193 0.0056,-0.0285 0.026993,-0.22333 0.026993,-0.22331 0.010626,-0.0338 0.010626,-0.0338 0.01735,-0.009 0.01735,-0.009 0.1350287,-0.0447 0.1350288,-0.0447 0.1295731,-0.0656 0.1295722,-0.0655 h 0.022972 0.022972 l 0.213933,0.16618 0.213932,0.1662 h 0.00737 0.00737 l 0.2519588,-0.2518 0.2519587,-0.25181 v -0.008 -0.008 L 4.4843141,295.62534 4.3181248,295.4114 v -0.0236 -0.0236 l 0.066007,-0.1307 0.066007,-0.1307 0.044215,-0.1333 0.044215,-0.13329 0.00944,-0.0178 0.00944,-0.0178 0.038779,-0.0106 0.038779,-0.0106 0.2181234,-0.0262 0.2181234,-0.0263 0.028566,-0.006 0.028566,-0.006 v -0.36188 -0.36189 l -0.028566,-0.006 -0.028566,-0.006 -0.2181234,-0.0263 -0.2181234,-0.0262 -0.038779,-0.0106 -0.038779,-0.0106 -0.00934,-0.0178 -0.00934,-0.0178 -0.043035,-0.12983 -0.043035,-0.12984 -0.067226,-0.13547 -0.067226,-0.13547 v -0.0222 -0.0222 l 0.1661943,-0.21399 0.1661893,-0.21394 v -0.01 -0.01 l -0.2494275,-0.24978 -0.2494286,-0.24978 h -0.010773 -0.010773 l -0.213468,0.16619 -0.213468,0.16618 h -0.022559 -0.022559 l -0.1295732,-0.0655 -0.1295731,-0.0656 -0.1350287,-0.0447 -0.1350288,-0.0447 -0.01735,-0.009 -0.01735,-0.009 -0.010626,-0.0338 -0.010626,-0.0338 -0.026993,-0.22332 -0.026993,-0.22332 -0.0056,-0.0285 -0.0056,-0.0286 H 2.6458189 2.2839306 l -0.00558,0.0286 -0.00558,0.0285 -0.026993,0.22332 -0.026993,0.22332 -0.010624,0.0338 -0.010624,0.0338 -0.017346,0.009 -0.017346,0.009 -0.1332959,0.0442 -0.1332958,0.0442 -0.1306979,0.066 -0.1306978,0.0661 h -0.023589 -0.023579 l -0.2139323,-0.16618 -0.2139324,-0.16619 h -0.00737 -0.00737 l -0.25195851,0.2518 -0.2519586,0.2518 v 0.008 0.008 l 0.1661893,0.21393 0.1661892,0.21393 v 0.023 0.023 l -0.065519,0.12957 -0.065519,0.12958 -0.044699,0.13502 -0.044699,0.13504 -0.00915,0.0174 -0.00915,0.0173 -0.033836,0.0106 -0.033837,0.0106 -0.223317,0.027 -0.2233167,0.0269 -0.028564,0.006 -0.028564,0.006 v 0.36189 0.36189 l 0.028564,0.006 0.028564,0.006 0.2233167,0.027 0.223317,0.027 0.033837,0.0106 0.033836,0.0106 0.0091,0.0173 0.0091,0.0174 0.043032,0.12985 0.043032,0.12983 0.067229,0.13546 0.067229,0.13548 v 0.0222 0.0222 l -0.1661893,0.21394 -0.1661893,0.21392 v 0.008 0.007 l 0.2518011,0.25196 0.25180121,0.25196 h 0.0084 0.0084 l 0.2134683,-0.1662 0.2134686,-0.16618 h 0.023169 0.023169 l 0.1306979,0.0661 0.1306978,0.066 0.1332959,0.0442 0.133296,0.0442 0.017346,0.009 0.017346,0.009 0.010623,0.0338 0.010624,0.0338 0.026993,0.22332 0.026993,0.22332 0.00558,0.0285 0.00558,0.0286 h 0.3618884 0.3618882 z m -0.450571,-0.41287 v -0.0883 h 0.083095 0.083095 v 0.0883 0.0883 h -0.083095 -0.083095 z m -0.041548,-0.45301 -0.1090618,-0.008 -0.083095,-0.0171 -0.083095,-0.0171 -0.105307,-0.035 -0.1053072,-0.035 -0.1024295,-0.0518 -0.1024296,-0.0518 -0.074371,-0.0501 -0.074372,-0.0501 -0.083102,-0.0711 -0.083103,-0.0711 -0.071036,-0.0831 -0.071036,-0.0831 -0.050152,-0.0744 -0.050152,-0.0744 -0.051795,-0.10243 -0.051796,-0.10243 -0.034972,-0.10531 -0.034972,-0.1053 -0.016962,-0.0831 -0.016962,-0.0831 -0.00788,-0.11686 -0.00788,-0.11685 0.00788,-0.11685 0.00788,-0.11685 0.016962,-0.0831 0.016962,-0.0831 0.034972,-0.10531 0.034972,-0.10531 0.051427,-0.10248 0.051427,-0.10247 0.05052,-0.0742 0.050521,-0.0742 0.071036,-0.0832 0.071036,-0.0832 0.083103,-0.0711 0.083102,-0.0711 0.074372,-0.0501 0.074371,-0.0501 0.1024296,-0.0518 0.1024295,-0.0518 0.1053072,-0.035 0.105307,-0.035 0.083095,-0.017 0.083095,-0.0169 0.116852,-0.008 0.1168519,-0.008 0.1168516,0.008 0.1168524,0.008 0.1032793,0.0224 0.1032793,0.0224 0.088882,0.0314 0.088881,0.0313 0.088292,0.0444 0.088292,0.0444 0.093482,0.0618 0.093482,0.0618 0.076919,0.0694 0.076919,0.0694 0.061771,0.0698 0.061771,0.0698 0.065988,0.099 0.065988,0.099 0.051735,0.10877 0.051735,0.10876 0.030649,0.10388 0.030649,0.10387 0.017497,0.10275 0.017497,0.10275 1.543e-4,0.14795 1.533e-4,0.14796 -0.012051,0.0817 -0.012051,0.0817 -0.02021,0.0805 -0.02021,0.0805 -0.027071,0.0753 -0.027071,0.0753 -0.049798,0.0987 -0.049798,0.0987 -0.050152,0.0744 -0.050152,0.0744 -0.07104,0.0831 -0.07104,0.0831 -0.08317,0.0711 -0.08317,0.0711 -0.074255,0.0505 -0.074255,0.0505 -0.098725,0.0494 -0.098725,0.0494 -0.075326,0.027 -0.075326,0.027 -0.080477,0.0203 -0.080477,0.0202 -0.083092,0.0106 -0.083092,0.0106 -0.077902,0.004 -0.077902,0.004 -0.1090618,-0.008 z m 0.3687323,-0.19251 0.093482,-0.0152 0.1053671,-0.0351 0.1053662,-0.0351 0.091988,-0.0463 0.091978,-0.0463 0.088292,-0.0632 0.088292,-0.0632 0.089226,-0.0886 0.089225,-0.0886 0.058901,-0.0818 0.058901,-0.0818 0.051243,-0.0973 0.051243,-0.0973 0.036321,-0.10906 0.036321,-0.10907 0.017202,-0.0987 0.017202,-0.0987 -3.716e-4,-0.14542 -3.716e-4,-0.14542 -0.016681,-0.0935 -0.016681,-0.0935 -0.03525,-0.10543 -0.03525,-0.10545 -0.043556,-0.0866 -0.043556,-0.0866 -0.049592,-0.0727 -0.049592,-0.0727 -0.055499,-0.0647 -0.055499,-0.0647 -0.070696,-0.0626 -0.070696,-0.0626 -0.074884,-0.0505 -0.074884,-0.0505 -0.093325,-0.0468 -0.093325,-0.0468 -0.1015463,-0.0324 -0.1015463,-0.0324 -0.095802,-0.0168 -0.095802,-0.0168 -0.1402222,1.1e-4 -0.1402221,1.1e-4 -0.098675,0.0173 -0.098675,0.0173 -0.1054402,0.0351 -0.1054399,0.0351 -0.086633,0.0435 -0.086634,0.0435 -0.07279,0.0496 -0.07279,0.0496 -0.06531,0.0558 -0.06531,0.0558 -0.063005,0.0723 -0.063006,0.0724 -0.049528,0.0728 -0.049528,0.0728 -0.046806,0.0933 -0.046806,0.0933 -0.032355,0.10118 -0.032355,0.10118 -0.016315,0.091 -0.016315,0.091 v 0.1506 0.15062 l 0.016315,0.091 0.016315,0.091 0.032355,0.10118 0.032355,0.10118 0.046806,0.0933 0.046806,0.0933 0.049517,0.0728 0.049518,0.0728 0.058724,0.0675 0.058724,0.0675 0.069602,0.0608 0.069602,0.0608 0.07279,0.0494 0.07279,0.0494 0.083012,0.0417 0.083012,0.0418 0.088288,0.0312 0.088288,0.0311 0.079309,0.0176 0.079309,0.0176 0.092074,0.008 0.092074,0.008 0.093481,-0.005 0.093482,-0.005 0.093482,-0.0152 z m -0.8122292,-0.53383 -0.05399,-0.0213 -0.054034,-0.0486 -0.054034,-0.0486 -0.029593,-0.0625 -0.029593,-0.0625 -6.041e-4,-0.0207 -6.042e-4,-0.0207 -0.051125,-0.0389 -0.051125,-0.0389 -0.031281,-0.0546 -0.031281,-0.0546 -9.36e-5,-0.0175 -9.35e-5,-0.0175 -0.076966,-0.0371 -0.076967,-0.0371 -0.042136,-0.0479 -0.042136,-0.0479 -0.021119,-0.0564 -0.02112,-0.0564 v -0.0722 -0.0722 l 0.019995,-0.0526 0.019995,-0.0526 0.037548,-0.0458 0.037548,-0.0458 0.030746,-0.0182 0.030746,-0.0182 v -0.064 -0.064 l 0.015299,-0.0434 0.015298,-0.0433 0.032929,-0.0458 0.032929,-0.0458 0.038757,-0.0268 0.038757,-0.0268 0.049381,-0.0188 0.049381,-0.0188 0.012548,-0.0365 0.012548,-0.0365 0.022869,-0.037 0.022869,-0.037 0.038079,-0.0334 0.038078,-0.0334 0.057602,-0.0267 0.057602,-0.0267 h 0.083095 0.083095 l 0.059169,0.0274 0.059169,0.0274 0.045244,0.0452 0.045244,0.0452 0.025423,0.0517 0.025423,0.0517 0.00289,0.66099 0.00289,0.66099 -0.021626,0.0578 -0.021626,0.0578 -0.046675,0.0519 -0.046674,0.0519 -0.058108,0.0284 -0.058108,0.0284 -0.084219,0.003 -0.084218,0.003 -0.05399,-0.0213 z m 0.2229165,-0.18295 0.028424,-0.021 0.02337,-0.0343 0.02337,-0.0343 v -0.62805 -0.62806 l -0.021326,-0.0379 -0.021326,-0.0379 -0.033204,-0.0219 -0.033204,-0.0219 -0.035163,-0.007 -0.035163,-0.007 -0.04211,0.0113 -0.04211,0.0113 -0.034385,0.0344 -0.034385,0.0344 v 0.01 0.01 l 0.038914,0.0141 0.038913,0.0141 0.06328,0.0633 0.06328,0.0633 0.016746,0.0519 0.016746,0.0519 0.00686,0.0389 0.00686,0.0389 h -0.088211 -0.088211 l -0.011263,-0.0441 -0.011262,-0.0441 -0.026656,-0.0285 -0.026657,-0.0285 -0.032527,-0.0168 -0.032527,-0.0168 -0.055859,0.005 -0.055859,0.005 -0.028133,0.0208 -0.028133,0.0208 -0.02337,0.0343 -0.02337,0.0343 v 0.0514 0.0514 l 0.016897,0.0356 0.016897,0.0356 0.026848,0.0211 0.026848,0.0211 0.044542,0.0119 0.044541,0.0119 v 0.0873 0.0873 l -0.049337,-0.007 -0.049337,-0.007 -0.051934,-0.0235 -0.051934,-0.0235 -0.041438,-0.0391 -0.041438,-0.0391 -0.014746,0.009 -0.014743,0.009 -0.019123,0.0357 -0.019123,0.0357 v 0.05 0.05 l 0.015373,0.0297 0.015373,0.0297 0.027576,0.0217 0.027576,0.0217 h 0.00806 0.00806 l 0.021891,-0.0441 0.021891,-0.0441 0.015182,-0.0199 0.015182,-0.0199 0.059931,0.0556 0.059932,0.0556 0.00378,0.003 0.00378,0.003 -0.021963,0.0454 -0.021963,0.0454 v 0.0282 0.0282 l 0.015051,0.0361 0.01505,0.036 0.00832,-4.6e-4 0.00832,-4.6e-4 0.029543,-0.0427 0.029543,-0.0427 0.061115,0.0612 0.061115,0.0612 -0.026954,0.0544 -0.026953,0.0544 0.00704,0.0469 0.00704,0.0469 0.027492,0.0326 0.027492,0.0326 0.031603,0.0199 0.031603,0.0199 0.059864,-0.004 0.059864,-0.004 z m 0.6809682,0.18921 -0.043369,-0.0136 -0.036823,-0.0227 -0.036823,-0.0227 -0.041502,-0.0472 -0.041502,-0.0472 -0.021341,-0.057 -0.021341,-0.057 0.00285,-0.66117 0.00285,-0.66118 0.023424,-0.0476 0.023425,-0.0475 0.036744,-0.043 0.036744,-0.043 0.069458,-0.0342 0.069458,-0.0342 0.083308,2.3e-4 0.083318,2.4e-4 0.057603,0.0267 0.057603,0.0267 0.038081,0.0334 0.038081,0.0334 0.022874,0.037 0.022874,0.0371 0.012543,0.0365 0.012543,0.0365 0.049385,0.0188 0.049385,0.0188 0.038759,0.0268 0.038759,0.0268 0.03293,0.0458 0.03293,0.0458 0.015295,0.0434 0.015295,0.0433 v 0.064 0.064 l 0.030748,0.0182 0.030748,0.0182 0.03755,0.0458 0.03755,0.0458 0.019994,0.0526 0.019994,0.0526 v 0.0722 0.0722 l -0.021124,0.0564 -0.021124,0.0564 -0.042141,0.0479 -0.042131,0.0479 -0.076968,0.0371 -0.076968,0.0371 -9.33e-5,0.0174 -9.34e-5,0.0175 -0.031279,0.0546 -0.031279,0.0546 -0.051125,0.0389 -0.051125,0.0389 -6.045e-4,0.0207 -6.046e-4,0.0207 -0.029588,0.0625 -0.029598,0.0625 -0.053995,0.0486 -0.053995,0.0486 -0.057013,0.0213 -0.057013,0.0213 -0.064523,-7e-4 -0.064523,-7e-4 -0.043369,-0.0136 z m 0.1825698,-0.17667 0.029106,-0.015 0.031996,-0.0365 0.031996,-0.0365 0.00708,-0.0474 0.00708,-0.0474 -0.026953,-0.0543 -0.026953,-0.0544 0.061112,-0.0612 0.061112,-0.0612 0.029539,0.0427 0.029539,0.0427 0.00836,4.6e-4 0.00836,4.7e-4 0.015049,-0.0361 0.015049,-0.036 v -0.0282 -0.0282 l -0.02196,-0.0454 -0.02196,-0.0453 0.00383,-0.003 0.00374,-0.003 0.059933,-0.0556 0.059933,-0.0556 0.015177,0.0199 0.015177,0.0199 0.021891,0.0441 0.021891,0.0441 h 0.00806 0.00806 l 0.028625,-0.0225 0.028625,-0.0225 0.014322,-0.0343 0.014322,-0.0343 v -0.0446 -0.0446 l -0.019119,-0.0357 -0.019119,-0.0357 -0.014745,-0.009 -0.014745,-0.009 -0.041443,0.0391 -0.041433,0.0391 -0.051931,0.0235 -0.051931,0.0235 -0.049336,0.007 -0.049336,0.007 v -0.0873 -0.0873 l 0.044539,-0.0119 0.044539,-0.0119 0.026845,-0.0211 0.026845,-0.0211 0.016898,-0.0356 0.016897,-0.0356 v -0.0514 -0.0514 l -0.023366,-0.0343 -0.023375,-0.0343 -0.028133,-0.0208 -0.028133,-0.0208 -0.05659,-0.005 -0.05659,-0.005 -0.040096,0.0225 -0.040096,0.0225 -0.023002,0.0336 -0.023002,0.0336 -0.00668,0.0334 -0.00668,0.0334 h -0.088144 -0.088144 l 0.00688,-0.0389 0.00688,-0.0389 0.01675,-0.0519 0.01675,-0.0519 0.063275,-0.0633 0.063285,-0.0633 0.038916,-0.0141 0.038916,-0.014 v -0.01 -0.01 l -0.034385,-0.0344 -0.034385,-0.0344 -0.042111,-0.0113 -0.042111,-0.0113 -0.035161,0.007 -0.035161,0.007 -0.031554,0.0189 -0.031554,0.0189 -0.022972,0.0409 -0.022972,0.0409 v 0.62491 0.62491 l 0.014597,0.028 0.014597,0.028 0.024358,0.0227 0.024358,0.0227 0.025961,0.0103 0.025961,0.0103 0.044657,6.9e-4 0.044657,7e-4 0.029106,-0.015 z m -2.0244208,0.80963 -0.056433,-0.0571 0.061766,-0.0624 0.061766,-0.0624 0.062306,0.0623 0.062305,0.0623 -0.056542,0.0572 -0.056542,0.0572 h -0.011098 -0.011098 z m 2.8846203,-0.003 -0.059412,-0.0601 0.062321,-0.0616 0.062321,-0.0616 0.057141,0.0564 0.057141,0.0564 v 0.0111 0.0111 l -0.05486,0.0542 -0.05486,0.0542 h -0.00521 -0.00521 z m -3.50781541,-1.49799 v -0.0831 h 0.088288 0.088288 v 0.0831 0.0831 h -0.088288 -0.088288 z m 4.08202421,0 v -0.0831 H 4.686838 4.77513 v 0.0831 0.0831 H 4.686848 4.598556 Z m -3.4534961,-1.38132 -0.061766,-0.0624 0.056433,-0.0571 0.056433,-0.0571 h 0.011098 0.011098 l 0.056542,0.0572 0.056542,0.0572 -0.062306,0.0623 -0.062306,0.0623 z m 2.8770421,-1.1e-4 -0.061653,-0.0623 0.056433,-0.0571 0.056433,-0.0571 h 0.011098 0.011098 l 0.054172,0.0548 0.054172,0.0548 v 0.0104 0.0104 l -0.05486,0.0542 -0.05486,0.0542 h -0.00521 -0.00521 z m -1.4593644,-0.65958 v -0.0883 h 0.083095 0.083095 v 0.0883 0.0883 h -0.083095 -0.083095 z"
       id="path1334" />
  </g>
</svg>
