<?xml version="1.0" encoding="UTF-8" standalone="no"?>
<svg
   viewBox="0 0 22 22"
   version="1.1"
   id="svg6"
   sodipodi:docname="gtk-convert.svg"
   inkscape:version="1.1 (c4e8f9ed74, 2021-05-24)"
   xmlns:inkscape="http://www.inkscape.org/namespaces/inkscape"
   xmlns:sodipodi="http://sodipodi.sourceforge.net/DTD/sodipodi-0.dtd"
   xmlns="http://www.w3.org/2000/svg"
   xmlns:svg="http://www.w3.org/2000/svg">
  <sodipodi:namedview
     id="namedview8"
     pagecolor="#ffffff"
     bordercolor="#111111"
     borderopacity="1"
     inkscape:pageshadow="0"
     inkscape:pageopacity="0"
     inkscape:pagecheckerboard="1"
     showgrid="false"
     inkscape:zoom="37.5"
     inkscape:cx="10.986667"
     inkscape:cy="11"
     inkscape:window-width="1920"
     inkscape:window-height="1006"
     inkscape:window-x="0"
     inkscape:window-y="0"
     inkscape:window-maximized="1"
     inkscape:current-layer="svg6" />
  <defs
     id="defs3051">
    <style
       type="text/css"
       id="current-color-scheme">
      .ColorScheme-Text {
        color:#232629;
      }
      </style>
  </defs>
  <path
     style="color:#232629;fill:#0000ff;-inkscape-stroke:none"
     d="M 11,3 A 7.9999981,8.000001 0 0 0 3.2597656,9 H 4.2949219 A 7,7 0 0 1 11,4 7,7 0 0 1 17.308594,8 h -3.609375 v 1 h 4.001953 0.998047 V 8.8867188 8 4 h -1 V 6.65625 A 7.9999981,8.000001 0 0 0 11,3 Z M 3.3007812,13 V 13.113281 14 18 h 1 V 15.34375 A 7.9999981,8.000001 0 0 0 11,19 7.9999981,8.000001 0 0 0 18.740234,13 H 17.705078 A 7,7 0 0 1 11,18 7,7 0 0 1 4.6914062,14 h 3.609375 v -1 h -4 -0.00195 z"
     id="path4" />
</svg>
