<?xml version="1.0" encoding="UTF-8" standalone="no"?>
<svg
   xmlns:dc="http://purl.org/dc/elements/1.1/"
   xmlns:cc="http://creativecommons.org/ns#"
   xmlns:rdf="http://www.w3.org/1999/02/22-rdf-syntax-ns#"
   xmlns:svg="http://www.w3.org/2000/svg"
   xmlns="http://www.w3.org/2000/svg"
   xmlns:sodipodi="http://sodipodi.sourceforge.net/DTD/sodipodi-0.dtd"
   xmlns:inkscape="http://www.inkscape.org/namespaces/inkscape"
   width="20"
   height="20"
   viewBox="0 0 5.2916664 5.2916664"
   version="1.1"
   id="svg8"
   inkscape:version="1.0.2 (e86c870879, 2021-01-15)"
   sodipodi:docname="latency.svg"
   inkscape:export-filename="/home/yeison/Development/piton/art/icon_lite.png"
   inkscape:export-xdpi="96"
   inkscape:export-ydpi="96">
  <defs
     id="defs2">
    <clipPath
       id="clipPath20"
       clipPathUnits="userSpaceOnUse">
      <path
         inkscape:connector-curvature="0"
         id="path18"
         d="M 0,708 V 5000 H 4292 V 708 Z" />
    </clipPath>
    <clipPath
       id="clipPath32"
       clipPathUnits="userSpaceOnUse">
      <path
         inkscape:connector-curvature="0"
         id="path30"
         d="m 4276,0 v 5000 h 724 V 0 Z" />
    </clipPath>
    <clipPath
       id="clipPath44"
       clipPathUnits="userSpaceOnUse">
      <path
         inkscape:connector-curvature="0"
         id="path42"
         d="M 0,724 H 4292 V 0 H 0 Z" />
    </clipPath>
  </defs>
  <sodipodi:namedview
     id="base"
     pagecolor="#ffffff"
     bordercolor="#666666"
     borderopacity="1.0"
     inkscape:pageopacity="0.0"
     inkscape:pageshadow="2"
     inkscape:zoom="12.738669"
     inkscape:cx="-6.9168426"
     inkscape:cy="-4.0284703"
     inkscape:document-units="px"
     inkscape:current-layer="layer1"
     showgrid="true"
     inkscape:window-width="1920"
     inkscape:window-height="1004"
     inkscape:window-x="0"
     inkscape:window-y="0"
     inkscape:window-maximized="1"
     inkscape:showpageshadow="false"
     units="px"
     inkscape:pagecheckerboard="false"
     showguides="true"
     inkscape:snap-bbox="true"
     inkscape:bbox-paths="true"
     inkscape:bbox-nodes="true"
     inkscape:snap-bbox-edge-midpoints="true"
     inkscape:snap-bbox-midpoints="true"
     inkscape:snap-nodes="true"
     inkscape:object-paths="true"
     inkscape:snap-intersection-paths="true"
     inkscape:snap-smooth-nodes="true"
     inkscape:snap-midpoints="true"
     inkscape:snap-global="true"
     fit-margin-top="0"
     fit-margin-left="0"
     fit-margin-right="0"
     fit-margin-bottom="0"
     inkscape:guide-bbox="true"
     inkscape:document-rotation="0">
    <inkscape:grid
       type="xygrid"
       id="grid974"
       empspacing="8"
       spacingx="0.26458332"
       spacingy="0.26458332"
       dotted="false"
       visible="true"
       enabled="true"
       snapvisiblegridlinesonly="true"
       originx="0"
       originy="0" />
  </sodipodi:namedview>
  <metadata
     id="metadata5">
    <rdf:RDF>
      <cc:Work
         rdf:about="">
        <dc:format>image/svg+xml</dc:format>
        <dc:type
           rdf:resource="http://purl.org/dc/dcmitype/StillImage" />
        <dc:title></dc:title>
      </cc:Work>
    </rdf:RDF>
  </metadata>
  <g
     inkscape:label="Layer 1"
     inkscape:groupmode="layer"
     id="layer1"
     transform="translate(0,-291.70835)">
    <g
       id="g847"
       transform="matrix(0.05207439,0,0,0.05207453,-0.90125164,282.41203)">
      <g
         id="g851">
        <g
           id="g1059"
           transform="matrix(1.9986219,0,0,1.9986185,17.324484,-313.52314)">
          <path
             inkscape:transform-center-y="3.175"
             style="opacity:1;fill:none;fill-opacity:0.49382719;stroke:#000000;stroke-width:0.07000433;stroke-linecap:round;stroke-linejoin:round;stroke-miterlimit:4;stroke-dasharray:none;stroke-dashoffset:0;stroke-opacity:1;paint-order:stroke fill markers"
             d="M 25.399999,271.60002 -8.0000008e-7,246.20002 H 50.799999 Z"
             id="path883"
             inkscape:connector-curvature="0"
             sodipodi:nodetypes="cccc" />
          <path
             sodipodi:nodetypes="cccc"
             inkscape:connector-curvature="0"
             id="path880"
             d="m 25.399999,271.60002 25.399999,25.4 H 0 Z"
             inkscape:transform-center-y="-3.1749995"
             style="opacity:1;fill:none;fill-opacity:0.49382719;stroke:#000000;stroke-width:0.07000433;stroke-linecap:round;stroke-linejoin:round;stroke-miterlimit:4;stroke-dasharray:none;stroke-dashoffset:0;stroke-opacity:1;paint-order:stroke fill markers" />
          <rect
             ry="5.0534658"
             y="253.84885"
             x="7.6487389"
             height="35.528759"
             width="35.528786"
             id="rect870"
             style="opacity:1;fill:none;fill-opacity:0.49382719;stroke:#000000;stroke-width:0.06184419;stroke-linecap:round;stroke-linejoin:round;stroke-miterlimit:4;stroke-dasharray:none;stroke-dashoffset:0;stroke-opacity:1;paint-order:stroke fill markers" />
          <circle
             r="25.396828"
             cy="271.60001"
             cx="25.4"
             id="path872"
             style="opacity:1;fill:none;fill-opacity:0.49382719;stroke:#000000;stroke-width:0.07635882;stroke-linecap:round;stroke-linejoin:round;stroke-miterlimit:4;stroke-dasharray:none;stroke-dashoffset:0;stroke-opacity:1;paint-order:stroke fill markers" />
          <circle
             transform="rotate(-45)"
             cx="-174.08969"
             cy="210.01071"
             r="12.656071"
             id="path876"
             style="opacity:1;fill:none;fill-opacity:0.49382719;stroke:#000000;stroke-width:0.07399406;stroke-linecap:round;stroke-linejoin:round;stroke-miterlimit:4;stroke-dasharray:none;stroke-dashoffset:0;stroke-opacity:1;paint-order:stroke fill markers" />
          <path
             inkscape:transform-center-x="-3.1749999"
             sodipodi:nodetypes="cccc"
             inkscape:connector-curvature="0"
             id="path904"
             d="m 25.4,271.60002 -25.40000040000004,25.4 v -50.8 z"
             style="opacity:1;fill:none;fill-opacity:0.49382719;stroke:#000000;stroke-width:0.07000433;stroke-linecap:round;stroke-linejoin:round;stroke-miterlimit:4;stroke-dasharray:none;stroke-dashoffset:0;stroke-opacity:1;paint-order:stroke fill markers" />
          <path
             inkscape:transform-center-x="3.175"
             style="opacity:1;fill:none;fill-opacity:0.49382719;stroke:#000000;stroke-width:0.07000433;stroke-linecap:round;stroke-linejoin:round;stroke-miterlimit:4;stroke-dasharray:none;stroke-dashoffset:0;stroke-opacity:1;paint-order:stroke fill markers"
             d="m 25.399999,271.60002 25.4,-25.4 v 50.8 z"
             id="path906"
             inkscape:connector-curvature="0"
             sodipodi:nodetypes="cccc" />
          <rect
             ry="5.0514922"
             y="256.39301"
             x="2.5663135"
             height="30.440479"
             width="45.693634"
             id="rect837"
             style="opacity:1;fill:none;fill-opacity:0.49382719;stroke:#000000;stroke-width:0.0657438;stroke-linecap:round;stroke-linejoin:round;stroke-miterlimit:4;stroke-dasharray:none;stroke-dashoffset:0;stroke-opacity:1;paint-order:stroke fill markers" />
          <rect
             style="opacity:1;fill:none;fill-opacity:0.49382719;stroke:#000000;stroke-width:0.0657438;stroke-linecap:round;stroke-linejoin:round;stroke-miterlimit:4;stroke-dasharray:none;stroke-dashoffset:0;stroke-opacity:1;paint-order:stroke fill markers"
             id="rect831"
             width="45.693588"
             height="30.44051"
             x="248.76645"
             y="-40.633385"
             ry="5.051497"
             transform="rotate(90)" />
        </g>
      </g>
    </g>
    <path
       style="opacity:1;fill:#ffc107;fill-opacity:1;stroke:none;stroke-width:0.38596651;stroke-miterlimit:4;stroke-dasharray:none;stroke-opacity:1"
       d="m 50.206421,401.67683 c 110.217209,0.71279 55.108609,0.3564 0,0 z"
       id="rect997"
       inkscape:connector-curvature="0" />
    <g
       id="g873"
       transform="matrix(0.01001857,0,0,0.01001857,0.48047826,291.97293)"
       style="fill:#0000ff">
      <path
         d="M 234.69531,22.496094 245.89453,11.296875 234.56641,0 l -24,24 c -3.125,3.125 -3.125,8.1875 0,11.3125 l 24,24 11.3125,-11.3125 -9.3125,-9.3125 c 101.5664,10.332031 179.05078,95.50391 179.7539,197.59375 0.70313,102.08984 -75.59375,188.32031 -177.01172,200.05469 l 1.82422,15.89453 C 351.21875,439.37891 433.71094,345.29297 432.05859,234.47266 430.41016,123.65234 345.15234,32.066406 234.73437,22.496094 Z m 0,0"
         id="path844"
         style="fill:#0000ff" />
      <path
         d="m 198.11719,415.76172 -11.3125,11.30859 9.60156,9.60156 C 94.730469,426.60156 16.996094,341.51562 16.125,239.34766 15.257812,137.17969 91.535156,50.78125 193.02344,38.984375 L 191.17969,23.097656 C 81.042969,35.929688 -1.484375,130.07422 0.210938,240.94531 1.902344,351.8125 87.273438,443.39453 197.75,452.85547 l -11.19922,11.19922 11.3125,11.3125 24.23828,-24.23828 c 3.125,-3.125 3.125,-8.1875 0,-11.3125 z m 0,0"
         id="path846"
         style="fill:#0000ff" />
      <path
         d="m 263.8125,344.18359 6.60937,-19.83203 27.74219,-6.9375 c 3.5625,-0.89062 6.0586,-4.08984 6.0586,-7.75781 v -12.6875 l 21.65625,-21.65625 c 1.5,-1.5 2.34375,-3.53516 2.34375,-5.65625 v -40 c -0.004,-1.58203 -0.47266,-3.125 -1.34375,-4.44141 l -14.65625,-21.95703 v -29.60156 c 0,-2.12109 -0.84375,-4.15625 -2.34375,-5.65625 l -16,-16 c -1.5,-1.5 -3.53516,-2.34375 -5.65625,-2.34375 h -18.23438 l -6.17578,-18.52734 c -1.08594,-3.26953 -4.14453,-5.47266 -7.58984,-5.47266 h -24 c -2.1211,0 -4.15625,0.84375 -5.65625,2.34375 L 216.22266,138.34375 205.87891,128 c -1.5,-1.5 -3.53516,-2.34375 -5.65625,-2.34375 h -24 c -3.44532,0 -6.50391,2.20313 -7.59375,5.47266 l -6.17578,18.52734 h -18.23047 c -2.1211,0 -4.15625,0.84375 -5.65625,2.34375 l -16,16 c -1.5,1.5 -2.34375,3.53516 -2.34375,5.65625 v 29.60156 l -14.65625,21.98047 c -0.8711,1.3125 -1.33594,2.84766 -1.34375,4.41797 v 40 c 0,2.12109 0.84375,4.15625 2.34375,5.65625 l 21.65625,21.65625 v 12.6875 c 0,3.66797 2.49609,6.86719 6.05468,7.75781 l 27.7461,6.9375 6.60547,19.83203 c 1.08984,3.26953 4.14843,5.47266 7.59375,5.47266 h 24 c 2.12109,0 4.15625,-0.84375 5.65625,-2.34375 l 10.34375,-10.34375 10.34375,10.34375 c 1.5,1.5 3.53515,2.34375 5.65625,2.34375 h 24 c 3.44531,0 6.5039,-2.20313 7.58984,-5.47266 z M 196.91016,333.65625 H 181.98828 L 177.375,319.81641 189.87891,307.3125 c 1.5,-1.5 2.34375,-3.53516 2.34375,-5.65625 v -8 h -16 v 4.6875 l -10.45704,10.45703 -21.54296,-5.39453 v -41.75 h -16 v 12.6875 l -8,-8 v -34.28906 l 9.23828,-13.86328 6.76172,6.7539 v 4.71094 h 16 v -8 c 0,-2.12109 -0.84375,-4.15625 -2.34375,-5.65625 l -13.65625,-13.65625 v -25.375 l 11.3125,-11.3125 h 17.375 l 11.3125,11.3125 v 4.6875 h 16 v -8 c 0,-2.12109 -0.84375,-4.15625 -2.34375,-5.65625 l -12.50391,-12.50391 4.61328,-13.83984 h 14.92188 l 11.3125,11.3125 v 169.375 z m 38.625,0 -11.3125,-11.3125 v -169.375 l 11.3125,-11.3125 h 14.91796 l 4.61719,13.83984 L 242.56641,168 c -1.5,1.5 -2.34375,3.53516 -2.34375,5.65625 v 8 h 16 v -4.6875 l 11.3125,-11.3125 h 17.375 l 11.3125,11.3125 v 25.375 L 282.56641,216 c -1.5,1.5 -2.34375,3.53516 -2.34375,5.65625 v 8 h 16 v -4.6875 l 6.75781,-6.75391 9.24219,13.83985 v 34.26562 l -8,8 v -12.66406 h -16 v 41.75 l -21.54688,5.39453 -10.45312,-10.45703 v -4.6875 h -16 v 8 c 0,2.12109 0.84375,4.15625 2.34375,5.65625 l 12.5039,12.50391 -4.61718,13.83984 z m 0,0"
         id="path848"
         style="fill:#0000ff" />
      <path
         d="M 258.56641,243.3125 269.87891,232 256.22266,218.34375 v -20.6875 h -16 v 24 c 0,2.12109 0.84375,4.15625 2.34375,5.65625 z m 0,0"
         id="path850"
         style="fill:#0000ff" />
      <path
         d="m 261.87891,256 -11.3125,11.3125 5.65625,5.65625 v 12.6875 h 16 v -16 c 0,-2.12109 -0.84375,-4.15625 -2.34375,-5.65625 z m 0,0"
         id="path852"
         style="fill:#0000ff" />
      <path
         d="M 176.22266,218.34375 162.56641,232 l 11.3125,11.3125 16,-16 c 1.5,-1.5 2.34375,-3.53516 2.34375,-5.65625 v -24 h -16 z m 0,0"
         id="path854"
         style="fill:#0000ff" />
      <path
         d="m 162.56641,264 c -1.5,1.5 -2.34375,3.53516 -2.34375,5.65625 v 16 h 16 v -12.6875 L 181.87891,267.3125 170.56641,256 Z m 0,0"
         id="path856"
         style="fill:#0000ff" />
    </g>
  </g>
</svg>
