<?xml version="1.0" encoding="UTF-8" standalone="no"?>
<svg
   xmlns:dc="http://purl.org/dc/elements/1.1/"
   xmlns:cc="http://creativecommons.org/ns#"
   xmlns:rdf="http://www.w3.org/1999/02/22-rdf-syntax-ns#"
   xmlns:svg="http://www.w3.org/2000/svg"
   xmlns="http://www.w3.org/2000/svg"
   xmlns:sodipodi="http://sodipodi.sourceforge.net/DTD/sodipodi-0.dtd"
   xmlns:inkscape="http://www.inkscape.org/namespaces/inkscape"
   width="20"
   height="20"
   viewBox="0 0 5.2916664 5.2916664"
   version="1.1"
   id="svg8"
   inkscape:version="1.0.2 (e86c870879, 2021-01-15)"
   sodipodi:docname="latency2.svg"
   inkscape:export-filename="/home/yeison/Development/piton/art/icon_lite.png"
   inkscape:export-xdpi="96"
   inkscape:export-ydpi="96">
  <defs
     id="defs2">
    <clipPath
       id="clipPath20"
       clipPathUnits="userSpaceOnUse">
      <path
         inkscape:connector-curvature="0"
         id="path18"
         d="M 0,708 V 5000 H 4292 V 708 Z" />
    </clipPath>
    <clipPath
       id="clipPath32"
       clipPathUnits="userSpaceOnUse">
      <path
         inkscape:connector-curvature="0"
         id="path30"
         d="m 4276,0 v 5000 h 724 V 0 Z" />
    </clipPath>
    <clipPath
       id="clipPath44"
       clipPathUnits="userSpaceOnUse">
      <path
         inkscape:connector-curvature="0"
         id="path42"
         d="M 0,724 H 4292 V 0 H 0 Z" />
    </clipPath>
  </defs>
  <sodipodi:namedview
     id="base"
     pagecolor="#ffffff"
     bordercolor="#666666"
     borderopacity="1.0"
     inkscape:pageopacity="0.0"
     inkscape:pageshadow="2"
     inkscape:zoom="16.565429"
     inkscape:cx="11.739092"
     inkscape:cy="4.9799966"
     inkscape:document-units="px"
     inkscape:current-layer="layer1"
     showgrid="true"
     inkscape:window-width="1920"
     inkscape:window-height="1004"
     inkscape:window-x="0"
     inkscape:window-y="0"
     inkscape:window-maximized="1"
     inkscape:showpageshadow="false"
     units="px"
     inkscape:pagecheckerboard="false"
     showguides="true"
     inkscape:snap-bbox="true"
     inkscape:bbox-paths="true"
     inkscape:bbox-nodes="true"
     inkscape:snap-bbox-edge-midpoints="true"
     inkscape:snap-bbox-midpoints="true"
     inkscape:snap-nodes="true"
     inkscape:object-paths="true"
     inkscape:snap-intersection-paths="true"
     inkscape:snap-smooth-nodes="true"
     inkscape:snap-midpoints="true"
     inkscape:snap-global="true"
     fit-margin-top="0"
     fit-margin-left="0"
     fit-margin-right="0"
     fit-margin-bottom="0"
     inkscape:guide-bbox="true"
     inkscape:document-rotation="0">
    <inkscape:grid
       type="xygrid"
       id="grid974"
       empspacing="8"
       spacingx="0.26458332"
       spacingy="0.26458332"
       dotted="false"
       visible="true"
       enabled="true"
       snapvisiblegridlinesonly="true"
       originx="0"
       originy="0" />
  </sodipodi:namedview>
  <metadata
     id="metadata5">
    <rdf:RDF>
      <cc:Work
         rdf:about="">
        <dc:format>image/svg+xml</dc:format>
        <dc:type
           rdf:resource="http://purl.org/dc/dcmitype/StillImage" />
        <dc:title></dc:title>
      </cc:Work>
    </rdf:RDF>
  </metadata>
  <g
     inkscape:label="Layer 1"
     inkscape:groupmode="layer"
     id="layer1"
     transform="translate(0,-291.70835)">
    <g
       id="g847"
       transform="matrix(0.05207439,0,0,0.05207453,-0.90125164,282.41203)">
      <g
         id="g851">
        <g
           id="g1059"
           transform="matrix(1.9986219,0,0,1.9986185,17.324484,-313.52314)">
          <path
             inkscape:transform-center-y="3.175"
             style="opacity:1;fill:none;fill-opacity:0.49382719;stroke:#000000;stroke-width:0.07000433;stroke-linecap:round;stroke-linejoin:round;stroke-miterlimit:4;stroke-dasharray:none;stroke-dashoffset:0;stroke-opacity:1;paint-order:stroke fill markers"
             d="M 25.399999,271.60002 -8.0000008e-7,246.20002 H 50.799999 Z"
             id="path883"
             inkscape:connector-curvature="0"
             sodipodi:nodetypes="cccc" />
          <path
             sodipodi:nodetypes="cccc"
             inkscape:connector-curvature="0"
             id="path880"
             d="m 25.399999,271.60002 25.399999,25.4 H 0 Z"
             inkscape:transform-center-y="-3.1749995"
             style="opacity:1;fill:none;fill-opacity:0.49382719;stroke:#000000;stroke-width:0.07000433;stroke-linecap:round;stroke-linejoin:round;stroke-miterlimit:4;stroke-dasharray:none;stroke-dashoffset:0;stroke-opacity:1;paint-order:stroke fill markers" />
          <rect
             ry="5.0534658"
             y="253.84885"
             x="7.6487389"
             height="35.528759"
             width="35.528786"
             id="rect870"
             style="opacity:1;fill:none;fill-opacity:0.49382719;stroke:#000000;stroke-width:0.06184419;stroke-linecap:round;stroke-linejoin:round;stroke-miterlimit:4;stroke-dasharray:none;stroke-dashoffset:0;stroke-opacity:1;paint-order:stroke fill markers" />
          <circle
             r="25.396828"
             cy="271.60001"
             cx="25.4"
             id="path872"
             style="opacity:1;fill:none;fill-opacity:0.49382719;stroke:#000000;stroke-width:0.07635882;stroke-linecap:round;stroke-linejoin:round;stroke-miterlimit:4;stroke-dasharray:none;stroke-dashoffset:0;stroke-opacity:1;paint-order:stroke fill markers" />
          <circle
             transform="rotate(-45)"
             cx="-174.08969"
             cy="210.01071"
             r="12.656071"
             id="path876"
             style="opacity:1;fill:none;fill-opacity:0.49382719;stroke:#000000;stroke-width:0.07399406;stroke-linecap:round;stroke-linejoin:round;stroke-miterlimit:4;stroke-dasharray:none;stroke-dashoffset:0;stroke-opacity:1;paint-order:stroke fill markers" />
          <path
             inkscape:transform-center-x="-3.1749999"
             sodipodi:nodetypes="cccc"
             inkscape:connector-curvature="0"
             id="path904"
             d="m 25.4,271.60002 -25.40000040000004,25.4 v -50.8 z"
             style="opacity:1;fill:none;fill-opacity:0.49382719;stroke:#000000;stroke-width:0.07000433;stroke-linecap:round;stroke-linejoin:round;stroke-miterlimit:4;stroke-dasharray:none;stroke-dashoffset:0;stroke-opacity:1;paint-order:stroke fill markers" />
          <path
             inkscape:transform-center-x="3.175"
             style="opacity:1;fill:none;fill-opacity:0.49382719;stroke:#000000;stroke-width:0.07000433;stroke-linecap:round;stroke-linejoin:round;stroke-miterlimit:4;stroke-dasharray:none;stroke-dashoffset:0;stroke-opacity:1;paint-order:stroke fill markers"
             d="m 25.399999,271.60002 25.4,-25.4 v 50.8 z"
             id="path906"
             inkscape:connector-curvature="0"
             sodipodi:nodetypes="cccc" />
          <rect
             ry="5.0514922"
             y="256.39301"
             x="2.5663135"
             height="30.440479"
             width="45.693634"
             id="rect837"
             style="opacity:1;fill:none;fill-opacity:0.49382719;stroke:#000000;stroke-width:0.0657438;stroke-linecap:round;stroke-linejoin:round;stroke-miterlimit:4;stroke-dasharray:none;stroke-dashoffset:0;stroke-opacity:1;paint-order:stroke fill markers" />
          <rect
             style="opacity:1;fill:none;fill-opacity:0.49382719;stroke:#000000;stroke-width:0.0657438;stroke-linecap:round;stroke-linejoin:round;stroke-miterlimit:4;stroke-dasharray:none;stroke-dashoffset:0;stroke-opacity:1;paint-order:stroke fill markers"
             id="rect831"
             width="45.693588"
             height="30.44051"
             x="248.76645"
             y="-40.633385"
             ry="5.051497"
             transform="rotate(90)" />
        </g>
      </g>
    </g>
    <path
       style="opacity:1;fill:#ffc107;fill-opacity:1;stroke:none;stroke-width:0.38596651;stroke-miterlimit:4;stroke-dasharray:none;stroke-opacity:1"
       d="m 50.206421,401.67683 c 110.217209,0.71279 55.108609,0.3564 0,0 z"
       id="rect997"
       inkscape:connector-curvature="0" />
    <g
       id="g920"
       transform="matrix(0.00993166,0,0,0.00993166,0.26465242,291.973)"
       style="fill:#0000ff">
      <path
         d="m 239.50391,463.50391 c -123.71094,0 -224.000004,-100.28907 -224.000004,-224 0,-123.71094 100.289064,-224.000004 224.000004,-224.000004 123.71093,0 224,100.289064 224,224.000004 0,12.94921 -1.11328,25.87109 -3.32032,38.63281 l 15.76953,2.73437 C 494.01562,177.11328 442.24609,73.710938 348.35156,26.007812 254.45312,-21.699219 140.41797,-2.542969 67.265625,73.230469 -5.886719,149 -21.023438,263.64062 29.957031,355.80078 80.9375,447.96094 186.08984,496.05859 289.15234,474.35937 l -3.29687,-15.65625 c -15.24219,3.19532 -30.77735,4.80469 -46.35156,4.80079 z m 0,0"
         id="path858"
         style="fill:#0000ff" />
      <path
         d="m 446.02344,264.44922 c 0.98047,-8.28125 1.47656,-16.60938 1.48047,-24.94531 C 447.45312,153.16406 394.03906,75.84375 313.30859,45.242188 232.57422,14.636719 141.32812,37.125 84.058594,101.73438 26.789062,166.34375 15.417969,259.62891 55.488281,336.10547 95.5625,412.58203 178.73437,456.32812 264.45703,446.01562 l -1.90625,-15.8789 c -7.64844,0.91015 -15.34375,1.36328 -23.04687,1.36719 -106.03907,0 -192.000004,-85.96094 -192.000004,-192 0,-106.03907 85.960934,-192.000004 192.000004,-192.000004 106.03906,0 192,85.960934 192,192.000004 -0.004,7.70703 -0.46094,15.40234 -1.36719,23.05468 z m 0,0"
         id="path860"
         style="fill:#0000ff" />
      <path
         d="m 279.50391,239.50391 c -0.0352,-12.52344 -5.96485,-24.30079 -16,-31.79297 v -88.20703 c 0,-13.25391 -10.7461,-24.000004 -24,-24.000004 -13.25391,0 -24,10.746094 -24,24.000004 v 88.20703 c -2.94532,2.22656 -5.56641,4.84765 -7.79297,7.79297 h -64.20703 c -13.25391,0 -24,10.74609 -24,24 0.0664,13.22656 10.77343,23.93359 24,24 h 64.20703 c 10.29687,13.76953 28.26172,19.39062 44.5664,13.9375 16.3086,-5.44922 27.28125,-20.74219 27.22657,-37.9375 z m -48,-120 c 0,-4.41797 3.58203,-8 8,-8 4.41796,0 8,3.58203 8,8 v 80.80078 c -5.28125,-1.07813 -10.72266,-1.07813 -16,0 z m -88,128 c -2.15625,0.004 -4.22266,-0.87891 -5.70313,-2.44922 -1.48437,-1.46485 -2.3125,-3.46485 -2.29687,-5.55078 0,-4.41797 3.58203,-8 8,-8 h 56.80078 c -1.07813,5.27734 -1.07813,10.72265 0,16 z m 96,16 c -13.25391,0 -24,-10.7461 -24,-24 0,-13.25391 10.74609,-24 24,-24 13.2539,0 24,10.74609 24,24 0,13.2539 -10.7461,24 -24,24 z m 0,0"
         id="path862"
         style="fill:#0000ff" />
      <path
         d="m 231.50391,63.503906 h 16 v 16 h -16 z m 0,0"
         id="path864"
         style="fill:#0000ff" />
      <path
         d="m 144.57422,91.074219 13.85937,-7.996094 7.9961,13.855469 -13.85547,7.999996 z m 0,0"
         id="path866"
         style="fill:#0000ff" />
      <path
         d="m 83.078125,158.4375 8,-13.85938 13.855465,8 -7.99609,13.85547 z m 0,0"
         id="path868"
         style="fill:#0000ff" />
      <path
         d="m 63.503906,231.50391 h 16 v 16 h -16 z m 0,0"
         id="path870"
         style="fill:#0000ff" />
      <path
         d="m 83.078125,320.57812 13.855469,-8 7.999996,13.85938 -13.855465,7.99609 z m 0,0"
         id="path872-3"
         style="fill:#0000ff" />
      <path
         d="m 144.57422,387.92578 8,-13.85547 13.85547,7.9961 -7.9961,13.85937 z m 0,0"
         id="path874"
         style="fill:#0000ff" />
      <path
         d="m 231.50391,399.50391 h 16 v 16 h -16 z m 0,0"
         id="path876-6"
         style="fill:#0000ff" />
      <path
         d="m 399.50391,231.50391 h 16 v 16 h -16 z m 0,0"
         id="path878"
         style="fill:#0000ff" />
      <path
         d="m 374.0625,152.57812 13.85937,-8 7.9961,13.85547 -13.85547,8 z m 0,0"
         id="path880-7"
         style="fill:#0000ff" />
      <path
         d="m 312.57422,96.941406 8,-13.859375 13.85547,8 -8,13.859379 z m 0,0"
         id="path882"
         style="fill:#0000ff" />
      <path
         d="m 463.50391,333.10547 v -29.60156 c 0,-2.1211 -0.84375,-4.15625 -2.34375,-5.65625 l -16,-16 c -1.5,-1.5 -3.53516,-2.34375 -5.65625,-2.34375 h -18.23047 l -6.1875,-18.52735 c -1.08594,-3.26562 -4.14063,-5.46875 -7.58203,-5.47265 h -24 c -2.1211,0 -4.15625,0.84375 -5.65625,2.34375 l -10.34375,10.34375 -10.34375,-10.34375 c -1.5,-1.5 -3.53516,-2.34375 -5.65625,-2.34375 h -24 c -3.44141,0.004 -6.4961,2.20703 -7.58594,5.47265 l -6.1836,18.52735 h -18.23046 c -2.1211,0 -4.15625,0.84375 -5.65625,2.34375 l -16,16 c -1.5,1.5 -2.34375,3.53515 -2.34375,5.65625 v 29.60156 l -14.65625,21.98047 c -0.8711,1.3125 -1.33594,2.84765 -1.34375,4.41797 v 40 c 0,2.12109 0.84375,4.15625 2.34375,5.65625 l 21.65625,21.65625 v 12.6875 c 0,3.67187 2.5,6.87109 6.0625,7.75781 l 27.73828,6.9375 6.61328,19.83203 c 1.08984,3.26562 4.14453,5.46875 7.58594,5.47266 h 24 c 2.12109,0 4.15625,-0.84375 5.65625,-2.34375 l 10.34375,-10.34375 10.34375,10.34375 c 1.5,1.5 3.53515,2.34375 5.65625,2.34375 h 24 c 3.4414,-0.004 6.49609,-2.20704 7.58203,-5.47266 l 6.61718,-19.83203 27.73829,-6.9375 c 3.5625,-0.88672 6.0625,-4.08594 6.0625,-7.75781 v -12.6875 l 21.65625,-21.65625 c 1.5,-1.5 2.34375,-3.53516 2.34375,-5.65625 v -40 c -0.004,-1.58204 -0.46875,-3.125 -1.34375,-4.44141 z m -115.3125,130.39844 h -14.91797 l -4.61719,-13.83985 12.50391,-12.5039 c 1.5,-1.5 2.34375,-3.53516 2.34375,-5.65625 v -8 h -16 v 4.6875 l -10.45704,10.45703 -21.54296,-5.39453 v -41.75 h -16 v 12.6875 l -8,-8 v -34.28907 l 9.23828,-13.86328 6.76172,6.75391 v 4.71094 h 16 v -8 c 0,-2.1211 -0.84375,-4.15625 -2.34375,-5.65625 l -13.65625,-13.65625 v -25.375 l 11.3125,-11.3125 h 17.375 l 11.3125,11.3125 v 4.6875 h 16 v -8 c 0,-2.1211 -0.84375,-4.15625 -2.34375,-5.65625 l -12.50391,-12.50391 4.61719,-13.83984 h 14.91797 l 11.3125,11.3125 v 169.375 z m 115.3125,-67.3125 -8,8 v -12.6875 h -16 v 41.75 l -21.54297,5.39453 -10.45703,-10.45703 v -4.6875 h -16 v 8 c 0,2.12109 0.84375,4.15625 2.34375,5.65625 l 12.5039,12.5039 -4.61719,13.83985 h -14.91796 l -11.3125,-11.3125 v -169.375 l 11.3125,-11.3125 h 14.91796 l 4.61719,13.83984 -12.5039,12.50391 c -1.5,1.5 -2.34375,3.53515 -2.34375,5.65625 v 8 h 16 v -4.6875 l 11.3125,-11.3125 h 17.375 l 11.3125,11.3125 v 25.375 l -13.65625,13.65625 c -1.5,1.5 -2.34375,3.53515 -2.34375,5.65625 v 8 h 16 v -4.6875 l 6.75781,-6.75391 9.24219,13.83984 z m 0,0"
         id="path884"
         style="fill:#0000ff" />
      <path
         d="m 421.16016,361.84766 -13.65625,-13.65625 v -20.6875 h -16 v 24 c 0,2.12109 0.84375,4.15625 2.34375,5.65625 l 16,16 z m 0,0"
         id="path886"
         style="fill:#0000ff" />
      <path
         d="m 413.16016,385.84766 -11.3125,11.3125 5.65625,5.65625 v 12.6875 h 16 v -16 c 0,-2.1211 -0.84375,-4.15625 -2.34375,-5.65625 z m 0,0"
         id="path888"
         style="fill:#0000ff" />
      <path
         d="m 327.50391,348.19141 -13.65625,13.65625 11.3125,11.3125 16,-16 c 1.5,-1.5 2.34375,-3.53516 2.34375,-5.65625 v -24 h -16 z m 0,0"
         id="path890"
         style="fill:#0000ff" />
      <path
         d="m 313.84766,393.84766 c -1.5,1.5 -2.34375,3.53515 -2.34375,5.65625 v 16 h 16 v -12.6875 l 5.65625,-5.65625 -11.3125,-11.3125 z m 0,0"
         id="path892"
         style="fill:#0000ff" />
    </g>
  </g>
</svg>
