<?xml version="1.0" encoding="UTF-8" standalone="no"?>
<svg
   width="593.29224"
   height="199.99925"
   viewBox="0 0 156.97524 52.91647"
   version="1.1"
   id="svg8"
   inkscape:version="1.1 (c4e8f9ed74, 2021-05-24)"
   sodipodi:docname="banner.svg"
   inkscape:export-filename="/home/yeison/Development/gcpds/Software_Tesis/bci-framework/assets/banner.png"
   inkscape:export-xdpi="96"
   inkscape:export-ydpi="96"
   xmlns:inkscape="http://www.inkscape.org/namespaces/inkscape"
   xmlns:sodipodi="http://sodipodi.sourceforge.net/DTD/sodipodi-0.dtd"
   xmlns="http://www.w3.org/2000/svg"
   xmlns:svg="http://www.w3.org/2000/svg"
   xmlns:rdf="http://www.w3.org/1999/02/22-rdf-syntax-ns#"
   xmlns:cc="http://creativecommons.org/ns#"
   xmlns:dc="http://purl.org/dc/elements/1.1/">
  <defs
     id="defs2" />
  <sodipodi:namedview
     id="base"
     pagecolor="#ffffff"
     bordercolor="#666666"
     borderopacity="1.0"
     inkscape:pageopacity="0.0"
     inkscape:pageshadow="2"
     inkscape:zoom="1.3555795"
     inkscape:cx="284.01137"
     inkscape:cy="184.79181"
     inkscape:document-units="px"
     inkscape:current-layer="g898"
     showgrid="false"
     inkscape:window-width="1920"
     inkscape:window-height="1006"
     inkscape:window-x="0"
     inkscape:window-y="0"
     inkscape:window-maximized="1"
     units="px"
     inkscape:showpageshadow="false"
     showguides="true"
     inkscape:snap-bbox="true"
     inkscape:bbox-paths="true"
     inkscape:bbox-nodes="true"
     inkscape:snap-bbox-midpoints="true"
     inkscape:snap-bbox-edge-midpoints="true"
     inkscape:object-paths="true"
     inkscape:snap-intersection-paths="true"
     inkscape:snap-midpoints="true"
     inkscape:snap-smooth-nodes="true"
     inkscape:snap-object-midpoints="true"
     inkscape:snap-center="true"
     fit-margin-top="0"
     fit-margin-left="0"
     fit-margin-right="0"
     fit-margin-bottom="0"
     inkscape:snap-global="false"
     inkscape:document-rotation="0"
     inkscape:pagecheckerboard="1" />
  <metadata
     id="metadata5">
    <rdf:RDF>
      <cc:Work
         rdf:about="">
        <dc:format>image/svg+xml</dc:format>
        <dc:type
           rdf:resource="http://purl.org/dc/dcmitype/StillImage" />
      </cc:Work>
    </rdf:RDF>
  </metadata>
  <g
     inkscape:label="Capa 1"
     inkscape:groupmode="layer"
     id="layer1"
     transform="translate(306.11268,-2102.3288)">
    <circle
       cy="139.7252"
       cx="-591.70111"
       id="circle1545"
       style="opacity:0.673;fill:#aaaaff;fill-opacity:0.30137;stroke:#000000;stroke-width:0.304049;stroke-miterlimit:4;stroke-dasharray:none;stroke-opacity:1"
       r="0" />
    <circle
       r="0"
       style="opacity:0.673;fill:#aaaaff;fill-opacity:0.30137;stroke:#000000;stroke-width:0.304049;stroke-miterlimit:4;stroke-dasharray:none;stroke-opacity:1"
       id="ellipse1617"
       cx="-993.51282"
       cy="168.13614" />
    <circle
       r="0"
       cy="733.2077"
       cx="-958.14404"
       id="ellipse1906"
       style="opacity:0.673;fill:none;fill-opacity:0.30137;stroke:#000000;stroke-width:0.79375;stroke-miterlimit:4;stroke-dasharray:none;stroke-opacity:1" />
    <circle
       r="0"
       cy="582.33099"
       cx="-1500.9722"
       id="ellipse1926"
       style="opacity:0.673;fill:none;fill-opacity:0.30137;stroke:#000000;stroke-width:0.79375;stroke-miterlimit:4;stroke-dasharray:none;stroke-opacity:1" />
    <circle
       r="0"
       cy="255.9781"
       cx="-958.14404"
       id="ellipse1946"
       style="opacity:0.673;fill:none;fill-opacity:0.30137;stroke:#000000;stroke-width:0.79375;stroke-miterlimit:4;stroke-dasharray:none;stroke-opacity:1" />
    <g
       id="g898"
       transform="matrix(1.095339,0,0,1.0969885,30.338176,-203.7156)">
      <path
         id="rect857"
         style="opacity:1;fill:#58d3e4;fill-opacity:1;stroke:#58d3e4;stroke-width:0.548083;stroke-linecap:square;stroke-linejoin:round;stroke-miterlimit:4;stroke-dasharray:none;stroke-dashoffset:0;stroke-opacity:1;paint-order:fill markers stroke"
         d="M 77.341797,0.27539062 V 70.490234 c 24.700263,-10.94332 41.931673,-35.69887 41.931643,-64.4941402 0,-1.9275211 -0.0859,-3.8329847 -0.23828,-5.72070318 z m 42.796873,0 c 0.15028,1.88813308 0.23438,3.79318208 0.23438,5.72070318 3e-5,29.4033002 -17.71337,54.6676422 -43.031253,65.6835942 v 62.029292 c 13.026279,12.96671 21.093771,30.9227 21.09375,50.76368 0,5.2361 -0.574825,10.33787 -1.642578,15.2539 h 8.160151 c -4.24211,-7.67525 -6.664099,-16.5 -6.664058,-25.89258 -4.1e-5,-18.45594 9.911458,-33.93649 24.095708,-43.57617 -0.93379,-5.67932 -1.74805,-11.40813 -1.74805,-17.35156 0,-36.355891 18.24947,-68.378572 45.99219,-87.628906 -8.83563,-6.279681 -15.92176,-14.849403 -19.83008,-25.00195338 z m 27.83789,0 C 151.87027,10.15264 158.83099,18.481712 167.49609,24.564453 184.51077,13.02213 205.02398,6.2734375 227.11914,6.2734375 c 5.06525,0 9.9123,0.8033458 14.78906,1.4882813 1.37171,-2.4163461 2.60214,-4.9153327 3.67383,-7.48632818 z m 98.79688,0 c -1.06196,2.61204188 -2.28627,5.15115338 -3.65235,7.60937498 51.15075,7.7834704 90.47848,51.6226414 90.47852,105.0214844 0,5.6275 -0.81934,11.03769 -1.6582,16.42969 8.27865,-5.26057 17.53116,-9.09571 28.05859,-9.09571 27.69258,0 50.2147,21.15792 52.9668,48.16602 0.6228,-12.18124 3.00475,-23.88268 7.375,-34.64844 -25.7517,-10.82463 -43.85742,-36.295682 -43.85742,-66.013669 0,-7.589848 1.50294,-14.76575 3.68945,-21.63086 C 349.14042,42.125149 322.23812,24.924774 305.47461,0.27539062 Z m 60.0332,0 C 323.45692,24.389927 349.96185,41.176732 380.50391,45.042969 387.49589,24.227483 403.62575,7.6280812 424.17773,0.27539062 Z m 120.86133,0 C 406.0176,6.8672722 388.89178,23.724119 381.61133,45.158203 c 4.01861,0.465607 7.95423,1.22461 12.09765,1.224609 34.43258,0 64.7078,-16.780381 83.9375,-42.3535151 -3.13901,-1.4697918 -6.39505,-2.7285762 -9.75,-3.75390628 z m 43.66992,0 c 2.39288,0.85409628 4.73289,1.82352898 7.01172,2.90234378 0.70191,-0.9540172 1.37946,-1.925523 2.05078,-2.90234378 z m 10.39844,0 c -0.785,1.15966368 -1.59054,2.30390198 -2.41797,3.43164058 23.53537,11.5929048 39.87525,35.5433098 40.07226,63.5332028 12.37076,0.05805 24.07627,2.577007 35.10938,6.519532 -5.45067,-12.819736 -8.49023,-26.917409 -8.49023,-41.728516 0,-11.082935 1.70631,-21.743861 4.85546,-31.75585938 z m 70.26172,0 C 548.8224,10.282828 547.10156,20.945827 547.10156,32.03125 c 0,15.021314 3.2402,29.254456 8.88672,42.189453 26.86271,10.04724 48.5961,30.407167 60.15625,56.523437 1.38292,0.51121 2.8366,0.85614 4.24609,1.31055 9.03191,-6.97001 19.81746,-11.81446 32.09766,-11.81446 6.26897,0 12.14408,1.27049 17.59766,3.43555 V 29.611328 c -5.51032,1.922294 -11.43141,2.96875 -17.59571,2.96875 -21.99464,0 -40.89128,-13.301461 -49.11914,-32.30468738 z m 52.57617,0 c 8.15272,18.38670138 26.52911,31.21484338 47.91601,31.21484338 6.17512,0 12.09665,-1.07516 17.59571,-3.039062 V 0.27539062 Z M 478.61523,4.5546875 C 459.18909,30.467387 428.54942,47.474609 393.70898,47.474609 c -4.2566,0 -8.30348,-0.769107 -12.42968,-1.255859 -2.19835,6.825721 -3.69532,13.966224 -3.69532,21.525391 -4e-5,29.238283 17.77016,54.307339 43.08204,64.984379 C 436.66518,94.4281 474.31431,67.498766 518.29883,67.25 518.10425,39.586404 501.91803,15.921216 478.61523,4.5546875 Z M 227.11914,7.3652344 c -21.71263,0 -41.87035,6.6015846 -58.63672,17.8710936 8.31765,5.559918 17.74823,9.580078 28.50196,9.580078 19.10013,0 35.07252,-10.744411 44.23437,-26.0273435 -4.65764,-0.6302069 -9.26926,-1.4238281 -14.09961,-1.4238281 z m 15.30664,1.546875 c -9.29739,15.8468016 -25.76732,27.0039066 -45.4414,27.0039066 -11.11509,4.14e-4 -20.8595,-4.195398 -29.41602,-10.007813 -27.65094,19.021884 -45.83203,50.857753 -45.83203,86.998047 0,5.70586 0.80579,11.19584 1.67578,16.65625 8.34957,-5.3949 17.722,-9.32227 28.39453,-9.32227 29.54724,0 53.51176,24.00222 53.51172,53.59375 0,9.40916 -2.46005,18.22272 -6.73438,25.89258 h 87.85938 c 7.70735,-5.37873 14.68012,-11.75819 20.74805,-18.92968 -0.3018,-2.30399 -0.70317,-4.5764 -0.70313,-6.9629 0,-18.53596 9.98577,-34.0792 24.27344,-43.70312 0.92903,-5.63621 1.73828,-11.3243 1.73828,-17.22461 0,-53.043937 -39.18523,-96.516653 -90.07422,-103.9941406 z M 518.28516,68.34375 c -43.49176,0.257058 -80.73254,26.839545 -96.58594,64.68555 8.12829,3.28246 16.96028,5.1875 26.26367,5.1875 38.66699,0 69.98363,-31.2281 70.32227,-69.87305 z m 1.09961,0 c -0.32995,39.24572 -32.15722,70.98437 -71.42188,70.98437 -9.41546,0 -18.35287,-1.93324 -26.58594,-5.24804 -4.99822,12.28447 -7.86718,25.66878 -7.86718,39.7539 0,8.93609 1.12303,17.60661 3.21093,25.89258 h 189.20118 c -4.3833,-7.63462 -6.94336,-16.4146 -6.94336,-25.89258 0,-15.63618 6.93347,-29.40465 17.60351,-39.20312 -0.39991,-0.99797 -0.75055,-2.00524 -1.17969,-2.98828 -26.86055,-10.04392 -48.59519,-30.39456 -60.1582,-56.505861 -11.22615,-4.150659 -23.20596,-6.734924 -35.85937,-6.792969 z m 37.3457,7.240234 C 568.11406,100.63015 588.8935,120.30629 614.65625,130.26562 603.27477,105.21906 582.49131,85.5454 556.73047,75.583984 Z M 151.80664,121.31445 c -10.65671,0 -20.00278,3.97507 -28.27539,9.44336 4.89522,28.60767 21.18111,53.20002 44.08789,68.9668 h 29.75781 c 4.34653,-7.64375 6.84184,-16.47903 6.8418,-25.91016 8e-5,-28.99864 -23.45683,-52.5 -52.41211,-52.5 z m 208.19336,0 c -10.62529,0 -19.93744,3.95805 -28.19531,9.39649 -3.22268,19.07578 -11.5803,36.20823 -23.49024,50.4082 0.93764,6.68766 3.12928,12.96761 6.3125,18.60547 h 90.95703 c 4.34131,-7.64623 6.83399,-16.48359 6.83399,-25.91016 0,-28.99905 -23.4624,-52.5 -52.41797,-52.5 z m 292.48828,0 c -11.7457,0 -22.041,4.60301 -30.7793,11.13477 9.7972,3.01338 19.99479,5.11133 30.7793,5.11133 6.03937,0 11.89368,-0.65906 17.59766,-1.76758 v -10.92188 c -5.44031,-2.22902 -11.3082,-3.55664 -17.59766,-3.55664 z m -529.98242,10.13282 c -13.62723,9.47839 -23.11723,24.48672 -23.117188,42.36718 0,9.42657 2.492678,18.26393 6.833988,25.91016 h 59.41992 C 143.33016,183.8463 127.4578,159.57854 122.50586,131.44727 Z m 208.11719,0.0586 c -13.58153,9.48503 -23.03516,24.46574 -23.03516,42.31055 0,1.98059 0.36887,3.85982 0.58203,5.7832 11.22123,-13.65891 19.21803,-29.95499 22.45313,-48.09375 z m 286.25781,0.58203 c 0.25957,0.61031 0.3904,1.27801 0.63867,1.89453 0.52142,-0.45897 1.18356,-0.72694 1.72266,-1.16601 -0.78115,-0.25706 -1.58829,-0.45073 -2.36133,-0.72852 z m 3.66992,1.14258 c -0.85447,0.67457 -1.88896,1.0967 -2.69922,1.82226 4.70906,12.04276 7.51953,25.05087 7.51953,38.76368 0,8.96345 -1.20533,17.62181 -3.35156,25.9082 h 48.06641 v -62.81055 c -5.70539,1.09444 -11.56162,1.74024 -17.59766,1.74024 -11.20313,0 -21.79467,-2.21019 -31.9375,-5.42383 z m -543.208983,2.0332 v 64.46289 h 18.330078 c 1.082823,-4.91271 1.664063,-10.01489 1.664063,-15.2539 2e-5,-19.14891 -7.623426,-36.50788 -19.994141,-49.20899 z m 539.570313,0.41992 c -10.24579,9.58039 -16.8418,22.98214 -16.8418,38.13282 0,9.49207 2.58968,18.29845 7.04297,25.9082 h 13.76563 c 2.17231,-8.28142 3.40039,-16.93895 3.40039,-25.9082 0,-13.48933 -2.76304,-26.27539 -7.36719,-38.13282 z M 412.9668,179.25586 c -0.75073,7.36181 -2.97806,14.28609 -6.3711,20.46875 h 9.41602 c -1.64266,-6.60308 -2.68583,-13.44526 -3.04492,-20.46875 z m -105.62305,3.05469 c -5.63328,6.52554 -12.0184,12.37945 -19.01953,17.41406 h 25.00781 c -2.92746,-5.32027 -4.99244,-11.18704 -5.98828,-17.41406 z"
         transform="matrix(0.24155384,0,0,0.24119062,-325.78197,2102.1588)"
         inkscape:export-filename="/home/yeison/Development/BCI-Framework/bci-framework/bci_framework/assets/banner.png"
         inkscape:export-xdpi="96"
         inkscape:export-ydpi="96" />
      <g
         style="fill:#216778;fill-opacity:1"
         transform="matrix(1.0776395,0,0,1.0776395,32.782966,-172.54429)"
         id="g891"
         inkscape:export-filename="/home/yeison/Development/BCI-Framework/bci-framework/bci_framework/assets/banner.png"
         inkscape:export-xdpi="96"
         inkscape:export-ydpi="96">
        <g
           id="g6707">
          <text
             xml:space="preserve"
             style="font-style:normal;font-variant:normal;font-weight:normal;font-stretch:normal;font-size:17.0938px;line-height:0;font-family:'DejaVu Sans';-inkscape-font-specification:'DejaVu Sans';letter-spacing:0px;word-spacing:0px;fill:#216778;fill-opacity:1;stroke:none;stroke-width:0.854683"
             x="-307.75684"
             y="2129.8157"
             id="text856"><tspan
               sodipodi:role="line"
               id="tspan854"
               x="-307.75684"
               y="2129.8157"
               style="font-style:normal;font-variant:normal;font-weight:normal;font-stretch:normal;font-family:Roboto;-inkscape-font-specification:Roboto;fill:#216778;fill-opacity:1;stroke-width:0.854683">BCI-Framework</tspan></text>
          <text
             xml:space="preserve"
             style="font-style:normal;font-variant:normal;font-weight:normal;font-stretch:normal;font-size:6.06295px;line-height:1;font-family:Caladea;-inkscape-font-specification:Caladea;letter-spacing:0px;word-spacing:0px;fill:#216778;fill-opacity:1;stroke:none;stroke-width:0.303148"
             x="-306.38861"
             y="2141.8882"
             id="text860"><tspan
               sodipodi:role="line"
               id="tspan858"
               x="-306.38861"
               y="2141.8882"
               style="font-style:normal;font-variant:normal;font-weight:normal;font-stretch:normal;line-height:1;font-family:Morn;-inkscape-font-specification:Morn;fill:#216778;fill-opacity:1;stroke-width:0.303148">A real-time tool for acquisition, analysis</tspan><tspan
               sodipodi:role="line"
               x="-306.38861"
               y="2147.9585"
               style="font-style:normal;font-variant:normal;font-weight:normal;font-stretch:normal;line-height:1;font-family:Morn;-inkscape-font-specification:Morn;fill:#216778;fill-opacity:1;stroke-width:0.303148"
               id="tspan946">and stimuli delivery for OpenBCI.</tspan></text>
          <rect
             style="opacity:1;fill:#216778;fill-opacity:1;stroke:none;stroke-width:0.0789761;stroke-linecap:square;stroke-linejoin:miter;stroke-miterlimit:4;stroke-dasharray:none;stroke-dashoffset:0;stroke-opacity:1;paint-order:fill markers stroke"
             id="rect873"
             width="114.76525"
             height="0.33572075"
             x="-306.34613"
             y="2133.241" />
        </g>
      </g>
    </g>
  </g>
</svg>
