<?xml version="1.0" encoding="UTF-8" standalone="no"?>
<svg
   xmlns:dc="http://purl.org/dc/elements/1.1/"
   xmlns:cc="http://creativecommons.org/ns#"
   xmlns:rdf="http://www.w3.org/1999/02/22-rdf-syntax-ns#"
   xmlns:svg="http://www.w3.org/2000/svg"
   xmlns="http://www.w3.org/2000/svg"
   xmlns:sodipodi="http://sodipodi.sourceforge.net/DTD/sodipodi-0.dtd"
   xmlns:inkscape="http://www.inkscape.org/namespaces/inkscape"
   width="720.00085"
   height="200.55"
   viewBox="0 0 190.50023 53.062189"
   version="1.1"
   id="svg8"
   inkscape:version="1.0.1 (3bc2e813f5, 2020-09-07, custom)"
   sodipodi:docname="banner.svg"
   inkscape:export-filename="/home/yeison/Development/gcpds/Software_Tesis/bci-framework/assets/banner.png"
   inkscape:export-xdpi="96"
   inkscape:export-ydpi="96">
  <defs
     id="defs2" />
  <sodipodi:namedview
     id="base"
     pagecolor="#ffffff"
     bordercolor="#666666"
     borderopacity="1.0"
     inkscape:pageopacity="0.0"
     inkscape:pageshadow="2"
     inkscape:zoom="1.0227844"
     inkscape:cx="272.84529"
     inkscape:cy="107.28886"
     inkscape:document-units="px"
     inkscape:current-layer="g891"
     showgrid="false"
     inkscape:window-width="1920"
     inkscape:window-height="1004"
     inkscape:window-x="0"
     inkscape:window-y="0"
     inkscape:window-maximized="1"
     units="px"
     inkscape:showpageshadow="false"
     showguides="true"
     inkscape:snap-bbox="true"
     inkscape:bbox-paths="true"
     inkscape:bbox-nodes="true"
     inkscape:snap-bbox-midpoints="true"
     inkscape:snap-bbox-edge-midpoints="true"
     inkscape:object-paths="true"
     inkscape:snap-intersection-paths="true"
     inkscape:snap-midpoints="true"
     inkscape:snap-smooth-nodes="true"
     inkscape:snap-object-midpoints="true"
     inkscape:snap-center="true"
     fit-margin-top="0"
     fit-margin-left="0"
     fit-margin-right="0"
     fit-margin-bottom="0"
     inkscape:snap-global="true"
     inkscape:document-rotation="0" />
  <metadata
     id="metadata5">
    <rdf:RDF>
      <cc:Work
         rdf:about="">
        <dc:format>image/svg+xml</dc:format>
        <dc:type
           rdf:resource="http://purl.org/dc/dcmitype/StillImage" />
        <dc:title></dc:title>
      </cc:Work>
    </rdf:RDF>
  </metadata>
  <g
     inkscape:label="Capa 1"
     inkscape:groupmode="layer"
     id="layer1"
     transform="translate(326.50352,-2102.3284)">
    <circle
       cy="139.7252"
       cx="-591.70111"
       id="circle1545"
       style="opacity:0.673;fill:#aaaaff;fill-opacity:0.30137;stroke:#000000;stroke-width:0.304049;stroke-miterlimit:4;stroke-dasharray:none;stroke-opacity:1"
       r="0" />
    <circle
       r="0"
       style="opacity:0.673;fill:#aaaaff;fill-opacity:0.30137;stroke:#000000;stroke-width:0.304049;stroke-miterlimit:4;stroke-dasharray:none;stroke-opacity:1"
       id="ellipse1617"
       cx="-993.51282"
       cy="168.13614" />
    <circle
       r="0"
       cy="733.2077"
       cx="-958.14404"
       id="ellipse1906"
       style="opacity:0.673;fill:none;fill-opacity:0.30137;stroke:#000000;stroke-width:0.79375;stroke-miterlimit:4;stroke-dasharray:none;stroke-opacity:1" />
    <circle
       r="0"
       cy="582.33099"
       cx="-1500.9722"
       id="ellipse1926"
       style="opacity:0.673;fill:none;fill-opacity:0.30137;stroke:#000000;stroke-width:0.79375;stroke-miterlimit:4;stroke-dasharray:none;stroke-opacity:1" />
    <circle
       r="0"
       cy="255.9781"
       cx="-958.14404"
       id="ellipse1946"
       style="opacity:0.673;fill:none;fill-opacity:0.30137;stroke:#000000;stroke-width:0.79375;stroke-miterlimit:4;stroke-dasharray:none;stroke-opacity:1" />
    <g
       id="g898"
       transform="matrix(1.095339,0,0,1.0969885,30.338176,-203.7156)">
      <path
         d="m -325.71589,2102.225 v 13.6683 c 3.05248,2.9182 7.18748,4.7138 11.7446,4.7138 9.39102,0 17.00029,-7.6109 17.00028,-17.0019 0,-0.4649 -0.0208,-0.9249 -0.0576,-1.3802 z m 28.95388,0 c 0.0363,0.4554 0.0566,0.9153 0.0566,1.3802 10e-6,9.534 -7.73188,17.2655 -17.26589,17.2655 -4.53662,0 -8.66298,-1.7528 -11.7446,-4.6152 v 14.3791 c 1.99163,-0.8022 4.16521,-1.2482 6.44363,-1.2482 9.53401,0 17.26779,7.7315 17.26778,17.2655 0,1.2629 -0.13885,2.4932 -0.39677,3.6789 h 1.97112 c -1.0247,-1.8512 -1.60974,-3.9795 -1.60973,-6.2449 -10e-6,-4.4514 2.39414,-8.185 5.8204,-10.51 -0.22556,-1.3698 -0.42225,-2.7518 -0.42225,-4.1853 0,-8.7687 4.40822,-16.492 11.10958,-21.135 -2.13428,-1.5146 -3.84596,-3.5819 -4.79003,-6.0306 z m 6.72434,0 c 0.94054,2.3823 2.62192,4.3915 4.71501,5.8586 4.10996,-2.7839 9.06499,-4.4117 14.40216,-4.4117 1.22353,0 2.39436,0.1937 3.57236,0.3589 0.33134,-0.5828 0.62855,-1.1857 0.88742,-1.8058 z m 23.86474,0 c -0.25652,0.63 -0.55226,1.2425 -0.88224,1.8354 12.35566,1.8773 21.8554,12.4509 21.85541,25.3302 0,1.3573 -0.19791,2.6622 -0.40054,3.9627 1.99974,-1.2688 4.23471,-2.1935 6.77765,-2.1935 6.68925,0 12.12954,5.1027 12.79432,11.6168 0.15044,-2.938 0.72581,-5.7603 1.78146,-8.3569 -6.22042,-2.6108 -10.59392,-8.7542 -10.59392,-15.9219 0,-1.8306 0.36304,-3.5612 0.8912,-5.217 -7.49624,-0.9619 -13.99457,-5.1106 -18.04386,-11.0558 z m 14.50124,0 c 4.02194,5.8162 10.42429,9.8654 17.80184,10.7979 1.68894,-5.0205 5.58516,-9.0245 10.54957,-10.7979 z m 29.19448,0 c -5.22973,1.5899 -9.36652,5.6559 -11.12514,10.8256 0.97071,0.1123 1.92137,0.2951 2.92223,0.2951 8.31732,0 15.63039,-4.047 20.2754,-10.215 -0.75824,-0.3545 -1.54474,-0.6584 -2.35514,-0.9057 z m 10.54863,0 c 0.57801,0.206 1.14325,0.4402 1.69371,0.7004 0.16955,-0.2301 0.33321,-0.4648 0.49537,-0.7004 z m 2.51178,0 c -0.18962,0.2797 -0.3842,0.5557 -0.58407,0.8277 5.68506,2.7961 9.63201,8.573 9.6796,15.3239 2.9882,0.014 5.81571,0.6214 8.4808,1.5723 -1.31663,-3.092 -2.05085,-6.4923 -2.05085,-10.0646 0,-2.6731 0.41217,-5.2445 1.17286,-7.6593 z m 16.97197,0 c -0.76709,2.4137 -1.18276,4.9856 -1.18276,7.6593 0,3.623 0.78268,7.0562 2.14662,10.176 6.48879,2.4233 11.73855,7.3336 14.53095,13.6326 0.33405,0.1233 0.68519,0.2066 1.02566,0.3162 2.18169,-1.6811 4.78698,-2.8493 7.75331,-2.8493 2.96673,0 5.57051,1.1702 7.75236,2.8516 3.13586,-1.0084 6.00924,-2.6003 8.48929,-4.6461 v -27.1403 h -4.37816 c -1.98681,4.5834 -6.55013,7.7918 -11.86302,7.7918 -5.31289,0 -9.87743,-3.2084 -11.8649,-7.7918 z m 12.69996,0 c 1.96932,4.4347 6.4082,7.5287 11.57429,7.5287 5.16609,0 9.6041,-3.094 11.57287,-7.5287 z m -30.42584,1.0321 c -4.69246,6.2499 -12.09357,10.3521 -20.50941,10.3521 -1.0282,0 -2.00574,-0.1856 -3.00244,-0.303 -0.53102,1.6463 -0.89261,3.3684 -0.89261,5.1916 -10e-6,7.052 4.29244,13.0986 10.40662,15.6738 3.86466,-9.2377 12.95892,-15.7327 23.58355,-15.7927 -0.047,-6.6722 -3.95683,-12.3803 -9.58571,-15.1218 z m -60.74979,0.6783 c -5.24477,0 -10.11392,1.5922 -14.1639,4.3103 2.00916,1.341 4.28714,2.3104 6.88474,2.3104 4.61371,0 8.47189,-2.5912 10.68497,-6.2773 -1.12507,-0.152 -2.23902,-0.3434 -3.40581,-0.3434 z m 3.69738,0.373 c -2.24582,3.8221 -6.22419,6.5131 -10.97654,6.5131 -2.68489,1e-4 -5.03868,-1.0118 -7.10554,-2.4137 -6.67919,4.5879 -11.07089,12.2661 -11.07089,20.9828 0,1.3762 0.19464,2.7002 0.40479,4.0172 2.01687,-1.3012 4.28081,-2.248 6.8588,-2.248 7.13725,0 12.92596,5.7889 12.92595,12.9261 0,2.2694 -0.59423,4.395 -1.62671,6.2449 h 21.22274 c 1.86174,-1.2973 3.54604,-2.8357 5.01177,-4.5654 -0.0729,-0.5557 -0.16985,-1.1039 -0.16984,-1.6795 0,-4.4707 2.41209,-8.2198 5.86333,-10.541 0.22441,-1.3594 0.41989,-2.7312 0.41989,-4.1543 0,-12.7937 -9.46532,-23.2787 -21.75775,-25.0822 z m 66.63482,14.3341 c -10.5056,0.062 -19.50123,6.4734 -23.33068,15.6015 1.96342,0.7917 4.09681,1.2515 6.34408,1.2515 9.34016,0 16.9048,-7.5322 16.9866,-16.853 z m 0.26562,0 c -0.0797,9.4657 -7.76769,17.1207 -17.25222,17.1207 -2.27434,0 -4.43319,-0.466 -6.42192,-1.2655 -1.20734,2.9629 -1.90035,6.191 -1.90035,9.5882 0,2.1553 0.27127,4.2464 0.77561,6.2449 h 45.70223 c -1.0588,-1.8414 -1.6772,-3.9589 -1.6772,-6.2449 0,-3.7713 1.6748,-7.092 4.25219,-9.4553 -0.0966,-0.2407 -0.18129,-0.484 -0.28495,-0.7211 -6.48827,-2.4225 -11.73834,-7.3306 -14.53143,-13.6284 -2.71172,-1.0011 -5.60548,-1.6246 -8.66196,-1.6386 z m 9.02098,1.7462 c 2.74975,6.0409 7.76909,10.787 13.99218,13.1891 -2.74924,-6.041 -7.76955,-10.7865 -13.99218,-13.1891 z m -127.97056,9.2631 c -2.28138,0 -4.45613,0.4529 -6.44363,1.2675 v 19.4115 h 23.04384 c 0.26156,-1.1849 0.40196,-2.4153 0.40196,-3.6789 10e-6,-9.391 -7.61115,-17.0001 -17.00217,-17.0001 z m 167.34286,0.048 c -2.4152,1.9593 -5.19022,3.4975 -8.21188,4.4968 2.9171,2.3703 4.89617,5.8385 4.89617,9.8889 0,2.2655 -0.58427,4.3936 -1.60878,6.2449 h 4.92449 z m -137.1831,1.719 c -2.57417,0 -4.83174,0.9586 -6.83002,2.2775 1.18246,6.8999 5.11636,12.8313 10.64958,16.6341 h 7.18811 c 1.04992,-1.8436 1.65267,-3.9744 1.65266,-6.2491 2e-5,-6.9942 -5.66607,-12.6625 -12.66033,-12.6625 z m 50.28985,0 c -2.56658,0 -4.81596,0.9545 -6.81068,2.2662 -0.77845,4.6009 -2.79726,8.7331 -5.67415,12.158 0.22649,1.613 0.75589,3.1276 1.52481,4.4874 h 21.971 c 1.04866,-1.8442 1.65077,-3.9755 1.65077,-6.2491 0,-6.9943 -5.66742,-12.6625 -12.66175,-12.6625 z m 70.6516,0 c -2.83722,0 -5.32408,1.1103 -7.43485,2.6857 2.36655,0.7268 4.82981,1.2327 7.43485,1.2327 2.6047,0 5.06762,-0.5061 7.4339,-1.2327 -2.11077,-1.5754 -4.59668,-2.6857 -7.4339,-2.6857 z m -128.01916,2.4438 c -3.29171,2.2861 -5.58405,5.9061 -5.58404,10.2187 0,2.2736 0.60211,4.4049 1.65077,6.2491 h 14.3531 c -5.38965,-3.8297 -9.22367,-9.6828 -10.41983,-16.4678 z m 50.27145,0.014 c -3.28067,2.2877 -5.56422,5.9011 -5.56422,10.2051 0,0.4777 0.0891,0.9309 0.14059,1.3948 2.71053,-3.2944 4.64218,-7.225 5.42363,-11.5999 z m 69.14661,0.1404 c 0.0627,0.1472 0.0943,0.3084 0.15427,0.4571 0.12595,-0.1107 0.28589,-0.1755 0.41611,-0.2814 -0.18869,-0.062 -0.38365,-0.1087 -0.57038,-0.1757 z m 0.88648,0.2758 c -0.2064,0.1627 -0.45629,0.2642 -0.65201,0.4392 1.13749,2.9046 1.81637,6.0423 1.81637,9.3497 0,2.1619 -0.29115,4.25 -0.80958,6.2486 h 18.37034 c 1.04817,-1.8441 1.64983,-3.9753 1.64983,-6.2486 0,-4.0359 -2.00659,-7.4706 -4.94666,-9.7889 -2.45004,0.7751 -5.00751,1.3083 -7.71367,1.3083 -2.70616,0 -5.26458,-0.5332 -7.71462,-1.3083 z m -0.87894,0.5915 c -2.47491,2.3107 -4.06819,5.5432 -4.06819,9.1974 0,2.2894 0.62554,4.4132 1.70125,6.2486 h 3.32514 c 0.52473,-1.9974 0.82138,-4.0853 0.82138,-6.2486 0,-3.2535 -0.66743,-6.3375 -1.77958,-9.1974 z m -49.26372,10.5095 c -0.18134,1.7756 -0.71936,3.4453 -1.53896,4.9365 h 2.27447 c -0.39679,-1.5926 -0.64877,-3.2425 -0.73551,-4.9365 z m -25.51362,0.7366 c -1.36074,1.5739 -2.90309,2.9856 -4.59424,4.1999 h 6.04073 c -0.70714,-1.2832 -1.20594,-2.698 -1.44649,-4.1999 z"
         style="opacity:1;fill:#58d3e4;fill-opacity:1;stroke:#58d3e4;stroke-width:0.132292;stroke-linecap:square;stroke-linejoin:round;stroke-miterlimit:4;stroke-dasharray:none;stroke-dashoffset:0;stroke-opacity:1;paint-order:fill markers stroke"
         id="rect857" />
      <g
         style="fill:#216778;fill-opacity:1"
         transform="matrix(1.0776395,0,0,1.0776395,20.467297,-178.32947)"
         id="g891">
        <text
           xml:space="preserve"
           style="font-style:normal;font-variant:normal;font-weight:normal;font-stretch:normal;font-size:19.904px;line-height:0;font-family:Caladea;-inkscape-font-specification:Caladea;letter-spacing:0px;word-spacing:0px;fill:#216778;fill-opacity:1;stroke:none;stroke-width:0.9952"
           x="-307.52621"
           y="2136.3977"
           id="text856"><tspan
             sodipodi:role="line"
             id="tspan854"
             x="-307.52621"
             y="2136.3977"
             style="font-style:normal;font-variant:normal;font-weight:normal;font-stretch:normal;font-family:TimeBurner;-inkscape-font-specification:TimeBurner;fill:#216778;fill-opacity:1;stroke-width:0.9952">BCI-Framework</tspan></text>
        <text
           xml:space="preserve"
           style="font-style:normal;font-variant:normal;font-weight:normal;font-stretch:normal;font-size:8.21374px;line-height:1;font-family:Caladea;-inkscape-font-specification:Caladea;letter-spacing:0px;word-spacing:0px;fill:#216778;fill-opacity:1;stroke:none;stroke-width:0.410687"
           x="-307.36203"
           y="2145.5671"
           id="text860"><tspan
             sodipodi:role="line"
             id="tspan858"
             x="-307.36203"
             y="2145.5671"
             style="font-style:normal;font-variant:normal;font-weight:100;font-stretch:normal;line-height:1;font-family:Trench;-inkscape-font-specification:'Trench Thin';fill:#216778;fill-opacity:1;stroke-width:0.410687">A real-time tool for acquisition, analysis</tspan><tspan
             sodipodi:role="line"
             x="-307.36203"
             y="2154.0107"
             style="font-style:normal;font-variant:normal;font-weight:100;font-stretch:normal;line-height:1;font-family:Trench;-inkscape-font-specification:'Trench Thin';fill:#216778;fill-opacity:1;stroke-width:0.410687"
             id="tspan946">and stimuli delivery for OpenBCI.</tspan></text>
        <rect
           style="opacity:1;fill:#216778;fill-opacity:1;stroke:none;stroke-width:0.13064;stroke-linecap:square;stroke-linejoin:miter;stroke-miterlimit:4;stroke-dasharray:none;stroke-dashoffset:0;stroke-opacity:1;paint-order:fill markers stroke"
           id="rect873"
           width="133.83418"
           height="0.78774136"
           x="-307.52625"
           y="2138.5698" />
      </g>
    </g>
  </g>
</svg>
