<?xml version="1.0" encoding="UTF-8" standalone="no"?>
<svg
   width="599.99957"
   height="199.99963"
   viewBox="0 0 158.74989 52.916571"
   version="1.1"
   id="svg8"
   inkscape:version="1.1 (c4e8f9ed74, 2021-05-24)"
   sodipodi:docname="banner.svg"
   inkscape:export-filename="/home/yeison/Development/gcpds/Software_Tesis/bci-framework/assets/banner.png"
   inkscape:export-xdpi="96"
   inkscape:export-ydpi="96"
   xmlns:inkscape="http://www.inkscape.org/namespaces/inkscape"
   xmlns:sodipodi="http://sodipodi.sourceforge.net/DTD/sodipodi-0.dtd"
   xmlns="http://www.w3.org/2000/svg"
   xmlns:svg="http://www.w3.org/2000/svg"
   xmlns:rdf="http://www.w3.org/1999/02/22-rdf-syntax-ns#"
   xmlns:cc="http://creativecommons.org/ns#"
   xmlns:dc="http://purl.org/dc/elements/1.1/">
  <defs
     id="defs2" />
  <sodipodi:namedview
     id="base"
     pagecolor="#ffffff"
     bordercolor="#666666"
     borderopacity="1.0"
     inkscape:pageopacity="0.0"
     inkscape:pageshadow="2"
     inkscape:zoom="1.3555795"
     inkscape:cx="265.56908"
     inkscape:cy="146.43184"
     inkscape:document-units="px"
     inkscape:current-layer="g898"
     showgrid="false"
     inkscape:window-width="1920"
     inkscape:window-height="1006"
     inkscape:window-x="0"
     inkscape:window-y="0"
     inkscape:window-maximized="1"
     units="px"
     inkscape:showpageshadow="false"
     showguides="true"
     inkscape:snap-bbox="true"
     inkscape:bbox-paths="true"
     inkscape:bbox-nodes="true"
     inkscape:snap-bbox-midpoints="true"
     inkscape:snap-bbox-edge-midpoints="true"
     inkscape:object-paths="true"
     inkscape:snap-intersection-paths="true"
     inkscape:snap-midpoints="true"
     inkscape:snap-smooth-nodes="true"
     inkscape:snap-object-midpoints="true"
     inkscape:snap-center="true"
     fit-margin-top="0"
     fit-margin-left="0"
     fit-margin-right="0"
     fit-margin-bottom="0"
     inkscape:snap-global="false"
     inkscape:document-rotation="0"
     inkscape:pagecheckerboard="1" />
  <metadata
     id="metadata5">
    <rdf:RDF>
      <cc:Work
         rdf:about="">
        <dc:format>image/svg+xml</dc:format>
        <dc:type
           rdf:resource="http://purl.org/dc/dcmitype/StillImage" />
      </cc:Work>
    </rdf:RDF>
  </metadata>
  <g
     inkscape:label="Capa 1"
     inkscape:groupmode="layer"
     id="layer1"
     transform="translate(306.11262,-2102.3287)">
    <circle
       cy="139.7252"
       cx="-591.70111"
       id="circle1545"
       style="opacity:0.673;fill:#aaaaff;fill-opacity:0.30137;stroke:#000000;stroke-width:0.304049;stroke-miterlimit:4;stroke-dasharray:none;stroke-opacity:1"
       r="0" />
    <circle
       r="0"
       style="opacity:0.673;fill:#aaaaff;fill-opacity:0.30137;stroke:#000000;stroke-width:0.304049;stroke-miterlimit:4;stroke-dasharray:none;stroke-opacity:1"
       id="ellipse1617"
       cx="-993.51282"
       cy="168.13614" />
    <circle
       r="0"
       cy="733.2077"
       cx="-958.14404"
       id="ellipse1906"
       style="opacity:0.673;fill:none;fill-opacity:0.30137;stroke:#000000;stroke-width:0.79375;stroke-miterlimit:4;stroke-dasharray:none;stroke-opacity:1" />
    <circle
       r="0"
       cy="582.33099"
       cx="-1500.9722"
       id="ellipse1926"
       style="opacity:0.673;fill:none;fill-opacity:0.30137;stroke:#000000;stroke-width:0.79375;stroke-miterlimit:4;stroke-dasharray:none;stroke-opacity:1" />
    <circle
       r="0"
       cy="255.9781"
       cx="-958.14404"
       id="ellipse1946"
       style="opacity:0.673;fill:none;fill-opacity:0.30137;stroke:#000000;stroke-width:0.79375;stroke-miterlimit:4;stroke-dasharray:none;stroke-opacity:1" />
    <g
       id="g898"
       transform="matrix(1.095339,0,0,1.0969885,30.338176,-203.7156)">
      <path
         id="rect857"
         style="opacity:1;fill:#58d3e4;fill-opacity:1;stroke:#58d3e4;stroke-width:0.133037;stroke-linecap:square;stroke-linejoin:round;stroke-miterlimit:4;stroke-dasharray:none;stroke-dashoffset:0;stroke-opacity:1;paint-order:fill markers stroke"
         d="m -307.09939,2102.2256 v 16.9349 c 6.03393,-2.6394 10.24333,-8.6101 10.24332,-15.5551 0,-0.4649 -0.021,-0.9245 -0.0582,-1.3798 z m 10.45468,0 c 0.0367,0.4554 0.0573,0.9149 0.0573,1.3798 10e-6,7.0916 -4.32713,13.1851 -10.51194,15.842 v 14.9606 c 3.18214,3.1274 5.15292,7.4582 5.15291,12.2436 0,1.2628 -0.14042,2.4933 -0.40126,3.679 h 1.99341 c -1.03628,-1.8512 -1.62794,-3.9796 -1.62793,-6.245 -1e-5,-4.4513 2.42123,-8.185 5.88624,-10.51 -0.22811,-1.3697 -0.42702,-2.7514 -0.42702,-4.1849 0,-8.7686 4.45809,-16.492 11.23525,-21.135 -2.15842,-1.5145 -3.88946,-3.5814 -4.84421,-6.0301 z m 6.80041,0 c 0.95118,2.3823 2.65159,4.3911 4.76835,5.8582 4.15645,-2.7839 9.16755,-4.4116 14.56509,-4.4116 1.23737,0 2.42143,0.1938 3.61276,0.359 0.33509,-0.5828 0.63567,-1.1855 0.89746,-1.8056 z m 24.13471,0 c -0.25942,0.63 -0.5585,1.2424 -0.89222,1.8353 12.49542,1.8772 22.10264,12.4507 22.10265,25.3298 0,1.3573 -0.20016,2.6621 -0.40508,3.9626 2.02236,-1.2688 4.28262,-2.1938 6.85433,-2.1938 6.76491,0 12.26675,5.1031 12.93905,11.6171 0.15214,-2.938 0.73402,-5.7602 1.80161,-8.3568 -6.29078,-2.6108 -10.71376,-8.754 -10.71376,-15.9216 0,-1.8306 0.36715,-3.5613 0.90128,-5.2171 -7.58103,-0.9619 -14.15289,-5.1104 -18.24798,-11.0555 z m 14.66528,0 c 4.06743,5.8161 10.54222,9.8649 18.00322,10.7973 1.70804,-5.0204 5.64834,-9.0239 10.6689,-10.7973 z m 29.52474,0 c -5.28888,1.5899 -9.47248,5.6555 -11.251,10.8251 0.98169,0.1123 1.94311,0.2954 2.95529,0.2954 8.4114,0 15.80722,-4.0472 20.50477,-10.2151 -0.76682,-0.3545 -1.56222,-0.6581 -2.38179,-0.9054 z m 10.66796,0 c 0.58454,0.206 1.15618,0.4398 1.71286,0.7 0.17147,-0.2301 0.33699,-0.4644 0.50098,-0.7 z m 2.54019,0 c -0.19176,0.2797 -0.38855,0.5557 -0.59068,0.8277 5.74937,2.796 9.74097,8.5725 9.7891,15.3233 3.02201,0.014 5.8815,0.6216 8.57674,1.5725 -1.33153,-3.092 -2.07405,-6.4922 -2.07405,-10.0644 0,-2.6731 0.41683,-5.2443 1.18612,-7.6591 z m 17.16396,0 c -0.77576,2.4137 -1.19614,4.9854 -1.19614,7.6591 0,3.6229 0.79154,7.0558 2.1709,10.1755 6.56219,2.4233 11.87135,7.3338 14.69534,13.6327 0.33783,0.1233 0.69294,0.2065 1.03726,0.3161 2.20637,-1.681 4.84113,-2.8495 7.84101,-2.8495 1.53142,0 2.96663,0.3065 4.29887,0.8286 v -22.6871 c -1.3461,0.4637 -2.79254,0.7161 -4.29839,0.7161 -5.37299,0 -9.98917,-3.2082 -11.99913,-7.7915 z m 12.84363,0 c 1.9916,4.4346 6.4807,7.5286 11.70522,7.5286 1.50849,0 2.95504,-0.2593 4.29839,-0.733 v -6.7956 z m -30.77003,1.0321 c -4.74554,6.2498 -12.23038,10.3517 -20.74142,10.3517 -1.03983,0 -2.02842,-0.1855 -3.0364,-0.3029 -0.53702,1.6463 -0.90271,3.3685 -0.90271,5.1917 -1e-5,7.0519 4.341,13.0982 10.52434,15.6734 3.90837,-9.2376 13.10553,-15.7326 23.85034,-15.7926 -0.0475,-6.6721 -4.0016,-12.3798 -9.69415,-15.1213 z m -61.437,0.6779 c -5.3041,0 -10.22835,1.5922 -14.32414,4.3102 2.03189,1.341 4.33565,2.3106 6.96263,2.3106 4.6659,0 8.56773,-2.5914 10.80585,-6.2774 -1.1378,-0.152 -2.26436,-0.3434 -3.44434,-0.3434 z m 3.7392,0.3731 c -2.27123,3.822 -6.2946,6.5129 -11.10071,6.5129 -2.71526,10e-5 -5.09568,-1.0118 -7.18592,-2.4137 -6.75474,4.5878 -11.19613,12.2662 -11.19613,20.9828 0,1.3762 0.19684,2.7003 0.40937,4.0172 2.03968,-1.3011 4.32924,-2.2484 6.93639,-2.2484 7.21798,0 13.07218,5.7891 13.07217,12.9261 0,2.2694 -0.60096,4.3951 -1.64512,6.245 h 21.46283 c 1.8828,-1.2973 3.58615,-2.8359 5.06846,-4.5656 -0.0737,-0.5557 -0.17177,-1.1038 -0.17176,-1.6794 0,-4.4706 2.43938,-8.2194 5.92966,-10.5406 0.22695,-1.3593 0.42464,-2.7312 0.42464,-4.1543 0,-12.7935 -9.57241,-23.2786 -22.00388,-25.082 z m 67.38861,14.3341 c -10.62443,0.062 -19.72184,6.4733 -23.5946,15.6013 1.98563,0.7917 4.14316,1.2512 6.41585,1.2512 9.44581,0 17.09603,-7.5319 17.17875,-16.8525 z m 0.26862,0 c -0.0806,9.4655 -7.85556,17.1205 -17.44737,17.1205 -2.30007,0 -4.48335,-0.4663 -6.49458,-1.2658 -1.22099,2.9629 -1.92184,6.191 -1.92184,9.5881 0,2.1553 0.27434,4.2465 0.78439,6.245 h 46.21922 c -1.07078,-1.8414 -1.69617,-3.959 -1.69617,-6.245 0,-3.7712 1.69375,-7.092 4.30029,-9.4552 -0.0977,-0.2407 -0.18335,-0.4837 -0.28818,-0.7208 -6.56166,-2.4224 -11.87113,-7.3307 -14.69581,-13.6284 -2.74239,-1.0011 -5.6689,-1.6244 -8.75995,-1.6384 z m 9.12304,1.7462 c 2.78085,6.0408 7.85698,10.7865 14.15046,13.1885 -2.78034,-6.0409 -7.85745,-10.7859 -14.15046,-13.1885 z m -98.91727,11.0296 c -2.60329,0 -4.8864,0.9588 -6.90729,2.2776 1.19584,6.8998 5.17425,12.8312 10.77006,16.6339 h 7.26942 c 1.0618,-1.8435 1.67137,-3.9745 1.67136,-6.2492 2e-5,-6.9941 -5.73018,-12.6623 -12.80355,-12.6623 z m 50.85875,0 c -2.59562,0 -4.87044,0.9547 -6.88773,2.2663 -0.78725,4.6009 -2.8289,8.733 -5.73834,12.1578 0.22906,1.613 0.76444,3.1277 1.54206,4.4874 h 22.21954 c 1.06052,-1.8441 1.66945,-3.9756 1.66945,-6.2492 0,-6.9942 -5.73154,-12.6623 -12.80498,-12.6623 z m 71.45082,0 c -2.86931,0 -5.38431,1.1102 -7.51895,2.6856 2.39332,0.7268 4.88445,1.2328 7.51895,1.2328 1.47534,0 2.90546,-0.159 4.29887,-0.4263 v -2.6343 c -1.329,-0.5376 -2.76244,-0.8578 -4.29887,-0.8578 z m -129.46735,2.4439 c -3.32894,2.2861 -5.64721,5.9059 -5.6472,10.2184 0,2.2736 0.60892,4.4051 1.66944,6.2492 h 14.51547 c -5.45062,-3.8296 -9.32802,-9.6827 -10.53771,-16.4676 z m 50.84014,0.014 c -3.31777,2.2876 -5.62717,5.9008 -5.62717,10.2047 0,0.4777 0.0901,0.931 0.14219,1.3948 2.74119,-3.2943 4.69469,-7.2247 5.48498,-11.5995 z m 69.92881,0.1403 c 0.0634,0.1472 0.0954,0.3083 0.15602,0.457 0.12738,-0.1107 0.28913,-0.1753 0.42082,-0.2812 -0.19082,-0.062 -0.38799,-0.1088 -0.57684,-0.1758 z m 0.89651,0.2756 c -0.20873,0.1627 -0.46144,0.2645 -0.65938,0.4395 1.15036,2.9046 1.83692,6.042 1.83692,9.3493 0,2.1619 -0.29445,4.2502 -0.81874,6.2487 h 11.74196 v -15.149 c -1.39375,0.2639 -2.82435,0.4197 -4.29887,0.4197 -2.73677,0 -5.32413,-0.5331 -7.80189,-1.3082 z m -132.69841,0.4904 v 15.5476 h 4.47778 c 0.26452,-1.1849 0.40651,-2.4155 0.40651,-3.679 1e-5,-4.6185 -1.8623,-8.8053 -4.88429,-11.8686 z m 131.80954,0.1013 c -2.50291,2.3106 -4.11422,5.543 -4.11422,9.1971 0,2.2894 0.63262,4.4134 1.7205,6.2487 h 3.36275 c 0.53067,-1.9973 0.83067,-4.0854 0.83067,-6.2487 0,-3.2534 -0.67497,-6.3373 -1.7997,-9.1971 z m -49.82101,10.509 c -0.18339,1.7756 -0.7275,3.4457 -1.55637,4.9368 h 2.3002 c -0.40128,-1.5925 -0.65611,-3.2428 -0.74383,-4.9368 z m -25.80225,0.7368 c -1.37613,1.5739 -2.93592,2.9857 -4.6462,4.2 h 6.10906 c -0.71514,-1.2831 -1.21959,-2.6981 -1.46286,-4.2 z"
         inkscape:export-filename="/home/yeison/Development/BCI-Framework/bci-framework/bci_framework/assets/banner.png"
         inkscape:export-xdpi="96"
         inkscape:export-ydpi="96" />
      <g
         style="fill:#216778;fill-opacity:1"
         transform="matrix(1.0776395,0,0,1.0776395,33.593111,-172.54409)"
         id="g891"
         inkscape:export-filename="/home/yeison/Development/BCI-Framework/bci-framework/bci_framework/assets/banner.png"
         inkscape:export-xdpi="96"
         inkscape:export-ydpi="96">
        <g
           id="g6707">
          <text
             xml:space="preserve"
             style="font-style:normal;font-variant:normal;font-weight:normal;font-stretch:normal;font-size:17.0938px;line-height:0;font-family:'DejaVu Sans';-inkscape-font-specification:'DejaVu Sans';letter-spacing:0px;word-spacing:0px;fill:#216778;fill-opacity:1;stroke:none;stroke-width:0.854683"
             x="-307.75684"
             y="2129.8157"
             id="text856"><tspan
               sodipodi:role="line"
               id="tspan854"
               x="-307.75684"
               y="2129.8157"
               style="font-style:normal;font-variant:normal;font-weight:normal;font-stretch:normal;font-family:Roboto;-inkscape-font-specification:Roboto;fill:#216778;fill-opacity:1;stroke-width:0.854683">BCI-Framework</tspan></text>
          <text
             xml:space="preserve"
             style="font-style:normal;font-variant:normal;font-weight:normal;font-stretch:normal;font-size:6.06295px;line-height:1;font-family:Caladea;-inkscape-font-specification:Caladea;letter-spacing:0px;word-spacing:0px;fill:#216778;fill-opacity:1;stroke:none;stroke-width:0.303148"
             x="-306.38861"
             y="2141.8882"
             id="text860"><tspan
               sodipodi:role="line"
               id="tspan858"
               x="-306.38861"
               y="2141.8882"
               style="font-style:normal;font-variant:normal;font-weight:normal;font-stretch:normal;line-height:1;font-family:Morn;-inkscape-font-specification:Morn;fill:#216778;fill-opacity:1;stroke-width:0.303148">A real-time tool for acquisition, analysis</tspan><tspan
               sodipodi:role="line"
               x="-306.38861"
               y="2147.9585"
               style="font-style:normal;font-variant:normal;font-weight:normal;font-stretch:normal;line-height:1;font-family:Morn;-inkscape-font-specification:Morn;fill:#216778;fill-opacity:1;stroke-width:0.303148"
               id="tspan946">and stimuli delivery for OpenBCI.</tspan></text>
          <rect
             style="opacity:1;fill:#216778;fill-opacity:1;stroke:none;stroke-width:0.0789761;stroke-linecap:square;stroke-linejoin:miter;stroke-miterlimit:4;stroke-dasharray:none;stroke-dashoffset:0;stroke-opacity:1;paint-order:fill markers stroke"
             id="rect873"
             width="114.76525"
             height="0.33572075"
             x="-306.34613"
             y="2133.241" />
        </g>
      </g>
    </g>
  </g>
</svg>
