<?xml version="1.0" encoding="UTF-8" standalone="no"?>
<svg
   xmlns:dc="http://purl.org/dc/elements/1.1/"
   xmlns:cc="http://creativecommons.org/ns#"
   xmlns:rdf="http://www.w3.org/1999/02/22-rdf-syntax-ns#"
   xmlns:svg="http://www.w3.org/2000/svg"
   xmlns="http://www.w3.org/2000/svg"
   xmlns:sodipodi="http://sodipodi.sourceforge.net/DTD/sodipodi-0.dtd"
   xmlns:inkscape="http://www.inkscape.org/namespaces/inkscape"
   width="720.00085"
   height="200.55"
   viewBox="0 0 190.50023 53.062189"
   version="1.1"
   id="svg8"
   inkscape:version="1.0 (4035a4fb49, 2020-05-01)"
   sodipodi:docname="splash_curves.svg"
   inkscape:export-filename="/home/yeison/Development/gcpds/eeg-framework/assets/splash.png"
   inkscape:export-xdpi="96"
   inkscape:export-ydpi="96">
  <defs
     id="defs2" />
  <sodipodi:namedview
     id="base"
     pagecolor="#ffffff"
     bordercolor="#666666"
     borderopacity="1.0"
     inkscape:pageopacity="0.0"
     inkscape:pageshadow="2"
     inkscape:zoom="1.5493046"
     inkscape:cx="367.13357"
     inkscape:cy="120.55777"
     inkscape:document-units="px"
     inkscape:current-layer="text860"
     showgrid="false"
     inkscape:window-width="1920"
     inkscape:window-height="1004"
     inkscape:window-x="0"
     inkscape:window-y="0"
     inkscape:window-maximized="1"
     units="px"
     inkscape:showpageshadow="false"
     showguides="true"
     inkscape:snap-bbox="true"
     inkscape:bbox-paths="true"
     inkscape:bbox-nodes="true"
     inkscape:snap-bbox-midpoints="true"
     inkscape:snap-bbox-edge-midpoints="true"
     inkscape:object-paths="true"
     inkscape:snap-intersection-paths="true"
     inkscape:snap-midpoints="true"
     inkscape:snap-smooth-nodes="true"
     inkscape:snap-object-midpoints="true"
     inkscape:snap-center="true"
     fit-margin-top="0"
     fit-margin-left="0"
     fit-margin-right="0"
     fit-margin-bottom="0"
     inkscape:snap-global="true"
     inkscape:document-rotation="0" />
  <metadata
     id="metadata5">
    <rdf:RDF>
      <cc:Work
         rdf:about="">
        <dc:format>image/svg+xml</dc:format>
        <dc:type
           rdf:resource="http://purl.org/dc/dcmitype/StillImage" />
        <dc:title></dc:title>
      </cc:Work>
    </rdf:RDF>
  </metadata>
  <g
     inkscape:label="Capa 1"
     inkscape:groupmode="layer"
     id="layer1"
     transform="translate(326.50352,-2102.3284)">
    <circle
       cy="139.7252"
       cx="-591.70111"
       id="circle1545"
       style="opacity:0.673;fill:#aaaaff;fill-opacity:0.30137;stroke:#000000;stroke-width:0.304049;stroke-miterlimit:4;stroke-dasharray:none;stroke-opacity:1"
       r="0" />
    <circle
       r="0"
       style="opacity:0.673;fill:#aaaaff;fill-opacity:0.30137;stroke:#000000;stroke-width:0.304049;stroke-miterlimit:4;stroke-dasharray:none;stroke-opacity:1"
       id="ellipse1617"
       cx="-993.51282"
       cy="168.13614" />
    <circle
       r="0"
       cy="733.2077"
       cx="-958.14404"
       id="ellipse1906"
       style="opacity:0.673;fill:none;fill-opacity:0.30137;stroke:#000000;stroke-width:0.79375;stroke-miterlimit:4;stroke-dasharray:none;stroke-opacity:1" />
    <circle
       r="0"
       cy="582.33099"
       cx="-1500.9722"
       id="ellipse1926"
       style="opacity:0.673;fill:none;fill-opacity:0.30137;stroke:#000000;stroke-width:0.79375;stroke-miterlimit:4;stroke-dasharray:none;stroke-opacity:1" />
    <circle
       r="0"
       cy="255.9781"
       cx="-958.14404"
       id="ellipse1946"
       style="opacity:0.673;fill:none;fill-opacity:0.30137;stroke:#000000;stroke-width:0.79375;stroke-miterlimit:4;stroke-dasharray:none;stroke-opacity:1" />
    <g
       id="g898"
       transform="matrix(1.095339,0,0,1.0969885,30.338176,-203.7156)">
      <path
         d="m -325.71589,2102.225 v 13.6683 c 3.05248,2.9182 7.18748,4.7138 11.7446,4.7138 9.39102,0 17.00029,-7.6109 17.00028,-17.0019 0,-0.4649 -0.0208,-0.9249 -0.0576,-1.3802 z m 28.95388,0 c 0.0363,0.4554 0.0566,0.9153 0.0566,1.3802 10e-6,9.534 -7.73188,17.2655 -17.26589,17.2655 -4.53662,0 -8.66298,-1.7528 -11.7446,-4.6152 v 14.3791 c 1.99163,-0.8022 4.16521,-1.2482 6.44363,-1.2482 9.53401,0 17.26779,7.7315 17.26778,17.2655 0,1.2629 -0.13885,2.4932 -0.39677,3.6789 h 1.97112 c -1.0247,-1.8512 -1.60974,-3.9795 -1.60973,-6.2449 -10e-6,-4.4514 2.39414,-8.185 5.8204,-10.51 -0.22556,-1.3698 -0.42225,-2.7518 -0.42225,-4.1853 0,-8.7687 4.40822,-16.492 11.10958,-21.135 -2.13428,-1.5146 -3.84596,-3.5819 -4.79003,-6.0306 z m 6.72434,0 c 0.94054,2.3823 2.62192,4.3915 4.71501,5.8586 4.10996,-2.7839 9.06499,-4.4117 14.40216,-4.4117 1.22353,0 2.39436,0.1937 3.57236,0.3589 0.33134,-0.5828 0.62855,-1.1857 0.88742,-1.8058 z m 23.86474,0 c -0.25652,0.63 -0.55226,1.2425 -0.88224,1.8354 12.35566,1.8773 21.8554,12.4509 21.85541,25.3302 0,1.3573 -0.19791,2.6622 -0.40054,3.9627 1.99974,-1.2688 4.23471,-2.1935 6.77765,-2.1935 6.68925,0 12.12954,5.1027 12.79432,11.6168 0.15044,-2.938 0.72581,-5.7603 1.78146,-8.3569 -6.22042,-2.6108 -10.59392,-8.7542 -10.59392,-15.9219 0,-1.8306 0.36304,-3.5612 0.8912,-5.217 -7.49624,-0.9619 -13.99457,-5.1106 -18.04386,-11.0558 z m 14.50124,0 c 4.02194,5.8162 10.42429,9.8654 17.80184,10.7979 1.68894,-5.0205 5.58516,-9.0245 10.54957,-10.7979 z m 29.19448,0 c -5.22973,1.5899 -9.36652,5.6559 -11.12514,10.8256 0.97071,0.1123 1.92137,0.2951 2.92223,0.2951 8.31732,0 15.63039,-4.047 20.2754,-10.215 -0.75824,-0.3545 -1.54474,-0.6584 -2.35514,-0.9057 z m 10.54863,0 c 0.57801,0.206 1.14325,0.4402 1.69371,0.7004 0.16955,-0.2301 0.33321,-0.4648 0.49537,-0.7004 z m 2.51178,0 c -0.18962,0.2797 -0.3842,0.5557 -0.58407,0.8277 5.68506,2.7961 9.63201,8.573 9.6796,15.3239 2.9882,0.014 5.81571,0.6214 8.4808,1.5723 -1.31663,-3.092 -2.05085,-6.4923 -2.05085,-10.0646 0,-2.6731 0.41217,-5.2445 1.17286,-7.6593 z m 16.97197,0 c -0.76709,2.4137 -1.18276,4.9856 -1.18276,7.6593 0,3.623 0.78268,7.0562 2.14662,10.176 6.48879,2.4233 11.73855,7.3336 14.53095,13.6326 0.33405,0.1233 0.68519,0.2066 1.02566,0.3162 2.18169,-1.6811 4.78698,-2.8493 7.75331,-2.8493 2.96673,0 5.57051,1.1702 7.75236,2.8516 3.13586,-1.0084 6.00924,-2.6003 8.48929,-4.6461 v -27.1403 h -4.37816 c -1.98681,4.5834 -6.55013,7.7918 -11.86302,7.7918 -5.31289,0 -9.87743,-3.2084 -11.8649,-7.7918 z m 12.69996,0 c 1.96932,4.4347 6.4082,7.5287 11.57429,7.5287 5.16609,0 9.6041,-3.094 11.57287,-7.5287 z m -30.42584,1.0321 c -4.69246,6.2499 -12.09357,10.3521 -20.50941,10.3521 -1.0282,0 -2.00574,-0.1856 -3.00244,-0.303 -0.53102,1.6463 -0.89261,3.3684 -0.89261,5.1916 -10e-6,7.052 4.29244,13.0986 10.40662,15.6738 3.86466,-9.2377 12.95892,-15.7327 23.58355,-15.7927 -0.047,-6.6722 -3.95683,-12.3803 -9.58571,-15.1218 z m -60.74979,0.6783 c -5.24477,0 -10.11392,1.5922 -14.1639,4.3103 2.00916,1.341 4.28714,2.3104 6.88474,2.3104 4.61371,0 8.47189,-2.5912 10.68497,-6.2773 -1.12507,-0.152 -2.23902,-0.3434 -3.40581,-0.3434 z m 3.69738,0.373 c -2.24582,3.8221 -6.22419,6.5131 -10.97654,6.5131 -2.68489,1e-4 -5.03868,-1.0118 -7.10554,-2.4137 -6.67919,4.5879 -11.07089,12.2661 -11.07089,20.9828 0,1.3762 0.19464,2.7002 0.40479,4.0172 2.01687,-1.3012 4.28081,-2.248 6.8588,-2.248 7.13725,0 12.92596,5.7889 12.92595,12.9261 0,2.2694 -0.59423,4.395 -1.62671,6.2449 h 21.22274 c 1.86174,-1.2973 3.54604,-2.8357 5.01177,-4.5654 -0.0729,-0.5557 -0.16985,-1.1039 -0.16984,-1.6795 0,-4.4707 2.41209,-8.2198 5.86333,-10.541 0.22441,-1.3594 0.41989,-2.7312 0.41989,-4.1543 0,-12.7937 -9.46532,-23.2787 -21.75775,-25.0822 z m 66.63482,14.3341 c -10.5056,0.062 -19.50123,6.4734 -23.33068,15.6015 1.96342,0.7917 4.09681,1.2515 6.34408,1.2515 9.34016,0 16.9048,-7.5322 16.9866,-16.853 z m 0.26562,0 c -0.0797,9.4657 -7.76769,17.1207 -17.25222,17.1207 -2.27434,0 -4.43319,-0.466 -6.42192,-1.2655 -1.20734,2.9629 -1.90035,6.191 -1.90035,9.5882 0,2.1553 0.27127,4.2464 0.77561,6.2449 h 45.70223 c -1.0588,-1.8414 -1.6772,-3.9589 -1.6772,-6.2449 0,-3.7713 1.6748,-7.092 4.25219,-9.4553 -0.0966,-0.2407 -0.18129,-0.484 -0.28495,-0.7211 -6.48827,-2.4225 -11.73834,-7.3306 -14.53143,-13.6284 -2.71172,-1.0011 -5.60548,-1.6246 -8.66196,-1.6386 z m 9.02098,1.7462 c 2.74975,6.0409 7.76909,10.787 13.99218,13.1891 -2.74924,-6.041 -7.76955,-10.7865 -13.99218,-13.1891 z m -127.97056,9.2631 c -2.28138,0 -4.45613,0.4529 -6.44363,1.2675 v 19.4115 h 23.04384 c 0.26156,-1.1849 0.40196,-2.4153 0.40196,-3.6789 10e-6,-9.391 -7.61115,-17.0001 -17.00217,-17.0001 z m 167.34286,0.048 c -2.4152,1.9593 -5.19022,3.4975 -8.21188,4.4968 2.9171,2.3703 4.89617,5.8385 4.89617,9.8889 0,2.2655 -0.58427,4.3936 -1.60878,6.2449 h 4.92449 z m -137.1831,1.719 c -2.57417,0 -4.83174,0.9586 -6.83002,2.2775 1.18246,6.8999 5.11636,12.8313 10.64958,16.6341 h 7.18811 c 1.04992,-1.8436 1.65267,-3.9744 1.65266,-6.2491 2e-5,-6.9942 -5.66607,-12.6625 -12.66033,-12.6625 z m 50.28985,0 c -2.56658,0 -4.81596,0.9545 -6.81068,2.2662 -0.77845,4.6009 -2.79726,8.7331 -5.67415,12.158 0.22649,1.613 0.75589,3.1276 1.52481,4.4874 h 21.971 c 1.04866,-1.8442 1.65077,-3.9755 1.65077,-6.2491 0,-6.9943 -5.66742,-12.6625 -12.66175,-12.6625 z m 70.6516,0 c -2.83722,0 -5.32408,1.1103 -7.43485,2.6857 2.36655,0.7268 4.82981,1.2327 7.43485,1.2327 2.6047,0 5.06762,-0.5061 7.4339,-1.2327 -2.11077,-1.5754 -4.59668,-2.6857 -7.4339,-2.6857 z m -128.01916,2.4438 c -3.29171,2.2861 -5.58405,5.9061 -5.58404,10.2187 0,2.2736 0.60211,4.4049 1.65077,6.2491 h 14.3531 c -5.38965,-3.8297 -9.22367,-9.6828 -10.41983,-16.4678 z m 50.27145,0.014 c -3.28067,2.2877 -5.56422,5.9011 -5.56422,10.2051 0,0.4777 0.0891,0.9309 0.14059,1.3948 2.71053,-3.2944 4.64218,-7.225 5.42363,-11.5999 z m 69.14661,0.1404 c 0.0627,0.1472 0.0943,0.3084 0.15427,0.4571 0.12595,-0.1107 0.28589,-0.1755 0.41611,-0.2814 -0.18869,-0.062 -0.38365,-0.1087 -0.57038,-0.1757 z m 0.88648,0.2758 c -0.2064,0.1627 -0.45629,0.2642 -0.65201,0.4392 1.13749,2.9046 1.81637,6.0423 1.81637,9.3497 0,2.1619 -0.29115,4.25 -0.80958,6.2486 h 18.37034 c 1.04817,-1.8441 1.64983,-3.9753 1.64983,-6.2486 0,-4.0359 -2.00659,-7.4706 -4.94666,-9.7889 -2.45004,0.7751 -5.00751,1.3083 -7.71367,1.3083 -2.70616,0 -5.26458,-0.5332 -7.71462,-1.3083 z m -0.87894,0.5915 c -2.47491,2.3107 -4.06819,5.5432 -4.06819,9.1974 0,2.2894 0.62554,4.4132 1.70125,6.2486 h 3.32514 c 0.52473,-1.9974 0.82138,-4.0853 0.82138,-6.2486 0,-3.2535 -0.66743,-6.3375 -1.77958,-9.1974 z m -49.26372,10.5095 c -0.18134,1.7756 -0.71936,3.4453 -1.53896,4.9365 h 2.27447 c -0.39679,-1.5926 -0.64877,-3.2425 -0.73551,-4.9365 z m -25.51362,0.7366 c -1.36074,1.5739 -2.90309,2.9856 -4.59424,4.1999 h 6.04073 c -0.70714,-1.2832 -1.20594,-2.698 -1.44649,-4.1999 z"
         style="opacity:1;fill:#58d3e4;fill-opacity:1;stroke:#58d3e4;stroke-width:0.132292;stroke-linecap:square;stroke-linejoin:round;stroke-miterlimit:4;stroke-dasharray:none;stroke-dashoffset:0;stroke-opacity:1;paint-order:fill markers stroke"
         id="rect857" />
      <g
         style="font-style:normal;font-variant:normal;font-weight:normal;font-stretch:normal;font-size:21.4493px;line-height:0;font-family:Caladea;-inkscape-font-specification:Caladea;letter-spacing:0px;word-spacing:0px;fill:#216778;fill-opacity:1;stroke:none;stroke-width:1.07247"
         id="text856"
         aria-label="BCI-Framework">
        <path
           id="path1191"
           style="font-style:normal;font-variant:normal;font-weight:normal;font-stretch:normal;font-family:TimeBurner;-inkscape-font-specification:TimeBurner;fill:#216778;fill-opacity:1;stroke-width:1.07247"
           d="m -305.72291,2108.2361 q 0.85797,0 1.63015,0.3432 0.77217,0.3218 1.32985,0.9009 0.57914,0.5577 0.90088,1.3298 0.34318,0.7722 0.34318,1.6516 0,1.1154 -0.53623,2.0592 -0.51478,0.9223 -1.41565,1.48 1.02956,0.5148 1.65159,1.5229 0.64348,0.9866 0.64348,2.2092 0,0.8795 -0.34319,1.6516 -0.32174,0.7508 -0.90087,1.3299 -0.55768,0.5577 -1.32985,0.9009 -0.77218,0.3217 -1.63015,0.3217 h -5.55537 v -7.2713 -1.1368 -7.2928 z m 0.34319,8.4081 q -0.0858,0 -0.17159,0.021 -0.0858,0 -0.1716,0 h -4.09682 v 6.1559 h 4.44001 q 0.64348,0 1.20116,-0.2359 0.55768,-0.2359 0.96522,-0.6435 0.42899,-0.429 0.66493,-0.9866 0.25739,-0.5792 0.25739,-1.2227 0,-0.6434 -0.25739,-1.2011 -0.23594,-0.5577 -0.66493,-0.9652 -0.40754,-0.429 -0.96522,-0.665 -0.55768,-0.2574 -1.20116,-0.2574 z m -0.34319,-1.1153 q 0.64348,0 1.20116,-0.236 0.55768,-0.2359 0.96522,-0.6434 0.42899,-0.429 0.66493,-0.9867 0.23594,-0.5577 0.23594,-1.2012 0,-0.6434 -0.23594,-1.2011 -0.23594,-0.5577 -0.66493,-0.9652 -0.40754,-0.429 -0.96522,-0.665 -0.55768,-0.2574 -1.20116,-0.2574 h -4.09682 v 6.156 z" />
        <path
           id="path1193"
           style="font-style:normal;font-variant:normal;font-weight:normal;font-stretch:normal;font-family:TimeBurner;-inkscape-font-specification:TimeBurner;fill:#216778;fill-opacity:1;stroke-width:1.07247"
           d="m -293.3038,2108.0431 q 1.5658,0 2.83131,0.7722 1.28696,0.7507 2.03768,2.0376 l -0.98667,0.5577 q -0.57913,-1.0295 -1.60869,-1.6301 -1.00812,-0.6221 -2.27363,-0.6221 -0.92232,0 -1.73739,0.3647 -0.81508,0.3432 -1.43711,0.9652 -0.60058,0.6006 -0.96521,1.4157 -0.34319,0.815 -0.34319,1.7373 v 4.9334 q 0,0.9438 0.34319,1.7588 0.36463,0.8151 0.96521,1.4157 0.62203,0.6006 1.43711,0.9652 0.81507,0.3432 1.73739,0.3432 1.26551,0 2.27363,-0.6006 1.02956,-0.622 1.60869,-1.6301 l 0.98667,0.5576 q -0.75072,1.2656 -2.03768,2.0377 -1.26551,0.7508 -2.83131,0.7508 -1.15826,0 -2.18783,-0.429 -1.00811,-0.4505 -1.78029,-1.2012 -0.75073,-0.7722 -1.20116,-1.7803 -0.42899,-1.0296 -0.42899,-2.1878 v -4.9334 q 0,-1.1582 0.42899,-2.1663 0.45043,-1.0296 1.20116,-1.7803 0.77218,-0.7722 1.78029,-1.2012 1.02957,-0.4504 2.18783,-0.4504 z" />
        <path
           id="path1195"
           style="font-style:normal;font-variant:normal;font-weight:normal;font-stretch:normal;font-family:TimeBurner;-inkscape-font-specification:TimeBurner;fill:#216778;fill-opacity:1;stroke-width:1.07247"
           d="m -286.39716,2108.2361 h 1.11536 v 15.7009 h -1.11536 z" />
        <path
           id="path1197"
           style="font-style:normal;font-variant:normal;font-weight:normal;font-stretch:normal;font-family:TimeBurner;-inkscape-font-specification:TimeBurner;fill:#216778;fill-opacity:1;stroke-width:1.07247"
           d="m -274.8789,2118.0814 h -8.36523 v -1.1369 h 8.36523 z" />
        <path
           id="path1199"
           style="font-style:normal;font-variant:normal;font-weight:normal;font-stretch:normal;font-family:TimeBurner;-inkscape-font-specification:TimeBurner;fill:#216778;fill-opacity:1;stroke-width:1.07247"
           d="m -272.81981,2108.2361 v 0 0 h 9.3948 v 1.1368 h -8.27943 v 6.156 h 7.22841 v 1.1368 h -7.22841 v 7.2713 h -1.11537 z" />
        <path
           id="path1201"
           style="font-style:normal;font-variant:normal;font-weight:normal;font-stretch:normal;font-family:TimeBurner;-inkscape-font-specification:TimeBurner;fill:#216778;fill-opacity:1;stroke-width:1.07247"
           d="m -261.62333,2123.937 h -1.11536 v -5.3623 q 0,-1.1583 0.42898,-2.1878 0.45044,-1.0296 1.20116,-1.7803 0.77218,-0.7722 1.7803,-1.2012 1.02956,-0.4504 2.18783,-0.4504 v 1.1368 q -0.92232,0 -1.7374,0.3646 -0.81507,0.3432 -1.4371,0.9438 -0.60058,0.6006 -0.96522,1.4371 -0.34319,0.8151 -0.34319,1.7374 z" />
        <path
           id="path1203"
           style="font-style:normal;font-variant:normal;font-weight:normal;font-stretch:normal;font-family:TimeBurner;-inkscape-font-specification:TimeBurner;fill:#216778;fill-opacity:1;stroke-width:1.07247"
           d="m -251.00598,2112.9335 q 1.15826,0 2.18783,0.4505 1.02957,0.4289 1.78029,1.2011 0.77218,0.7507 1.20116,1.7803 0.45044,1.0296 0.45044,2.1878 v 5.3624 h -1.13682 v -1.9948 q -0.75072,1.0295 -1.93043,1.6301 -1.15827,0.6006 -2.55247,0.6006 -1.15826,0 -2.18783,-0.429 -1.00812,-0.4504 -1.78029,-1.2011 -0.75073,-0.7722 -1.20116,-1.7803 -0.42899,-1.0296 -0.42899,-2.1879 0,-1.1582 0.42899,-2.1878 0.45043,-1.0296 1.20116,-1.7803 0.77217,-0.7722 1.78029,-1.2011 1.02957,-0.4505 2.18783,-0.4505 z m 0,1.1368 q -0.92232,0 -1.73739,0.3647 -0.81508,0.3432 -1.43711,0.9437 -0.60058,0.6006 -0.96521,1.4371 -0.34319,0.8151 -0.34319,1.7374 0,0.9224 0.34319,1.7374 0.36463,0.8151 0.96521,1.4371 0.62203,0.6006 1.43711,0.9653 0.81507,0.3431 1.73739,0.3431 0.92232,0 1.73739,-0.3431 0.83653,-0.3647 1.43711,-0.9653 0.60058,-0.622 0.94377,-1.4371 0.36463,-0.815 0.36463,-1.7374 0,-0.9223 -0.36463,-1.7374 -0.34319,-0.8365 -0.94377,-1.4371 -0.60058,-0.6005 -1.43711,-0.9437 -0.81507,-0.3647 -1.73739,-0.3647 z" />
        <path
           id="path1205"
           style="font-style:normal;font-variant:normal;font-weight:normal;font-stretch:normal;font-family:TimeBurner;-inkscape-font-specification:TimeBurner;fill:#216778;fill-opacity:1;stroke-width:1.07247"
           d="m -239.33756,2112.955 q 1.15826,0 2.12348,0.5791 0.96522,0.5791 1.5229,1.5444 0.55768,-0.9653 1.50145,-1.5444 0.96522,-0.5791 2.14493,-0.5791 0.85797,0 1.63015,0.3432 0.77217,0.3217 1.32985,0.9008 0.57913,0.5577 0.90087,1.3299 0.34319,0.7722 0.34319,1.6301 v 6.778 h -1.13681 v -6.778 q 0,-0.6434 -0.23594,-1.2011 -0.23595,-0.5577 -0.66493,-0.9652 -0.40754,-0.429 -0.96522,-0.665 -0.55768,-0.2359 -1.20116,-0.2359 -0.64348,0 -1.22261,0.2359 -0.55768,0.236 -0.98667,0.665 -0.40754,0.4075 -0.64348,0.9652 -0.23594,0.5577 -0.23594,1.2011 v 6.778 h -1.11536 v -6.778 q 0,-0.6434 -0.2574,-1.2011 -0.23594,-0.5577 -0.66492,-0.9652 -0.40754,-0.429 -0.96522,-0.665 -0.55768,-0.2359 -1.20116,-0.2359 -0.64348,0 -1.22261,0.2359 -0.55768,0.236 -0.98667,0.665 -0.40754,0.4075 -0.64348,0.9652 -0.23594,0.5577 -0.23594,1.2011 v 6.778 h -1.11537 v -6.778 q 0,-0.8579 0.32174,-1.6301 0.34319,-0.7722 0.90087,-1.3299 0.57914,-0.5791 1.32986,-0.9008 0.77218,-0.3432 1.6516,-0.3432 z" />
        <path
           id="path1207"
           style="font-style:normal;font-variant:normal;font-weight:normal;font-stretch:normal;font-family:TimeBurner;-inkscape-font-specification:TimeBurner;fill:#216778;fill-opacity:1;stroke-width:1.07247"
           d="m -215.52887,2118.0599 q -0.10725,-0.8365 -0.49334,-1.5443 -0.38608,-0.7079 -0.98667,-1.2441 -0.57913,-0.5362 -1.3513,-0.8365 -0.75073,-0.3003 -1.6087,-0.3003 -0.85797,0 -1.63015,0.3003 -0.77217,0.3003 -1.37275,0.8365 -0.57913,0.5362 -0.96522,1.2441 -0.38609,0.7078 -0.49333,1.5443 z m -4.44001,6.156 q -1.15826,0 -2.18783,-0.429 -1.02956,-0.4505 -1.80174,-1.2012 -0.75072,-0.7722 -1.20116,-1.7803 -0.42899,-1.0296 -0.42899,-2.1878 0,-1.1583 0.42899,-2.1878 0.45044,-1.0296 1.20116,-1.7803 0.77218,-0.7722 1.80174,-1.2012 1.02957,-0.4504 2.18783,-0.4504 1.15826,0 2.16638,0.4504 1.02957,0.429 1.78029,1.2012 0.77218,0.7507 1.20116,1.7803 0.45044,1.0295 0.45044,2.1878 0,0.1501 0,0.2788 0,0.1287 -0.0214,0.2789 h -0.25739 -9.78088 q 0.10724,0.8365 0.49333,1.5443 0.38609,0.7078 0.96522,1.2441 0.60058,0.5362 1.37275,0.8365 0.77218,0.3003 1.63015,0.3003 0.62203,0 1.17971,-0.236 0.55768,-0.2359 0.98667,-0.6649 l 0.79362,0.7936 q -0.55768,0.5577 -1.32985,0.9009 -0.75073,0.3218 -1.63015,0.3218 z" />
        <path
           id="path1209"
           style="font-style:normal;font-variant:normal;font-weight:normal;font-stretch:normal;font-family:TimeBurner;-inkscape-font-specification:TimeBurner;fill:#216778;fill-opacity:1;stroke-width:1.07247"
           d="m -208.34337,2124.173 q -0.87942,0 -1.6516,-0.3218 -0.75072,-0.3432 -1.32985,-0.9009 -0.55768,-0.5791 -0.90087,-1.3298 -0.32174,-0.7722 -0.32174,-1.6516 v -6.7565 h 1.13681 v 6.7565 q 0,0.6435 0.23594,1.2226 0.23595,0.5577 0.64348,0.9867 0.42899,0.4075 0.98667,0.6434 0.55768,0.236 1.20116,0.236 0.64348,0 1.20116,-0.236 0.55768,-0.2359 0.96522,-0.6434 0.42899,-0.429 0.66493,-0.9867 0.25739,-0.5791 0.25739,-1.2226 v -6.7565 h 1.11536 v 6.7565 q 0,0.6435 0.23595,1.2226 0.25739,0.5577 0.66492,0.9867 0.42899,0.4075 0.98667,0.6434 0.55768,0.236 1.20116,0.236 0.64348,0 1.20116,-0.236 0.55769,-0.2359 0.96522,-0.6434 0.42899,-0.429 0.66493,-0.9867 0.25739,-0.5791 0.25739,-1.2226 v -6.7565 h 1.11537 v 6.7565 q 0,0.8794 -0.34319,1.6516 -0.32174,0.7507 -0.90087,1.3298 -0.55769,0.5577 -1.32986,0.9009 -0.77217,0.3218 -1.63015,0.3218 -1.15826,0 -2.12348,-0.5577 -0.96522,-0.5792 -1.5229,-1.5444 -0.55768,0.9652 -1.5229,1.5444 -0.94377,0.5577 -2.12348,0.5577 z" />
        <path
           id="path1211"
           style="font-style:normal;font-variant:normal;font-weight:normal;font-stretch:normal;font-family:TimeBurner;-inkscape-font-specification:TimeBurner;fill:#216778;fill-opacity:1;stroke-width:1.07247"
           d="m -189.5109,2112.955 q 1.15826,0 2.16637,0.4504 1.02957,0.429 1.7803,1.2012 0.77217,0.7507 1.20116,1.7803 0.45043,1.0295 0.45043,2.1878 0,1.1582 -0.45043,2.1878 -0.42899,1.0081 -1.20116,1.7803 -0.75073,0.7507 -1.7803,1.2012 -1.00811,0.429 -2.16637,0.429 -1.15827,0 -2.18783,-0.429 -1.00812,-0.4505 -1.7803,-1.2012 -0.75072,-0.7722 -1.20116,-1.7803 -0.42898,-1.0296 -0.42898,-2.1878 0,-1.1583 0.42898,-2.1878 0.45044,-1.0296 1.20116,-1.7803 0.77218,-0.7722 1.7803,-1.2012 1.02956,-0.4504 2.18783,-0.4504 z m 0,1.1368 q -0.94377,0 -1.75885,0.3646 -0.81507,0.3432 -1.41565,0.9438 -0.60058,0.6006 -0.96522,1.4371 -0.34319,0.8151 -0.34319,1.7374 0,0.9223 0.34319,1.7374 0.36464,0.8151 0.96522,1.4371 0.60058,0.6006 1.41565,0.9652 0.81508,0.3432 1.75885,0.3432 0.92232,0 1.73739,-0.3432 0.81507,-0.3646 1.41565,-0.9652 0.62203,-0.622 0.96522,-1.4371 0.36464,-0.8151 0.36464,-1.7374 0,-0.9223 -0.36464,-1.7374 -0.34319,-0.8365 -0.96522,-1.4371 -0.60058,-0.6006 -1.41565,-0.9438 -0.81507,-0.3646 -1.73739,-0.3646 z" />
        <path
           id="path1213"
           style="font-style:normal;font-variant:normal;font-weight:normal;font-stretch:normal;font-family:TimeBurner;-inkscape-font-specification:TimeBurner;fill:#216778;fill-opacity:1;stroke-width:1.07247"
           d="m -181.10279,2123.937 h -1.11536 v -5.3623 q 0,-1.1583 0.42899,-2.1878 0.45043,-1.0296 1.20116,-1.7803 0.77217,-0.7722 1.78029,-1.2012 1.02956,-0.4504 2.18783,-0.4504 v 1.1368 q -0.92232,0 -1.7374,0.3646 -0.81507,0.3432 -1.4371,0.9438 -0.60058,0.6006 -0.96522,1.4371 -0.34319,0.8151 -0.34319,1.7374 z" />
        <path
           id="path1215"
           style="font-style:normal;font-variant:normal;font-weight:normal;font-stretch:normal;font-family:TimeBurner;-inkscape-font-specification:TimeBurner;fill:#216778;fill-opacity:1;stroke-width:1.07247"
           d="m -174.77527,2107.85 h 1.11537 v 10.7247 l 5.36232,-5.3623 h 1.58725 l -5.36233,5.3623 5.36233,5.3623 h -1.58725 l -5.36232,-5.3623 v 5.3623 h -1.11537 z" />
      </g>
      <g
         style="font-style:normal;font-variant:normal;font-weight:normal;font-stretch:normal;font-size:8.85145px;line-height:1;font-family:Caladea;-inkscape-font-specification:Caladea;letter-spacing:0px;word-spacing:0px;fill:#216778;fill-opacity:1;stroke:none;stroke-width:0.442573"
         id="text860"
         aria-label="A real-time tool for acquisition, analysis
and stimuli delivery for OpenBCI.">
        <path
           id="path1218"
           style="font-style:normal;font-variant:normal;font-weight:100;font-stretch:normal;line-height:1;font-family:Trench;-inkscape-font-specification:'Trench Thin';fill:#216778;fill-opacity:1;stroke-width:0.442573"
           d="m -307.75754,2129.0032 c -0.13277,-0.089 -0.2921,-0.1328 -0.45142,-0.1328 -0.15048,0 -0.2921,0.035 -0.42487,0.1151 l -0.0177,0.018 c -0.14163,0.088 -0.23899,0.2124 -0.30095,0.3629 l -1.79685,4.3018 c -0.009,0.018 -0.009,0.026 -0.009,0.044 0,0.062 0.0531,0.1063 0.10622,0.1063 0.0443,0 0.0797,-0.018 0.0974,-0.062 l 0.53994,-1.2923 h 3.62025 l 0.53993,1.2923 c 0.009,0.044 0.0443,0.062 0.0885,0.062 0.062,0 0.10622,-0.053 0.10622,-0.1151 0,-0.01 0,-0.027 0,-0.035 l -1.79685,-4.3018 c -0.062,-0.1416 -0.15932,-0.2656 -0.28324,-0.3541 h -0.009 z m -0.67271,0.1239 c 0.0708,-0.027 0.15048,-0.044 0.22129,-0.044 0.12392,0 0.23899,0.035 0.33635,0.097 l 0.009,0.01 c 0.0974,0.062 0.16817,0.1593 0.20358,0.2566 l 1.17724,2.806 h -3.44321 l 1.16839,-2.806 c 0.0443,-0.1062 0.12392,-0.1947 0.22129,-0.2655 l 0.10621,-0.071 z" />
        <path
           id="path1220"
           style="font-style:normal;font-variant:normal;font-weight:100;font-stretch:normal;line-height:1;font-family:Trench;-inkscape-font-specification:'Trench Thin';fill:#216778;fill-opacity:1;stroke-width:0.442573"
           d="m -302.99548,2131.5966 v 2.0978 c 0,0.071 0.0531,0.124 0.12392,0.124 0.062,0 0.11507,-0.053 0.11507,-0.124 v -2.1155 c 0.0177,-0.6904 0.61075,-1.2657 1.29231,-1.2657 h 0.47798 c 0.33635,0 0.66385,0.1416 0.9117,0.3806 0.0265,0.027 0.0531,0.035 0.0885,0.035 0.062,0 0.11507,-0.053 0.11507,-0.1239 0,-0.027 -0.009,-0.062 -0.0354,-0.08 -0.28324,-0.2921 -0.67271,-0.4514 -1.07987,-0.4514 h -0.47798 c -0.83204,0 -1.5136,0.6904 -1.5313,1.5136 z" />
        <path
           id="path1222"
           style="font-style:normal;font-variant:normal;font-weight:100;font-stretch:normal;line-height:1;font-family:Trench;-inkscape-font-specification:'Trench Thin';fill:#216778;fill-opacity:1;stroke-width:0.442573"
           d="m -299.0566,2132.4464 h 3.33699 c 0.11507,0 0.21244,-0.097 0.21244,-0.2213 v -0.6196 c 0,-0.832 -0.69927,-1.5313 -1.5313,-1.5313 h -0.68156 c -0.83204,0 -1.5313,0.6993 -1.5313,1.5313 v 0.6107 c 0,0.8498 0.6373,1.6022 1.5313,1.6022 h 1.64637 c 0.062,0 0.11507,-0.053 0.11507,-0.124 0,-0.062 -0.0531,-0.115 -0.11507,-0.115 h -1.64637 c -0.49568,0 -0.97366,-0.301 -1.17725,-0.7701 z m 3.31044,-0.239 h -3.26619 v -0.6019 c 0,-0.7081 0.6019,-1.2923 1.29232,-1.2923 h 0.68156 c 0.69926,0 1.29231,0.593 1.29231,1.2923 z" />
        <path
           id="path1224"
           style="font-style:normal;font-variant:normal;font-weight:100;font-stretch:normal;line-height:1;font-family:Trench;-inkscape-font-specification:'Trench Thin';fill:#216778;fill-opacity:1;stroke-width:0.442573"
           d="m -294.04669,2130.0742 h -0.11507 c -0.062,0 -0.11507,0.053 -0.11507,0.1239 0,0.062 0.0531,0.1151 0.11507,0.1151 h 1.56671 c 0.58419,0 1.11528,0.416 1.2569,0.9825 l 0.0354,0.1416 h -2.27482 c -0.66386,0 -1.19495,0.5311 -1.19495,1.1861 0,0.6639 0.53109,1.195 1.19495,1.195 h 0.98251 c 0.82318,0 1.54015,-0.6816 1.54015,-1.5313 v -0.6816 c 0,-0.8497 -0.71697,-1.5313 -1.54015,-1.5313 z m 1.00021,3.5052 h -0.53108 c -0.53109,0 -0.95596,-0.4249 -0.95596,-0.956 0,-0.5222 0.42487,-0.9471 0.95596,-0.9471 h 2.27482 v 0.6108 c 0,0.6904 -0.57534,1.2923 -1.29231,1.2923 z" />
        <path
           id="path1226"
           style="font-style:normal;font-variant:normal;font-weight:100;font-stretch:normal;line-height:1;font-family:Trench;-inkscape-font-specification:'Trench Thin';fill:#216778;fill-opacity:1;stroke-width:0.442573"
           d="m -290.14322,2133.7033 c 0,0.062 0.0531,0.1151 0.11507,0.1151 0.0708,0 0.12392,-0.053 0.12392,-0.1151 v -4.7178 c 0,-0.062 -0.0531,-0.1151 -0.12392,-0.1151 -0.062,0 -0.11507,0.053 -0.11507,0.1151 z" />
        <path
           id="path1228"
           style="font-style:normal;font-variant:normal;font-weight:100;font-stretch:normal;line-height:1;font-family:Trench;-inkscape-font-specification:'Trench Thin';fill:#216778;fill-opacity:1;stroke-width:0.442573"
           d="m -288.60306,2131.9507 c 1.2392,0 2.48725,0 3.72646,0 0.0708,0 0.12392,-0.053 0.12392,-0.1151 0,-0.071 -0.0531,-0.1239 -0.12392,-0.1239 -1.23921,0 -2.48726,0 -3.72646,0 -0.0708,0 -0.12392,0.053 -0.12392,0.1239 0,0.062 0.0531,0.1151 0.12392,0.1151 z" />
        <path
           id="path1230"
           style="font-style:normal;font-variant:normal;font-weight:100;font-stretch:normal;line-height:1;font-family:Trench;-inkscape-font-specification:'Trench Thin';fill:#216778;fill-opacity:1;stroke-width:0.442573"
           d="m -283.77018,2131.8622 v -1.5579 h 1.52245 c 0.0708,0 0.12392,-0.053 0.12392,-0.1239 0,-0.062 -0.0531,-0.1151 -0.12392,-0.1151 h -1.52245 v -1.0798 c 0,-0.062 -0.0531,-0.1151 -0.12392,-0.1151 -0.062,0 -0.11507,0.053 -0.11507,0.1151 v 3.3193 c 0,0.832 0.68156,1.5136 1.5136,1.5136 h 0.33635 c 0.062,0 0.11507,-0.053 0.11507,-0.1151 0,-0.071 -0.0531,-0.1239 -0.11507,-0.1239 h -0.33635 c -0.69927,0 -1.27461,-0.5754 -1.27461,-1.2746 z" />
        <path
           id="path1232"
           style="font-style:normal;font-variant:normal;font-weight:100;font-stretch:normal;line-height:1;font-family:Trench;-inkscape-font-specification:'Trench Thin';fill:#216778;fill-opacity:1;stroke-width:0.442573"
           d="m -281.02625,2133.7033 c 0,0.062 0.0531,0.1151 0.12392,0.1151 0.062,0 0.11507,-0.053 0.11507,-0.1151 v -3.4609 c 0,-0.071 -0.0531,-0.1239 -0.11507,-0.1239 -0.0708,0 -0.12392,0.053 -0.12392,0.1239 z m 0.12392,-4.6293 c -0.0885,0 -0.15932,0.071 -0.15932,0.1593 0,0.089 0.0708,0.1593 0.15932,0.1593 0.0885,0 0.15933,-0.071 0.15933,-0.1593 0,-0.088 -0.0708,-0.1593 -0.15933,-0.1593 z" />
        <path
           id="path1234"
           style="font-style:normal;font-variant:normal;font-weight:100;font-stretch:normal;line-height:1;font-family:Trench;-inkscape-font-specification:'Trench Thin';fill:#216778;fill-opacity:1;stroke-width:0.442573"
           d="m -273.10421,2131.5966 v -0.01 c -0.0177,-0.832 -0.70812,-1.5136 -1.5313,-1.5136 h -0.31865 c -0.53994,0 -1.00907,0.2744 -1.31887,0.7435 l -0.0974,0.1682 -0.0974,-0.1682 c -0.2744,-0.4691 -0.78778,-0.7435 -1.31002,-0.7435 h -0.31865 c -0.83203,0 -1.5136,0.6904 -1.5313,1.5136 v 2.1066 c 0,0.071 0.0531,0.124 0.12392,0.124 0.062,0 0.11507,-0.053 0.11507,-0.124 v -2.1155 c 0.0177,-0.6904 0.61075,-1.2657 1.29231,-1.2657 h 0.31865 c 0.69042,0 1.29232,0.5842 1.29232,1.2923 v 2.0889 c 0,0.071 0.0531,0.124 0.11506,0.124 0.0708,0 0.12392,-0.053 0.12392,-0.124 v -2.1155 c 0.0177,-0.6727 0.5842,-1.2657 1.29232,-1.2657 h 0.31865 c 0.68156,0 1.28346,0.5753 1.28346,1.2923 v 2.0889 c 0,0.071 0.062,0.124 0.12392,0.124 0.0708,0 0.12392,-0.053 0.12392,-0.124 z" />
        <path
           id="path1236"
           style="font-style:normal;font-variant:normal;font-weight:100;font-stretch:normal;line-height:1;font-family:Trench;-inkscape-font-specification:'Trench Thin';fill:#216778;fill-opacity:1;stroke-width:0.442573"
           d="m -272.13056,2132.4464 h 3.33699 c 0.11507,0 0.21244,-0.097 0.21244,-0.2213 v -0.6196 c 0,-0.832 -0.69927,-1.5313 -1.5313,-1.5313 h -0.68156 c -0.83204,0 -1.5313,0.6993 -1.5313,1.5313 v 0.6107 c 0,0.8498 0.6373,1.6022 1.5313,1.6022 h 1.64637 c 0.062,0 0.11506,-0.053 0.11506,-0.124 0,-0.062 -0.0531,-0.115 -0.11506,-0.115 h -1.64637 c -0.49568,0 -0.97366,-0.301 -1.17725,-0.7701 z m 3.31044,-0.239 h -3.26619 v -0.6019 c 0,-0.7081 0.6019,-1.2923 1.29232,-1.2923 h 0.68156 c 0.69926,0 1.29231,0.593 1.29231,1.2923 z" />
        <path
           id="path1238"
           style="font-style:normal;font-variant:normal;font-weight:100;font-stretch:normal;line-height:1;font-family:Trench;-inkscape-font-specification:'Trench Thin';fill:#216778;fill-opacity:1;stroke-width:0.442573"
           d="m -265.46544,2131.8622 v -1.5579 h 1.52245 c 0.0708,0 0.12392,-0.053 0.12392,-0.1239 0,-0.062 -0.0531,-0.1151 -0.12392,-0.1151 h -1.52245 v -1.0798 c 0,-0.062 -0.0531,-0.1151 -0.12392,-0.1151 -0.062,0 -0.11507,0.053 -0.11507,0.1151 v 3.3193 c 0,0.832 0.68156,1.5136 1.51359,1.5136 h 0.33636 c 0.062,0 0.11507,-0.053 0.11507,-0.1151 0,-0.071 -0.0531,-0.1239 -0.11507,-0.1239 h -0.33636 c -0.69926,0 -1.2746,-0.5754 -1.2746,-1.2746 z" />
        <path
           id="path1240"
           style="font-style:normal;font-variant:normal;font-weight:100;font-stretch:normal;line-height:1;font-family:Trench;-inkscape-font-specification:'Trench Thin';fill:#216778;fill-opacity:1;stroke-width:0.442573"
           d="m -261.22562,2130.0742 c -0.83203,0 -1.5313,0.6993 -1.5313,1.5313 v 0.6816 c 0,0.832 0.69927,1.5313 1.5313,1.5313 h 0.68157 c 0.83203,0 1.5313,-0.6993 1.5313,-1.5313 v -0.6816 c 0,-0.832 -0.69927,-1.5313 -1.5313,-1.5313 z m 0.68157,0.239 c 0.69041,0 1.29231,0.5842 1.29231,1.2923 v 0.6816 c 0,0.6992 -0.59305,1.2923 -1.29231,1.2923 h -0.68157 c -0.69926,0 -1.29231,-0.6019 -1.29231,-1.2923 v -0.6816 c 0,-0.717 0.61075,-1.2923 1.29231,-1.2923 z" />
        <path
           id="path1242"
           style="font-style:normal;font-variant:normal;font-weight:100;font-stretch:normal;line-height:1;font-family:Trench;-inkscape-font-specification:'Trench Thin';fill:#216778;fill-opacity:1;stroke-width:0.442573"
           d="m -256.56976,2130.0742 c -0.83203,0 -1.5313,0.6993 -1.5313,1.5313 v 0.6816 c 0,0.832 0.69927,1.5313 1.5313,1.5313 h 0.68156 c 0.83204,0 1.5313,-0.6993 1.5313,-1.5313 v -0.6816 c 0,-0.832 -0.69926,-1.5313 -1.5313,-1.5313 z m 0.68156,0.239 c 0.69042,0 1.29232,0.5842 1.29232,1.2923 v 0.6816 c 0,0.6992 -0.59305,1.2923 -1.29232,1.2923 h -0.68156 c -0.69926,0 -1.29231,-0.6019 -1.29231,-1.2923 v -0.6816 c 0,-0.717 0.61075,-1.2923 1.29231,-1.2923 z" />
        <path
           id="path1244"
           style="font-style:normal;font-variant:normal;font-weight:100;font-stretch:normal;line-height:1;font-family:Trench;-inkscape-font-specification:'Trench Thin';fill:#216778;fill-opacity:1;stroke-width:0.442573"
           d="m -253.44521,2133.7033 c 0,0.062 0.0531,0.1151 0.11507,0.1151 0.0708,0 0.12392,-0.053 0.12392,-0.1151 v -4.7178 c 0,-0.062 -0.0531,-0.1151 -0.12392,-0.1151 -0.062,0 -0.11507,0.053 -0.11507,0.1151 z" />
        <path
           id="path1246"
           style="font-style:normal;font-variant:normal;font-weight:100;font-stretch:normal;line-height:1;font-family:Trench;-inkscape-font-specification:'Trench Thin';fill:#216778;fill-opacity:1;stroke-width:0.442573"
           d="m -250.06397,2130.8266 v 2.8767 c 0,0.062 0.0531,0.1151 0.11507,0.1151 0.0708,0 0.12392,-0.053 0.12392,-0.1151 v -1.2392 h 1.52245 c 0.0708,0 0.12392,-0.053 0.12392,-0.1151 0,-0.071 -0.0531,-0.1239 -0.12392,-0.1239 h -1.52245 v -1.8411 c 0,-0.7081 0.57534,-1.2746 1.27461,-1.2746 h 0.33635 c 0.062,0 0.11507,-0.053 0.11507,-0.1239 0,-0.062 -0.0531,-0.1151 -0.11507,-0.1151 h -0.33635 c -0.83204,0 -1.5136,0.6816 -1.5136,1.5136 z" />
        <path
           id="path1248"
           style="font-style:normal;font-variant:normal;font-weight:100;font-stretch:normal;line-height:1;font-family:Trench;-inkscape-font-specification:'Trench Thin';fill:#216778;fill-opacity:1;stroke-width:0.442573"
           d="m -245.65596,2130.0742 c -0.83204,0 -1.5313,0.6993 -1.5313,1.5313 v 0.6816 c 0,0.832 0.69926,1.5313 1.5313,1.5313 h 0.68156 c 0.83204,0 1.5313,-0.6993 1.5313,-1.5313 v -0.6816 c 0,-0.832 -0.69926,-1.5313 -1.5313,-1.5313 z m 0.68156,0.239 c 0.69042,0 1.29231,0.5842 1.29231,1.2923 v 0.6816 c 0,0.6992 -0.59304,1.2923 -1.29231,1.2923 h -0.68156 c -0.69926,0 -1.29231,-0.6019 -1.29231,-1.2923 v -0.6816 c 0,-0.717 0.61075,-1.2923 1.29231,-1.2923 z" />
        <path
           id="path1250"
           style="font-style:normal;font-variant:normal;font-weight:100;font-stretch:normal;line-height:1;font-family:Trench;-inkscape-font-specification:'Trench Thin';fill:#216778;fill-opacity:1;stroke-width:0.442573"
           d="m -242.5314,2131.5966 v 2.0978 c 0,0.071 0.0531,0.124 0.12392,0.124 0.062,0 0.11507,-0.053 0.11507,-0.124 v -2.1155 c 0.0177,-0.6904 0.61075,-1.2657 1.29231,-1.2657 h 0.47798 c 0.33635,0 0.66386,0.1416 0.9117,0.3806 0.0266,0.027 0.0531,0.035 0.0885,0.035 0.062,0 0.11507,-0.053 0.11507,-0.1239 0,-0.027 -0.009,-0.062 -0.0354,-0.08 -0.28324,-0.2921 -0.67271,-0.4514 -1.07987,-0.4514 h -0.47798 c -0.83204,0 -1.5136,0.6904 -1.5313,1.5136 z" />
        <path
           id="path1252"
           style="font-style:normal;font-variant:normal;font-weight:100;font-stretch:normal;line-height:1;font-family:Trench;-inkscape-font-specification:'Trench Thin';fill:#216778;fill-opacity:1;stroke-width:0.442573"
           d="m -235.99906,2130.0742 h -0.11507 c -0.062,0 -0.11507,0.053 -0.11507,0.1239 0,0.062 0.0531,0.1151 0.11507,0.1151 h 1.56671 c 0.58419,0 1.11528,0.416 1.2569,0.9825 l 0.0354,0.1416 h -2.27482 c -0.66386,0 -1.19495,0.5311 -1.19495,1.1861 0,0.6639 0.53109,1.195 1.19495,1.195 h 0.98251 c 0.82318,0 1.54015,-0.6816 1.54015,-1.5313 v -0.6816 c 0,-0.8497 -0.71697,-1.5313 -1.54015,-1.5313 z m 1.00021,3.5052 h -0.53108 c -0.53109,0 -0.95596,-0.4249 -0.95596,-0.956 0,-0.5222 0.42487,-0.9471 0.95596,-0.9471 h 2.27482 v 0.6108 c 0,0.6904 -0.57535,1.2923 -1.29231,1.2923 z" />
        <path
           id="path1254"
           style="font-style:normal;font-variant:normal;font-weight:100;font-stretch:normal;line-height:1;font-family:Trench;-inkscape-font-specification:'Trench Thin';fill:#216778;fill-opacity:1;stroke-width:0.442573"
           d="m -229.24542,2133.5794 h -1.31887 c -0.69926,0 -1.29231,-0.5931 -1.29231,-1.2923 v -0.6816 c 0,-0.717 0.61075,-1.2923 1.29231,-1.2923 h 1.43394 c 0.062,0 0.11507,-0.053 0.11507,-0.1151 0,-0.071 -0.0531,-0.1239 -0.11507,-0.1239 h -1.43394 c -0.83203,0 -1.5313,0.6993 -1.5313,1.5313 v 0.6816 c 0,0.832 0.69927,1.5313 1.5313,1.5313 h 1.43394 c 0.062,0 0.11507,-0.053 0.11507,-0.124 0,-0.062 -0.0531,-0.115 -0.11507,-0.115 z" />
        <path
           id="path1256"
           style="font-style:normal;font-variant:normal;font-weight:100;font-stretch:normal;line-height:1;font-family:Trench;-inkscape-font-specification:'Trench Thin';fill:#216778;fill-opacity:1;stroke-width:0.442573"
           d="m -224.54531,2131.5789 c 0,-0.8143 -0.69041,-1.5047 -1.50474,-1.5047 h -0.66386 c -0.81434,0 -1.50475,0.6904 -1.50475,1.5047 v 0.7347 c 0,0.8143 0.69041,1.5048 1.50475,1.5048 h 0.66386 c 0.39831,0 0.77892,-0.1594 1.06217,-0.4426 l 0.20358,-0.2036 v 2.3191 c 0,0.062 0.0531,0.1151 0.12392,0.1151 0.062,0 0.11507,-0.053 0.11507,-0.1151 z m -0.23899,0.7613 c 0,0.6815 -0.60189,1.2392 -1.26575,1.2392 h -0.66386 c -0.69042,0 -1.26576,-0.5754 -1.26576,-1.2658 v -0.7347 c 0,-0.6904 0.57534,-1.2657 1.26576,-1.2657 h 0.66386 c 0.69041,0 1.26575,0.5753 1.26575,1.2657 v 0.5134 z" />
        <path
           id="path1258"
           style="font-style:normal;font-variant:normal;font-weight:100;font-stretch:normal;line-height:1;font-family:Trench;-inkscape-font-specification:'Trench Thin';fill:#216778;fill-opacity:1;stroke-width:0.442573"
           d="m -223.53625,2132.2959 v 0.01 c 0.0177,0.8231 0.69927,1.5136 1.5313,1.5136 h 0.31866 c 0.83203,0 1.51359,-0.6905 1.5313,-1.5136 v -2.1067 c 0,-0.071 -0.0531,-0.1239 -0.12392,-0.1239 -0.062,0 -0.11507,0.053 -0.11507,0.1239 v 2.089 c 0,0.6992 -0.59305,1.2923 -1.29231,1.2923 h -0.31866 c -0.68156,0 -1.27461,-0.5665 -1.29231,-1.2746 v -2.1067 c 0,-0.071 -0.0531,-0.1239 -0.11507,-0.1239 -0.0708,0 -0.12392,0.053 -0.12392,0.1239 z" />
        <path
           id="path1260"
           style="font-style:normal;font-variant:normal;font-weight:100;font-stretch:normal;line-height:1;font-family:Trench;-inkscape-font-specification:'Trench Thin';fill:#216778;fill-opacity:1;stroke-width:0.442573"
           d="m -219.34951,2133.7033 c 0,0.062 0.0531,0.1151 0.12392,0.1151 0.062,0 0.11507,-0.053 0.11507,-0.1151 v -3.4609 c 0,-0.071 -0.0531,-0.1239 -0.11507,-0.1239 -0.0708,0 -0.12392,0.053 -0.12392,0.1239 z m 0.12392,-4.6293 c -0.0885,0 -0.15933,0.071 -0.15933,0.1593 0,0.089 0.0708,0.1593 0.15933,0.1593 0.0885,0 0.15932,-0.071 0.15932,-0.1593 0,-0.088 -0.0708,-0.1593 -0.15932,-0.1593 z" />
        <path
           id="path1262"
           style="font-style:normal;font-variant:normal;font-weight:100;font-stretch:normal;line-height:1;font-family:Trench;-inkscape-font-specification:'Trench Thin';fill:#216778;fill-opacity:1;stroke-width:0.442573"
           d="m -214.6671,2130.9947 c 0,-0.035 0.009,-0.062 0.009,-0.089 0,-0.1858 -0.10622,-0.3983 -0.23899,-0.5399 l -0.0265,-0.027 c -0.16818,-0.1681 -0.39832,-0.2655 -0.63731,-0.2655 h -1.44278 c -0.48683,0 -0.9117,0.3983 -0.9117,0.9117 0,1.0799 1.50474,1.0268 2.27482,1.1772 0.36291,0.071 0.83204,0.2302 0.83204,0.7436 0,0.3629 -0.30095,0.6638 -0.66386,0.6638 h -1.57556 c -0.3098,0 -0.65501,-0.2567 -0.65501,-0.5753 0,-0.027 0,-0.053 0,-0.097 0,-0.071 -0.0531,-0.1239 -0.12392,-0.1239 -0.11507,0 -0.12392,0.1416 -0.12392,0.2301 0,0.4337 0.44257,0.8144 0.90285,0.8144 h 1.57556 c 0.51338,0 0.9117,-0.4249 0.9117,-0.9117 0,-1.6022 -3.10686,-0.5754 -3.10686,-1.9208 0,-0.3629 0.30095,-0.6639 0.66386,-0.6639 h 1.44278 c 0.17703,0 0.34521,0.071 0.46913,0.1948 l 0.0354,0.035 c 0.0797,0.097 0.15047,0.2478 0.15047,0.3629 0,0.018 0,0.044 0,0.08 0,0.062 0.0531,0.1151 0.11507,0.1151 0.0708,0 0.12392,-0.053 0.12392,-0.1151 z" />
        <path
           id="path1264"
           style="font-style:normal;font-variant:normal;font-weight:100;font-stretch:normal;line-height:1;font-family:Trench;-inkscape-font-specification:'Trench Thin';fill:#216778;fill-opacity:1;stroke-width:0.442573"
           d="m -213.62264,2133.7033 c 0,0.062 0.0531,0.1151 0.12392,0.1151 0.062,0 0.11506,-0.053 0.11506,-0.1151 v -3.4609 c 0,-0.071 -0.0531,-0.1239 -0.11506,-0.1239 -0.0708,0 -0.12392,0.053 -0.12392,0.1239 z m 0.12392,-4.6293 c -0.0885,0 -0.15933,0.071 -0.15933,0.1593 0,0.089 0.0708,0.1593 0.15933,0.1593 0.0885,0 0.15932,-0.071 0.15932,-0.1593 0,-0.088 -0.0708,-0.1593 -0.15932,-0.1593 z" />
        <path
           id="path1266"
           style="font-style:normal;font-variant:normal;font-weight:100;font-stretch:normal;line-height:1;font-family:Trench;-inkscape-font-specification:'Trench Thin';fill:#216778;fill-opacity:1;stroke-width:0.442573"
           d="m -211.98514,2131.8622 v -1.5579 h 1.52245 c 0.0708,0 0.12392,-0.053 0.12392,-0.1239 0,-0.062 -0.0531,-0.1151 -0.12392,-0.1151 h -1.52245 v -1.0798 c 0,-0.062 -0.0531,-0.1151 -0.12392,-0.1151 -0.062,0 -0.11507,0.053 -0.11507,0.1151 v 3.3193 c 0,0.832 0.68156,1.5136 1.5136,1.5136 h 0.33635 c 0.062,0 0.11507,-0.053 0.11507,-0.1151 0,-0.071 -0.0531,-0.1239 -0.11507,-0.1239 h -0.33635 c -0.69927,0 -1.27461,-0.5754 -1.27461,-1.2746 z" />
        <path
           id="path1268"
           style="font-style:normal;font-variant:normal;font-weight:100;font-stretch:normal;line-height:1;font-family:Trench;-inkscape-font-specification:'Trench Thin';fill:#216778;fill-opacity:1;stroke-width:0.442573"
           d="m -209.24121,2133.7033 c 0,0.062 0.0531,0.1151 0.12392,0.1151 0.062,0 0.11507,-0.053 0.11507,-0.1151 v -3.4609 c 0,-0.071 -0.0531,-0.1239 -0.11507,-0.1239 -0.0708,0 -0.12392,0.053 -0.12392,0.1239 z m 0.12392,-4.6293 c -0.0885,0 -0.15932,0.071 -0.15932,0.1593 0,0.089 0.0708,0.1593 0.15932,0.1593 0.0885,0 0.15933,-0.071 0.15933,-0.1593 0,-0.088 -0.0708,-0.1593 -0.15933,-0.1593 z" />
        <path
           id="path1270"
           style="font-style:normal;font-variant:normal;font-weight:100;font-stretch:normal;line-height:1;font-family:Trench;-inkscape-font-specification:'Trench Thin';fill:#216778;fill-opacity:1;stroke-width:0.442573"
           d="m -206.31138,2130.0742 c -0.83204,0 -1.5313,0.6993 -1.5313,1.5313 v 0.6816 c 0,0.832 0.69926,1.5313 1.5313,1.5313 h 0.68156 c 0.83204,0 1.5313,-0.6993 1.5313,-1.5313 v -0.6816 c 0,-0.832 -0.69926,-1.5313 -1.5313,-1.5313 z m 0.68156,0.239 c 0.69041,0 1.29231,0.5842 1.29231,1.2923 v 0.6816 c 0,0.6992 -0.59304,1.2923 -1.29231,1.2923 h -0.68156 c -0.69927,0 -1.29231,-0.6019 -1.29231,-1.2923 v -0.6816 c 0,-0.717 0.61075,-1.2923 1.29231,-1.2923 z" />
        <path
           id="path1272"
           style="font-style:normal;font-variant:normal;font-weight:100;font-stretch:normal;line-height:1;font-family:Trench;-inkscape-font-specification:'Trench Thin';fill:#216778;fill-opacity:1;stroke-width:0.442573"
           d="m -199.44267,2131.5966 v -0.01 c 0,-0.8143 -0.70811,-1.5136 -1.5313,-1.5136 h -0.68156 c -0.83203,0 -1.5136,0.6904 -1.5313,1.5136 v 2.1066 c 0,0.071 0.0531,0.124 0.12392,0.124 0.062,0 0.11507,-0.053 0.11507,-0.124 v -2.1155 c 0.0177,-0.6815 0.6019,-1.2657 1.29231,-1.2657 h 0.68156 c 0.69042,0 1.29232,0.5842 1.29232,1.2923 v 2.0889 c 0,0.071 0.0531,0.124 0.11506,0.124 0.0708,0 0.12392,-0.053 0.12392,-0.124 z" />
        <path
           id="path1274"
           style="font-style:normal;font-variant:normal;font-weight:100;font-stretch:normal;line-height:1;font-family:Trench;-inkscape-font-specification:'Trench Thin';fill:#216778;fill-opacity:1;stroke-width:0.442573"
           d="m -197.71665,2133.3669 c 0.0443,-0.071 0.0177,-0.1504 -0.0531,-0.1947 -0.062,-0.035 -0.15047,-0.018 -0.18588,0.053 -0.44257,0.7524 -0.46912,0.8055 -0.49568,0.8498 -0.0354,0.071 -0.0177,0.1593 0.0531,0.1947 0.062,0.035 0.15047,0.018 0.19473,-0.053 z" />
        <path
           id="path1276"
           style="font-style:normal;font-variant:normal;font-weight:100;font-stretch:normal;line-height:1;font-family:Trench;-inkscape-font-specification:'Trench Thin';fill:#216778;fill-opacity:1;stroke-width:0.442573"
           d="m -194.40624,2130.0742 h -0.11507 c -0.062,0 -0.11507,0.053 -0.11507,0.1239 0,0.062 0.0531,0.1151 0.11507,0.1151 h 1.56671 c 0.58419,0 1.11528,0.416 1.2569,0.9825 l 0.0354,0.1416 h -2.27483 c -0.66385,0 -1.19494,0.5311 -1.19494,1.1861 0,0.6639 0.53109,1.195 1.19494,1.195 h 0.98252 c 0.82318,0 1.54015,-0.6816 1.54015,-1.5313 v -0.6816 c 0,-0.8497 -0.71697,-1.5313 -1.54015,-1.5313 z m 1.00021,3.5052 h -0.53109 c -0.53108,0 -0.95595,-0.4249 -0.95595,-0.956 0,-0.5222 0.42487,-0.9471 0.95595,-0.9471 h 2.27483 v 0.6108 c 0,0.6904 -0.57535,1.2923 -1.29231,1.2923 z" />
        <path
           id="path1278"
           style="font-style:normal;font-variant:normal;font-weight:100;font-stretch:normal;line-height:1;font-family:Trench;-inkscape-font-specification:'Trench Thin';fill:#216778;fill-opacity:1;stroke-width:0.442573"
           d="m -186.7586,2131.5966 v -0.01 c 0,-0.8143 -0.70811,-1.5136 -1.5313,-1.5136 h -0.68156 c -0.83204,0 -1.5136,0.6904 -1.5313,1.5136 v 2.1066 c 0,0.071 0.0531,0.124 0.12392,0.124 0.062,0 0.11507,-0.053 0.11507,-0.124 v -2.1155 c 0.0177,-0.6815 0.6019,-1.2657 1.29231,-1.2657 h 0.68156 c 0.69041,0 1.29231,0.5842 1.29231,1.2923 v 2.0889 c 0,0.071 0.0531,0.124 0.11507,0.124 0.0708,0 0.12392,-0.053 0.12392,-0.124 z" />
        <path
           id="path1280"
           style="font-style:normal;font-variant:normal;font-weight:100;font-stretch:normal;line-height:1;font-family:Trench;-inkscape-font-specification:'Trench Thin';fill:#216778;fill-opacity:1;stroke-width:0.442573"
           d="m -185.25387,2130.0742 h -0.11507 c -0.062,0 -0.11507,0.053 -0.11507,0.1239 0,0.062 0.0531,0.1151 0.11507,0.1151 h 1.56671 c 0.5842,0 1.11528,0.416 1.25691,0.9825 l 0.0354,0.1416 h -2.27482 c -0.66386,0 -1.19495,0.5311 -1.19495,1.1861 0,0.6639 0.53109,1.195 1.19495,1.195 h 0.98251 c 0.82318,0 1.54015,-0.6816 1.54015,-1.5313 v -0.6816 c 0,-0.8497 -0.71697,-1.5313 -1.54015,-1.5313 z m 1.00022,3.5052 h -0.53109 c -0.53109,0 -0.95596,-0.4249 -0.95596,-0.956 0,-0.5222 0.42487,-0.9471 0.95596,-0.9471 h 2.27482 v 0.6108 c 0,0.6904 -0.57534,1.2923 -1.29231,1.2923 z" />
        <path
           id="path1282"
           style="font-style:normal;font-variant:normal;font-weight:100;font-stretch:normal;line-height:1;font-family:Trench;-inkscape-font-specification:'Trench Thin';fill:#216778;fill-opacity:1;stroke-width:0.442573"
           d="m -181.3504,2133.7033 c 0,0.062 0.0531,0.1151 0.11507,0.1151 0.0708,0 0.12392,-0.053 0.12392,-0.1151 v -4.7178 c 0,-0.062 -0.0531,-0.1151 -0.12392,-0.1151 -0.062,0 -0.11507,0.053 -0.11507,0.1151 z" />
        <path
           id="path1284"
           style="font-style:normal;font-variant:normal;font-weight:100;font-stretch:normal;line-height:1;font-family:Trench;-inkscape-font-specification:'Trench Thin';fill:#216778;fill-opacity:1;stroke-width:0.442573"
           d="m -176.92467,2130.1893 v -0.018 -0.018 l -0.009,-0.01 -0.009,-0.01 -0.009,-0.018 -0.009,-0.01 -0.009,-0.01 -0.009,-0.01 -0.0177,-0.01 -0.009,-0.01 h -0.0177 -0.0177 -0.0177 -0.0177 l -0.0177,0.01 -0.0177,0.01 -0.0177,0.018 -0.009,0.018 -0.009,0.01 -0.009,0.018 v 0.018 l -0.009,0.01 v 1.3985 c 0,0.6905 -0.57535,1.2658 -1.26576,1.2658 -0.69041,0 -1.26576,-0.5753 -1.26576,-1.2658 v -1.3896 c 0,-0.062 -0.0531,-0.1151 -0.12392,-0.1151 -0.062,0 -0.11507,0.053 -0.11507,0.1151 v 1.3896 c 0,0.8144 0.69041,1.5048 1.50475,1.5048 0.39831,0 0.77893,-0.1593 1.06217,-0.4426 l 0.20359,-0.2036 v 1.5933 c 0,0.6904 -0.57535,1.2658 -1.26576,1.2658 h -0.33636 c -0.062,0 -0.11507,0.053 -0.11507,0.1239 0,0.062 0.0531,0.115 0.11507,0.115 h 0.33636 c 0.81433,0 1.50474,-0.6904 1.50474,-1.5047 z" />
        <path
           id="path1286"
           style="font-style:normal;font-variant:normal;font-weight:100;font-stretch:normal;line-height:1;font-family:Trench;-inkscape-font-specification:'Trench Thin';fill:#216778;fill-opacity:1;stroke-width:0.442573"
           d="m -172.54321,2130.9947 c 0,-0.035 0.009,-0.062 0.009,-0.089 0,-0.1858 -0.10622,-0.3983 -0.23899,-0.5399 l -0.0266,-0.027 c -0.16817,-0.1681 -0.39831,-0.2655 -0.6373,-0.2655 H -174.88 c -0.48683,0 -0.9117,0.3983 -0.9117,0.9117 0,1.0799 1.50475,1.0268 2.27483,1.1772 0.36291,0.071 0.83203,0.2302 0.83203,0.7436 0,0.3629 -0.30095,0.6638 -0.66386,0.6638 h -1.57555 c -0.30981,0 -0.65501,-0.2567 -0.65501,-0.5753 0,-0.027 0,-0.053 0,-0.097 0,-0.071 -0.0531,-0.1239 -0.12392,-0.1239 -0.11507,0 -0.12392,0.1416 -0.12392,0.2301 0,0.4337 0.44257,0.8144 0.90285,0.8144 h 1.57555 c 0.51339,0 0.9117,-0.4249 0.9117,-0.9117 0,-1.6022 -3.10686,-0.5754 -3.10686,-1.9208 0,-0.3629 0.30095,-0.6639 0.66386,-0.6639 h 1.44279 c 0.17703,0 0.34521,0.071 0.46913,0.1948 l 0.0354,0.035 c 0.0797,0.097 0.15048,0.2478 0.15048,0.3629 0,0.018 0,0.044 0,0.08 0,0.062 0.0531,0.1151 0.11506,0.1151 0.0708,0 0.12393,-0.053 0.12393,-0.1151 z" />
        <path
           id="path1288"
           style="font-style:normal;font-variant:normal;font-weight:100;font-stretch:normal;line-height:1;font-family:Trench;-inkscape-font-specification:'Trench Thin';fill:#216778;fill-opacity:1;stroke-width:0.442573"
           d="m -171.49876,2133.7033 c 0,0.062 0.0531,0.1151 0.12392,0.1151 0.062,0 0.11507,-0.053 0.11507,-0.1151 v -3.4609 c 0,-0.071 -0.0531,-0.1239 -0.11507,-0.1239 -0.0708,0 -0.12392,0.053 -0.12392,0.1239 z m 0.12392,-4.6293 c -0.0885,0 -0.15932,0.071 -0.15932,0.1593 0,0.089 0.0708,0.1593 0.15932,0.1593 0.0885,0 0.15933,-0.071 0.15933,-0.1593 0,-0.088 -0.0708,-0.1593 -0.15933,-0.1593 z" />
        <path
           id="path1290"
           style="font-style:normal;font-variant:normal;font-weight:100;font-stretch:normal;line-height:1;font-family:Trench;-inkscape-font-specification:'Trench Thin';fill:#216778;fill-opacity:1;stroke-width:0.442573"
           d="m -166.81635,2130.9947 c 0,-0.035 0.009,-0.062 0.009,-0.089 0,-0.1858 -0.10621,-0.3983 -0.23898,-0.5399 l -0.0266,-0.027 c -0.16818,-0.1681 -0.39831,-0.2655 -0.6373,-0.2655 h -1.44279 c -0.48683,0 -0.9117,0.3983 -0.9117,0.9117 0,1.0799 1.50475,1.0268 2.27482,1.1772 0.36291,0.071 0.83204,0.2302 0.83204,0.7436 0,0.3629 -0.30095,0.6638 -0.66386,0.6638 h -1.57556 c -0.3098,0 -0.655,-0.2567 -0.655,-0.5753 0,-0.027 0,-0.053 0,-0.097 0,-0.071 -0.0531,-0.1239 -0.12392,-0.1239 -0.11507,0 -0.12392,0.1416 -0.12392,0.2301 0,0.4337 0.44257,0.8144 0.90284,0.8144 h 1.57556 c 0.51339,0 0.9117,-0.4249 0.9117,-0.9117 0,-1.6022 -3.10686,-0.5754 -3.10686,-1.9208 0,-0.3629 0.30095,-0.6639 0.66386,-0.6639 h 1.44279 c 0.17703,0 0.3452,0.071 0.46912,0.1948 l 0.0354,0.035 c 0.0797,0.097 0.15047,0.2478 0.15047,0.3629 0,0.018 0,0.044 0,0.08 0,0.062 0.0531,0.1151 0.11507,0.1151 0.0708,0 0.12392,-0.053 0.12392,-0.1151 z" />
        <path
           id="path1292"
           style="font-style:normal;font-variant:normal;font-weight:100;font-stretch:normal;line-height:1;font-family:Trench;-inkscape-font-specification:'Trench Thin';fill:#216778;fill-opacity:1;stroke-width:0.442573"
           d="m -310.20939,2139.1735 h -0.11507 c -0.062,0 -0.11507,0.053 -0.11507,0.1239 0,0.062 0.0531,0.1151 0.11507,0.1151 h 1.56671 c 0.58419,0 1.11528,0.416 1.2569,0.9825 l 0.0354,0.1416 h -2.27482 c -0.66386,0 -1.19495,0.5311 -1.19495,1.1861 0,0.6639 0.53109,1.1949 1.19495,1.1949 h 0.98251 c 0.82318,0 1.54015,-0.6815 1.54015,-1.5313 v -0.6815 c 0,-0.8498 -0.71697,-1.5313 -1.54015,-1.5313 z m 1.00022,3.5052 h -0.53109 c -0.53109,0 -0.95596,-0.4249 -0.95596,-0.956 0,-0.5222 0.42487,-0.9471 0.95596,-0.9471 h 2.27482 v 0.6107 c 0,0.6905 -0.57534,1.2924 -1.29231,1.2924 z" />
        <path
           id="path1294"
           style="font-style:normal;font-variant:normal;font-weight:100;font-stretch:normal;line-height:1;font-family:Trench;-inkscape-font-specification:'Trench Thin';fill:#216778;fill-opacity:1;stroke-width:0.442573"
           d="m -302.56175,2140.6959 v -0.01 c 0,-0.8143 -0.70812,-1.5136 -1.5313,-1.5136 h -0.68156 c -0.83204,0 -1.5136,0.6904 -1.5313,1.5136 v 2.1066 c 0,0.071 0.0531,0.1239 0.12392,0.1239 0.062,0 0.11507,-0.053 0.11507,-0.1239 v -2.1155 c 0.0177,-0.6815 0.60189,-1.2657 1.29231,-1.2657 h 0.68156 c 0.69041,0 1.29231,0.5842 1.29231,1.2923 v 2.0889 c 0,0.071 0.0531,0.1239 0.11507,0.1239 0.0708,0 0.12392,-0.053 0.12392,-0.1239 z" />
        <path
           id="path1296"
           style="font-style:normal;font-variant:normal;font-weight:100;font-stretch:normal;line-height:1;font-family:Trench;-inkscape-font-specification:'Trench Thin';fill:#216778;fill-opacity:1;stroke-width:0.442573"
           d="m -297.91476,2138.0228 c 0,-0.071 -0.0531,-0.1239 -0.11506,-0.1239 -0.0708,0 -0.12392,0.053 -0.12392,0.1239 v 1.788 l -0.20359,-0.2124 c -0.27439,-0.2833 -0.67271,-0.4426 -1.07102,-0.4426 h -0.66386 c -0.83204,0 -1.5136,0.6904 -1.5136,1.5136 v 0.7347 c 0,0.832 0.68156,1.5135 1.5136,1.5135 h 0.66386 c 0.83203,0 1.51359,-0.6815 1.51359,-1.5135 z m -0.23898,2.8679 v 0.5134 c 0,0.6992 -0.57535,1.2746 -1.27461,1.2746 h -0.66386 c -0.69927,0 -1.27461,-0.5754 -1.27461,-1.2746 v -0.7347 c 0,-0.6993 0.57534,-1.2746 1.27461,-1.2746 h 0.66386 c 0.67271,0 1.27461,0.5665 1.27461,1.248 z" />
        <path
           id="path1298"
           style="font-style:normal;font-variant:normal;font-weight:100;font-stretch:normal;line-height:1;font-family:Trench;-inkscape-font-specification:'Trench Thin';fill:#216778;fill-opacity:1;stroke-width:0.442573"
           d="m -291.61254,2140.094 c 0,-0.035 0.009,-0.062 0.009,-0.088 0,-0.1859 -0.10622,-0.3983 -0.23899,-0.5399 l -0.0266,-0.027 c -0.16817,-0.1681 -0.39831,-0.2655 -0.6373,-0.2655 h -1.44279 c -0.48683,0 -0.9117,0.3983 -0.9117,0.9117 0,1.0799 1.50475,1.0268 2.27483,1.1772 0.36291,0.071 0.83203,0.2302 0.83203,0.7436 0,0.3629 -0.30095,0.6638 -0.66386,0.6638 h -1.57555 c -0.30981,0 -0.65501,-0.2567 -0.65501,-0.5753 0,-0.027 0,-0.053 0,-0.097 0,-0.071 -0.0531,-0.1239 -0.12392,-0.1239 -0.11507,0 -0.12392,0.1416 -0.12392,0.2301 0,0.4337 0.44257,0.8143 0.90285,0.8143 h 1.57555 c 0.51339,0 0.9117,-0.4248 0.9117,-0.9116 0,-1.6022 -3.10686,-0.5754 -3.10686,-1.9208 0,-0.3629 0.30095,-0.6639 0.66386,-0.6639 h 1.44279 c 0.17703,0 0.34521,0.071 0.46913,0.1948 l 0.0354,0.035 c 0.0797,0.097 0.15048,0.2478 0.15048,0.3629 0,0.018 0,0.044 0,0.08 0,0.062 0.0531,0.1151 0.11506,0.1151 0.0708,0 0.12393,-0.053 0.12393,-0.1151 z" />
        <path
           id="path1300"
           style="font-style:normal;font-variant:normal;font-weight:100;font-stretch:normal;line-height:1;font-family:Trench;-inkscape-font-specification:'Trench Thin';fill:#216778;fill-opacity:1;stroke-width:0.442573"
           d="m -290.3645,2140.9615 v -1.5579 h 1.52245 c 0.0708,0 0.12392,-0.053 0.12392,-0.1239 0,-0.062 -0.0531,-0.1151 -0.12392,-0.1151 h -1.52245 v -1.0798 c 0,-0.062 -0.0531,-0.1151 -0.12392,-0.1151 -0.062,0 -0.11507,0.053 -0.11507,0.1151 v 3.3193 c 0,0.832 0.68156,1.5135 1.5136,1.5135 h 0.33635 c 0.062,0 0.11507,-0.053 0.11507,-0.115 0,-0.071 -0.0531,-0.1239 -0.11507,-0.1239 h -0.33635 c -0.69927,0 -1.27461,-0.5754 -1.27461,-1.2746 z" />
        <path
           id="path1302"
           style="font-style:normal;font-variant:normal;font-weight:100;font-stretch:normal;line-height:1;font-family:Trench;-inkscape-font-specification:'Trench Thin';fill:#216778;fill-opacity:1;stroke-width:0.442573"
           d="m -287.62057,2142.8026 c 0,0.062 0.0531,0.115 0.12392,0.115 0.062,0 0.11507,-0.053 0.11507,-0.115 v -3.4609 c 0,-0.071 -0.0531,-0.124 -0.11507,-0.124 -0.0708,0 -0.12392,0.053 -0.12392,0.124 z m 0.12392,-4.6293 c -0.0885,0 -0.15932,0.071 -0.15932,0.1593 0,0.088 0.0708,0.1593 0.15932,0.1593 0.0885,0 0.15933,-0.071 0.15933,-0.1593 0,-0.089 -0.0708,-0.1593 -0.15933,-0.1593 z" />
        <path
           id="path1304"
           style="font-style:normal;font-variant:normal;font-weight:100;font-stretch:normal;line-height:1;font-family:Trench;-inkscape-font-specification:'Trench Thin';fill:#216778;fill-opacity:1;stroke-width:0.442573"
           d="m -279.69853,2140.6959 v -0.01 c -0.0177,-0.8321 -0.70812,-1.5136 -1.5313,-1.5136 h -0.31865 c -0.53994,0 -1.00907,0.2744 -1.31887,0.7435 l -0.0974,0.1682 -0.0974,-0.1682 c -0.2744,-0.4691 -0.78778,-0.7435 -1.31002,-0.7435 h -0.31865 c -0.83204,0 -1.5136,0.6904 -1.5313,1.5136 v 2.1066 c 0,0.071 0.0531,0.1239 0.12392,0.1239 0.062,0 0.11507,-0.053 0.11507,-0.1239 v -2.1155 c 0.0177,-0.6904 0.61075,-1.2657 1.29231,-1.2657 h 0.31865 c 0.69042,0 1.29232,0.5842 1.29232,1.2923 v 2.0889 c 0,0.071 0.0531,0.1239 0.11506,0.1239 0.0708,0 0.12392,-0.053 0.12392,-0.1239 v -2.1155 c 0.0177,-0.6727 0.5842,-1.2657 1.29232,-1.2657 h 0.31865 c 0.68156,0 1.28346,0.5753 1.28346,1.2923 v 2.0889 c 0,0.071 0.062,0.1239 0.12392,0.1239 0.0708,0 0.12392,-0.053 0.12392,-0.1239 z" />
        <path
           id="path1306"
           style="font-style:normal;font-variant:normal;font-weight:100;font-stretch:normal;line-height:1;font-family:Trench;-inkscape-font-specification:'Trench Thin';fill:#216778;fill-opacity:1;stroke-width:0.442573"
           d="m -278.91961,2141.3952 v 0.01 c 0.0177,0.8231 0.69926,1.5135 1.5313,1.5135 h 0.31865 c 0.83204,0 1.5136,-0.6904 1.5313,-1.5135 v -2.1067 c 0,-0.071 -0.0531,-0.1239 -0.12392,-0.1239 -0.062,0 -0.11507,0.053 -0.11507,0.1239 v 2.0889 c 0,0.6993 -0.59305,1.2924 -1.29231,1.2924 h -0.31865 c -0.68156,0 -1.27461,-0.5665 -1.29231,-1.2746 v -2.1067 c 0,-0.071 -0.0531,-0.1239 -0.11507,-0.1239 -0.0708,0 -0.12392,0.053 -0.12392,0.1239 z" />
        <path
           id="path1308"
           style="font-style:normal;font-variant:normal;font-weight:100;font-stretch:normal;line-height:1;font-family:Trench;-inkscape-font-specification:'Trench Thin';fill:#216778;fill-opacity:1;stroke-width:0.442573"
           d="m -274.76828,2142.8026 c 0,0.062 0.0531,0.115 0.11507,0.115 0.0708,0 0.12392,-0.053 0.12392,-0.115 v -4.7178 c 0,-0.062 -0.0531,-0.1151 -0.12392,-0.1151 -0.062,0 -0.11507,0.053 -0.11507,0.1151 z" />
        <path
           id="path1310"
           style="font-style:normal;font-variant:normal;font-weight:100;font-stretch:normal;line-height:1;font-family:Trench;-inkscape-font-specification:'Trench Thin';fill:#216778;fill-opacity:1;stroke-width:0.442573"
           d="m -273.31665,2142.8026 c 0,0.062 0.0531,0.115 0.12392,0.115 0.062,0 0.11507,-0.053 0.11507,-0.115 v -3.4609 c 0,-0.071 -0.0531,-0.124 -0.11507,-0.124 -0.0708,0 -0.12392,0.053 -0.12392,0.124 z m 0.12392,-4.6293 c -0.0885,0 -0.15932,0.071 -0.15932,0.1593 0,0.088 0.0708,0.1593 0.15932,0.1593 0.0885,0 0.15933,-0.071 0.15933,-0.1593 0,-0.089 -0.0708,-0.1593 -0.15933,-0.1593 z" />
        <path
           id="path1312"
           style="font-style:normal;font-variant:normal;font-weight:100;font-stretch:normal;line-height:1;font-family:Trench;-inkscape-font-specification:'Trench Thin';fill:#216778;fill-opacity:1;stroke-width:0.442573"
           d="m -266.26207,2138.0228 c 0,-0.071 -0.0531,-0.1239 -0.11507,-0.1239 -0.0708,0 -0.12392,0.053 -0.12392,0.1239 v 1.788 l -0.20358,-0.2124 c -0.2744,-0.2833 -0.67271,-0.4426 -1.07103,-0.4426 h -0.66386 c -0.83203,0 -1.51359,0.6904 -1.51359,1.5136 v 0.7347 c 0,0.832 0.68156,1.5135 1.51359,1.5135 h 0.66386 c 0.83204,0 1.5136,-0.6815 1.5136,-1.5135 z m -0.23899,2.8679 v 0.5134 c 0,0.6992 -0.57534,1.2746 -1.27461,1.2746 h -0.66386 c -0.69926,0 -1.27461,-0.5754 -1.27461,-1.2746 v -0.7347 c 0,-0.6993 0.57535,-1.2746 1.27461,-1.2746 h 0.66386 c 0.67271,0 1.27461,0.5665 1.27461,1.248 z" />
        <path
           id="path1314"
           style="font-style:normal;font-variant:normal;font-weight:100;font-stretch:normal;line-height:1;font-family:Trench;-inkscape-font-specification:'Trench Thin';fill:#216778;fill-opacity:1;stroke-width:0.442573"
           d="m -265.01402,2141.5457 h 3.337 c 0.11507,0 0.21243,-0.097 0.21243,-0.2213 v -0.6196 c 0,-0.832 -0.69926,-1.5313 -1.5313,-1.5313 h -0.68156 c -0.83204,0 -1.5313,0.6993 -1.5313,1.5313 v 0.6107 c 0,0.8498 0.6373,1.6021 1.5313,1.6021 h 1.64637 c 0.062,0 0.11507,-0.053 0.11507,-0.1239 0,-0.062 -0.0531,-0.115 -0.11507,-0.115 h -1.64637 c -0.49568,0 -0.97366,-0.301 -1.17724,-0.7701 z m 3.31044,-0.239 h -3.26618 v -0.6019 c 0,-0.7081 0.6019,-1.2923 1.29231,-1.2923 h 0.68156 c 0.69927,0 1.29231,0.593 1.29231,1.2923 z" />
        <path
           id="path1316"
           style="font-style:normal;font-variant:normal;font-weight:100;font-stretch:normal;line-height:1;font-family:Trench;-inkscape-font-specification:'Trench Thin';fill:#216778;fill-opacity:1;stroke-width:0.442573"
           d="m -260.5529,2142.8026 c 0,0.062 0.0531,0.115 0.11507,0.115 0.0708,0 0.12392,-0.053 0.12392,-0.115 v -4.7178 c 0,-0.062 -0.0531,-0.1151 -0.12392,-0.1151 -0.062,0 -0.11507,0.053 -0.11507,0.1151 z" />
        <path
           id="path1318"
           style="font-style:normal;font-variant:normal;font-weight:100;font-stretch:normal;line-height:1;font-family:Trench;-inkscape-font-specification:'Trench Thin';fill:#216778;fill-opacity:1;stroke-width:0.442573"
           d="m -259.10126,2142.8026 c 0,0.062 0.0531,0.115 0.12392,0.115 0.062,0 0.11507,-0.053 0.11507,-0.115 v -3.4609 c 0,-0.071 -0.0531,-0.124 -0.11507,-0.124 -0.0708,0 -0.12392,0.053 -0.12392,0.124 z m 0.12392,-4.6293 c -0.0885,0 -0.15933,0.071 -0.15933,0.1593 0,0.088 0.0708,0.1593 0.15933,0.1593 0.0885,0 0.15932,-0.071 0.15932,-0.1593 0,-0.089 -0.0708,-0.1593 -0.15932,-0.1593 z" />
        <path
           id="path1320"
           style="font-style:normal;font-variant:normal;font-weight:100;font-stretch:normal;line-height:1;font-family:Trench;-inkscape-font-specification:'Trench Thin';fill:#216778;fill-opacity:1;stroke-width:0.442573"
           d="m -256.64942,2142.4751 c 0.11507,0.2655 0.36291,0.4425 0.66386,0.4425 0.28324,0 0.53994,-0.1593 0.65501,-0.4425 l 1.31886,-3.1511 c 0.009,-0.01 0.009,-0.027 0.009,-0.044 0,-0.062 -0.0531,-0.1062 -0.11507,-0.1062 -0.0354,0 -0.0797,0.026 -0.0885,0.062 l -1.31887,3.16 c -0.0885,0.1859 -0.25669,0.301 -0.46027,0.301 -0.22129,0 -0.38061,-0.1151 -0.46028,-0.301 l -1.31886,-3.16 c -0.0177,-0.035 -0.062,-0.062 -0.0974,-0.062 -0.0708,0 -0.11507,0.053 -0.11507,0.1062 0,0.018 0,0.035 0.009,0.044 z" />
        <path
           id="path1322"
           style="font-style:normal;font-variant:normal;font-weight:100;font-stretch:normal;line-height:1;font-family:Trench;-inkscape-font-specification:'Trench Thin';fill:#216778;fill-opacity:1;stroke-width:0.442573"
           d="m -253.26819,2141.5457 h 3.337 c 0.11507,0 0.21244,-0.097 0.21244,-0.2213 v -0.6196 c 0,-0.832 -0.69927,-1.5313 -1.5313,-1.5313 h -0.68157 c -0.83203,0 -1.5313,0.6993 -1.5313,1.5313 v 0.6107 c 0,0.8498 0.63731,1.6021 1.5313,1.6021 h 1.64637 c 0.062,0 0.11507,-0.053 0.11507,-0.1239 0,-0.062 -0.0531,-0.115 -0.11507,-0.115 h -1.64637 c -0.49568,0 -0.97366,-0.301 -1.17724,-0.7701 z m 3.31045,-0.239 h -3.26619 v -0.6019 c 0,-0.7081 0.6019,-1.2923 1.29231,-1.2923 h 0.68157 c 0.69926,0 1.29231,0.593 1.29231,1.2923 z" />
        <path
           id="path1324"
           style="font-style:normal;font-variant:normal;font-weight:100;font-stretch:normal;line-height:1;font-family:Trench;-inkscape-font-specification:'Trench Thin';fill:#216778;fill-opacity:1;stroke-width:0.442573"
           d="m -248.80706,2140.6959 v 2.0978 c 0,0.071 0.0531,0.1239 0.12392,0.1239 0.062,0 0.11507,-0.053 0.11507,-0.1239 v -2.1155 c 0.0177,-0.6904 0.61075,-1.2657 1.29231,-1.2657 h 0.47798 c 0.33635,0 0.66386,0.1416 0.9117,0.3806 0.0265,0.026 0.0531,0.035 0.0885,0.035 0.062,0 0.11507,-0.053 0.11507,-0.1239 0,-0.027 -0.009,-0.062 -0.0354,-0.08 -0.28325,-0.2921 -0.67271,-0.4514 -1.07988,-0.4514 h -0.47798 c -0.83204,0 -1.5136,0.6904 -1.5313,1.5136 z" />
        <path
           id="path1326"
           style="font-style:normal;font-variant:normal;font-weight:100;font-stretch:normal;line-height:1;font-family:Trench;-inkscape-font-specification:'Trench Thin';fill:#216778;fill-opacity:1;stroke-width:0.442573"
           d="m -241.77902,2139.2886 v -0.018 -0.018 l -0.009,-0.01 -0.009,-0.01 -0.009,-0.018 -0.009,-0.01 -0.009,-0.01 -0.009,-0.01 -0.0177,-0.01 -0.009,-0.01 h -0.0177 -0.0177 -0.0177 -0.0177 l -0.0177,0.01 -0.0177,0.01 -0.0177,0.018 -0.009,0.018 -0.009,0.01 -0.009,0.018 v 0.018 l -0.009,0.01 v 1.3985 c 0,0.6904 -0.57534,1.2658 -1.26576,1.2658 -0.69041,0 -1.26575,-0.5754 -1.26575,-1.2658 v -1.3896 c 0,-0.062 -0.0531,-0.1151 -0.12392,-0.1151 -0.062,0 -0.11507,0.053 -0.11507,0.1151 v 1.3896 c 0,0.8144 0.69041,1.5048 1.50474,1.5048 0.39832,0 0.77893,-0.1593 1.06218,-0.4426 l 0.20358,-0.2036 v 1.5933 c 0,0.6904 -0.57534,1.2657 -1.26576,1.2657 h -0.33635 c -0.062,0 -0.11507,0.053 -0.11507,0.124 0,0.062 0.0531,0.115 0.11507,0.115 h 0.33635 c 0.81434,0 1.50475,-0.6904 1.50475,-1.5047 z" />
        <path
           id="path1328"
           style="font-style:normal;font-variant:normal;font-weight:100;font-stretch:normal;line-height:1;font-family:Trench;-inkscape-font-specification:'Trench Thin';fill:#216778;fill-opacity:1;stroke-width:0.442573"
           d="m -238.71645,2139.9259 v 2.8767 c 0,0.062 0.0531,0.115 0.11507,0.115 0.0708,0 0.12392,-0.053 0.12392,-0.115 v -1.2392 h 1.52245 c 0.0708,0 0.12392,-0.053 0.12392,-0.1151 0,-0.071 -0.0531,-0.1239 -0.12392,-0.1239 h -1.52245 v -1.8411 c 0,-0.7081 0.57535,-1.2746 1.27461,-1.2746 h 0.33636 c 0.062,0 0.11507,-0.053 0.11507,-0.1239 0,-0.062 -0.0531,-0.1151 -0.11507,-0.1151 h -0.33636 c -0.83203,0 -1.5136,0.6816 -1.5136,1.5136 z" />
        <path
           id="path1330"
           style="font-style:normal;font-variant:normal;font-weight:100;font-stretch:normal;line-height:1;font-family:Trench;-inkscape-font-specification:'Trench Thin';fill:#216778;fill-opacity:1;stroke-width:0.442573"
           d="m -234.30844,2139.1735 c -0.83203,0 -1.5313,0.6993 -1.5313,1.5313 v 0.6815 c 0,0.8321 0.69927,1.5313 1.5313,1.5313 h 0.68157 c 0.83203,0 1.5313,-0.6992 1.5313,-1.5313 v -0.6815 c 0,-0.832 -0.69927,-1.5313 -1.5313,-1.5313 z m 0.68157,0.239 c 0.69041,0 1.29231,0.5842 1.29231,1.2923 v 0.6815 c 0,0.6993 -0.59305,1.2924 -1.29231,1.2924 h -0.68157 c -0.69926,0 -1.29231,-0.6019 -1.29231,-1.2924 v -0.6815 c 0,-0.717 0.61075,-1.2923 1.29231,-1.2923 z" />
        <path
           id="path1332"
           style="font-style:normal;font-variant:normal;font-weight:100;font-stretch:normal;line-height:1;font-family:Trench;-inkscape-font-specification:'Trench Thin';fill:#216778;fill-opacity:1;stroke-width:0.442573"
           d="m -231.18388,2140.6959 v 2.0978 c 0,0.071 0.0531,0.1239 0.12392,0.1239 0.062,0 0.11507,-0.053 0.11507,-0.1239 v -2.1155 c 0.0177,-0.6904 0.61075,-1.2657 1.29231,-1.2657 h 0.47798 c 0.33635,0 0.66385,0.1416 0.91169,0.3806 0.0266,0.026 0.0531,0.035 0.0885,0.035 0.062,0 0.11507,-0.053 0.11507,-0.1239 0,-0.027 -0.009,-0.062 -0.0354,-0.08 -0.28324,-0.2921 -0.67271,-0.4514 -1.07987,-0.4514 h -0.47798 c -0.83204,0 -1.5136,0.6904 -1.5313,1.5136 z" />
        <path
           id="path1334"
           style="font-style:normal;font-variant:normal;font-weight:100;font-stretch:normal;line-height:1;font-family:Trench;-inkscape-font-specification:'Trench Thin';fill:#216778;fill-opacity:1;stroke-width:0.442573"
           d="m -223.12024,2137.9697 c -1.13299,0 -2.08009,0.9471 -2.08009,2.0801 v 0.7878 c 0,1.1329 0.93825,2.08 2.08009,2.08 h 0.97366 c 1.11528,0 2.08009,-0.9382 2.08009,-2.08 v -0.7878 c 0,-1.133 -0.94711,-2.0801 -2.08009,-2.0801 z m -1.8411,2.0801 c 0,-1.0091 0.83203,-1.8411 1.8411,-1.8411 h 0.97366 c 1.00021,0 1.8411,0.832 1.8411,1.8411 v 0.7878 c 0,1.009 -0.84089,1.8411 -1.8411,1.8411 h -0.97366 c -1.00907,0 -1.8411,-0.8321 -1.8411,-1.8411 z" />
        <path
           id="path1336"
           style="font-style:normal;font-variant:normal;font-weight:100;font-stretch:normal;line-height:1;font-family:Trench;-inkscape-font-specification:'Trench Thin';fill:#216778;fill-opacity:1;stroke-width:0.442573"
           d="m -219.1194,2144.5906 c 0,0.062 0.0531,0.115 0.11507,0.115 0.0708,0 0.12392,-0.053 0.12392,-0.115 v -2.3191 l 0.20358,0.2036 c 0.28325,0.2832 0.66386,0.4425 1.06218,0.4425 h 0.66386 c 0.81433,0 1.50474,-0.6904 1.50474,-1.5047 v -0.7347 c 0,-0.8143 -0.69041,-1.5047 -1.50474,-1.5047 h -0.66386 c -0.81434,0 -1.50475,0.6904 -1.50475,1.5047 z m 0.23899,-3.399 v -0.5134 c 0,-0.6904 0.57534,-1.2657 1.26576,-1.2657 h 0.66386 c 0.69041,0 1.26575,0.5753 1.26575,1.2657 v 0.7347 c 0,0.6904 -0.57534,1.2658 -1.26575,1.2658 h -0.66386 c -0.66386,0 -1.26576,-0.5577 -1.26576,-1.2392 z" />
        <path
           id="path1338"
           style="font-style:normal;font-variant:normal;font-weight:100;font-stretch:normal;line-height:1;font-family:Trench;-inkscape-font-specification:'Trench Thin';fill:#216778;fill-opacity:1;stroke-width:0.442573"
           d="m -214.26881,2141.5457 h 3.33699 c 0.11507,0 0.21244,-0.097 0.21244,-0.2213 v -0.6196 c 0,-0.832 -0.69927,-1.5313 -1.5313,-1.5313 h -0.68157 c -0.83203,0 -1.5313,0.6993 -1.5313,1.5313 v 0.6107 c 0,0.8498 0.63731,1.6021 1.5313,1.6021 h 1.64637 c 0.062,0 0.11507,-0.053 0.11507,-0.1239 0,-0.062 -0.0531,-0.115 -0.11507,-0.115 h -1.64637 c -0.49568,0 -0.97366,-0.301 -1.17724,-0.7701 z m 3.31044,-0.239 h -3.26619 v -0.6019 c 0,-0.7081 0.6019,-1.2923 1.29231,-1.2923 h 0.68157 c 0.69926,0 1.29231,0.593 1.29231,1.2923 z" />
        <path
           id="path1340"
           style="font-style:normal;font-variant:normal;font-weight:100;font-stretch:normal;line-height:1;font-family:Trench;-inkscape-font-specification:'Trench Thin';fill:#216778;fill-opacity:1;stroke-width:0.442573"
           d="m -206.06353,2140.6959 v -0.01 c 0,-0.8143 -0.70812,-1.5136 -1.5313,-1.5136 h -0.68156 c -0.83204,0 -1.5136,0.6904 -1.5313,1.5136 v 2.1066 c 0,0.071 0.0531,0.1239 0.12392,0.1239 0.062,0 0.11507,-0.053 0.11507,-0.1239 v -2.1155 c 0.0177,-0.6815 0.60189,-1.2657 1.29231,-1.2657 h 0.68156 c 0.69041,0 1.29231,0.5842 1.29231,1.2923 v 2.0889 c 0,0.071 0.0531,0.1239 0.11507,0.1239 0.0708,0 0.12392,-0.053 0.12392,-0.1239 z" />
        <path
           id="path1342"
           style="font-style:normal;font-variant:normal;font-weight:100;font-stretch:normal;line-height:1;font-family:Trench;-inkscape-font-specification:'Trench Thin';fill:#216778;fill-opacity:1;stroke-width:0.442573"
           d="m -201.69093,2138.2352 c -0.18588,-0.1681 -0.43372,-0.2655 -0.68156,-0.2655 h -1.73489 c -0.25669,0 -0.49568,0.097 -0.68156,0.2655 l -0.0266,0.027 c -0.18588,0.1859 -0.2921,0.4426 -0.2921,0.7081 v 2.9475 c 0,0.2656 0.10622,0.5223 0.2921,0.7082 l 0.0266,0.026 c 0.18588,0.1682 0.42487,0.2655 0.68156,0.2655 h 1.73489 c 0.86744,0 1.59326,-0.7258 1.59326,-1.5932 0,-0.5931 -0.33636,-1.1507 -0.90285,-1.4339 l -0.14162,-0.071 0.11507,-0.115 c 0.23013,-0.1151 0.33635,-0.5134 0.33635,-0.7347 0,-0.2655 -0.10622,-0.5222 -0.30095,-0.7081 z m -2.87672,4.3018 -0.0797,-0.08 c -0.14163,-0.1416 -0.22129,-0.3364 -0.22129,-0.54 v -1.9473 h 2.50496 c 0.73467,0 1.34542,0.6196 1.34542,1.3543 0,0.7524 -0.6373,1.3543 -1.35427,1.3543 h -1.73489 c -0.16817,0 -0.3275,-0.053 -0.46027,-0.1505 z m 0,-4.1778 c 0.13277,-0.097 0.2921,-0.1505 0.46027,-0.1505 h 1.73489 c 0.15932,0 0.31865,0.053 0.45142,0.1505 l 0.009,-0.01 0.0797,0.08 c 0.14162,0.1416 0.22128,0.3363 0.22128,0.5399 0,0.4249 -0.3452,0.7612 -0.75237,0.7612 h -2.50496 v -0.7612 c 0,-0.2036 0.0797,-0.3983 0.22129,-0.5399 l 0.0797,-0.08 z" />
        <path
           id="path1344"
           style="font-style:normal;font-variant:normal;font-weight:100;font-stretch:normal;line-height:1;font-family:Trench;-inkscape-font-specification:'Trench Thin';fill:#216778;fill-opacity:1;stroke-width:0.442573"
           d="m -197.89366,2137.9697 c -1.13298,0 -2.08009,0.9471 -2.08009,2.0801 v 0.7878 c 0,1.1329 0.93826,2.08 2.08009,2.08 h 1.74374 c 0.0708,0 0.12392,-0.053 0.12392,-0.115 0,-0.071 -0.0531,-0.1239 -0.12392,-0.1239 h -1.74374 c -1.00906,0 -1.8411,-0.8321 -1.8411,-1.8411 v -0.7878 c 0,-1.0091 0.83204,-1.8411 1.8411,-1.8411 h 1.74374 c 0.0708,0 0.12392,-0.053 0.12392,-0.1239 0,-0.062 -0.0531,-0.1151 -0.12392,-0.1151 z" />
        <path
           id="path1346"
           style="font-style:normal;font-variant:normal;font-weight:100;font-stretch:normal;line-height:1;font-family:Trench;-inkscape-font-specification:'Trench Thin';fill:#216778;fill-opacity:1;stroke-width:0.442573"
           d="m -194.93727,2138.0848 c 0,-0.062 -0.0531,-0.1151 -0.12392,-0.1151 -0.062,0 -0.11507,0.053 -0.11507,0.1151 v 4.7178 c 0,0.062 0.0531,0.115 0.11507,0.115 0.0708,0 0.12392,-0.053 0.12392,-0.115 z" />
        <path
           id="path1348"
           style="font-style:normal;font-variant:normal;font-weight:100;font-stretch:normal;line-height:1;font-family:Trench;-inkscape-font-specification:'Trench Thin';fill:#216778;fill-opacity:1;stroke-width:0.442573"
           d="m -193.47679,2142.4397 c -0.13277,0 -0.23899,0.1062 -0.23899,0.239 0,0.1327 0.10622,0.2389 0.23899,0.2389 0.13277,0 0.23899,-0.1062 0.23899,-0.2389 0,-0.1328 -0.10622,-0.239 -0.23899,-0.239 z" />
      </g>
      <path
         d="m -310.93512,2126.2778 h 144.22501 v 0.8489 h -144.22501 z"
         style="fill:#216778;fill-opacity:1;stroke:none;stroke-width:0.140783;stroke-linecap:square;stroke-linejoin:miter;stroke-miterlimit:4;stroke-dasharray:none;stroke-dashoffset:0;stroke-opacity:1;paint-order:fill markers stroke"
         id="rect873" />
    </g>
  </g>
</svg>
