<?xml version="1.0" encoding="UTF-8" standalone="no"?>
<svg
   xmlns:dc="http://purl.org/dc/elements/1.1/"
   xmlns:cc="http://creativecommons.org/ns#"
   xmlns:rdf="http://www.w3.org/1999/02/22-rdf-syntax-ns#"
   xmlns:svg="http://www.w3.org/2000/svg"
   xmlns="http://www.w3.org/2000/svg"
   xmlns:sodipodi="http://sodipodi.sourceforge.net/DTD/sodipodi-0.dtd"
   xmlns:inkscape="http://www.inkscape.org/namespaces/inkscape"
   width="719.99994"
   height="285.14481"
   viewBox="0 0 190.49998 75.444565"
   version="1.1"
   id="svg8"
   inkscape:version="1.0.1 (3bc2e813f5, 2020-09-07, custom)"
   sodipodi:docname="splash_dark.svg"
   inkscape:export-filename="/home/yeison/Development/gcpds/bci-unscented/assets/logo.png"
   inkscape:export-xdpi="96"
   inkscape:export-ydpi="96">
  <defs
     id="defs2" />
  <sodipodi:namedview
     id="base"
     pagecolor="#ffffff"
     bordercolor="#666666"
     borderopacity="1.0"
     inkscape:pageopacity="0.0"
     inkscape:pageshadow="2"
     inkscape:zoom="1.0780828"
     inkscape:cx="270.08779"
     inkscape:cy="54.129442"
     inkscape:document-units="px"
     inkscape:current-layer="layer1"
     showgrid="false"
     inkscape:window-width="1920"
     inkscape:window-height="1004"
     inkscape:window-x="0"
     inkscape:window-y="0"
     inkscape:window-maximized="1"
     units="px"
     inkscape:showpageshadow="false"
     showguides="false"
     inkscape:snap-bbox="true"
     inkscape:bbox-paths="true"
     inkscape:bbox-nodes="true"
     inkscape:snap-bbox-midpoints="true"
     inkscape:snap-bbox-edge-midpoints="true"
     inkscape:object-paths="true"
     inkscape:snap-intersection-paths="true"
     inkscape:snap-midpoints="true"
     inkscape:snap-smooth-nodes="true"
     inkscape:snap-object-midpoints="true"
     inkscape:snap-center="true"
     fit-margin-top="0"
     fit-margin-left="0"
     fit-margin-right="0"
     fit-margin-bottom="0"
     inkscape:snap-global="false"
     inkscape:document-rotation="0" />
  <metadata
     id="metadata5">
    <rdf:RDF>
      <cc:Work
         rdf:about="">
        <dc:format>image/svg+xml</dc:format>
        <dc:type
           rdf:resource="http://purl.org/dc/dcmitype/StillImage" />
        <dc:title></dc:title>
      </cc:Work>
    </rdf:RDF>
  </metadata>
  <g
     inkscape:label="Capa 1"
     inkscape:groupmode="layer"
     id="layer1"
     transform="translate(327.50233,-1342.8765)">
    <circle
       cy="139.7252"
       cx="-591.70111"
       id="circle1545"
       style="opacity:0.673;fill:#aaaaff;fill-opacity:0.30137;stroke:#000000;stroke-width:0.304049;stroke-miterlimit:4;stroke-dasharray:none;stroke-opacity:1"
       r="0" />
    <circle
       r="0"
       style="opacity:0.673;fill:#aaaaff;fill-opacity:0.30137;stroke:#000000;stroke-width:0.304049;stroke-miterlimit:4;stroke-dasharray:none;stroke-opacity:1"
       id="ellipse1617"
       cx="-993.51282"
       cy="168.13614" />
    <circle
       r="0"
       cy="733.2077"
       cx="-958.14404"
       id="ellipse1906"
       style="opacity:0.673;fill:none;fill-opacity:0.30137;stroke:#000000;stroke-width:0.79375;stroke-miterlimit:4;stroke-dasharray:none;stroke-opacity:1" />
    <circle
       r="0"
       cy="582.33099"
       cx="-1500.9722"
       id="ellipse1926"
       style="opacity:0.673;fill:none;fill-opacity:0.30137;stroke:#000000;stroke-width:0.79375;stroke-miterlimit:4;stroke-dasharray:none;stroke-opacity:1" />
    <circle
       r="0"
       cy="255.9781"
       cx="-958.14404"
       id="ellipse1946"
       style="opacity:0.673;fill:none;fill-opacity:0.30137;stroke:#000000;stroke-width:0.79375;stroke-miterlimit:4;stroke-dasharray:none;stroke-opacity:1" />
    <rect
       y="1356.3557"
       x="-326.51669"
       height="60.979759"
       width="176.78044"
       id="rect958"
       style="opacity:1;fill:#25323f;fill-opacity:0.941176;stroke:#a0a0a0;stroke-width:1.97127;stroke-linecap:square;stroke-linejoin:bevel;stroke-miterlimit:4;stroke-dasharray:none;stroke-dashoffset:0;stroke-opacity:1;paint-order:stroke fill markers" />
    <g
       id="g974"
       transform="matrix(0.09130469,0,0,0.09130469,-273.56841,1223.8363)">
      <g
         aria-label="BCI-Framework"
         id="text856"
         style="font-style:normal;font-variant:normal;font-weight:normal;font-stretch:normal;font-size:224.224px;line-height:0;font-family:Caladea;-inkscape-font-specification:Caladea;letter-spacing:0px;word-spacing:0px;fill:#ffffff;fill-opacity:1;stroke:none;stroke-width:11.2112">
        <path
           d="m -351.31572,1596.7306 q 8.96896,0 17.04102,3.5876 8.07207,3.3633 13.90189,9.4174 6.05405,5.8298 9.41741,13.9019 3.58758,8.072 3.58758,17.2652 0,11.6597 -5.6056,21.5255 -5.38137,9.6416 -14.79878,15.4715 10.76275,5.3813 17.26525,15.9199 6.72672,10.3143 6.72672,23.095 0,9.1932 -3.58759,17.2653 -3.36336,7.8478 -9.41741,13.9019 -5.82982,5.8298 -13.90188,9.4174 -8.07207,3.3633 -17.04103,3.3633 h -58.07401 v -76.0119 -11.8839 -76.2361 z m 3.58758,87.8958 q -0.89689,0 -1.79379,0.2242 -0.8969,0 -1.79379,0 h -42.82679 v 64.3523 h 46.41437 q 6.72672,0 12.55655,-2.4665 5.82982,-2.4664 10.09008,-6.7267 4.48448,-4.4845 6.95094,-10.3143 2.69069,-6.054 2.69069,-12.7808 0,-6.7267 -2.69069,-12.5565 -2.46646,-5.8298 -6.95094,-10.0901 -4.26026,-4.4845 -10.09008,-6.9509 -5.82983,-2.6907 -12.55655,-2.6907 z m -3.58758,-11.6597 q 6.72672,0 12.55654,-2.4664 5.82983,-2.4665 10.09008,-6.7267 4.48448,-4.4845 6.95095,-10.3143 2.46646,-5.8299 2.46646,-12.5566 0,-6.7267 -2.46646,-12.5565 -2.46647,-5.8299 -6.95095,-10.0901 -4.26025,-4.4845 -10.09008,-6.951 -5.82982,-2.6906 -12.55654,-2.6906 h -42.82679 v 64.3522 z"
           style="font-style:normal;font-variant:normal;font-weight:normal;font-stretch:normal;font-family:TimeBurner;-inkscape-font-specification:TimeBurner;fill:#ffffff;stroke-width:11.2112"
           id="path902" />
        <path
           d="m -221.4904,1594.7126 q 16.36836,0 29.59757,8.072 13.45344,7.8479 21.30128,21.3013 l -10.3143,5.8298 q -6.05405,-10.7627 -16.8168,-17.041 -10.53853,-6.5025 -23.76775,-6.5025 -9.64163,0 -18.16214,3.8118 -8.52051,3.5876 -15.02301,10.0901 -6.27827,6.2783 -10.09008,14.7988 -3.58758,8.5205 -3.58758,18.1621 v 51.5715 q 0,9.8659 3.58758,18.3864 3.81181,8.5205 10.09008,14.7988 6.5025,6.2783 15.02301,10.0901 8.52051,3.5876 18.16214,3.5876 13.22922,0 23.76775,-6.2783 10.76275,-6.5025 16.8168,-17.041 l 10.3143,5.8298 q -7.84784,13.2292 -21.30128,21.3013 -13.22921,7.8478 -29.59757,7.8478 -12.10809,0 -22.87084,-4.4845 -10.53853,-4.7087 -18.6106,-12.5565 -7.84784,-8.0721 -12.55654,-18.6106 -4.48448,-10.7628 -4.48448,-22.8709 v -51.5715 q 0,-12.1081 4.48448,-22.6466 4.7087,-10.7627 12.55654,-18.6106 8.07207,-8.0721 18.6106,-12.5565 10.76275,-4.7087 22.87084,-4.7087 z"
           style="font-style:normal;font-variant:normal;font-weight:normal;font-stretch:normal;font-family:TimeBurner;-inkscape-font-specification:TimeBurner;fill:#ffffff;stroke-width:11.2112"
           id="path904" />
        <path
           d="m -149.29066,1596.7306 h 11.65965 v 164.1319 h -11.65965 z"
           style="font-style:normal;font-variant:normal;font-weight:normal;font-stretch:normal;font-family:TimeBurner;-inkscape-font-specification:TimeBurner;fill:#ffffff;stroke-width:11.2112"
           id="path906" />
        <path
           d="m -28.882516,1699.6494 h -87.447364 v -11.8839 h 87.447364 z"
           style="font-style:normal;font-variant:normal;font-weight:normal;font-stretch:normal;font-family:TimeBurner;-inkscape-font-specification:TimeBurner;fill:#ffffff;stroke-width:11.2112"
           id="path908" />
        <path
           d="m -7.3574332,1596.7306 v 0 0 H 90.852678 v 11.8839 H 4.3022147 v 64.3522 H 79.865702 v 11.8839 H 4.3022147 v 76.0119 H -7.3574332 Z"
           style="font-style:normal;font-variant:normal;font-weight:normal;font-stretch:normal;font-family:TimeBurner;-inkscape-font-specification:TimeBurner;fill:#ffffff;stroke-width:11.2112"
           id="path910" />
        <path
           d="M 109.68692,1760.8625 H 98.027271 v -56.056 q 0,-12.108 4.484479,-22.8708 4.70871,-10.7628 12.55655,-18.6106 8.07206,-8.0721 18.61059,-12.5565 10.76275,-4.7087 22.87085,-4.7087 v 11.8838 q -9.64164,0 -18.16215,3.8118 -8.52051,3.5876 -15.02301,9.8659 -6.27827,6.2783 -10.09008,15.023 -3.58758,8.5205 -3.58758,18.1621 z"
           style="font-style:normal;font-variant:normal;font-weight:normal;font-stretch:normal;font-family:TimeBurner;-inkscape-font-specification:TimeBurner;fill:#ffffff;stroke-width:11.2112"
           id="path912" />
        <path
           d="m 220.67724,1645.8356 q 12.10809,0 22.87085,4.7087 10.76275,4.4845 18.61059,12.5566 8.07206,7.8478 12.55654,18.6106 4.70871,10.7627 4.70871,22.8708 v 56.056 h -11.88388 v -20.8528 q -7.84784,10.7627 -20.18016,17.041 -12.10809,6.2783 -26.68265,6.2783 -12.1081,0 -22.87085,-4.4845 -10.53853,-4.7087 -18.61059,-12.5565 -7.84784,-8.0721 -12.55655,-18.6106 -4.48448,-10.7628 -4.48448,-22.8709 0,-12.1081 4.48448,-22.8708 4.70871,-10.7628 12.55655,-18.6106 8.07206,-8.0721 18.61059,-12.5566 10.76275,-4.7087 22.87085,-4.7087 z m 0,11.8839 q -9.64163,0 -18.16215,3.8118 -8.52051,3.5876 -15.023,9.8659 -6.27828,6.2782 -10.09008,15.023 -3.58759,8.5205 -3.58759,18.1621 0,9.6417 3.58759,18.1622 3.8118,8.5205 10.09008,15.023 6.50249,6.2782 15.023,10.0901 8.52052,3.5875 18.16215,3.5875 9.64163,0 18.16214,-3.5875 8.74474,-3.8119 15.02301,-10.0901 6.27827,-6.5025 9.86586,-15.023 3.8118,-8.5205 3.8118,-18.1622 0,-9.6416 -3.8118,-18.1621 -3.58759,-8.7448 -9.86586,-15.023 -6.27827,-6.2783 -15.02301,-9.8659 -8.52051,-3.8118 -18.16214,-3.8118 z"
           style="font-style:normal;font-variant:normal;font-weight:normal;font-stretch:normal;font-family:TimeBurner;-inkscape-font-specification:TimeBurner;fill:#ffffff;stroke-width:11.2112"
           id="path914" />
        <path
           d="m 342.65503,1646.0599 q 12.10809,0 22.19817,6.054 10.09008,6.0541 15.91991,16.1441 5.82982,-10.09 15.69568,-16.1441 10.09008,-6.054 22.4224,-6.054 8.96896,0 17.04102,3.5875 8.07206,3.3634 13.90189,9.4175 6.05405,5.8298 9.41741,13.9018 3.58758,8.0721 3.58758,17.0411 v 70.8547 h -11.88387 v -70.8547 q 0,-6.7268 -2.46647,-12.5566 -2.46646,-5.8298 -6.95094,-10.0901 -4.26026,-4.4844 -10.09008,-6.9509 -5.82982,-2.4665 -12.55654,-2.4665 -6.72672,0 -12.78077,2.4665 -5.82983,2.4665 -10.31431,6.9509 -4.26025,4.2603 -6.72672,10.0901 -2.46646,5.8298 -2.46646,12.5566 v 70.8547 h -11.65965 v -70.8547 q 0,-6.7268 -2.69069,-12.5566 -2.46646,-5.8298 -6.95094,-10.0901 -4.26026,-4.4844 -10.09008,-6.9509 -5.82982,-2.4665 -12.55654,-2.4665 -6.72672,0 -12.78077,2.4665 -5.82983,2.4665 -10.31431,6.9509 -4.26025,4.2603 -6.72672,10.0901 -2.46646,5.8298 -2.46646,12.5566 v 70.8547 h -11.65965 v -70.8547 q 0,-8.969 3.36336,-17.0411 3.58759,-8.072 9.41741,-13.9018 6.05405,-6.0541 13.90189,-9.4175 8.07206,-3.5875 17.26525,-3.5875 z"
           style="font-style:normal;font-variant:normal;font-weight:normal;font-stretch:normal;font-family:TimeBurner;-inkscape-font-specification:TimeBurner;fill:#ffffff;stroke-width:11.2112"
           id="path916" />
        <path
           d="m 591.54327,1699.4252 q -1.12112,-8.7448 -5.15715,-16.1442 -4.03603,-7.3993 -10.3143,-13.0049 -6.05405,-5.6056 -14.12612,-8.7448 -7.84784,-3.1391 -16.8168,-3.1391 -8.96896,0 -17.04102,3.1391 -8.07206,3.1392 -14.35034,8.7448 -6.05404,5.6056 -10.09008,13.0049 -4.03603,7.3994 -5.15715,16.1442 z m -46.41437,64.3523 q -12.10809,0 -22.87084,-4.4845 -10.76276,-4.7087 -18.83482,-12.5566 -7.84784,-8.072 -12.55654,-18.6106 -4.48448,-10.7627 -4.48448,-22.8708 0,-12.1081 4.48448,-22.8709 4.7087,-10.7627 12.55654,-18.6105 8.07206,-8.0721 18.83482,-12.5566 10.76275,-4.7087 22.87084,-4.7087 12.1081,0 22.64663,4.7087 10.76275,4.4845 18.61059,12.5566 8.07206,7.8478 12.55654,18.6105 4.70871,10.7628 4.70871,22.8709 0,1.5696 0,2.9149 0,1.3454 -0.22423,2.9149 h -2.69068 -102.24615 q 1.12112,8.7448 5.15715,16.1441 4.03604,7.3994 10.09008,13.005 6.27828,5.6056 14.35034,8.7448 8.07206,3.1391 17.04102,3.1391 6.5025,0 12.33232,-2.4665 5.82983,-2.4664 10.31431,-6.9509 l 8.29629,8.2963 q -5.82983,5.8298 -13.90189,9.4174 -7.84784,3.3634 -17.04103,3.3634 z"
           style="font-style:normal;font-variant:normal;font-weight:normal;font-stretch:normal;font-family:TimeBurner;-inkscape-font-specification:TimeBurner;fill:#ffffff;stroke-width:11.2112"
           id="path918" />
        <path
           d="m 666.6582,1763.329 q -9.19318,0 -17.26525,-3.3633 -7.84784,-3.5876 -13.90189,-9.4175 -5.82982,-6.054 -9.4174,-13.9018 -3.36336,-8.0721 -3.36336,-17.2653 v -70.6306 h 11.88387 v 70.6306 q 0,6.7267 2.46646,12.7808 2.46647,5.8298 6.72672,10.3143 4.48448,4.2602 10.31431,6.7267 5.82982,2.4665 12.55654,2.4665 6.72672,0 12.55654,-2.4665 5.82983,-2.4665 10.09008,-6.7267 4.48448,-4.4845 6.95095,-10.3143 2.69069,-6.0541 2.69069,-12.7808 v -70.6306 h 11.65964 v 70.6306 q 0,6.7267 2.46647,12.7808 2.69069,5.8298 6.95094,10.3143 4.48448,4.2602 10.31431,6.7267 5.82982,2.4665 12.55654,2.4665 6.72672,0 12.55654,-2.4665 5.82983,-2.4665 10.09008,-6.7267 4.48448,-4.4845 6.95095,-10.3143 2.69069,-6.0541 2.69069,-12.7808 v -70.6306 h 11.65964 v 70.6306 q 0,9.1932 -3.58758,17.2653 -3.36336,7.8478 -9.41741,13.9018 -5.82982,5.8299 -13.90189,9.4175 -8.07206,3.3633 -17.04102,3.3633 -12.1081,0 -22.19818,-5.8298 -10.09008,-6.0541 -15.9199,-16.1441 -5.82982,10.09 -15.9199,16.1441 -9.86586,5.8298 -22.19818,5.8298 z"
           style="font-style:normal;font-variant:normal;font-weight:normal;font-stretch:normal;font-family:TimeBurner;-inkscape-font-specification:TimeBurner;fill:#ffffff;stroke-width:11.2112"
           id="path920" />
        <path
           d="m 863.52672,1646.0599 q 12.1081,0 22.64663,4.7087 10.76275,4.4844 18.61059,12.5565 8.07206,7.8478 12.55654,18.6106 4.70871,10.7628 4.70871,22.8708 0,12.1081 -4.70871,22.8709 -4.48448,10.5385 -12.55654,18.6106 -7.84784,7.8478 -18.61059,12.5565 -10.53853,4.4845 -22.64663,4.4845 -12.10809,0 -22.87084,-4.4845 -10.53853,-4.7087 -18.61059,-12.5565 -7.84784,-8.0721 -12.55655,-18.6106 -4.48448,-10.7628 -4.48448,-22.8709 0,-12.108 4.48448,-22.8708 4.70871,-10.7628 12.55655,-18.6106 8.07206,-8.0721 18.61059,-12.5565 10.76275,-4.7087 22.87084,-4.7087 z m 0,11.8838 q -9.86585,0 -18.38636,3.8118 -8.52052,3.5876 -14.79879,9.8659 -6.27827,6.2783 -10.09008,15.023 -3.58758,8.5205 -3.58758,18.1621 0,9.6417 3.58758,18.1622 3.81181,8.5205 10.09008,15.023 6.27827,6.2783 14.79879,10.0901 8.52051,3.5876 18.38636,3.5876 9.64164,0 18.16215,-3.5876 8.52051,-3.8118 14.79878,-10.0901 6.5025,-6.5025 10.09008,-15.023 3.81181,-8.5205 3.81181,-18.1622 0,-9.6416 -3.81181,-18.1621 -3.58758,-8.7447 -10.09008,-15.023 -6.27827,-6.2783 -14.79878,-9.8659 -8.52051,-3.8118 -18.16215,-3.8118 z"
           style="font-style:normal;font-variant:normal;font-weight:normal;font-stretch:normal;font-family:TimeBurner;-inkscape-font-specification:TimeBurner;fill:#ffffff;stroke-width:11.2112"
           id="path922" />
        <path
           d="m 951.42245,1760.8625 h -11.65964 v -56.056 q 0,-12.108 4.48448,-22.8708 4.7087,-10.7628 12.55654,-18.6106 8.07206,-8.0721 18.61059,-12.5565 10.76275,-4.7087 22.87085,-4.7087 v 11.8838 q -9.64163,0 -18.16214,3.8118 -8.52052,3.5876 -15.02301,9.8659 -6.27827,6.2783 -10.09008,15.023 -3.58759,8.5205 -3.58759,18.1621 z"
           style="font-style:normal;font-variant:normal;font-weight:normal;font-stretch:normal;font-family:TimeBurner;-inkscape-font-specification:TimeBurner;fill:#ffffff;stroke-width:11.2112"
           id="path924" />
        <path
           d="m 1017.5682,1592.6945 h 11.6597 v 112.112 l 56.056,-56.056 h 16.5925 l -56.056,56.056 56.056,56.056 h -16.5925 l -56.056,-56.056 v 56.056 h -11.6597 z"
           style="font-style:normal;font-variant:normal;font-weight:normal;font-stretch:normal;font-family:TimeBurner;-inkscape-font-specification:TimeBurner;fill:#ffffff;stroke-width:11.2112"
           id="path926" />
      </g>
      <g
         aria-label="A real-time tool for acquisition, analysis
and stimuli delivery for OpenBCI."
         id="text860"
         style="font-style:normal;font-variant:normal;font-weight:normal;font-stretch:normal;font-size:97.4288px;line-height:1;font-family:Caladea;-inkscape-font-specification:Caladea;letter-spacing:0px;word-spacing:0px;fill:#ffffff;fill-opacity:1;stroke:none;stroke-width:4.87144">
        <path
           d="m -370.601,1805.1314 c -1.46143,-0.9743 -3.21515,-1.4614 -4.96887,-1.4614 -1.65629,0 -3.21515,0.3897 -4.67658,1.2666 l -0.19486,0.1948 c -1.55886,0.9743 -2.63058,2.3383 -3.31258,3.9946 l -19.77805,47.3504 c -0.0974,0.1949 -0.0974,0.2923 -0.0974,0.4871 0,0.682 0.58457,1.1692 1.16914,1.1692 0.48715,0 0.87686,-0.1949 1.07172,-0.682 l 5.94316,-14.2246 h 39.84838 l 5.94315,14.2246 c 0.0974,0.4871 0.48715,0.682 0.97429,0.682 0.682,0 1.16915,-0.5846 1.16915,-1.2666 0,-0.097 0,-0.2923 0,-0.3897 l -19.77805,-47.3504 c -0.682,-1.5589 -1.75372,-2.9229 -3.11772,-3.8971 h -0.0974 z m -7.40459,1.364 c 0.77943,-0.2923 1.65629,-0.4871 2.43572,-0.4871 1.364,0 2.63058,0.3897 3.7023,1.0717 l 0.0974,0.097 c 1.07172,0.682 1.85115,1.7537 2.24087,2.8255 l 12.95803,30.8849 h -37.89981 l 12.86061,-30.8849 c 0.48714,-1.1692 1.364,-2.1435 2.43572,-2.9229 l 1.16914,-0.7794 z"
           style="font-style:normal;font-variant:normal;font-weight:100;font-stretch:normal;line-height:1;font-family:Trench;-inkscape-font-specification:'Trench Thin';fill:#ffffff;stroke-width:4.87144"
           id="path929" />
        <path
           d="m -318.1846,1833.6781 v 23.0906 c 0,0.7794 0.58457,1.364 1.364,1.364 0.682,0 1.26658,-0.5846 1.26658,-1.364 v -23.2855 c 0.19485,-7.5994 6.72258,-13.9323 14.2246,-13.9323 h 5.26116 c 3.70229,0 7.30716,1.5588 10.03516,4.1894 0.29229,0.2923 0.58458,0.3897 0.97429,0.3897 0.682,0 1.26658,-0.5845 1.26658,-1.364 0,-0.2923 -0.0974,-0.682 -0.38972,-0.8768 -3.11772,-3.2152 -7.40459,-4.9689 -11.88631,-4.9689 h -5.26116 c -9.15831,0 -16.66032,7.5995 -16.85518,16.6603 z"
           style="font-style:normal;font-variant:normal;font-weight:100;font-stretch:normal;line-height:1;font-family:Trench;-inkscape-font-specification:'Trench Thin';fill:#ffffff;stroke-width:4.87144"
           id="path931" />
        <path
           d="m -274.82893,1843.0312 h 36.73066 c 1.26657,0 2.33829,-1.0717 2.33829,-2.4357 v -6.82 c 0,-9.1583 -7.69688,-16.8552 -16.85519,-16.8552 h -7.50201 c -9.15831,0 -16.85519,7.6969 -16.85519,16.8552 v 6.7226 c 0,9.3531 7.01488,17.6346 16.85519,17.6346 h 18.12175 c 0.68201,0 1.26658,-0.5846 1.26658,-1.364 0,-0.682 -0.58457,-1.2666 -1.26658,-1.2666 h -18.12175 c -5.45602,0 -10.71717,-3.3126 -12.95803,-8.4763 z m 36.43837,-2.6306 h -35.95123 v -6.6251 c 0,-7.7943 6.62516,-14.2246 14.22461,-14.2246 h 7.50201 c 7.69688,0 14.22461,6.5277 14.22461,14.2246 z"
           style="font-style:normal;font-variant:normal;font-weight:100;font-stretch:normal;line-height:1;font-family:Trench;-inkscape-font-specification:'Trench Thin';fill:#ffffff;stroke-width:4.87144"
           id="path933" />
        <path
           d="m -219.68433,1816.9203 h -1.26657 c -0.682,0 -1.26658,0.5846 -1.26658,1.364 0,0.682 0.58458,1.2666 1.26658,1.2666 h 17.24489 c 6.43031,0 12.27603,4.5791 13.83489,10.8146 l 0.38972,1.5588 h -25.0392 c -7.30716,0 -13.15289,5.8458 -13.15289,13.0555 0,7.3072 5.84573,13.1529 13.15289,13.1529 h 10.81459 c 9.06088,0 16.95262,-7.502 16.95262,-16.8552 v -7.502 c 0,-9.3532 -7.89174,-16.8552 -16.95262,-16.8552 z m 11.00946,38.5818 h -5.84573 c -5.84573,0 -10.52231,-4.6766 -10.52231,-10.5223 0,-5.7483 4.67658,-10.4249 10.52231,-10.4249 h 25.0392 v 6.7226 c 0,7.5995 -6.33287,14.2246 -14.22461,14.2246 z"
           style="font-style:normal;font-variant:normal;font-weight:100;font-stretch:normal;line-height:1;font-family:Trench;-inkscape-font-specification:'Trench Thin';fill:#ffffff;stroke-width:4.87144"
           id="path935" />
        <path
           d="m -176.71838,1856.8661 c 0,0.682 0.58457,1.2666 1.26657,1.2666 0.77943,0 1.364,-0.5846 1.364,-1.2666 v -51.9295 c 0,-0.682 -0.58457,-1.2666 -1.364,-1.2666 -0.682,0 -1.26657,0.5846 -1.26657,1.2666 z"
           style="font-style:normal;font-variant:normal;font-weight:100;font-stretch:normal;line-height:1;font-family:Trench;-inkscape-font-specification:'Trench Thin';fill:#ffffff;stroke-width:4.87144"
           id="path937" />
        <path
           d="m -159.76579,1837.5752 c 13.64003,0 27.3775,0 41.01753,0 0.77943,0 1.364,-0.5846 1.364,-1.2666 0,-0.7794 -0.58457,-1.364 -1.364,-1.364 -13.64003,0 -27.3775,0 -41.01753,0 -0.77943,0 -1.364,0.5846 -1.364,1.364 0,0.682 0.58457,1.2666 1.364,1.2666 z"
           style="font-style:normal;font-variant:normal;font-weight:100;font-stretch:normal;line-height:1;font-family:Trench;-inkscape-font-specification:'Trench Thin';fill:#ffffff;stroke-width:4.87144"
           id="path939" />
        <path
           d="m -106.56974,1836.6009 v -17.1474 h 16.757754 c 0.779431,0 1.364004,-0.5846 1.364004,-1.364 0,-0.682 -0.584573,-1.2666 -1.364004,-1.2666 h -16.757754 v -11.8863 c 0,-0.682 -0.58457,-1.2666 -1.364,-1.2666 -0.682,0 -1.26658,0.5846 -1.26658,1.2666 v 36.5358 c 0,9.1583 7.50202,16.6603 16.660328,16.6603 h 3.702294 c 0.682002,0 1.266575,-0.5846 1.266575,-1.2666 0,-0.7794 -0.584573,-1.364 -1.266575,-1.364 h -3.702294 c -7.696878,0 -14.029748,-6.3329 -14.029748,-14.0297 z"
           style="font-style:normal;font-variant:normal;font-weight:100;font-stretch:normal;line-height:1;font-family:Trench;-inkscape-font-specification:'Trench Thin';fill:#ffffff;stroke-width:4.87144"
           id="path941" />
        <path
           d="m -76.366999,1856.8661 c 0,0.682 0.584573,1.2666 1.364004,1.2666 0.682001,0 1.266574,-0.5846 1.266574,-1.2666 v -38.0946 c 0,-0.7795 -0.584573,-1.364 -1.266574,-1.364 -0.779431,0 -1.364004,0.5845 -1.364004,1.364 z m 1.364004,-50.9552 c -0.974288,0 -1.753719,0.7794 -1.753719,1.7537 0,0.9743 0.779431,1.7537 1.753719,1.7537 0.974288,0 1.753718,-0.7794 1.753718,-1.7537 0,-0.9743 -0.77943,-1.7537 -1.753718,-1.7537 z"
           style="font-style:normal;font-variant:normal;font-weight:100;font-stretch:normal;line-height:1;font-family:Trench;-inkscape-font-specification:'Trench Thin';fill:#ffffff;stroke-width:4.87144"
           id="path943" />
        <path
           d="m 10.831669,1833.6781 v -0.098 c -0.194857,-9.1583 -7.7943039,-16.6603 -16.8551825,-16.6603 h -3.5074369 c -5.9431566,0 -11.1068836,3.0203 -14.5168916,8.184 l -1.071717,1.8512 -1.071717,-1.8512 c -3.020293,-5.1637 -8.671163,-8.184 -14.419462,-8.184 h -3.507437 c -9.158308,0 -16.660326,7.5995 -16.855183,16.6603 v 23.1881 c 0,0.7794 0.584573,1.364 1.364003,1.364 0.682002,0 1.266575,-0.5846 1.266575,-1.364 v -23.2855 c 0.194857,-7.5994 6.722587,-13.9323 14.224605,-13.9323 h 3.507437 c 7.599446,0 14.224605,6.4303 14.224605,14.2246 v 22.9932 c 0,0.7794 0.584573,1.364 1.266574,1.364 0.779431,0 1.364003,-0.5846 1.364003,-1.364 v -23.2855 c 0.194858,-7.4046 6.430301,-13.9323 14.2246056,-13.9323 h 3.5074369 c 7.5020177,0 14.1271763,6.3329 14.1271763,14.2246 v 22.9932 c 0,0.7794 0.6820016,1.364 1.3640032,1.364 0.77943,0 1.364003,-0.5846 1.364003,-1.364 z"
           style="font-style:normal;font-variant:normal;font-weight:100;font-stretch:normal;line-height:1;font-family:Trench;-inkscape-font-specification:'Trench Thin';fill:#ffffff;stroke-width:4.87144"
           id="path945" />
        <path
           d="m 21.548707,1843.0312 h 36.730659 c 1.266574,0 2.338291,-1.0717 2.338291,-2.4357 v -6.82 c 0,-9.1583 -7.696876,-16.8552 -16.855183,-16.8552 h -7.502018 c -9.158307,0 -16.855183,7.6969 -16.855183,16.8552 v 6.7226 c 0,9.3531 7.014874,17.6346 16.855183,17.6346 h 18.121758 c 0.682001,0 1.266574,-0.5846 1.266574,-1.364 0,-0.682 -0.584573,-1.2666 -1.266574,-1.2666 H 36.260456 c -5.456013,0 -10.717168,-3.3126 -12.95803,-8.4763 z m 36.438372,-2.6306 H 22.035851 v -6.6251 c 0,-7.7943 6.625159,-14.2246 14.224605,-14.2246 h 7.502018 c 7.696875,0 14.224605,6.5277 14.224605,14.2246 z"
           style="font-style:normal;font-variant:normal;font-weight:100;font-stretch:normal;line-height:1;font-family:Trench;-inkscape-font-specification:'Trench Thin';fill:#ffffff;stroke-width:4.87144"
           id="path947" />
        <path
           d="m 94.912346,1836.6009 v -17.1474 H 111.6701 c 0.77943,0 1.364,-0.5846 1.364,-1.364 0,-0.682 -0.58457,-1.2666 -1.364,-1.2666 H 94.912346 v -11.8863 c 0,-0.682 -0.584572,-1.2666 -1.364003,-1.2666 -0.682001,0 -1.266574,0.5846 -1.266574,1.2666 v 36.5358 c 0,9.1583 7.502018,16.6603 16.660321,16.6603 h 3.7023 c 0.682,0 1.26657,-0.5846 1.26657,-1.2666 0,-0.7794 -0.58457,-1.364 -1.26657,-1.364 h -3.7023 c -7.69687,0 -14.029744,-6.3329 -14.029744,-14.0297 z"
           style="font-style:normal;font-variant:normal;font-weight:100;font-stretch:normal;line-height:1;font-family:Trench;-inkscape-font-specification:'Trench Thin';fill:#ffffff;stroke-width:4.87144"
           id="path949" />
        <path
           d="m 141.58056,1816.9203 c -9.15831,0 -16.85519,7.6969 -16.85519,16.8552 v 7.502 c 0,9.1583 7.69688,16.8552 16.85519,16.8552 h 7.50201 c 9.15831,0 16.85519,-7.6969 16.85519,-16.8552 v -7.502 c 0,-9.1583 -7.69688,-16.8552 -16.85519,-16.8552 z m 7.50201,2.6306 c 7.59945,0 14.22461,6.4303 14.22461,14.2246 v 7.502 c 0,7.6969 -6.52773,14.2246 -14.22461,14.2246 h -7.50201 c -7.69688,0 -14.22461,-6.6251 -14.22461,-14.2246 v -7.502 c 0,-7.8917 6.72259,-14.2246 14.22461,-14.2246 z"
           style="font-style:normal;font-variant:normal;font-weight:100;font-stretch:normal;line-height:1;font-family:Trench;-inkscape-font-specification:'Trench Thin';fill:#ffffff;stroke-width:4.87144"
           id="path951" />
        <path
           d="m 192.82805,1816.9203 c -9.1583,0 -16.85518,7.6969 -16.85518,16.8552 v 7.502 c 0,9.1583 7.69688,16.8552 16.85518,16.8552 h 7.50202 c 9.15831,0 16.85518,-7.6969 16.85518,-16.8552 v -7.502 c 0,-9.1583 -7.69687,-16.8552 -16.85518,-16.8552 z m 7.50202,2.6306 c 7.59945,0 14.22461,6.4303 14.22461,14.2246 v 7.502 c 0,7.6969 -6.52773,14.2246 -14.22461,14.2246 h -7.50202 c -7.69687,0 -14.2246,-6.6251 -14.2246,-14.2246 v -7.502 c 0,-7.8917 6.72258,-14.2246 14.2246,-14.2246 z"
           style="font-style:normal;font-variant:normal;font-weight:100;font-stretch:normal;line-height:1;font-family:Trench;-inkscape-font-specification:'Trench Thin';fill:#ffffff;stroke-width:4.87144"
           id="path953" />
        <path
           d="m 227.22031,1856.8661 c 0,0.682 0.58457,1.2666 1.26657,1.2666 0.77943,0 1.364,-0.5846 1.364,-1.2666 v -51.9295 c 0,-0.682 -0.58457,-1.2666 -1.364,-1.2666 -0.682,0 -1.26657,0.5846 -1.26657,1.2666 z"
           style="font-style:normal;font-variant:normal;font-weight:100;font-stretch:normal;line-height:1;font-family:Trench;-inkscape-font-specification:'Trench Thin';fill:#ffffff;stroke-width:4.87144"
           id="path955" />
        <path
           d="m 264.4379,1825.2018 v 31.6643 c 0,0.682 0.58457,1.2666 1.26657,1.2666 0.77943,0 1.364,-0.5846 1.364,-1.2666 v -13.64 h 16.75776 c 0.77943,0 1.364,-0.5846 1.364,-1.2666 0,-0.7794 -0.58457,-1.364 -1.364,-1.364 h -16.75776 v -20.2652 c 0,-7.7943 6.33288,-14.0297 14.02975,-14.0297 h 3.7023 c 0.682,0 1.26657,-0.5846 1.26657,-1.364 0,-0.682 -0.58457,-1.2666 -1.26657,-1.2666 h -3.7023 c -9.15831,0 -16.66032,7.502 -16.66032,16.6603 z"
           style="font-style:normal;font-variant:normal;font-weight:100;font-stretch:normal;line-height:1;font-family:Trench;-inkscape-font-specification:'Trench Thin';fill:#ffffff;stroke-width:4.87144"
           id="path957" />
        <path
           d="m 312.95733,1816.9203 c -9.15831,0 -16.85519,7.6969 -16.85519,16.8552 v 7.502 c 0,9.1583 7.69688,16.8552 16.85519,16.8552 h 7.50201 c 9.15831,0 16.85519,-7.6969 16.85519,-16.8552 v -7.502 c 0,-9.1583 -7.69688,-16.8552 -16.85519,-16.8552 z m 7.50201,2.6306 c 7.59945,0 14.22461,6.4303 14.22461,14.2246 v 7.502 c 0,7.6969 -6.52773,14.2246 -14.22461,14.2246 h -7.50201 c -7.69688,0 -14.22461,-6.6251 -14.22461,-14.2246 v -7.502 c 0,-7.8917 6.72259,-14.2246 14.22461,-14.2246 z"
           style="font-style:normal;font-variant:normal;font-weight:100;font-stretch:normal;line-height:1;font-family:Trench;-inkscape-font-specification:'Trench Thin';fill:#ffffff;stroke-width:4.87144"
           id="path959" />
        <path
           d="m 347.34964,1833.6781 v 23.0906 c 0,0.7794 0.58457,1.364 1.364,1.364 0.682,0 1.26658,-0.5846 1.26658,-1.364 v -23.2855 c 0.19486,-7.5994 6.72258,-13.9323 14.2246,-13.9323 h 5.26116 c 3.70229,0 7.30716,1.5588 10.03516,4.1894 0.29229,0.2923 0.58458,0.3897 0.97429,0.3897 0.682,0 1.26658,-0.5845 1.26658,-1.364 0,-0.2923 -0.0974,-0.682 -0.38972,-0.8768 -3.11772,-3.2152 -7.40459,-4.9689 -11.88631,-4.9689 h -5.26116 c -9.1583,0 -16.66032,7.5995 -16.85518,16.6603 z"
           style="font-style:normal;font-variant:normal;font-weight:100;font-stretch:normal;line-height:1;font-family:Trench;-inkscape-font-specification:'Trench Thin';fill:#ffffff;stroke-width:4.87144"
           id="path961" />
        <path
           d="m 419.2518,1816.9203 h -1.26658 c -0.682,0 -1.26657,0.5846 -1.26657,1.364 0,0.682 0.58457,1.2666 1.26657,1.2666 h 17.2449 c 6.4303,0 12.27603,4.5791 13.83489,10.8146 l 0.38972,1.5588 h -25.03921 c -7.30716,0 -13.15288,5.8458 -13.15288,13.0555 0,7.3072 5.84572,13.1529 13.15288,13.1529 h 10.8146 c 9.06088,0 16.95261,-7.502 16.95261,-16.8552 v -7.502 c 0,-9.3532 -7.89173,-16.8552 -16.95261,-16.8552 z m 11.00945,38.5818 h -5.84573 c -5.84572,0 -10.52231,-4.6766 -10.52231,-10.5223 0,-5.7483 4.67659,-10.4249 10.52231,-10.4249 h 25.03921 v 6.7226 c 0,7.5995 -6.33288,14.2246 -14.22461,14.2246 z"
           style="font-style:normal;font-variant:normal;font-weight:100;font-stretch:normal;line-height:1;font-family:Trench;-inkscape-font-specification:'Trench Thin';fill:#ffffff;stroke-width:4.87144"
           id="path963" />
        <path
           d="m 493.58982,1855.5021 h -14.51689 c -7.69688,0 -14.22461,-6.5277 -14.22461,-14.2246 v -7.502 c 0,-7.8917 6.72259,-14.2246 14.22461,-14.2246 h 15.78346 c 0.682,0 1.26658,-0.5846 1.26658,-1.2666 0,-0.7794 -0.58458,-1.364 -1.26658,-1.364 h -15.78346 c -9.15831,0 -16.85519,7.6969 -16.85519,16.8552 v 7.502 c 0,9.1583 7.69688,16.8552 16.85519,16.8552 h 15.78346 c 0.682,0 1.26658,-0.5846 1.26658,-1.364 0,-0.682 -0.58458,-1.2666 -1.26658,-1.2666 z"
           style="font-style:normal;font-variant:normal;font-weight:100;font-stretch:normal;line-height:1;font-family:Trench;-inkscape-font-specification:'Trench Thin';fill:#ffffff;stroke-width:4.87144"
           id="path965" />
        <path
           d="m 545.32446,1833.4832 c 0,-8.9634 -7.59944,-16.5629 -16.56289,-16.5629 h -7.30716 c -8.96345,0 -16.5629,7.5995 -16.5629,16.5629 v 8.0866 c 0,8.9634 7.59945,16.5629 16.5629,16.5629 h 7.30716 c 4.38429,0 8.57373,-1.7537 11.69145,-4.8714 l 2.24087,-2.2409 v 25.5263 c 0,0.682 0.58457,1.2666 1.364,1.2666 0.682,0 1.26657,-0.5846 1.26657,-1.2666 z m -2.63057,8.3789 c 0,7.502 -6.62516,13.64 -13.93232,13.64 h -7.30716 c -7.59945,0 -13.93232,-6.3329 -13.93232,-13.9323 v -8.0866 c 0,-7.5994 6.33287,-13.9323 13.93232,-13.9323 h 7.30716 c 7.59944,0 13.93232,6.3329 13.93232,13.9323 v 5.6509 z"
           style="font-style:normal;font-variant:normal;font-weight:100;font-stretch:normal;line-height:1;font-family:Trench;-inkscape-font-specification:'Trench Thin';fill:#ffffff;stroke-width:4.87144"
           id="path967" />
        <path
           d="m 556.4313,1841.3749 v 0.098 c 0.19486,9.0608 7.69688,16.6603 16.85519,16.6603 h 3.50743 c 9.15831,0 16.66033,-7.5995 16.85519,-16.6603 v -23.1881 c 0,-0.7794 -0.58458,-1.364 -1.36401,-1.364 -0.682,0 -1.26657,0.5846 -1.26657,1.364 v 22.9932 c 0,7.6969 -6.52773,14.2246 -14.22461,14.2246 h -3.50743 c -7.50202,0 -14.02975,-6.2354 -14.22461,-14.0297 v -23.1881 c 0,-0.7794 -0.58457,-1.364 -1.26657,-1.364 -0.77943,0 -1.36401,0.5846 -1.36401,1.364 z"
           style="font-style:normal;font-variant:normal;font-weight:100;font-stretch:normal;line-height:1;font-family:Trench;-inkscape-font-specification:'Trench Thin';fill:#ffffff;stroke-width:4.87144"
           id="path969" />
        <path
           d="m 602.51511,1856.8661 c 0,0.682 0.58457,1.2666 1.36401,1.2666 0.682,0 1.26657,-0.5846 1.26657,-1.2666 v -38.0946 c 0,-0.7795 -0.58457,-1.364 -1.26657,-1.364 -0.77944,0 -1.36401,0.5845 -1.36401,1.364 z m 1.36401,-50.9552 c -0.97429,0 -1.75372,0.7794 -1.75372,1.7537 0,0.9743 0.77943,1.7537 1.75372,1.7537 0.97428,0 1.75371,-0.7794 1.75371,-1.7537 0,-0.9743 -0.77943,-1.7537 -1.75371,-1.7537 z"
           style="font-style:normal;font-variant:normal;font-weight:100;font-stretch:normal;line-height:1;font-family:Trench;-inkscape-font-specification:'Trench Thin';fill:#ffffff;stroke-width:4.87144"
           id="path971" />
        <path
           d="m 654.05481,1827.0529 c 0,-0.3897 0.0974,-0.682 0.0974,-0.9743 0,-2.046 -1.16915,-4.3843 -2.63058,-5.9431 l -0.29229,-0.2923 c -1.85114,-1.8512 -4.38429,-2.9229 -7.01487,-2.9229 h -15.8809 c -5.35858,0 -10.03516,4.3843 -10.03516,10.0352 0,11.8863 16.56289,11.3017 25.0392,12.958 3.99458,0.7794 9.15831,2.5332 9.15831,8.184 0,3.9946 -3.31258,7.3072 -7.30716,7.3072 h -17.34233 c -3.41001,0 -7.20973,-2.8255 -7.20973,-6.3329 0,-0.2923 0,-0.5846 0,-1.0717 0,-0.7794 -0.58457,-1.364 -1.364,-1.364 -1.26658,0 -1.36401,1.5589 -1.36401,2.5331 0,4.7741 4.87144,8.9635 9.93774,8.9635 h 17.34233 c 5.65087,0 10.03516,-4.6766 10.03516,-10.0352 0,-17.6346 -34.19751,-6.3328 -34.19751,-21.142 0,-3.9946 3.31258,-7.3072 7.30716,-7.3072 h 15.8809 c 1.94857,0 3.79972,0.7794 5.16373,2.1434 l 0.38971,0.3898 c 0.87686,1.0717 1.65629,2.728 1.65629,3.9945 0,0.1949 0,0.4872 0,0.8769 0,0.682 0.58457,1.2666 1.26657,1.2666 0.77943,0 1.36401,-0.5846 1.36401,-1.2666 z"
           style="font-style:normal;font-variant:normal;font-weight:100;font-stretch:normal;line-height:1;font-family:Trench;-inkscape-font-specification:'Trench Thin';fill:#ffffff;stroke-width:4.87144"
           id="path973" />
        <path
           d="m 665.55124,1856.8661 c 0,0.682 0.58458,1.2666 1.36401,1.2666 0.682,0 1.26657,-0.5846 1.26657,-1.2666 v -38.0946 c 0,-0.7795 -0.58457,-1.364 -1.26657,-1.364 -0.77943,0 -1.36401,0.5845 -1.36401,1.364 z m 1.36401,-50.9552 c -0.97429,0 -1.75372,0.7794 -1.75372,1.7537 0,0.9743 0.77943,1.7537 1.75372,1.7537 0.97429,0 1.75372,-0.7794 1.75372,-1.7537 0,-0.9743 -0.77943,-1.7537 -1.75372,-1.7537 z"
           style="font-style:normal;font-variant:normal;font-weight:100;font-stretch:normal;line-height:1;font-family:Trench;-inkscape-font-specification:'Trench Thin';fill:#ffffff;stroke-width:4.87144"
           id="path975" />
        <path
           d="m 683.57543,1836.6009 v -17.1474 h 16.75776 c 0.77943,0 1.364,-0.5846 1.364,-1.364 0,-0.682 -0.58457,-1.2666 -1.364,-1.2666 h -16.75776 v -11.8863 c 0,-0.682 -0.58457,-1.2666 -1.364,-1.2666 -0.682,0 -1.26658,0.5846 -1.26658,1.2666 v 36.5358 c 0,9.1583 7.50202,16.6603 16.66033,16.6603 h 3.70229 c 0.68201,0 1.26658,-0.5846 1.26658,-1.2666 0,-0.7794 -0.58457,-1.364 -1.26658,-1.364 h -3.70229 c -7.69688,0 -14.02975,-6.3329 -14.02975,-14.0297 z"
           style="font-style:normal;font-variant:normal;font-weight:100;font-stretch:normal;line-height:1;font-family:Trench;-inkscape-font-specification:'Trench Thin';fill:#ffffff;stroke-width:4.87144"
           id="path977" />
        <path
           d="m 713.7783,1856.8661 c 0,0.682 0.58457,1.2666 1.364,1.2666 0.682,0 1.26657,-0.5846 1.26657,-1.2666 v -38.0946 c 0,-0.7795 -0.58457,-1.364 -1.26657,-1.364 -0.77943,0 -1.364,0.5845 -1.364,1.364 z m 1.364,-50.9552 c -0.97429,0 -1.75372,0.7794 -1.75372,1.7537 0,0.9743 0.77943,1.7537 1.75372,1.7537 0.97429,0 1.75372,-0.7794 1.75372,-1.7537 0,-0.9743 -0.77943,-1.7537 -1.75372,-1.7537 z"
           style="font-style:normal;font-variant:normal;font-weight:100;font-stretch:normal;line-height:1;font-family:Trench;-inkscape-font-specification:'Trench Thin';fill:#ffffff;stroke-width:4.87144"
           id="path979" />
        <path
           d="m 746.02709,1816.9203 c -9.15831,0 -16.85518,7.6969 -16.85518,16.8552 v 7.502 c 0,9.1583 7.69687,16.8552 16.85518,16.8552 h 7.50202 c 9.1583,0 16.85518,-7.6969 16.85518,-16.8552 v -7.502 c 0,-9.1583 -7.69688,-16.8552 -16.85518,-16.8552 z m 7.50202,2.6306 c 7.59944,0 14.2246,6.4303 14.2246,14.2246 v 7.502 c 0,7.6969 -6.52773,14.2246 -14.2246,14.2246 h -7.50202 c -7.69688,0 -14.22461,-6.6251 -14.22461,-14.2246 v -7.502 c 0,-7.8917 6.72259,-14.2246 14.22461,-14.2246 z"
           style="font-style:normal;font-variant:normal;font-weight:100;font-stretch:normal;line-height:1;font-family:Trench;-inkscape-font-specification:'Trench Thin';fill:#ffffff;stroke-width:4.87144"
           id="path981" />
        <path
           d="m 821.63173,1833.6781 v -0.098 c 0,-8.9634 -7.79431,-16.6603 -16.85519,-16.6603 h -7.50202 c -9.1583,0 -16.66032,7.5995 -16.85518,16.6603 v 23.1881 c 0,0.7794 0.58457,1.364 1.36401,1.364 0.682,0 1.26657,-0.5846 1.26657,-1.364 v -23.2855 c 0.19486,-7.502 6.62516,-13.9323 14.2246,-13.9323 h 7.50202 c 7.59945,0 14.22461,6.4303 14.22461,14.2246 v 22.9932 c 0,0.7794 0.58457,1.364 1.26657,1.364 0.77943,0 1.36401,-0.5846 1.36401,-1.364 z"
           style="font-style:normal;font-variant:normal;font-weight:100;font-stretch:normal;line-height:1;font-family:Trench;-inkscape-font-specification:'Trench Thin';fill:#ffffff;stroke-width:4.87144"
           id="path983" />
        <path
           d="m 840.63014,1853.1638 c 0.48715,-0.7794 0.19486,-1.6563 -0.58457,-2.1434 -0.682,-0.3897 -1.65629,-0.1949 -2.046,0.5846 -4.87144,8.2814 -5.16373,8.866 -5.45602,9.3531 -0.38971,0.7795 -0.19485,1.7537 0.58458,2.1435 0.682,0.3897 1.65629,0.1948 2.14343,-0.5846 z"
           style="font-style:normal;font-variant:normal;font-weight:100;font-stretch:normal;line-height:1;font-family:Trench;-inkscape-font-specification:'Trench Thin';fill:#ffffff;stroke-width:4.87144"
           id="path985" />
        <path
           d="m 877.0682,1816.9203 h -1.26657 c -0.682,0 -1.26657,0.5846 -1.26657,1.364 0,0.682 0.58457,1.2666 1.26657,1.2666 h 17.2449 c 6.4303,0 12.27603,4.5791 13.83489,10.8146 l 0.38971,1.5588 h -25.0392 c -7.30716,0 -13.15289,5.8458 -13.15289,13.0555 0,7.3072 5.84573,13.1529 13.15289,13.1529 h 10.8146 c 9.06088,0 16.95261,-7.502 16.95261,-16.8552 v -7.502 c 0,-9.3532 -7.89173,-16.8552 -16.95261,-16.8552 z m 11.00946,38.5818 h -5.84573 c -5.84573,0 -10.52231,-4.6766 -10.52231,-10.5223 0,-5.7483 4.67658,-10.4249 10.52231,-10.4249 h 25.0392 v 6.7226 c 0,7.5995 -6.33287,14.2246 -14.2246,14.2246 z"
           style="font-style:normal;font-variant:normal;font-weight:100;font-stretch:normal;line-height:1;font-family:Trench;-inkscape-font-specification:'Trench Thin';fill:#ffffff;stroke-width:4.87144"
           id="path987" />
        <path
           d="m 961.24647,1833.6781 v -0.098 c 0,-8.9634 -7.7943,-16.6603 -16.85518,-16.6603 h -7.50202 c -9.15831,0 -16.66032,7.5995 -16.85518,16.6603 v 23.1881 c 0,0.7794 0.58457,1.364 1.364,1.364 0.682,0 1.26658,-0.5846 1.26658,-1.364 v -23.2855 c 0.19485,-7.502 6.62515,-13.9323 14.2246,-13.9323 h 7.50202 c 7.59945,0 14.2246,6.4303 14.2246,14.2246 v 22.9932 c 0,0.7794 0.58458,1.364 1.26658,1.364 0.77943,0 1.364,-0.5846 1.364,-1.364 z"
           style="font-style:normal;font-variant:normal;font-weight:100;font-stretch:normal;line-height:1;font-family:Trench;-inkscape-font-specification:'Trench Thin';fill:#ffffff;stroke-width:4.87144"
           id="path989" />
        <path
           d="m 977.80917,1816.9203 h -1.26657 c -0.68201,0 -1.26658,0.5846 -1.26658,1.364 0,0.682 0.58457,1.2666 1.26658,1.2666 h 17.24489 c 6.43031,0 12.27601,4.5791 13.83491,10.8146 l 0.3897,1.5588 h -25.0392 c -7.30716,0 -13.15289,5.8458 -13.15289,13.0555 0,7.3072 5.84573,13.1529 13.15289,13.1529 h 10.81459 c 9.06091,0 16.95261,-7.502 16.95261,-16.8552 v -7.502 c 0,-9.3532 -7.8917,-16.8552 -16.95261,-16.8552 z m 11.00946,38.5818 h -5.84573 c -5.84573,0 -10.52231,-4.6766 -10.52231,-10.5223 0,-5.7483 4.67658,-10.4249 10.52231,-10.4249 h 25.0392 v 6.7226 c 0,7.5995 -6.3329,14.2246 -14.22461,14.2246 z"
           style="font-style:normal;font-variant:normal;font-weight:100;font-stretch:normal;line-height:1;font-family:Trench;-inkscape-font-specification:'Trench Thin';fill:#ffffff;stroke-width:4.87144"
           id="path991" />
        <path
           d="m 1020.7752,1856.8661 c 0,0.682 0.5845,1.2666 1.2666,1.2666 0.7794,0 1.364,-0.5846 1.364,-1.2666 v -51.9295 c 0,-0.682 -0.5846,-1.2666 -1.364,-1.2666 -0.6821,0 -1.2666,0.5846 -1.2666,1.2666 z"
           style="font-style:normal;font-variant:normal;font-weight:100;font-stretch:normal;line-height:1;font-family:Trench;-inkscape-font-specification:'Trench Thin';fill:#ffffff;stroke-width:4.87144"
           id="path993" />
        <path
           d="m 1069.4896,1818.1869 v -0.1949 -0.1948 l -0.097,-0.098 -0.098,-0.097 -0.097,-0.1948 -0.097,-0.098 -0.097,-0.097 -0.097,-0.097 -0.1948,-0.097 -0.098,-0.097 h -0.1948 -0.1949 -0.1948 -0.1949 l -0.1949,0.097 -0.1948,0.097 -0.1949,0.1948 -0.097,0.1949 -0.097,0.097 -0.098,0.1949 v 0.1948 l -0.097,0.098 v 15.3937 c 0,7.5994 -6.3329,13.9323 -13.9323,13.9323 -7.5995,0 -13.9323,-6.3329 -13.9323,-13.9323 v -15.2963 c 0,-0.682 -0.5846,-1.2666 -1.364,-1.2666 -0.682,0 -1.2666,0.5846 -1.2666,1.2666 v 15.2963 c 0,8.9635 7.5994,16.5629 16.5629,16.5629 4.3843,0 8.5737,-1.7537 11.6915,-4.8714 l 2.2408,-2.2409 v 17.5372 c 0,7.5994 -6.3329,13.9323 -13.9323,13.9323 h -3.7023 c -0.682,0 -1.2666,0.5846 -1.2666,1.364 0,0.682 0.5846,1.2666 1.2666,1.2666 h 3.7023 c 8.9634,0 16.5629,-7.5995 16.5629,-16.5629 z"
           style="font-style:normal;font-variant:normal;font-weight:100;font-stretch:normal;line-height:1;font-family:Trench;-inkscape-font-specification:'Trench Thin';fill:#ffffff;stroke-width:4.87144"
           id="path995" />
        <path
           d="m 1117.7167,1827.0529 c 0,-0.3897 0.097,-0.682 0.097,-0.9743 0,-2.046 -1.1691,-4.3843 -2.6306,-5.9431 l -0.2923,-0.2923 c -1.8511,-1.8512 -4.3843,-2.9229 -7.0148,-2.9229 h -15.8809 c -5.3586,0 -10.0352,4.3843 -10.0352,10.0352 0,11.8863 16.5629,11.3017 25.0392,12.958 3.9946,0.7794 9.1583,2.5332 9.1583,8.184 0,3.9946 -3.3126,7.3072 -7.3071,7.3072 h -17.3424 c -3.41,0 -7.2097,-2.8255 -7.2097,-6.3329 0,-0.2923 0,-0.5846 0,-1.0717 0,-0.7794 -0.5846,-1.364 -1.364,-1.364 -1.2666,0 -1.364,1.5589 -1.364,2.5331 0,4.7741 4.8714,8.9635 9.9377,8.9635 h 17.3424 c 5.6508,0 10.0351,-4.6766 10.0351,-10.0352 0,-17.6346 -34.1975,-6.3328 -34.1975,-21.142 0,-3.9946 3.3126,-7.3072 7.3072,-7.3072 h 15.8809 c 1.9485,0 3.7997,0.7794 5.1637,2.1434 l 0.3897,0.3898 c 0.8769,1.0717 1.6563,2.728 1.6563,3.9945 0,0.1949 0,0.4872 0,0.8769 0,0.682 0.5846,1.2666 1.2666,1.2666 0.7794,0 1.364,-0.5846 1.364,-1.2666 z"
           style="font-style:normal;font-variant:normal;font-weight:100;font-stretch:normal;line-height:1;font-family:Trench;-inkscape-font-specification:'Trench Thin';fill:#ffffff;stroke-width:4.87144"
           id="path997" />
        <path
           d="m 1129.2131,1856.8661 c 0,0.682 0.5846,1.2666 1.364,1.2666 0.682,0 1.2666,-0.5846 1.2666,-1.2666 v -38.0946 c 0,-0.7795 -0.5846,-1.364 -1.2666,-1.364 -0.7794,0 -1.364,0.5845 -1.364,1.364 z m 1.364,-50.9552 c -0.9743,0 -1.7537,0.7794 -1.7537,1.7537 0,0.9743 0.7794,1.7537 1.7537,1.7537 0.9743,0 1.7537,-0.7794 1.7537,-1.7537 0,-0.9743 -0.7794,-1.7537 -1.7537,-1.7537 z"
           style="font-style:normal;font-variant:normal;font-weight:100;font-stretch:normal;line-height:1;font-family:Trench;-inkscape-font-specification:'Trench Thin';fill:#ffffff;stroke-width:4.87144"
           id="path999" />
        <path
           d="m 1180.7529,1827.0529 c 0,-0.3897 0.098,-0.682 0.098,-0.9743 0,-2.046 -1.1692,-4.3843 -2.6306,-5.9431 l -0.2923,-0.2923 c -1.8512,-1.8512 -4.3843,-2.9229 -7.0149,-2.9229 h -15.8809 c -5.3586,0 -10.0351,4.3843 -10.0351,10.0352 0,11.8863 16.5629,11.3017 25.0392,12.958 3.9945,0.7794 9.1583,2.5332 9.1583,8.184 0,3.9946 -3.3126,7.3072 -7.3072,7.3072 h -17.3423 c -3.41,0 -7.2098,-2.8255 -7.2098,-6.3329 0,-0.2923 0,-0.5846 0,-1.0717 0,-0.7794 -0.5845,-1.364 -1.364,-1.364 -1.2665,0 -1.364,1.5589 -1.364,2.5331 0,4.7741 4.8715,8.9635 9.9378,8.9635 h 17.3423 c 5.6509,0 10.0352,-4.6766 10.0352,-10.0352 0,-17.6346 -34.1975,-6.3328 -34.1975,-21.142 0,-3.9946 3.3125,-7.3072 7.3071,-7.3072 h 15.8809 c 1.9486,0 3.7997,0.7794 5.1637,2.1434 l 0.3898,0.3898 c 0.8768,1.0717 1.6563,2.728 1.6563,3.9945 0,0.1949 0,0.4872 0,0.8769 0,0.682 0.5845,1.2666 1.2665,1.2666 0.7795,0 1.364,-0.5846 1.364,-1.2666 z"
           style="font-style:normal;font-variant:normal;font-weight:100;font-stretch:normal;line-height:1;font-family:Trench;-inkscape-font-specification:'Trench Thin';fill:#ffffff;stroke-width:4.87144"
           id="path1001" />
        <path
           d="m -397.58878,1917.0608 h -1.26657 c -0.682,0 -1.26658,0.5845 -1.26658,1.364 0,0.682 0.58458,1.2665 1.26658,1.2665 h 17.2449 c 6.4303,0 12.27602,4.5792 13.83489,10.8146 l 0.38971,1.5589 h -25.0392 c -7.30716,0 -13.15289,5.8457 -13.15289,13.0554 0,7.3072 5.84573,13.1529 13.15289,13.1529 h 10.8146 c 9.06087,0 16.95261,-7.502 16.95261,-16.8551 v -7.5021 c 0,-9.3531 -7.89174,-16.8551 -16.95261,-16.8551 z m 11.00946,38.5818 h -5.84573 c -5.84573,0 -10.52231,-4.6766 -10.52231,-10.5224 0,-5.7483 4.67658,-10.4248 10.52231,-10.4248 h 25.0392 v 6.7226 c 0,7.5994 -6.33287,14.2246 -14.2246,14.2246 z"
           style="font-style:normal;font-variant:normal;font-weight:100;font-stretch:normal;line-height:1;font-family:Trench;-inkscape-font-specification:'Trench Thin';fill:#ffffff;stroke-width:4.87144"
           id="path1003" />
        <path
           d="m -313.41045,1933.8185 v -0.097 c 0,-8.9635 -7.79431,-16.6603 -16.85519,-16.6603 h -7.50201 c -9.15831,0 -16.66033,7.5994 -16.85519,16.6603 v 23.188 c 0,0.7795 0.58458,1.364 1.36401,1.364 0.682,0 1.26657,-0.5845 1.26657,-1.364 v -23.2855 c 0.19486,-7.502 6.62516,-13.9323 14.22461,-13.9323 h 7.50201 c 7.59945,0 14.22461,6.4303 14.22461,14.2246 v 22.9932 c 0,0.7795 0.58457,1.364 1.26657,1.364 0.77943,0 1.36401,-0.5845 1.36401,-1.364 z"
           style="font-style:normal;font-variant:normal;font-weight:100;font-stretch:normal;line-height:1;font-family:Trench;-inkscape-font-specification:'Trench Thin';fill:#ffffff;stroke-width:4.87144"
           id="path1005" />
        <path
           d="m -262.26051,1904.395 c 0,-0.7794 -0.58457,-1.364 -1.26657,-1.364 -0.77944,0 -1.36401,0.5846 -1.36401,1.364 v 19.6806 l -2.24086,-2.3383 c -3.02029,-3.1177 -7.40459,-4.8714 -11.78889,-4.8714 h -7.30716 c -9.1583,0 -16.66032,7.5994 -16.66032,16.6603 v 8.0866 c 0,9.1583 7.50202,16.6603 16.66032,16.6603 h 7.30716 c 9.15831,0 16.66033,-7.502 16.66033,-16.6603 z m -2.63058,31.5669 v 5.6509 c 0,7.6969 -6.33287,14.0298 -14.02975,14.0298 h -7.30716 c -7.69687,0 -14.02974,-6.3329 -14.02974,-14.0298 v -8.0866 c 0,-7.6969 6.33287,-14.0297 14.02974,-14.0297 h 7.30716 c 7.40459,0 14.02975,6.2354 14.02975,13.7374 z"
           style="font-style:normal;font-variant:normal;font-weight:100;font-stretch:normal;line-height:1;font-family:Trench;-inkscape-font-specification:'Trench Thin';fill:#ffffff;stroke-width:4.87144"
           id="path1007" />
        <path
           d="m -192.89144,1927.1933 c 0,-0.3897 0.0974,-0.682 0.0974,-0.9742 0,-2.046 -1.16914,-4.3843 -2.63057,-5.9432 l -0.29229,-0.2923 c -1.85115,-1.8511 -4.3843,-2.9228 -7.01487,-2.9228 h -15.8809 c -5.35858,0 -10.03517,4.3842 -10.03517,10.0351 0,11.8863 16.5629,11.3018 25.03921,12.958 3.99458,0.7795 9.1583,2.5332 9.1583,8.1841 0,3.9945 -3.31258,7.3071 -7.30716,7.3071 h -17.34232 c -3.41001,0 -7.20973,-2.8254 -7.20973,-6.3328 0,-0.2923 0,-0.5846 0,-1.0718 0,-0.7794 -0.58458,-1.364 -1.36401,-1.364 -1.26657,0 -1.364,1.5589 -1.364,2.5332 0,4.774 4.87144,8.9634 9.93774,8.9634 h 17.34232 c 5.65087,0 10.03517,-4.6765 10.03517,-10.0351 0,-17.6346 -34.19751,-6.3329 -34.19751,-21.1421 0,-3.9946 3.31258,-7.3071 7.30716,-7.3071 h 15.8809 c 1.94857,0 3.79972,0.7794 5.16372,2.1434 l 0.38972,0.3897 c 0.87686,1.0717 1.65629,2.728 1.65629,3.9946 0,0.1948 0,0.4871 0,0.8768 0,0.682 0.58457,1.2666 1.26657,1.2666 0.77943,0 1.364,-0.5846 1.364,-1.2666 z"
           style="font-style:normal;font-variant:normal;font-weight:100;font-stretch:normal;line-height:1;font-family:Trench;-inkscape-font-specification:'Trench Thin';fill:#ffffff;stroke-width:4.87144"
           id="path1009" />
        <path
           d="m -179.15411,1936.7414 v -17.1475 h 16.75776 c 0.77943,0 1.364,-0.5846 1.364,-1.364 0,-0.682 -0.58457,-1.2666 -1.364,-1.2666 h -16.75776 v -11.8863 c 0,-0.682 -0.58457,-1.2666 -1.364,-1.2666 -0.682,0 -1.26657,0.5846 -1.26657,1.2666 v 36.5358 c 0,9.1583 7.50201,16.6603 16.66032,16.6603 h 3.7023 c 0.682,0 1.26657,-0.5845 1.26657,-1.2665 0,-0.7795 -0.58457,-1.364 -1.26657,-1.364 h -3.7023 c -7.69687,0 -14.02975,-6.3329 -14.02975,-14.0298 z"
           style="font-style:normal;font-variant:normal;font-weight:100;font-stretch:normal;line-height:1;font-family:Trench;-inkscape-font-specification:'Trench Thin';fill:#ffffff;stroke-width:4.87144"
           id="path1011" />
        <path
           d="m -148.95135,1957.0066 c 0,0.682 0.58457,1.2665 1.364,1.2665 0.68201,0 1.26658,-0.5845 1.26658,-1.2665 v -38.0947 c 0,-0.7794 -0.58457,-1.364 -1.26658,-1.364 -0.77943,0 -1.364,0.5846 -1.364,1.364 z m 1.364,-50.9553 c -0.97428,0 -1.75371,0.7794 -1.75371,1.7537 0,0.9743 0.77943,1.7537 1.75371,1.7537 0.97429,0 1.75372,-0.7794 1.75372,-1.7537 0,-0.9743 -0.77943,-1.7537 -1.75372,-1.7537 z"
           style="font-style:normal;font-variant:normal;font-weight:100;font-stretch:normal;line-height:1;font-family:Trench;-inkscape-font-specification:'Trench Thin';fill:#ffffff;stroke-width:4.87144"
           id="path1013" />
        <path
           d="m -61.752681,1933.8185 v -0.097 c -0.194858,-9.1583 -7.794305,-16.6603 -16.855183,-16.6603 h -3.507437 c -5.943157,0 -11.106884,3.0202 -14.516892,8.184 l -1.071716,1.8511 -1.071717,-1.8511 c -3.020294,-5.1638 -8.671164,-8.184 -14.419464,-8.184 h -3.50744 c -9.1583,0 -16.66032,7.5994 -16.85518,16.6603 v 23.188 c 0,0.7795 0.58457,1.364 1.364,1.364 0.68201,0 1.26658,-0.5845 1.26658,-1.364 v -23.2855 c 0.19486,-7.5994 6.72259,-13.9323 14.2246,-13.9323 h 3.50744 c 7.59945,0 14.224606,6.4303 14.224606,14.2246 v 22.9932 c 0,0.7795 0.584573,1.364 1.266575,1.364 0.77943,0 1.364003,-0.5845 1.364003,-1.364 v -23.2855 c 0.194857,-7.4045 6.430301,-13.9323 14.224605,-13.9323 h 3.507437 c 7.502018,0 14.127176,6.3329 14.127176,14.2246 v 22.9932 c 0,0.7795 0.682002,1.364 1.364003,1.364 0.779431,0 1.364004,-0.5845 1.364004,-1.364 z"
           style="font-style:normal;font-variant:normal;font-weight:100;font-stretch:normal;line-height:1;font-family:Trench;-inkscape-font-specification:'Trench Thin';fill:#ffffff;stroke-width:4.87144"
           id="path1015" />
        <path
           d="m -53.179077,1941.5154 v 0.097 c 0.194857,9.0609 7.696875,16.6603 16.855183,16.6603 h 3.507437 c 9.158307,0 16.660325,-7.5994 16.855182,-16.6603 v -23.188 c 0,-0.7795 -0.584572,-1.364 -1.364003,-1.364 -0.682001,0 -1.266574,0.5845 -1.266574,1.364 v 22.9932 c 0,7.6968 -6.52773,14.2246 -14.224605,14.2246 h -3.507437 c -7.502018,0 -14.029748,-6.2355 -14.224605,-14.0298 v -23.188 c 0,-0.7795 -0.584573,-1.364 -1.266575,-1.364 -0.77943,0 -1.364003,0.5845 -1.364003,1.364 z"
           style="font-style:normal;font-variant:normal;font-weight:100;font-stretch:normal;line-height:1;font-family:Trench;-inkscape-font-specification:'Trench Thin';fill:#ffffff;stroke-width:4.87144"
           id="path1017" />
        <path
           d="m -7.4849854,1957.0066 c 0,0.682 0.5845729,1.2665 1.2665745,1.2665 0.7794304,0 1.3640032,-0.5845 1.3640032,-1.2665 v -51.9296 c 0,-0.682 -0.5845728,-1.2666 -1.3640032,-1.2666 -0.6820016,0 -1.2665745,0.5846 -1.2665745,1.2666 z"
           style="font-style:normal;font-variant:normal;font-weight:100;font-stretch:normal;line-height:1;font-family:Trench;-inkscape-font-specification:'Trench Thin';fill:#ffffff;stroke-width:4.87144"
           id="path1020" />
        <path
           d="m 8.4933224,1957.0066 c 0,0.682 0.5845728,1.2665 1.3640032,1.2665 0.6820014,0 1.2665744,-0.5845 1.2665744,-1.2665 v -38.0947 c 0,-0.7794 -0.584573,-1.364 -1.2665744,-1.364 -0.7794304,0 -1.3640032,0.5846 -1.3640032,1.364 z m 1.3640032,-50.9553 c -0.974288,0 -1.7537184,0.7794 -1.7537184,1.7537 0,0.9743 0.7794304,1.7537 1.7537184,1.7537 0.9742884,0 1.7537184,-0.7794 1.7537184,-1.7537 0,-0.9743 -0.77943,-1.7537 -1.7537184,-1.7537 z"
           style="font-style:normal;font-variant:normal;font-weight:100;font-stretch:normal;line-height:1;font-family:Trench;-inkscape-font-specification:'Trench Thin';fill:#ffffff;stroke-width:4.87144"
           id="path1022" />
        <path
           d="m 86.143802,1904.395 c 0,-0.7794 -0.584573,-1.364 -1.266575,-1.364 -0.77943,0 -1.364003,0.5846 -1.364003,1.364 v 19.6806 l -2.240862,-2.3383 c -3.020293,-3.1177 -7.404589,-4.8714 -11.788885,-4.8714 h -7.307161 c -9.158307,0 -16.660325,7.5994 -16.660325,16.6603 v 8.0866 c 0,9.1583 7.502018,16.6603 16.660325,16.6603 h 7.307161 c 9.158307,0 16.660325,-7.502 16.660325,-16.6603 z m -2.630578,31.5669 v 5.6509 c 0,7.6969 -6.332872,14.0298 -14.029747,14.0298 h -7.307161 c -7.696875,0 -14.029747,-6.3329 -14.029747,-14.0298 v -8.0866 c 0,-7.6969 6.332872,-14.0297 14.029747,-14.0297 h 7.307161 c 7.404589,0 14.029747,6.2354 14.029747,13.7374 z"
           style="font-style:normal;font-variant:normal;font-weight:100;font-stretch:normal;line-height:1;font-family:Trench;-inkscape-font-specification:'Trench Thin';fill:#ffffff;stroke-width:4.87144"
           id="path1024" />
        <path
           d="m 99.881196,1943.1717 h 36.730654 c 1.26658,0 2.3383,-1.0717 2.3383,-2.4358 v -6.82 c 0,-9.1583 -7.69688,-16.8551 -16.85519,-16.8551 h -7.50201 c -9.15831,0 -16.855188,7.6968 -16.855188,16.8551 v 6.7226 c 0,9.3532 7.014878,17.6346 16.855188,17.6346 h 18.12175 c 0.682,0 1.26658,-0.5845 1.26658,-1.364 0,-0.682 -0.58458,-1.2665 -1.26658,-1.2665 h -18.12175 c -5.45602,0 -10.71717,-3.3126 -12.95804,-8.4763 z m 36.438374,-2.6306 h -35.95123 v -6.6252 c 0,-7.7943 6.62516,-14.2246 14.22461,-14.2246 h 7.50201 c 7.69688,0 14.22461,6.5278 14.22461,14.2246 z"
           style="font-style:normal;font-variant:normal;font-weight:100;font-stretch:normal;line-height:1;font-family:Trench;-inkscape-font-specification:'Trench Thin';fill:#ffffff;stroke-width:4.87144"
           id="path1026" />
        <path
           d="m 148.9852,1957.0066 c 0,0.682 0.58457,1.2665 1.26657,1.2665 0.77943,0 1.36401,-0.5845 1.36401,-1.2665 v -51.9296 c 0,-0.682 -0.58458,-1.2666 -1.36401,-1.2666 -0.682,0 -1.26657,0.5846 -1.26657,1.2666 z"
           style="font-style:normal;font-variant:normal;font-weight:100;font-stretch:normal;line-height:1;font-family:Trench;-inkscape-font-specification:'Trench Thin';fill:#ffffff;stroke-width:4.87144"
           id="path1028" />
        <path
           d="m 164.96354,1957.0066 c 0,0.682 0.58457,1.2665 1.364,1.2665 0.682,0 1.26657,-0.5845 1.26657,-1.2665 v -38.0947 c 0,-0.7794 -0.58457,-1.364 -1.26657,-1.364 -0.77943,0 -1.364,0.5846 -1.364,1.364 z m 1.364,-50.9553 c -0.97429,0 -1.75372,0.7794 -1.75372,1.7537 0,0.9743 0.77943,1.7537 1.75372,1.7537 0.97429,0 1.75372,-0.7794 1.75372,-1.7537 0,-0.9743 -0.77943,-1.7537 -1.75372,-1.7537 z"
           style="font-style:normal;font-variant:normal;font-weight:100;font-stretch:normal;line-height:1;font-family:Trench;-inkscape-font-specification:'Trench Thin';fill:#ffffff;stroke-width:4.87144"
           id="path1030" />
        <path
           d="m 191.95117,1953.4017 c 1.26658,2.9229 3.99459,4.8714 7.30716,4.8714 3.11773,0 5.94316,-1.7537 7.20974,-4.8714 l 14.51689,-34.6847 c 0.0974,-0.097 0.0974,-0.2922 0.0974,-0.4871 0,-0.682 -0.58458,-1.1691 -1.26658,-1.1691 -0.38971,0 -0.87686,0.2922 -0.97429,0.682 l -14.51689,34.782 c -0.97429,2.046 -2.82543,3.3126 -5.0663,3.3126 -2.43572,0 -4.18943,-1.2666 -5.06629,-3.3126 l -14.51689,-34.782 c -0.19486,-0.3898 -0.68201,-0.682 -1.07172,-0.682 -0.77943,0 -1.26658,0.5845 -1.26658,1.1691 0,0.1949 0,0.3897 0.0974,0.4871 z"
           style="font-style:normal;font-variant:normal;font-weight:100;font-stretch:normal;line-height:1;font-family:Trench;-inkscape-font-specification:'Trench Thin';fill:#ffffff;stroke-width:4.87144"
           id="path1032" />
        <path
           d="m 229.16879,1943.1717 h 36.73066 c 1.26658,0 2.33829,-1.0717 2.33829,-2.4358 v -6.82 c 0,-9.1583 -7.69687,-16.8551 -16.85518,-16.8551 h -7.50202 c -9.1583,0 -16.85518,7.6968 -16.85518,16.8551 v 6.7226 c 0,9.3532 7.01487,17.6346 16.85518,17.6346 h 18.12176 c 0.682,0 1.26657,-0.5845 1.26657,-1.364 0,-0.682 -0.58457,-1.2665 -1.26657,-1.2665 h -18.12176 c -5.45601,0 -10.71717,-3.3126 -12.95803,-8.4763 z m 36.43838,-2.6306 h -35.95123 v -6.6252 c 0,-7.7943 6.62516,-14.2246 14.2246,-14.2246 h 7.50202 c 7.69688,0 14.22461,6.5278 14.22461,14.2246 z"
           style="font-style:normal;font-variant:normal;font-weight:100;font-stretch:normal;line-height:1;font-family:Trench;-inkscape-font-specification:'Trench Thin';fill:#ffffff;stroke-width:4.87144"
           id="path1034" />
        <path
           d="m 278.27286,1933.8185 v 23.0906 c 0,0.7795 0.58457,1.364 1.364,1.364 0.682,0 1.26658,-0.5845 1.26658,-1.364 v -23.2855 c 0.19485,-7.5994 6.72258,-13.9323 14.2246,-13.9323 h 5.26116 c 3.70229,0 7.30716,1.5589 10.03516,4.1895 0.29229,0.2923 0.58458,0.3897 0.97429,0.3897 0.682,0 1.26657,-0.5846 1.26657,-1.364 0,-0.2923 -0.0974,-0.682 -0.38971,-0.8769 -3.11772,-3.2151 -7.40459,-4.9688 -11.88631,-4.9688 h -5.26116 c -9.15831,0 -16.66032,7.5994 -16.85518,16.6603 z"
           style="font-style:normal;font-variant:normal;font-weight:100;font-stretch:normal;line-height:1;font-family:Trench;-inkscape-font-specification:'Trench Thin';fill:#ffffff;stroke-width:4.87144"
           id="path1036" />
        <path
           d="m 355.63113,1918.3273 v -0.1948 -0.1949 l -0.0974,-0.097 -0.0974,-0.097 -0.0974,-0.1949 -0.0974,-0.097 -0.0974,-0.097 -0.0974,-0.097 -0.19486,-0.097 -0.0974,-0.097 h -0.19485 -0.19486 -0.19486 -0.19486 l -0.19485,0.097 -0.19486,0.097 -0.19486,0.1949 -0.0974,0.1948 -0.0974,0.098 -0.0974,0.1948 v 0.1949 l -0.0974,0.097 v 15.3937 c 0,7.5995 -6.33288,13.9324 -13.93232,13.9324 -7.59945,0 -13.93232,-6.3329 -13.93232,-13.9324 v -15.2963 c 0,-0.682 -0.58457,-1.2665 -1.364,-1.2665 -0.68201,0 -1.26658,0.5845 -1.26658,1.2665 v 15.2963 c 0,8.9635 7.59945,16.5629 16.5629,16.5629 4.38429,0 8.57373,-1.7537 11.69145,-4.8714 l 2.24087,-2.2409 v 17.5372 c 0,7.5995 -6.33288,13.9323 -13.93232,13.9323 h -3.7023 c -0.682,0 -1.26657,0.5846 -1.26657,1.364 0,0.682 0.58457,1.2666 1.26657,1.2666 h 3.7023 c 8.96345,0 16.56289,-7.5994 16.56289,-16.5629 z"
           style="font-style:normal;font-variant:normal;font-weight:100;font-stretch:normal;line-height:1;font-family:Trench;-inkscape-font-specification:'Trench Thin';fill:#ffffff;stroke-width:4.87144"
           id="path1038" />
        <path
           d="m 389.34122,1925.3422 v 31.6644 c 0,0.682 0.58457,1.2665 1.26657,1.2665 0.77943,0 1.364,-0.5845 1.364,-1.2665 v -13.6401 h 16.75776 c 0.77943,0 1.364,-0.5845 1.364,-1.2665 0,-0.7795 -0.58457,-1.3641 -1.364,-1.3641 h -16.75776 v -20.2651 c 0,-7.7943 6.33288,-14.0298 14.02975,-14.0298 h 3.7023 c 0.682,0 1.26657,-0.5846 1.26657,-1.364 0,-0.682 -0.58457,-1.2666 -1.26657,-1.2666 h -3.7023 c -9.15831,0 -16.66032,7.5021 -16.66032,16.6604 z"
           style="font-style:normal;font-variant:normal;font-weight:100;font-stretch:normal;line-height:1;font-family:Trench;-inkscape-font-specification:'Trench Thin';fill:#ffffff;stroke-width:4.87144"
           id="path1040" />
        <path
           d="m 437.86065,1917.0608 c -9.15831,0 -16.85519,7.6968 -16.85519,16.8551 v 7.5021 c 0,9.1583 7.69688,16.8551 16.85519,16.8551 h 7.50201 c 9.15831,0 16.85519,-7.6968 16.85519,-16.8551 v -7.5021 c 0,-9.1583 -7.69688,-16.8551 -16.85519,-16.8551 z m 7.50201,2.6305 c 7.59945,0 14.22461,6.4303 14.22461,14.2246 v 7.5021 c 0,7.6968 -6.52773,14.2246 -14.22461,14.2246 h -7.50201 c -7.69688,0 -14.22461,-6.6252 -14.22461,-14.2246 v -7.5021 c 0,-7.8917 6.72259,-14.2246 14.22461,-14.2246 z"
           style="font-style:normal;font-variant:normal;font-weight:100;font-stretch:normal;line-height:1;font-family:Trench;-inkscape-font-specification:'Trench Thin';fill:#ffffff;stroke-width:4.87144"
           id="path1042" />
        <path
           d="m 472.25296,1933.8185 v 23.0906 c 0,0.7795 0.58457,1.364 1.364,1.364 0.68201,0 1.26658,-0.5845 1.26658,-1.364 v -23.2855 c 0.19486,-7.5994 6.72259,-13.9323 14.2246,-13.9323 h 5.26116 c 3.70229,0 7.30716,1.5589 10.03517,4.1895 0.29228,0.2923 0.58457,0.3897 0.97428,0.3897 0.682,0 1.26658,-0.5846 1.26658,-1.364 0,-0.2923 -0.0974,-0.682 -0.38972,-0.8769 -3.11772,-3.2151 -7.40459,-4.9688 -11.88631,-4.9688 h -5.26116 c -9.1583,0 -16.66032,7.5994 -16.85518,16.6603 z"
           style="font-style:normal;font-variant:normal;font-weight:100;font-stretch:normal;line-height:1;font-family:Trench;-inkscape-font-specification:'Trench Thin';fill:#ffffff;stroke-width:4.87144"
           id="path1044" />
        <path
           d="m 561.0103,1903.8104 c -12.47089,0 -22.89577,10.4249 -22.89577,22.8958 v 8.6712 c 0,12.4709 10.32746,22.8957 22.89577,22.8957 h 10.71717 c 12.27603,0 22.89577,-10.3274 22.89577,-22.8957 v -8.6712 c 0,-12.4709 -10.42488,-22.8958 -22.89577,-22.8958 z m -20.26519,22.8958 c 0,-11.1069 9.15831,-20.2652 20.26519,-20.2652 h 10.71717 c 11.00945,0 20.26519,9.1583 20.26519,20.2652 v 8.6712 c 0,11.1068 -9.25574,20.2652 -20.26519,20.2652 H 561.0103 c -11.10688,0 -20.26519,-9.1584 -20.26519,-20.2652 z"
           style="font-style:normal;font-variant:normal;font-weight:100;font-stretch:normal;line-height:1;font-family:Trench;-inkscape-font-specification:'Trench Thin';fill:#ffffff;stroke-width:4.87144"
           id="path1046" />
        <path
           d="m 605.04794,1976.6872 c 0,0.682 0.58458,1.2666 1.26658,1.2666 0.77943,0 1.364,-0.5846 1.364,-1.2666 v -25.5264 l 2.24086,2.2409 c 3.11772,3.1177 7.30716,4.8714 11.69146,4.8714 h 7.30716 c 8.96345,0 16.5629,-7.5994 16.5629,-16.5629 v -8.0866 c 0,-8.9634 -7.59945,-16.5628 -16.5629,-16.5628 h -7.30716 c -8.96345,0 -16.5629,7.5994 -16.5629,16.5628 z m 2.63058,-37.4127 v -5.6509 c 0,-7.5994 6.33287,-13.9323 13.93232,-13.9323 h 7.30716 c 7.59945,0 13.93232,6.3329 13.93232,13.9323 v 8.0866 c 0,7.5995 -6.33287,13.9324 -13.93232,13.9324 h -7.30716 c -7.30716,0 -13.93232,-6.1381 -13.93232,-13.6401 z"
           style="font-style:normal;font-variant:normal;font-weight:100;font-stretch:normal;line-height:1;font-family:Trench;-inkscape-font-specification:'Trench Thin';fill:#ffffff;stroke-width:4.87144"
           id="path1048" />
        <path
           d="m 658.43887,1943.1717 h 36.73066 c 1.26658,0 2.33829,-1.0717 2.33829,-2.4358 v -6.82 c 0,-9.1583 -7.69687,-16.8551 -16.85518,-16.8551 h -7.50202 c -9.1583,0 -16.85518,7.6968 -16.85518,16.8551 v 6.7226 c 0,9.3532 7.01487,17.6346 16.85518,17.6346 h 18.12176 c 0.682,0 1.26658,-0.5845 1.26658,-1.364 0,-0.682 -0.58458,-1.2665 -1.26658,-1.2665 h -18.12176 c -5.45601,0 -10.71716,-3.3126 -12.95803,-8.4763 z m 36.43838,-2.6306 h -35.95123 v -6.6252 c 0,-7.7943 6.62516,-14.2246 14.2246,-14.2246 h 7.50202 c 7.69688,0 14.22461,6.5278 14.22461,14.2246 z"
           style="font-style:normal;font-variant:normal;font-weight:100;font-stretch:normal;line-height:1;font-family:Trench;-inkscape-font-specification:'Trench Thin';fill:#ffffff;stroke-width:4.87144"
           id="path1050" />
        <path
           d="m 748.75526,1933.8185 v -0.097 c 0,-8.9635 -7.7943,-16.6603 -16.85518,-16.6603 h -7.50202 c -9.15831,0 -16.66033,7.5994 -16.85518,16.6603 v 23.188 c 0,0.7795 0.58457,1.364 1.364,1.364 0.682,0 1.26657,-0.5845 1.26657,-1.364 v -23.2855 c 0.19486,-7.502 6.62516,-13.9323 14.22461,-13.9323 h 7.50202 c 7.59944,0 14.2246,6.4303 14.2246,14.2246 v 22.9932 c 0,0.7795 0.58458,1.364 1.26658,1.364 0.77943,0 1.364,-0.5845 1.364,-1.364 z"
           style="font-style:normal;font-variant:normal;font-weight:100;font-stretch:normal;line-height:1;font-family:Trench;-inkscape-font-specification:'Trench Thin';fill:#ffffff;stroke-width:4.87144"
           id="path1052" />
        <path
           d="m 796.88489,1906.7333 c -2.046,-1.8511 -4.77401,-2.9229 -7.50202,-2.9229 h -19.09604 c -2.82544,0 -5.45601,1.0718 -7.50202,2.9229 l -0.29229,0.2923 c -2.046,2.046 -3.21515,4.8714 -3.21515,7.7943 v 32.4438 c 0,2.9228 1.16915,5.7483 3.21515,7.7943 l 0.29229,0.2923 c 2.04601,1.8511 4.67658,2.9228 7.50202,2.9228 h 19.09604 c 9.54803,0 17.53719,-7.9891 17.53719,-17.5372 0,-6.5277 -3.7023,-12.6657 -9.93774,-15.7834 l -1.55886,-0.7794 1.26657,-1.2666 c 2.53315,-1.2666 3.7023,-5.6509 3.7023,-8.0866 0,-2.9229 -1.16915,-5.7483 -3.31258,-7.7943 z m -31.66436,47.3504 -0.87686,-0.8769 c -1.55886,-1.5588 -2.43572,-3.7023 -2.43572,-5.9431 v -21.4344 h 27.57235 c 8.08659,0 14.80918,6.8201 14.80918,14.9066 0,8.2815 -7.01487,14.9067 -14.90661,14.9067 h -19.09604 c -1.85115,0 -3.60487,-0.5846 -5.0663,-1.6563 z m 0,-45.9864 c 1.46143,-1.0717 3.21515,-1.6563 5.0663,-1.6563 h 19.09604 c 1.75372,0 3.50744,0.5846 4.96887,1.6563 l 0.0974,-0.097 0.87686,0.8768 c 1.55886,1.5589 2.43572,3.7023 2.43572,5.9432 0,4.6766 -3.79972,8.3789 -8.28145,8.3789 h -27.57235 v -8.3789 c 0,-2.2409 0.87686,-4.3843 2.43572,-5.9432 l 0.87686,-0.8768 z"
           style="font-style:normal;font-variant:normal;font-weight:100;font-stretch:normal;line-height:1;font-family:Trench;-inkscape-font-specification:'Trench Thin';fill:#ffffff;stroke-width:4.87144"
           id="path1054" />
        <path
           d="m 838.68181,1903.8104 c -12.47089,0 -22.89577,10.4249 -22.89577,22.8958 v 8.6712 c 0,12.4709 10.32745,22.8957 22.89577,22.8957 h 19.19347 c 0.77943,0 1.36401,-0.5845 1.36401,-1.2665 0,-0.7795 -0.58458,-1.364 -1.36401,-1.364 h -19.19347 c -11.10688,0 -20.26519,-9.1584 -20.26519,-20.2652 v -8.6712 c 0,-11.1069 9.15831,-20.2652 20.26519,-20.2652 h 19.19347 c 0.77943,0 1.36401,-0.5846 1.36401,-1.364 0,-0.682 -0.58458,-1.2666 -1.36401,-1.2666 z"
           style="font-style:normal;font-variant:normal;font-weight:100;font-stretch:normal;line-height:1;font-family:Trench;-inkscape-font-specification:'Trench Thin';fill:#ffffff;stroke-width:4.87144"
           id="path1056" />
        <path
           d="m 871.22302,1905.077 c 0,-0.682 -0.58458,-1.2666 -1.36401,-1.2666 -0.682,0 -1.26657,0.5846 -1.26657,1.2666 v 51.9296 c 0,0.682 0.58457,1.2665 1.26657,1.2665 0.77943,0 1.36401,-0.5845 1.36401,-1.2665 z"
           style="font-style:normal;font-variant:normal;font-weight:100;font-stretch:normal;line-height:1;font-family:Trench;-inkscape-font-specification:'Trench Thin';fill:#ffffff;stroke-width:4.87144"
           id="path1058" />
        <path
           d="m 887.2987,1953.012 c -1.46143,0 -2.63058,1.1691 -2.63058,2.6306 0,1.4614 1.16915,2.6305 2.63058,2.6305 1.46143,0 2.63058,-1.1691 2.63058,-2.6305 0,-1.4615 -1.16915,-2.6306 -2.63058,-2.6306 z"
           style="font-style:normal;font-variant:normal;font-weight:100;font-stretch:normal;line-height:1;font-family:Trench;-inkscape-font-specification:'Trench Thin';fill:#ffffff;stroke-width:4.87144"
           id="path1060" />
      </g>
      <path
         inkscape:connector-curvature="0"
         id="path948"
         d="M -405.57794,1783.7237 H 1181.9221"
         style="fill:#000000;stroke:#ffffff;stroke-width:1.32292;stroke-linecap:butt;stroke-linejoin:miter;stroke-miterlimit:4;stroke-dasharray:none;stroke-opacity:1" />
    </g>
    <g
       id="g983"
       transform="matrix(0.08054554,0,0,0.08054554,-313.32655,1242.1525)">
      <path
         inkscape:connector-curvature="0"
         id="path1019"
         d="m 1921.9693,1265.97 a 112.26492,112.26492 0 0 0 -70.6961,25.1247 112.26492,112.26492 0 0 0 -47.2019,-10.5459 112.26492,112.26492 0 0 0 -93.0397,49.4991 112.26492,112.26492 0 0 0 -90.4177,110.0109 112.26492,112.26492 0 0 0 112.2654,112.2654 112.26492,112.26492 0 0 0 31.2031,-4.4825 104.63914,104.63914 0 0 0 98.8857,70.8082 104.63914,104.63914 0 0 0 10.9018,-0.6887 52.187494,52.187494 0 0 0 52.187,52.1891 52.187494,52.187494 0 0 0 31.8166,-10.8626 112.26492,112.26492 0 0 0 62.2884,18.9349 112.26492,112.26492 0 0 0 110.6689,-94.2128 112.26492,112.26492 0 0 0 42.8701,-88.2199 112.26492,112.26492 0 0 0 -35.7042,-81.9165 112.26492,112.26492 0 0 0 -112.0329,-105.6738 112.26492,112.26492 0 0 0 -15.3749,1.1834 112.26492,112.26492 0 0 0 -88.6196,-43.4277 z m 23.3618,415.3482 a 19.475406,19.475406 0 0 0 -19.4743,19.4745 19.475406,19.475406 0 0 0 19.4743,19.4759 19.475406,19.475406 0 0 0 19.4758,-19.4759 19.475406,19.475406 0 0 0 -19.4758,-19.4745 z"
         style="opacity:0.75;fill:#808080;fill-opacity:1;stroke:#808080;stroke-width:30.8471;stroke-miterlimit:4;stroke-dasharray:none;stroke-dashoffset:0;stroke-opacity:1" />
      <path
         id="path1021"
         style="opacity:1;fill:#58d3e4;fill-opacity:1;stroke:#ffffff;stroke-width:8.76658;stroke-miterlimit:4;stroke-dasharray:none;stroke-dashoffset:0;stroke-opacity:1"
         d="m 1964.807,1700.7813 a 19.475406,19.475406 0 0 1 -19.4755,19.475 19.475406,19.475406 0 0 1 -19.4754,-19.4754 19.475406,19.475406 0 0 1 19.4754,-19.4755 19.475406,19.475406 0 0 1 19.4755,19.4759 z m 13.4376,-82.8168 a 52.187494,52.187494 0 0 1 -52.1874,52.1877 52.187494,52.187494 0 0 1 -52.1875,-52.1877 52.187494,52.187494 0 0 1 52.1875,-52.1881 52.187494,52.187494 0 0 1 52.1874,52.1881 z m 55.9899,-239.7414 a 112.26492,112.26492 0 0 1 -112.2649,112.2644 112.26492,112.26492 0 0 1 -112.2649,-112.2644 112.26492,112.26492 0 0 1 112.2649,-112.2649 112.26492,112.26492 0 0 1 112.2649,112.2649 z m -117.8985,14.5783 a 112.26492,112.26492 0 0 1 -112.265,112.2649 112.26492,112.26492 0 0 1 -112.2649,-112.2649 112.26492,112.26492 0 0 1 112.2649,-112.2645 112.26492,112.26492 0 0 1 112.265,112.2645 z m 221.8927,27.6655 a 112.26492,112.26492 0 0 1 -112.265,112.2645 112.26492,112.26492 0 0 1 -112.2649,-112.2645 112.26492,112.26492 0 0 1 112.2649,-112.2649 112.26492,112.26492 0 0 1 112.265,112.2649 z m 35.4716,75.3267 a 112.26492,112.26492 0 0 1 -112.2649,112.265 112.26492,112.26492 0 0 1 -112.265,-112.265 112.26492,112.26492 0 0 1 112.265,-112.2644 112.26492,112.26492 0 0 1 112.2649,112.2644 z m -206.0934,18.2045 a 104.63914,104.63914 0 0 1 -104.6392,104.6391 104.63914,104.63914 0 0 1 -104.6391,-104.6391 104.63914,104.63914 0 0 1 104.6391,-104.639 104.63914,104.63914 0 0 1 104.6392,104.639 z m 164.8196,51.9605 a 112.26492,112.26492 0 0 1 -112.265,112.2659 112.26492,112.26492 0 0 1 -112.2649,-112.2659 112.26492,112.26492 0 0 1 112.2649,-112.264 112.26492,112.26492 0 0 1 112.265,112.264 z m -287.2822,-125.9121 a 112.26492,112.26492 0 0 1 -112.265,112.2644 112.26492,112.26492 0 0 1 -112.2648,-112.2644 112.26492,112.26492 0 0 1 112.2648,-112.2649 112.26492,112.26492 0 0 1 112.265,112.2649 z"
         inkscape:connector-curvature="0" />
    </g>
    <g
       inkscape:label="Capa 1"
       id="layer1-3"
       transform="translate(-25.286018,-835.67423)">
      <circle
         cy="139.7252"
         cx="-591.70111"
         id="circle1545-5"
         style="opacity:0.673;fill:#aaaaff;fill-opacity:0.30137;stroke:#000000;stroke-width:0.304049;stroke-miterlimit:4;stroke-dasharray:none;stroke-opacity:1"
         r="0" />
      <circle
         r="0"
         style="opacity:0.673;fill:#aaaaff;fill-opacity:0.30137;stroke:#000000;stroke-width:0.304049;stroke-miterlimit:4;stroke-dasharray:none;stroke-opacity:1"
         id="ellipse1617-6"
         cx="-993.51282"
         cy="168.13614" />
      <circle
         r="0"
         cy="733.2077"
         cx="-958.14404"
         id="ellipse1906-2"
         style="opacity:0.673;fill:none;fill-opacity:0.30137;stroke:#000000;stroke-width:0.79375;stroke-miterlimit:4;stroke-dasharray:none;stroke-opacity:1" />
      <circle
         r="0"
         cy="582.33099"
         cx="-1500.9722"
         id="ellipse1926-9"
         style="opacity:0.673;fill:none;fill-opacity:0.30137;stroke:#000000;stroke-width:0.79375;stroke-miterlimit:4;stroke-dasharray:none;stroke-opacity:1" />
      <circle
         r="0"
         cy="255.9781"
         cx="-958.14404"
         id="ellipse1946-1"
         style="opacity:0.673;fill:none;fill-opacity:0.30137;stroke:#000000;stroke-width:0.79375;stroke-miterlimit:4;stroke-dasharray:none;stroke-opacity:1" />
      <g
         id="g898"
         transform="matrix(1.095339,0,0,1.0969885,30.338176,-203.7156)" />
    </g>
  </g>
</svg>
