<?xml version="1.0" encoding="UTF-8" standalone="no"?>
<!-- Created with Inkscape (http://www.inkscape.org/) -->

<svg
   xmlns:dc="http://purl.org/dc/elements/1.1/"
   xmlns:cc="http://creativecommons.org/ns#"
   xmlns:rdf="http://www.w3.org/1999/02/22-rdf-syntax-ns#"
   xmlns:svg="http://www.w3.org/2000/svg"
   xmlns="http://www.w3.org/2000/svg"
   xmlns:sodipodi="http://sodipodi.sourceforge.net/DTD/sodipodi-0.dtd"
   xmlns:inkscape="http://www.inkscape.org/namespaces/inkscape"
   width="512"
   height="512"
   viewBox="0 0 135.46667 135.46667"
   version="1.1"
   id="svg8"
   inkscape:version="0.92.4 5da689c313, 2019-01-14"
   sodipodi:docname="logo.svg"
   inkscape:export-filename="/home/yeison/Development/gcpds/bci-unscented/assets/logo.png"
   inkscape:export-xdpi="96"
   inkscape:export-ydpi="96">
  <defs
     id="defs2" />
  <sodipodi:namedview
     id="base"
     pagecolor="#ffffff"
     bordercolor="#666666"
     borderopacity="1.0"
     inkscape:pageopacity="0.0"
     inkscape:pageshadow="2"
     inkscape:zoom="2.7226562"
     inkscape:cx="242.59397"
     inkscape:cy="223.78954"
     inkscape:document-units="px"
     inkscape:current-layer="layer1"
     showgrid="false"
     inkscape:window-width="1920"
     inkscape:window-height="1015"
     inkscape:window-x="0"
     inkscape:window-y="0"
     inkscape:window-maximized="1"
     units="px"
     inkscape:showpageshadow="false"
     showguides="false"
     inkscape:snap-bbox="true"
     inkscape:bbox-paths="true"
     inkscape:bbox-nodes="true"
     inkscape:snap-bbox-midpoints="true"
     inkscape:snap-bbox-edge-midpoints="true"
     inkscape:object-paths="true"
     inkscape:snap-intersection-paths="true"
     inkscape:snap-midpoints="true"
     inkscape:snap-smooth-nodes="true"
     inkscape:snap-object-midpoints="true"
     inkscape:snap-center="true"
     fit-margin-top="0"
     fit-margin-left="0"
     fit-margin-right="0"
     fit-margin-bottom="0" />
  <metadata
     id="metadata5">
    <rdf:RDF>
      <cc:Work
         rdf:about="">
        <dc:format>image/svg+xml</dc:format>
        <dc:type
           rdf:resource="http://purl.org/dc/dcmitype/StillImage" />
        <dc:title />
      </cc:Work>
    </rdf:RDF>
  </metadata>
  <g
     inkscape:label="Capa 1"
     inkscape:groupmode="layer"
     id="layer1"
     transform="translate(21.700237,-922.51954)">
    <path
       sodipodi:type="star"
       style="opacity:1;fill:#f2f2f2;fill-opacity:1;stroke:none;stroke-width:1.16275263;stroke-linecap:round;stroke-linejoin:round;stroke-miterlimit:4;stroke-dasharray:none;stroke-dashoffset:0;stroke-opacity:0.1415525"
       id="path1578"
       sodipodi:sides="4"
       sodipodi:cx="46.033096"
       sodipodi:cy="990.25287"
       sodipodi:r1="75.712967"
       sodipodi:r2="53.537148"
       sodipodi:arg1="0.78539816"
       sodipodi:arg2="1.5707963"
       inkscape:flatsided="true"
       inkscape:rounded="0.25"
       inkscape:randomized="0"
       d="m 99.570249,1043.79 c -18.928242,18.9283 -88.146063,18.9283 -107.0743048,0 -18.9282422,-18.9282 -18.9282422,-88.14604 -4e-7,-107.07428 18.9282412,-18.92825 88.1460632,-18.92825 107.0743042,0 18.928242,18.92824 18.928242,88.14608 10e-7,107.07428 z"
       inkscape:transform-center-y="-2.0420979e-05" />
    <circle
       cy="139.7252"
       cx="-591.70111"
       id="circle1545"
       style="opacity:0.67299996;fill:#aaaaff;fill-opacity:0.30136988;stroke:#000000;stroke-width:0.30404934;stroke-miterlimit:4;stroke-dasharray:none;stroke-opacity:1"
       r="0" />
    <circle
       r="0"
       style="opacity:0.67299996;fill:#aaaaff;fill-opacity:0.30136988;stroke:#000000;stroke-width:0.30404934;stroke-miterlimit:4;stroke-dasharray:none;stroke-opacity:1"
       id="ellipse1617"
       cx="-993.51282"
       cy="168.13614" />
    <circle
       r="0"
       cy="733.2077"
       cx="-958.14404"
       id="ellipse1906"
       style="opacity:0.67299996;fill:none;fill-opacity:0.30136988;stroke:#000000;stroke-width:0.79374999;stroke-miterlimit:4;stroke-dasharray:none;stroke-opacity:1" />
    <circle
       r="0"
       cy="582.33099"
       cx="-1500.9722"
       id="ellipse1926"
       style="opacity:0.67299996;fill:none;fill-opacity:0.30136988;stroke:#000000;stroke-width:0.79374999;stroke-miterlimit:4;stroke-dasharray:none;stroke-opacity:1" />
    <circle
       r="0"
       cy="255.9781"
       cx="-958.14404"
       id="ellipse1946"
       style="opacity:0.67299996;fill:none;fill-opacity:0.30136988;stroke:#000000;stroke-width:0.79374999;stroke-miterlimit:4;stroke-dasharray:none;stroke-opacity:1" />
    <g
       id="g1555"
       transform="matrix(0.60155603,0,0,0.60155603,-89.500471,362.97673)">
      <path
         style="opacity:0.75;fill:#ffffff;fill-opacity:1;stroke:#d7e3f4;stroke-width:5.29166651;stroke-miterlimit:4;stroke-dasharray:none;stroke-dashoffset:0;stroke-opacity:1"
         d="m 234.01891,962.98461 a 39.427414,39.427414 0 0 0 -24.82845,8.82375 39.427414,39.427414 0 0 0 -16.57729,-3.70366 39.427414,39.427414 0 0 0 -32.67552,17.38397 39.427414,39.427414 0 0 0 -31.75466,38.63583 39.427414,39.427414 0 0 0 39.42758,39.4276 39.427414,39.427414 0 0 0 10.9585,-1.5741 36.749241,36.749241 0 0 0 34.72863,24.8678 36.749241,36.749241 0 0 0 3.82871,-0.2419 18.328236,18.328236 0 0 0 18.32808,18.3286 18.328236,18.328236 0 0 0 11.17399,-3.8148 39.427414,39.427414 0 0 0 21.87567,6.6498 39.427414,39.427414 0 0 0 38.86689,-33.0874 39.427414,39.427414 0 0 0 15.05592,-30.9826 39.427414,39.427414 0 0 0 -12.53928,-28.7693 39.427414,39.427414 0 0 0 -39.34593,-37.11248 39.427414,39.427414 0 0 0 -5.39967,0.41548 39.427414,39.427414 0 0 0 -31.12317,-15.25178 z m 8.20467,145.87019 a 6.8397582,6.8397582 0 0 0 -6.83937,6.8393 6.8397582,6.8397582 0 0 0 6.83937,6.84 6.8397582,6.8397582 0 0 0 6.83989,-6.8399 6.8397582,6.8397582 0 0 0 -6.83989,-6.8394 z"
         id="path1507"
         inkscape:connector-curvature="0" />
      <circle
         r="39.427414"
         style="opacity:0.75;fill:#4dd0e1;fill-opacity:1;stroke:none;stroke-width:0.26458332;stroke-miterlimit:4;stroke-dasharray:none;stroke-dashoffset:0;stroke-opacity:1"
         id="circle1509"
         cx="167.61058"
         cy="1024.1246" />
      <circle
         r="39.427414"
         cy="1068.3453"
         cx="268.504"
         id="circle1511"
         style="opacity:0.75;fill:#4dd0e1;fill-opacity:1;stroke:none;stroke-width:0.26458332;stroke-miterlimit:4;stroke-dasharray:none;stroke-dashoffset:0;stroke-opacity:1" />
      <circle
         r="36.749241"
         style="opacity:0.75;fill:#4dd0e1;fill-opacity:1;stroke:none;stroke-width:0.26458332;stroke-miterlimit:4;stroke-dasharray:none;stroke-dashoffset:0;stroke-opacity:1"
         id="circle1513"
         cx="213.29759"
         cy="1050.0966" />
      <circle
         r="39.427414"
         cy="1043.7031"
         cx="282.99936"
         id="circle1515"
         style="opacity:0.75;fill:#4dd0e1;fill-opacity:1;stroke:none;stroke-width:0.26458332;stroke-miterlimit:4;stroke-dasharray:none;stroke-dashoffset:0;stroke-opacity:1" />
      <circle
         style="opacity:0.75;fill:#4dd0e1;fill-opacity:1;stroke:none;stroke-width:0.26458332;stroke-miterlimit:4;stroke-dasharray:none;stroke-dashoffset:0;stroke-opacity:1"
         id="circle1517"
         cx="270.54172"
         cy="1017.2484"
         r="39.427414" />
      <circle
         r="39.427414"
         cy="1007.5323"
         cx="192.61308"
         id="circle1519"
         style="opacity:0.75;fill:#4dd0e1;fill-opacity:1;stroke:none;stroke-width:0.26458332;stroke-miterlimit:4;stroke-dasharray:none;stroke-dashoffset:0;stroke-opacity:1" />
      <circle
         style="opacity:0.75;fill:#4dd0e1;fill-opacity:1;stroke:none;stroke-width:0.26458332;stroke-miterlimit:4;stroke-dasharray:none;stroke-dashoffset:0;stroke-opacity:1"
         id="circle1521"
         cx="234.01903"
         cy="1002.4123"
         r="39.427414" />
      <circle
         r="18.328236"
         style="opacity:0.75;fill:#4dd0e1;fill-opacity:1;stroke:none;stroke-width:0.26458332;stroke-miterlimit:4;stroke-dasharray:none;stroke-dashoffset:0;stroke-opacity:1"
         id="circle1523"
         cx="235.45457"
         cy="1086.6095" />
      <circle
         r="6.8397584"
         style="opacity:0.75;fill:#4dd0e1;fill-opacity:1;stroke:none;stroke-width:0.26458332;stroke-miterlimit:4;stroke-dasharray:none;stroke-dashoffset:0;stroke-opacity:1"
         id="circle1525"
         cx="242.22374"
         cy="1115.6946" />
      <path
         id="path1527"
         style="opacity:1;fill:none;fill-opacity:0.6255708;stroke:#ffffff;stroke-width:0.5291667;stroke-miterlimit:4;stroke-dasharray:none;stroke-dashoffset:0;stroke-opacity:1"
         d="m 249.06349,1115.6946 a 6.8397584,6.8397584 0 0 1 -6.83976,6.8397 6.8397584,6.8397584 0 0 1 -6.83976,-6.8397 6.8397584,6.8397584 0 0 1 6.83976,-6.8398 6.8397584,6.8397584 0 0 1 6.83976,6.8398 z m 4.71931,-29.0851 a 18.328236,18.328236 0 0 1 -18.32823,18.3282 18.328236,18.328236 0 0 1 -18.32824,-18.3282 18.328236,18.328236 0 0 1 18.32824,-18.3282 18.328236,18.328236 0 0 1 18.32823,18.3282 z m 19.66364,-84.1972 a 39.427414,39.427414 0 0 1 -39.42742,39.4274 39.427414,39.427414 0 0 1 -39.42741,-39.4274 39.427414,39.427414 0 0 1 39.42741,-39.42743 39.427414,39.427414 0 0 1 39.42742,39.42743 z m -41.40595,5.12 a 39.427414,39.427414 0 0 1 -39.42741,39.4275 39.427414,39.427414 0 0 1 -39.42742,-39.4275 39.427414,39.427414 0 0 1 39.42742,-39.42737 39.427414,39.427414 0 0 1 39.42741,39.42737 z m 77.92866,9.7161 a 39.427414,39.427414 0 0 1 -39.42742,39.4274 39.427414,39.427414 0 0 1 -39.42742,-39.4274 39.427414,39.427414 0 0 1 39.42742,-39.42741 39.427414,39.427414 0 0 1 39.42742,39.42741 z m 12.45764,26.4548 a 39.427414,39.427414 0 0 1 -39.42742,39.4274 39.427414,39.427414 0 0 1 -39.42742,-39.4274 39.427414,39.427414 0 0 1 39.42742,-39.4274 39.427414,39.427414 0 0 1 39.42742,39.4274 z m -72.37996,6.3934 a 36.749241,36.749241 0 0 1 -36.74924,36.7492 36.749241,36.749241 0 0 1 -36.74925,-36.7492 36.749241,36.749241 0 0 1 36.74925,-36.7493 36.749241,36.749241 0 0 1 36.74924,36.7493 z m 57.8846,18.2487 a 39.427414,39.427414 0 0 1 -39.42742,39.4274 39.427414,39.427414 0 0 1 -39.42742,-39.4274 39.427414,39.427414 0 0 1 39.42742,-39.4274 39.427414,39.427414 0 0 1 39.42742,39.4274 z m -100.89344,-44.2206 a 39.427414,39.427414 0 0 1 -39.42742,39.4274 39.427414,39.427414 0 0 1 -39.42741,-39.4274 39.427414,39.427414 0 0 1 39.42741,-39.42743 39.427414,39.427414 0 0 1 39.42742,39.42743 z"
         inkscape:connector-curvature="0" />
    </g>
  </g>
</svg>
