<?xml version="1.0" encoding="UTF-8" standalone="no"?>
<!-- Created with Inkscape (http://www.inkscape.org/) -->

<svg
   xmlns:dc="http://purl.org/dc/elements/1.1/"
   xmlns:cc="http://creativecommons.org/ns#"
   xmlns:rdf="http://www.w3.org/1999/02/22-rdf-syntax-ns#"
   xmlns:svg="http://www.w3.org/2000/svg"
   xmlns="http://www.w3.org/2000/svg"
   xmlns:sodipodi="http://sodipodi.sourceforge.net/DTD/sodipodi-0.dtd"
   xmlns:inkscape="http://www.inkscape.org/namespaces/inkscape"
   width="656.83008"
   height="231.31622"
   viewBox="0 0 173.78629 61.202419"
   version="1.1"
   id="svg8"
   inkscape:version="0.92.4 5da689c313, 2019-01-14"
   sodipodi:docname="splash2.svg"
   inkscape:export-filename="/home/yeison/Development/gcpds/eeg-framework/assets/splash.png"
   inkscape:export-xdpi="96"
   inkscape:export-ydpi="96">
  <defs
     id="defs2" />
  <sodipodi:namedview
     id="base"
     pagecolor="#ffffff"
     bordercolor="#666666"
     borderopacity="1.0"
     inkscape:pageopacity="0.0"
     inkscape:pageshadow="2"
     inkscape:zoom="0.95000001"
     inkscape:cx="162.61712"
     inkscape:cy="206.91598"
     inkscape:document-units="px"
     inkscape:current-layer="layer1"
     showgrid="false"
     inkscape:window-width="1920"
     inkscape:window-height="1004"
     inkscape:window-x="0"
     inkscape:window-y="0"
     inkscape:window-maximized="1"
     units="px"
     inkscape:showpageshadow="false"
     showguides="true"
     inkscape:snap-bbox="true"
     inkscape:bbox-paths="true"
     inkscape:bbox-nodes="true"
     inkscape:snap-bbox-midpoints="true"
     inkscape:snap-bbox-edge-midpoints="true"
     inkscape:object-paths="true"
     inkscape:snap-intersection-paths="true"
     inkscape:snap-midpoints="true"
     inkscape:snap-smooth-nodes="true"
     inkscape:snap-object-midpoints="true"
     inkscape:snap-center="true"
     fit-margin-top="0"
     fit-margin-left="0"
     fit-margin-right="0"
     fit-margin-bottom="0"
     inkscape:snap-global="true" />
  <metadata
     id="metadata5">
    <rdf:RDF>
      <cc:Work
         rdf:about="">
        <dc:format>image/svg+xml</dc:format>
        <dc:type
           rdf:resource="http://purl.org/dc/dcmitype/StillImage" />
        <dc:title></dc:title>
      </cc:Work>
    </rdf:RDF>
  </metadata>
  <g
     inkscape:label="Capa 1"
     inkscape:groupmode="layer"
     id="layer1"
     transform="translate(317.03256,-2189.3674)">
    <circle
       cy="139.7252"
       cx="-591.70111"
       id="circle1545"
       style="opacity:0.67299996;fill:#aaaaff;fill-opacity:0.30136988;stroke:#000000;stroke-width:0.30404934;stroke-miterlimit:4;stroke-dasharray:none;stroke-opacity:1"
       r="0" />
    <circle
       r="0"
       style="opacity:0.67299996;fill:#aaaaff;fill-opacity:0.30136988;stroke:#000000;stroke-width:0.30404934;stroke-miterlimit:4;stroke-dasharray:none;stroke-opacity:1"
       id="ellipse1617"
       cx="-993.51282"
       cy="168.13614" />
    <circle
       r="0"
       cy="733.2077"
       cx="-958.14404"
       id="ellipse1906"
       style="opacity:0.67299996;fill:none;fill-opacity:0.30136988;stroke:#000000;stroke-width:0.79374999;stroke-miterlimit:4;stroke-dasharray:none;stroke-opacity:1" />
    <circle
       r="0"
       cy="582.33099"
       cx="-1500.9722"
       id="ellipse1926"
       style="opacity:0.67299996;fill:none;fill-opacity:0.30136988;stroke:#000000;stroke-width:0.79374999;stroke-miterlimit:4;stroke-dasharray:none;stroke-opacity:1" />
    <circle
       r="0"
       cy="255.9781"
       cx="-958.14404"
       id="ellipse1946"
       style="opacity:0.67299996;fill:none;fill-opacity:0.30136988;stroke:#000000;stroke-width:0.79374999;stroke-miterlimit:4;stroke-dasharray:none;stroke-opacity:1" />
    <g
       id="g898">
      <path
         inkscape:connector-curvature="0"
         id="rect857"
         d="m -316.80404,2100.5263 c -0.74386,0 -1.34256,0.5987 -1.34256,1.3426 v 18.8737 c 3.05248,2.9182 7.18739,4.714 11.74451,4.714 9.39102,0 17,-7.6111 16.99999,-17.0021 1e-5,-2.8644 -0.71125,-5.5608 -1.96164,-7.9282 z m 25.73744,0 c 1.2306,2.3749 1.93012,5.0692 1.93012,7.9282 1e-5,9.534 -7.7316,17.2656 -17.26561,17.2656 -4.53662,0 -8.66289,-1.7528 -11.74451,-4.6152 v 14.379 c 1.99163,-0.8022 4.16512,-1.248 6.44354,-1.248 9.53401,0 17.26769,7.7316 17.26768,17.2656 0,3.8281 -1.24888,7.3641 -3.35845,10.2273 h 14.4172 c -6.26909,-0.8912 -11.0939,-6.279 -11.09389,-12.7936 -10e-6,-4.4514 2.39405,-8.1849 5.82031,-10.5099 -0.22556,-1.3698 -0.42219,-2.7518 -0.42219,-4.1853 0,-8.7687 4.40804,-16.4921 11.1094,-21.1351 -3.30067,-2.3422 -5.59347,-6.005 -5.59346,-10.3591 0,-0.7572 0.0688,-1.498 0.19379,-2.2195 z m 7.97161,0 c -0.1275,0.721 -0.19792,1.4618 -0.19792,2.2195 0,4.2929 2.27287,7.898 5.5392,10.1875 4.10996,-2.7839 9.06505,-4.4121 14.40222,-4.4121 1.22352,0 2.39439,0.1939 3.57239,0.3591 1.04816,-1.8437 1.80867,-3.8614 1.80867,-6.1345 1e-5,-0.7577 -0.0705,-1.4985 -0.19792,-2.2195 z m 25.19588,0 c 0.12499,0.7215 0.1943,1.4623 0.1943,2.2195 0,2.2771 -0.74701,4.3056 -1.78128,6.164 12.35566,1.8773 21.8555,12.4509 21.85551,25.3302 0,1.3573 -0.19786,2.6621 -0.40049,3.9626 1.99974,-1.2688 4.23442,-2.1932 6.77736,-2.1932 6.68925,0 12.12979,5.1028 12.79457,11.6169 0.15044,-2.938 0.72563,-5.7605 1.78128,-8.3571 -6.22042,-2.6108 -10.59367,-8.7544 -10.59367,-15.9221 0,-1.8306 0.36275,-3.5609 0.89091,-5.2167 -10.01502,-1.2851 -18.25047,-8.2577 -21.2416,-17.6041 z m 10.55542,0 c 2.98541,9.2249 11.13693,16.0941 21.04317,17.3462 2.29922,-6.8346 8.68605,-11.791 16.29461,-11.791 2.63515,0 5.10554,0.6374 7.34012,1.6935 1.60941,-2.1843 2.8903,-4.623 3.75584,-7.2487 z m 48.71124,0 c -0.87053,2.6719 -2.1667,5.1539 -3.79925,7.3758 5.68506,2.7961 9.63192,8.5732 9.67951,15.3241 2.9882,0.014 5.81554,0.6211 8.48063,1.572 -1.31663,-3.092 -2.05053,-6.4922 -2.05053,-10.0645 0,-5.2726 1.59766,-10.1513 4.32739,-14.2074 z m 16.94419,0 c -2.75573,4.046 -4.37027,8.9294 -4.37028,14.2074 0,3.623 0.78271,7.0563 2.14664,10.1761 6.4888,2.4233 11.73849,7.3338 14.5309,13.6328 0.33404,0.1233 0.68531,0.2066 1.02578,0.3162 2.18169,-1.6811 4.7872,-2.8494 7.75353,-2.8494 2.96673,0 5.57013,1.1701 7.75198,2.8515 3.13586,-1.0084 6.00935,-2.6004 8.4894,-4.6462 v -32.3458 c 0,-0.7439 -0.59869,-1.3426 -1.34255,-1.3426 h -2.05259 c 0.0511,0.4645 0.0796,0.9362 0.0796,1.4149 0,7.1373 -5.7885,12.9253 -12.92582,12.9253 -7.13731,0 -12.92738,-5.788 -12.92738,-12.9253 0,-0.4787 0.0285,-0.9504 0.0796,-1.4149 z m 8.50594,0 c -0.0517,0.4647 -0.0811,0.9364 -0.0811,1.4149 0,6.9943 5.66744,12.6618 12.66176,12.6618 6.99433,0 12.66021,-5.6675 12.66021,-12.6618 0,-0.4785 -0.0295,-0.9502 -0.0811,-1.4149 z m -36.82359,5.8208 c -7.47362,0 -13.74776,4.8513 -16.02745,11.5528 0.97071,0.1123 1.92144,0.2951 2.9223,0.2951 8.31732,0 15.63024,-4.0469 20.27525,-10.2149 -2.18485,-1.0216 -4.59845,-1.633 -7.1701,-1.633 z m 7.4042,1.7596 c -4.69246,6.2499 -12.09351,10.3518 -20.50935,10.3518 -1.0282,0 -2.0057,-0.1854 -3.0024,-0.3028 -0.53102,1.6463 -0.89245,3.3682 -0.89245,5.1914 -1e-5,7.052 4.29242,13.0988 10.4066,15.674 3.86466,-9.2377 12.95895,-15.7328 23.58358,-15.7928 -0.047,-6.6722 -3.9571,-12.3801 -9.58598,-15.1216 z m -60.74978,0.678 c -5.24478,0 -10.114,1.5922 -14.16399,4.3103 2.00917,1.341 4.28725,2.3105 6.88485,2.3105 4.61371,0 8.47204,-2.591 10.68513,-6.2771 -1.12508,-0.152 -2.2392,-0.3437 -3.40599,-0.3437 z m 3.69745,0.3731 c -2.24582,3.8221 -6.22424,6.5133 -10.97659,6.5133 -2.68489,1e-4 -5.03865,-1.0119 -7.10551,-2.4138 -6.67919,4.5879 -11.07064,12.266 -11.07064,20.9827 0,1.3762 0.19447,2.7003 0.40462,4.0173 2.01687,-1.3012 4.28102,-2.2479 6.85901,-2.2479 7.13725,0 12.92584,5.7886 12.92583,12.9258 1e-5,3.5287 -1.43105,6.7137 -3.72432,9.0465 2.80399,1.0627 5.81337,1.7151 8.99015,1.7151 7.78904,0 14.67289,-3.5721 19.34197,-9.0821 -0.0729,-0.5557 -0.17002,-1.1039 -0.17002,-1.6795 0,-4.4707 2.41197,-8.2197 5.86321,-10.5409 0.22441,-1.3594 0.42013,-2.7312 0.42013,-4.1543 0,-12.7937 -9.4654,-23.2787 -21.75784,-25.0822 z m 66.63469,14.334 c -10.5056,0.062 -19.50091,6.4736 -23.33036,15.6017 1.96342,0.7917 4.09653,1.2516 6.3438,1.2516 9.34016,0 16.90476,-7.5325 16.98656,-16.8533 z m 0.26561,0 c -0.0797,9.4657 -7.76765,17.1209 -17.25217,17.1209 -2.27435,0 -4.4331,-0.466 -6.42183,-1.2655 -1.20734,2.9629 -1.90014,6.1908 -1.90014,9.588 0,4.6644 1.2551,9.0346 3.44475,12.7936 h 43.97509 c 0.62127,-1.067 1.16859,-2.1825 1.63297,-3.3404 -2.57734,-2.3632 -4.25245,-5.6819 -4.25245,-9.4532 0,-3.7713 1.67505,-7.0919 4.25245,-9.4552 -0.0966,-0.2407 -0.18159,-0.4838 -0.28525,-0.7209 -6.48827,-2.4225 -11.73832,-7.3308 -14.53141,-13.6286 -2.71172,-1.0011 -5.60552,-1.6247 -8.66201,-1.6387 z m 9.02116,1.7462 c 2.74975,6.0409 7.76934,10.7872 13.99243,13.1893 -2.74924,-6.041 -7.7698,-10.7867 -13.99243,-13.1893 z m -127.97048,9.2635 c -2.28138,0 -4.45604,0.4525 -6.44354,1.2671 v 24.6176 c 0,0.7439 0.5987,1.3426 1.34256,1.3426 h 18.68309 c 2.1463,-2.8461 3.41995,-6.3874 3.41995,-10.2273 1e-5,-9.391 -7.61104,-17 -17.00206,-17 z m 167.34275,0.048 c -2.4152,1.9593 -5.19024,3.4976 -8.2119,4.4969 2.9171,2.3703 4.89634,5.8384 4.89634,9.8888 0,6.5145 -4.82303,11.9024 -11.09183,12.7936 h 13.06484 c 0.74386,0 1.34255,-0.5987 1.34255,-1.3426 z m -137.18284,1.7193 c -2.57417,0 -4.83179,0.9585 -6.83007,2.2774 1.5209,8.8748 7.59208,16.149 15.76596,19.3497 2.29986,-2.2923 3.72433,-5.46 3.72432,-8.9648 2e-5,-6.9942 -5.66595,-12.6623 -12.66021,-12.6623 z m 50.28944,0 c -2.56658,0 -4.81572,0.9543 -6.81044,2.266 -0.77845,4.6009 -2.79718,8.733 -5.67407,12.1579 0.86387,6.1523 6.09353,10.9007 12.48451,10.9007 6.99433,0 12.66176,-5.668 12.66176,-12.6623 0,-6.9943 -5.66743,-12.6623 -12.66176,-12.6623 z m 70.65202,0 c -2.83722,0 -5.32444,1.1102 -7.43521,2.6856 2.36655,0.7268 4.83017,1.2325 7.43521,1.2325 2.60471,0 5.06737,-0.5059 7.43365,-1.2325 -2.11077,-1.5754 -4.59642,-2.6856 -7.43365,-2.6856 z m -128.01958,2.4438 c -3.29171,2.2861 -5.58365,5.9059 -5.58364,10.2185 -2e-5,6.9943 5.66749,12.6623 12.66176,12.6623 3.36893,0 6.39027,-1.3653 8.65839,-3.5099 -8.13336,-3.2556 -14.17663,-10.5227 -15.73651,-19.3709 z m 50.27187,0.014 c -3.28067,2.2877 -5.56452,5.9011 -5.56452,10.2051 0,0.4777 0.0891,0.9309 0.14056,1.3948 2.71053,-3.2944 4.64251,-7.225 5.42396,-11.5999 z m 69.14617,0.1406 c 0.0627,0.1472 0.0945,0.3081 0.15451,0.4568 0.12595,-0.1107 0.28577,-0.1752 0.41599,-0.2811 -0.18869,-0.062 -0.38377,-0.1087 -0.5705,-0.1757 z m 0.88676,0.2754 c -0.2064,0.1627 -0.45643,0.2643 -0.65215,0.4393 1.13749,2.9046 1.81642,6.0424 1.81642,9.3498 0,3.308 -0.67856,6.4444 -1.81642,9.3493 2.23945,2.0027 5.1252,3.313 8.36693,3.313 6.99433,0 12.66021,-5.668 12.66021,-12.6623 0,-4.0359 -2.00692,-7.4708 -4.94699,-9.7891 -2.45004,0.7751 -5.00705,1.3085 -7.71322,1.3085 -2.70616,0 -5.26474,-0.5334 -7.71478,-1.3085 z m -0.87901,0.5917 c -2.47492,2.3107 -4.06797,5.5432 -4.06797,9.1974 0,3.6543 1.59305,6.8866 4.06797,9.1974 1.11214,-2.8599 1.77973,-5.9439 1.77973,-9.1974 0,-3.2535 -0.66759,-6.3375 -1.77973,-9.1974 z m -49.26366,10.5095 c -0.60276,5.902 -5.12596,10.646 -10.9461,11.4851 h 14.30817 c -1.95164,-3.4146 -3.1488,-7.3199 -3.36207,-11.4851 z m -25.51369,0.7364 c -4.71651,5.4555 -11.60222,8.9803 -19.37866,8.9803 -3.25923,0 -6.34894,-0.6694 -9.21856,-1.7756 -1.91601,1.858 -4.38964,3.146 -7.15512,3.544 h 46.62971 c -5.58348,-0.8009 -9.98679,-5.1884 -10.87737,-10.7487 z m 74.92411,7.5623 c -0.4452,1.1023 -0.96688,2.1656 -1.5534,3.1864 h 8.22328 c -2.54471,-0.3802 -4.81553,-1.5568 -6.66988,-3.1864 z"
         style="opacity:1;fill:#58d3e4;fill-opacity:1;stroke:#58d3e4;stroke-width:0.13229167;stroke-linecap:square;stroke-linejoin:round;stroke-miterlimit:4;stroke-dasharray:none;stroke-dashoffset:0;stroke-opacity:1;paint-order:fill markers stroke" />
      <g
         style="fill:#216778;fill-opacity:1"
         transform="matrix(1.0776395,0,0,1.0776395,28.03647,-173.47977)"
         id="g891">
        <text
           xml:space="preserve"
           style="font-style:normal;font-variant:normal;font-weight:normal;font-stretch:normal;font-size:19.9039917px;line-height:0;font-family:Caladea;-inkscape-font-specification:Caladea;letter-spacing:0px;word-spacing:0px;fill:#216778;fill-opacity:1;stroke:none;stroke-width:0.99519962"
           x="-307.52621"
           y="2136.3977"
           id="text856"><tspan
             sodipodi:role="line"
             id="tspan854"
             x="-307.52621"
             y="2136.3977"
             style="font-style:normal;font-variant:normal;font-weight:normal;font-stretch:normal;font-family:TimeBurner;-inkscape-font-specification:TimeBurner;fill:#216778;fill-opacity:1;stroke-width:0.99519962">BCI-Framework</tspan></text>
        <text
           xml:space="preserve"
           style="font-style:normal;font-variant:normal;font-weight:normal;font-stretch:normal;font-size:8.21374321px;line-height:1;font-family:Caladea;-inkscape-font-specification:Caladea;letter-spacing:0px;word-spacing:0px;fill:#216778;fill-opacity:1;stroke:none;stroke-width:0.41068721"
           x="-307.36203"
           y="2145.5671"
           id="text860"><tspan
             sodipodi:role="line"
             id="tspan858"
             x="-307.36203"
             y="2145.5671"
             style="font-style:normal;font-variant:normal;font-weight:100;font-stretch:normal;line-height:1;font-family:Trench;-inkscape-font-specification:'Trench Thin';fill:#216778;fill-opacity:1;stroke-width:0.41068721">A real-time tool for acquisition, analysis</tspan><tspan
             sodipodi:role="line"
             x="-307.36203"
             y="2154.011"
             style="font-style:normal;font-variant:normal;font-weight:100;font-stretch:normal;line-height:1;font-family:Trench;-inkscape-font-specification:'Trench Thin';fill:#216778;fill-opacity:1;stroke-width:0.41068721"
             id="tspan946">and stimuli delivery for OpenBCI.</tspan></text>
        <rect
           style="opacity:1;fill:#216778;fill-opacity:1;stroke:none;stroke-width:0.1306401;stroke-linecap:square;stroke-linejoin:miter;stroke-miterlimit:4;stroke-dasharray:none;stroke-dashoffset:0;stroke-opacity:1;paint-order:fill markers stroke"
           id="rect873"
           width="133.83418"
           height="0.78774136"
           x="-307.52625"
           y="2138.5698" />
      </g>
    </g>
    <path
       style="opacity:1;fill:#00222b;fill-opacity:1;stroke:#58d3e4;stroke-width:0;stroke-linecap:round;stroke-linejoin:round;stroke-miterlimit:4;stroke-dasharray:none;stroke-dashoffset:0;stroke-opacity:1;paint-order:fill markers stroke"
       d="m -316.06073,2189.3674 h 171.84262 c 0.5384,0 0.97183,0.4335 0.97183,0.9719 v 59.2587 c 0,0.5384 -0.43343,0.9718 -0.97183,0.9718 h -171.84262 c -0.5384,0 -0.97183,-0.4334 -0.97183,-0.9718 v -59.2587 c 0,-0.5384 0.43343,-0.9719 0.97183,-0.9719 z"
       id="rect870"
       inkscape:connector-curvature="0" />
    <path
       inkscape:connector-curvature="0"
       d="m -174.91639,2246.0615 a 2.4469654,2.4469654 0 0 1 -2.447,2.447 2.4469654,2.4469654 0 0 1 -2.44694,-2.447 2.4469654,2.4469654 0 0 1 2.44694,-2.4472 2.4469654,2.4469654 0 0 1 2.447,2.4472 z m 1.68833,-10.4054 a 6.5570389,6.5570389 0 0 1 -6.55701,6.5572 6.5570389,6.5570389 0 0 1 -6.55704,-6.5572 6.5570389,6.5570389 0 0 1 6.55704,-6.5572 6.5570389,6.5570389 0 0 1 6.55701,6.5572 z m 7.03479,-30.122 a 14.105399,14.105399 0 0 1 -14.10539,14.1054 14.105399,14.105399 0 0 1 -14.1054,-14.1054 14.105399,14.105399 0 0 1 14.1054,-14.1054 14.105399,14.105399 0 0 1 14.10539,14.1054 z m -14.81321,1.8318 a 14.105399,14.105399 0 0 1 -14.1054,14.1053 14.105399,14.105399 0 0 1 -14.1054,-14.1053 14.105399,14.105399 0 0 1 14.1054,-14.1054 14.105399,14.105399 0 0 1 14.1054,14.1054 z m 27.87946,3.476 a 14.105399,14.105399 0 0 1 -14.10543,14.1052 14.105399,14.105399 0 0 1 -14.10539,-14.1052 14.105399,14.105399 0 0 1 14.10539,-14.1057 14.105399,14.105399 0 0 1 14.10543,14.1057 z m 4.45678,9.4642 a 14.105399,14.105399 0 0 1 -14.1054,14.1054 14.105399,14.105399 0 0 1 -14.10539,-14.1054 14.105399,14.105399 0 0 1 14.10539,-14.1054 14.105399,14.105399 0 0 1 14.1054,14.1054 z m -25.89438,2.2872 a 13.147267,13.147267 0 0 1 -13.14725,13.1472 13.147267,13.147267 0 0 1 -13.14729,-13.1472 13.147267,13.147267 0 0 1 13.14729,-13.1471 13.147267,13.147267 0 0 1 13.14725,13.1471 z m 20.70859,6.5289 a 14.105399,14.105399 0 0 1 -14.10543,14.1053 14.105399,14.105399 0 0 1 -14.1054,-14.1053 14.105399,14.105399 0 0 1 14.1054,-14.1054 14.105399,14.105399 0 0 1 14.10543,14.1054 z m -36.09525,-15.8203 a 14.105399,14.105399 0 0 1 -14.1054,14.1054 14.105399,14.105399 0 0 1 -14.10539,-14.1054 14.105399,14.105399 0 0 1 14.10539,-14.1056 14.105399,14.105399 0 0 1 14.1054,14.1056 z"
       style="opacity:1;fill:#0b2228;fill-opacity:1;stroke:#164450;stroke-width:0.26458332;stroke-miterlimit:4;stroke-dasharray:none;stroke-dashoffset:0;stroke-opacity:1"
       id="path1021" />
    <g
       aria-label="BCI-Framework"
       style="font-style:normal;font-variant:normal;font-weight:normal;font-stretch:normal;font-size:21.44932747px;line-height:0;font-family:Caladea;-inkscape-font-specification:Caladea;letter-spacing:0px;word-spacing:0px;fill:#58d3e4;fill-opacity:1;stroke:none;stroke-width:1.07246637"
       id="text874">
      <path
         d="m -297.03971,2201.927 q 0.85798,0 1.63015,0.3432 0.77218,0.3218 1.32986,0.9009 0.57913,0.5577 0.90087,1.3298 0.34319,0.7722 0.34319,1.6516 0,1.1154 -0.53623,2.0592 -0.51478,0.9223 -1.41566,1.48 1.02957,0.5148 1.6516,1.5229 0.64348,0.9866 0.64348,2.2093 0,0.8794 -0.34319,1.6516 -0.32174,0.7507 -0.90087,1.3298 -0.55768,0.5577 -1.32986,0.9009 -0.77217,0.3217 -1.63015,0.3217 h -5.55537 v -7.2713 -1.1368 -7.2928 z m 0.34319,8.4082 q -0.0858,0 -0.17159,0.021 -0.0858,0 -0.1716,0 h -4.09682 v 6.156 h 4.44001 q 0.64348,0 1.20117,-0.236 0.55768,-0.2359 0.96522,-0.6435 0.42898,-0.4289 0.66492,-0.9866 0.2574,-0.5792 0.2574,-1.2226 0,-0.6435 -0.2574,-1.2012 -0.23594,-0.5577 -0.66492,-0.9652 -0.40754,-0.429 -0.96522,-0.6649 -0.55769,-0.2574 -1.20117,-0.2574 z m -0.34319,-1.1154 q 0.64348,0 1.20117,-0.2359 0.55768,-0.236 0.96522,-0.6435 0.42898,-0.429 0.66493,-0.9867 0.23594,-0.5577 0.23594,-1.2012 0,-0.6434 -0.23594,-1.2011 -0.23595,-0.5577 -0.66493,-0.9652 -0.40754,-0.429 -0.96522,-0.665 -0.55769,-0.2574 -1.20117,-0.2574 h -4.09682 v 6.156 z"
         style="font-style:normal;font-variant:normal;font-weight:normal;font-stretch:normal;font-family:TimeBurner;-inkscape-font-specification:TimeBurner;fill:#58d3e4;fill-opacity:1;stroke-width:1.07246637"
         id="path979"
         inkscape:connector-curvature="0" />
      <path
         d="m -284.62058,2201.734 q 1.5658,0 2.83131,0.7722 1.28696,0.7507 2.03769,2.0376 l -0.98667,0.5577 q -0.57913,-1.0295 -1.6087,-1.6301 -1.00812,-0.6221 -2.27363,-0.6221 -0.92232,0 -1.7374,0.3647 -0.81507,0.3432 -1.4371,0.9652 -0.60058,0.6006 -0.96522,1.4157 -0.34319,0.815 -0.34319,1.7374 v 4.9333 q 0,0.9438 0.34319,1.7588 0.36464,0.8151 0.96522,1.4157 0.62203,0.6006 1.4371,0.9652 0.81508,0.3432 1.7374,0.3432 1.26551,0 2.27363,-0.6006 1.02957,-0.622 1.6087,-1.6301 l 0.98667,0.5577 q -0.75073,1.2655 -2.03769,2.0376 -1.26551,0.7508 -2.83131,0.7508 -1.15826,0 -2.18783,-0.429 -1.00812,-0.4505 -1.7803,-1.2012 -0.75072,-0.7722 -1.20116,-1.7803 -0.42898,-1.0295 -0.42898,-2.1878 v -4.9333 q 0,-1.1583 0.42898,-2.1664 0.45044,-1.0296 1.20116,-1.7803 0.77218,-0.7722 1.7803,-1.2012 1.02957,-0.4504 2.18783,-0.4504 z"
         style="font-style:normal;font-variant:normal;font-weight:normal;font-stretch:normal;font-family:TimeBurner;-inkscape-font-specification:TimeBurner;fill:#58d3e4;fill-opacity:1;stroke-width:1.07246637"
         id="path981"
         inkscape:connector-curvature="0" />
      <path
         d="m -277.71393,2201.927 h 1.11536 v 15.7009 h -1.11536 z"
         style="font-style:normal;font-variant:normal;font-weight:normal;font-stretch:normal;font-family:TimeBurner;-inkscape-font-specification:TimeBurner;fill:#58d3e4;fill-opacity:1;stroke-width:1.07246637"
         id="path983"
         inkscape:connector-curvature="0" />
      <path
         d="m -266.19566,2211.7723 h -8.36524 v -1.1369 h 8.36524 z"
         style="font-style:normal;font-variant:normal;font-weight:normal;font-stretch:normal;font-family:TimeBurner;-inkscape-font-specification:TimeBurner;fill:#58d3e4;fill-opacity:1;stroke-width:1.07246637"
         id="path985"
         inkscape:connector-curvature="0" />
      <path
         d="m -264.13656,2201.927 v 0 0 h 9.3948 v 1.1368 h -8.27944 v 6.156 h 7.22843 v 1.1368 h -7.22843 v 7.2713 h -1.11536 z"
         style="font-style:normal;font-variant:normal;font-weight:normal;font-stretch:normal;font-family:TimeBurner;-inkscape-font-specification:TimeBurner;fill:#58d3e4;fill-opacity:1;stroke-width:1.07246637"
         id="path987"
         inkscape:connector-curvature="0" />
      <path
         d="m -252.94007,2217.6279 h -1.11536 v -5.3623 q 0,-1.1583 0.42898,-2.1878 0.45044,-1.0296 1.20116,-1.7803 0.77218,-0.7722 1.7803,-1.2012 1.02957,-0.4504 2.18783,-0.4504 v 1.1368 q -0.92232,0 -1.7374,0.3646 -0.81507,0.3432 -1.4371,0.9438 -0.60058,0.6006 -0.96522,1.4371 -0.34319,0.8151 -0.34319,1.7374 z"
         style="font-style:normal;font-variant:normal;font-weight:normal;font-stretch:normal;font-family:TimeBurner;-inkscape-font-specification:TimeBurner;fill:#58d3e4;fill-opacity:1;stroke-width:1.07246637"
         id="path989"
         inkscape:connector-curvature="0" />
      <path
         d="m -242.32271,2206.6244 q 1.15827,0 2.18783,0.4505 1.02957,0.4289 1.7803,1.2011 0.77217,0.7507 1.20116,1.7803 0.45044,1.0296 0.45044,2.1878 v 5.3624 h -1.13682 v -1.9948 q -0.75072,1.0296 -1.93044,1.6301 -1.15826,0.6006 -2.55247,0.6006 -1.15826,0 -2.18783,-0.429 -1.00812,-0.4504 -1.78029,-1.2011 -0.75073,-0.7722 -1.20117,-1.7803 -0.42898,-1.0296 -0.42898,-2.1879 0,-1.1582 0.42898,-2.1878 0.45044,-1.0296 1.20117,-1.7803 0.77217,-0.7722 1.78029,-1.2011 1.02957,-0.4505 2.18783,-0.4505 z m 0,1.1368 q -0.92232,0 -1.73739,0.3647 -0.81508,0.3432 -1.43711,0.9437 -0.60058,0.6006 -0.96522,1.4372 -0.34319,0.815 -0.34319,1.7373 0,0.9224 0.34319,1.7374 0.36464,0.8151 0.96522,1.4371 0.62203,0.6006 1.43711,0.9653 0.81507,0.3432 1.73739,0.3432 0.92232,0 1.7374,-0.3432 0.83652,-0.3647 1.4371,-0.9653 0.60058,-0.622 0.94377,-1.4371 0.36464,-0.815 0.36464,-1.7374 0,-0.9223 -0.36464,-1.7373 -0.34319,-0.8366 -0.94377,-1.4372 -0.60058,-0.6005 -1.4371,-0.9437 -0.81508,-0.3647 -1.7374,-0.3647 z"
         style="font-style:normal;font-variant:normal;font-weight:normal;font-stretch:normal;font-family:TimeBurner;-inkscape-font-specification:TimeBurner;fill:#58d3e4;fill-opacity:1;stroke-width:1.07246637"
         id="path991"
         inkscape:connector-curvature="0" />
      <path
         d="m -230.65428,2206.6459 q 1.15827,0 2.12349,0.5791 0.96522,0.5791 1.5229,1.5444 0.55768,-0.9653 1.50145,-1.5444 0.96522,-0.5791 2.14493,-0.5791 0.85798,0 1.63015,0.3432 0.77218,0.3217 1.32986,0.9008 0.57913,0.5577 0.90087,1.3299 0.34319,0.7722 0.34319,1.6301 v 6.778 h -1.13681 v -6.778 q 0,-0.6434 -0.23594,-1.2011 -0.23595,-0.5577 -0.66493,-0.9652 -0.40754,-0.429 -0.96522,-0.665 -0.55769,-0.2359 -1.20117,-0.2359 -0.64348,0 -1.22261,0.2359 -0.55768,0.236 -0.98667,0.665 -0.40753,0.4075 -0.64348,0.9652 -0.23594,0.5577 -0.23594,1.2011 v 6.778 h -1.11536 v -6.778 q 0,-0.6434 -0.2574,-1.2011 -0.23594,-0.5577 -0.66492,-0.9652 -0.40754,-0.429 -0.96522,-0.665 -0.55769,-0.2359 -1.20117,-0.2359 -0.64348,0 -1.22261,0.2359 -0.55768,0.236 -0.98667,0.665 -0.40753,0.4075 -0.64348,0.9652 -0.23594,0.5577 -0.23594,1.2011 v 6.778 h -1.11537 v -6.778 q 0,-0.8579 0.32174,-1.6301 0.34319,-0.7722 0.90088,-1.3299 0.57913,-0.5791 1.32985,-0.9008 0.77218,-0.3432 1.6516,-0.3432 z"
         style="font-style:normal;font-variant:normal;font-weight:normal;font-stretch:normal;font-family:TimeBurner;-inkscape-font-specification:TimeBurner;fill:#58d3e4;fill-opacity:1;stroke-width:1.07246637"
         id="path993"
         inkscape:connector-curvature="0" />
      <path
         d="m -206.84556,2211.7508 q -0.10725,-0.8365 -0.49334,-1.5443 -0.38609,-0.7079 -0.98667,-1.2441 -0.57913,-0.5362 -1.35131,-0.8365 -0.75072,-0.3003 -1.6087,-0.3003 -0.85797,0 -1.63014,0.3003 -0.77218,0.3003 -1.37276,0.8365 -0.57913,0.5362 -0.96522,1.2441 -0.38609,0.7078 -0.49334,1.5443 z m -4.44002,6.156 q -1.15826,0 -2.18783,-0.429 -1.02956,-0.4505 -1.80174,-1.2012 -0.75073,-0.7722 -1.20116,-1.7803 -0.42899,-1.0295 -0.42899,-2.1878 0,-1.1583 0.42899,-2.1878 0.45043,-1.0296 1.20116,-1.7803 0.77218,-0.7722 1.80174,-1.2012 1.02957,-0.4504 2.18783,-0.4504 1.15827,0 2.16639,0.4504 1.02956,0.429 1.78029,1.2012 0.77218,0.7507 1.20116,1.7803 0.45044,1.0295 0.45044,2.1878 0,0.1501 0,0.2788 0,0.1287 -0.0215,0.2789 h -0.25739 -9.7809 q 0.10725,0.8365 0.49334,1.5443 0.38609,0.7079 0.96522,1.2441 0.60058,0.5362 1.37276,0.8365 0.77217,0.3003 1.63014,0.3003 0.62204,0 1.17972,-0.2359 0.55768,-0.236 0.98667,-0.665 l 0.79362,0.7937 q -0.55768,0.5576 -1.32986,0.9008 -0.75072,0.3218 -1.63015,0.3218 z"
         style="font-style:normal;font-variant:normal;font-weight:normal;font-stretch:normal;font-family:TimeBurner;-inkscape-font-specification:TimeBurner;fill:#58d3e4;fill-opacity:1;stroke-width:1.07246637"
         id="path995"
         inkscape:connector-curvature="0" />
      <path
         d="m -199.66004,2217.8639 q -0.87943,0 -1.6516,-0.3218 -0.75073,-0.3432 -1.32986,-0.9008 -0.55768,-0.5792 -0.90087,-1.3299 -0.32174,-0.7722 -0.32174,-1.6516 v -6.7565 h 1.13681 v 6.7565 q 0,0.6435 0.23594,1.2226 0.23595,0.5577 0.64348,0.9867 0.42899,0.4075 0.98667,0.6435 0.55769,0.2359 1.20117,0.2359 0.64348,0 1.20116,-0.2359 0.55768,-0.236 0.96522,-0.6435 0.42898,-0.429 0.66493,-0.9867 0.25739,-0.5791 0.25739,-1.2226 v -6.7565 h 1.11536 v 6.7565 q 0,0.6435 0.23595,1.2226 0.25739,0.5577 0.66493,0.9867 0.42898,0.4075 0.98666,0.6435 0.55769,0.2359 1.20117,0.2359 0.64348,0 1.20116,-0.2359 0.55768,-0.236 0.96522,-0.6435 0.42899,-0.429 0.66493,-0.9867 0.25739,-0.5791 0.25739,-1.2226 v -6.7565 h 1.11536 v 6.7565 q 0,0.8794 -0.34318,1.6516 -0.32174,0.7507 -0.90088,1.3299 -0.55768,0.5576 -1.32985,0.9008 -0.77218,0.3218 -1.63015,0.3218 -1.15827,0 -2.12349,-0.5577 -0.96522,-0.5791 -1.5229,-1.5444 -0.55768,0.9653 -1.5229,1.5444 -0.94377,0.5577 -2.12348,0.5577 z"
         style="font-style:normal;font-variant:normal;font-weight:normal;font-stretch:normal;font-family:TimeBurner;-inkscape-font-specification:TimeBurner;fill:#58d3e4;fill-opacity:1;stroke-width:1.07246637"
         id="path997"
         inkscape:connector-curvature="0" />
      <path
         d="m -180.82756,2206.6459 q 1.15827,0 2.16639,0.4504 1.02956,0.429 1.78029,1.2012 0.77218,0.7507 1.20116,1.7803 0.45044,1.0295 0.45044,2.1878 0,1.1583 -0.45044,2.1878 -0.42898,1.0081 -1.20116,1.7803 -0.75073,0.7507 -1.78029,1.2012 -1.00812,0.429 -2.16639,0.429 -1.15826,0 -2.18783,-0.429 -1.00812,-0.4505 -1.78029,-1.2012 -0.75073,-0.7722 -1.20116,-1.7803 -0.42899,-1.0295 -0.42899,-2.1878 0,-1.1583 0.42899,-2.1878 0.45043,-1.0296 1.20116,-1.7803 0.77217,-0.7722 1.78029,-1.2012 1.02957,-0.4504 2.18783,-0.4504 z m 0,1.1368 q -0.94377,0 -1.75884,0.3646 -0.81507,0.3432 -1.41566,0.9438 -0.60058,0.6006 -0.96522,1.4371 -0.34319,0.8151 -0.34319,1.7374 0,0.9223 0.34319,1.7374 0.36464,0.8151 0.96522,1.4371 0.60059,0.6006 1.41566,0.9652 0.81507,0.3432 1.75884,0.3432 0.92233,0 1.7374,-0.3432 0.81507,-0.3646 1.41566,-0.9652 0.62203,-0.622 0.96522,-1.4371 0.36463,-0.8151 0.36463,-1.7374 0,-0.9223 -0.36463,-1.7374 -0.34319,-0.8365 -0.96522,-1.4371 -0.60059,-0.6006 -1.41566,-0.9438 -0.81507,-0.3646 -1.7374,-0.3646 z"
         style="font-style:normal;font-variant:normal;font-weight:normal;font-stretch:normal;font-family:TimeBurner;-inkscape-font-specification:TimeBurner;fill:#58d3e4;fill-opacity:1;stroke-width:1.07246637"
         id="path999"
         inkscape:connector-curvature="0" />
      <path
         d="m -172.41942,2217.6279 h -1.11537 v -5.3623 q 0,-1.1583 0.42899,-2.1878 0.45044,-1.0296 1.20116,-1.7803 0.77218,-0.7722 1.7803,-1.2012 1.02957,-0.4504 2.18783,-0.4504 v 1.1368 q -0.92232,0 -1.7374,0.3646 -0.81507,0.3432 -1.4371,0.9438 -0.60058,0.6006 -0.96522,1.4371 -0.34319,0.8151 -0.34319,1.7374 z"
         style="font-style:normal;font-variant:normal;font-weight:normal;font-stretch:normal;font-family:TimeBurner;-inkscape-font-specification:TimeBurner;fill:#58d3e4;fill-opacity:1;stroke-width:1.07246637"
         id="path1001"
         inkscape:connector-curvature="0" />
      <path
         d="m -166.0919,2201.5409 h 1.11536 v 10.7247 l 5.36233,-5.3623 h 1.58725 l -5.36233,5.3623 5.36233,5.3623 h -1.58725 l -5.36233,-5.3623 v 5.3623 h -1.11536 z"
         style="font-style:normal;font-variant:normal;font-weight:normal;font-stretch:normal;font-family:TimeBurner;-inkscape-font-specification:TimeBurner;fill:#58d3e4;fill-opacity:1;stroke-width:1.07246637"
         id="path1003"
         inkscape:connector-curvature="0" />
    </g>
    <g
       aria-label="A real-time tool for acquisition, analysis
and stimuli delivery for OpenBCI."
       style="font-style:normal;font-variant:normal;font-weight:normal;font-stretch:normal;font-size:8.85145378px;line-height:1;font-family:Caladea;-inkscape-font-specification:Caladea;letter-spacing:0px;word-spacing:0px;fill:#58d3e4;fill-opacity:1;stroke:none;stroke-width:0.44257277"
       id="text880">
      <path
         d="m -299.07431,2222.6938 c -0.13277,-0.088 -0.2921,-0.1327 -0.45142,-0.1327 -0.15048,0 -0.2921,0.035 -0.42487,0.115 l -0.0177,0.018 c -0.14162,0.089 -0.23898,0.2125 -0.30094,0.363 l -1.79685,4.3018 c -0.009,0.018 -0.009,0.026 -0.009,0.044 0,0.062 0.0531,0.1062 0.10622,0.1062 0.0442,0 0.0797,-0.018 0.0974,-0.062 l 0.53994,-1.2923 h 3.62025 l 0.53993,1.2923 c 0.009,0.044 0.0443,0.062 0.0885,0.062 0.062,0 0.10622,-0.053 0.10622,-0.115 0,-0.01 0,-0.027 0,-0.035 l -1.79685,-4.3018 c -0.062,-0.1417 -0.15933,-0.2656 -0.28325,-0.3541 h -0.009 z m -0.67271,0.124 c 0.0708,-0.027 0.15048,-0.044 0.22129,-0.044 0.12392,0 0.23899,0.035 0.33635,0.097 l 0.009,0.01 c 0.0974,0.062 0.16818,0.1593 0.20359,0.2567 l 1.17724,2.8059 h -3.44321 l 1.16839,-2.8059 c 0.0443,-0.1062 0.12392,-0.1947 0.22128,-0.2655 l 0.10622,-0.071 z"
         style="font-style:normal;font-variant:normal;font-weight:100;font-stretch:normal;line-height:1;font-family:Trench;-inkscape-font-specification:'Trench Thin';fill:#58d3e4;fill-opacity:1;stroke-width:0.44257277"
         id="path846"
         inkscape:connector-curvature="0" />
      <path
         d="m -294.31225,2225.2873 v 2.0978 c 0,0.071 0.0531,0.1239 0.12392,0.1239 0.062,0 0.11507,-0.053 0.11507,-0.1239 v -2.1155 c 0.0177,-0.6904 0.61075,-1.2657 1.29231,-1.2657 h 0.47798 c 0.33635,0 0.66386,0.1416 0.9117,0.3806 0.0266,0.026 0.0531,0.035 0.0885,0.035 0.062,0 0.11507,-0.053 0.11507,-0.1239 0,-0.027 -0.009,-0.062 -0.0354,-0.08 -0.28324,-0.2921 -0.67271,-0.4514 -1.07987,-0.4514 h -0.47798 c -0.83204,0 -1.5136,0.6904 -1.5313,1.5136 z"
         style="font-style:normal;font-variant:normal;font-weight:100;font-stretch:normal;line-height:1;font-family:Trench;-inkscape-font-specification:'Trench Thin';fill:#58d3e4;fill-opacity:1;stroke-width:0.44257277"
         id="path848"
         inkscape:connector-curvature="0" />
      <path
         d="m -290.37337,2226.1371 h 3.337 c 0.11507,0 0.21243,-0.097 0.21243,-0.2213 v -0.6196 c 0,-0.8321 -0.69926,-1.5313 -1.5313,-1.5313 h -0.68156 c -0.83204,0 -1.5313,0.6992 -1.5313,1.5313 v 0.6107 c 0,0.8498 0.6373,1.6021 1.5313,1.6021 h 1.64637 c 0.062,0 0.11507,-0.053 0.11507,-0.1239 0,-0.062 -0.0531,-0.1151 -0.11507,-0.1151 h -1.64637 c -0.49568,0 -0.97366,-0.3009 -1.17724,-0.77 z m 3.31044,-0.239 h -3.26618 v -0.6019 c 0,-0.7081 0.6019,-1.2923 1.29231,-1.2923 h 0.68156 c 0.69927,0 1.29231,0.593 1.29231,1.2923 z"
         style="font-style:normal;font-variant:normal;font-weight:100;font-stretch:normal;line-height:1;font-family:Trench;-inkscape-font-specification:'Trench Thin';fill:#58d3e4;fill-opacity:1;stroke-width:0.44257277"
         id="path850"
         inkscape:connector-curvature="0" />
      <path
         d="m -285.36345,2223.7649 h -0.11507 c -0.062,0 -0.11507,0.053 -0.11507,0.1239 0,0.062 0.0531,0.1151 0.11507,0.1151 h 1.5667 c 0.5842,0 1.11529,0.416 1.25691,0.9825 l 0.0354,0.1416 h -2.27483 c -0.66386,0 -1.19494,0.5311 -1.19494,1.1861 0,0.6638 0.53108,1.1949 1.19494,1.1949 h 0.98251 c 0.82319,0 1.54016,-0.6815 1.54016,-1.5313 v -0.6815 c 0,-0.8498 -0.71697,-1.5313 -1.54016,-1.5313 z m 1.00021,3.5051 h -0.53109 c -0.53108,0 -0.95595,-0.4248 -0.95595,-0.9559 0,-0.5222 0.42487,-0.9471 0.95595,-0.9471 h 2.27483 v 0.6107 c 0,0.6904 -0.57535,1.2923 -1.29232,1.2923 z"
         style="font-style:normal;font-variant:normal;font-weight:100;font-stretch:normal;line-height:1;font-family:Trench;-inkscape-font-specification:'Trench Thin';fill:#58d3e4;fill-opacity:1;stroke-width:0.44257277"
         id="path852"
         inkscape:connector-curvature="0" />
      <path
         d="m -281.45998,2227.394 c 0,0.062 0.0531,0.115 0.11507,0.115 0.0708,0 0.12392,-0.053 0.12392,-0.115 v -4.7179 c 0,-0.062 -0.0531,-0.115 -0.12392,-0.115 -0.062,0 -0.11507,0.053 -0.11507,0.115 z"
         style="font-style:normal;font-variant:normal;font-weight:100;font-stretch:normal;line-height:1;font-family:Trench;-inkscape-font-specification:'Trench Thin';fill:#58d3e4;fill-opacity:1;stroke-width:0.44257277"
         id="path854"
         inkscape:connector-curvature="0" />
      <path
         d="m -279.91983,2225.6414 c 1.23921,0 2.48726,0 3.72647,0 0.0708,0 0.12392,-0.053 0.12392,-0.1151 0,-0.071 -0.0531,-0.1239 -0.12392,-0.1239 -1.23921,0 -2.48726,0 -3.72647,0 -0.0708,0 -0.12392,0.053 -0.12392,0.1239 0,0.062 0.0531,0.1151 0.12392,0.1151 z"
         style="font-style:normal;font-variant:normal;font-weight:100;font-stretch:normal;line-height:1;font-family:Trench;-inkscape-font-specification:'Trench Thin';fill:#58d3e4;fill-opacity:1;stroke-width:0.44257277"
         id="path856"
         inkscape:connector-curvature="0" />
      <path
         d="m -275.08694,2225.5529 v -1.5579 h 1.52245 c 0.0708,0 0.12392,-0.053 0.12392,-0.1239 0,-0.062 -0.0531,-0.1151 -0.12392,-0.1151 h -1.52245 v -1.0799 c 0,-0.062 -0.0531,-0.115 -0.12392,-0.115 -0.062,0 -0.11507,0.053 -0.11507,0.115 v 3.3193 c 0,0.8321 0.68156,1.5136 1.5136,1.5136 h 0.33635 c 0.062,0 0.11507,-0.053 0.11507,-0.115 0,-0.071 -0.0531,-0.124 -0.11507,-0.124 h -0.33635 c -0.69927,0 -1.27461,-0.5753 -1.27461,-1.2746 z"
         style="font-style:normal;font-variant:normal;font-weight:100;font-stretch:normal;line-height:1;font-family:Trench;-inkscape-font-specification:'Trench Thin';fill:#58d3e4;fill-opacity:1;stroke-width:0.44257277"
         id="path858"
         inkscape:connector-curvature="0" />
      <path
         d="m -272.34301,2227.394 c 0,0.062 0.0531,0.115 0.12392,0.115 0.062,0 0.11507,-0.053 0.11507,-0.115 v -3.461 c 0,-0.071 -0.0531,-0.1239 -0.11507,-0.1239 -0.0708,0 -0.12392,0.053 -0.12392,0.1239 z m 0.12392,-4.6293 c -0.0885,0 -0.15932,0.071 -0.15932,0.1593 0,0.088 0.0708,0.1593 0.15932,0.1593 0.0885,0 0.15933,-0.071 0.15933,-0.1593 0,-0.088 -0.0708,-0.1593 -0.15933,-0.1593 z"
         style="font-style:normal;font-variant:normal;font-weight:100;font-stretch:normal;line-height:1;font-family:Trench;-inkscape-font-specification:'Trench Thin';fill:#58d3e4;fill-opacity:1;stroke-width:0.44257277"
         id="path860"
         inkscape:connector-curvature="0" />
      <path
         d="m -264.42097,2225.2873 v -0.01 c -0.0177,-0.8321 -0.70811,-1.5136 -1.5313,-1.5136 h -0.31865 c -0.53994,0 -1.00907,0.2744 -1.31887,0.7435 l -0.0974,0.1682 -0.0974,-0.1682 c -0.27439,-0.4691 -0.78778,-0.7435 -1.31001,-0.7435 h -0.31866 c -0.83203,0 -1.5136,0.6904 -1.5313,1.5136 v 2.1066 c 0,0.071 0.0531,0.1239 0.12392,0.1239 0.062,0 0.11507,-0.053 0.11507,-0.1239 v -2.1155 c 0.0177,-0.6904 0.61075,-1.2657 1.29231,-1.2657 h 0.31866 c 0.69041,0 1.29231,0.5842 1.29231,1.2923 v 2.0889 c 0,0.071 0.0531,0.1239 0.11507,0.1239 0.0708,0 0.12392,-0.053 0.12392,-0.1239 v -2.1155 c 0.0177,-0.6727 0.58419,-1.2657 1.29231,-1.2657 h 0.31865 c 0.68156,0 1.28346,0.5753 1.28346,1.2923 v 2.0889 c 0,0.071 0.062,0.1239 0.12392,0.1239 0.0708,0 0.12392,-0.053 0.12392,-0.1239 z"
         style="font-style:normal;font-variant:normal;font-weight:100;font-stretch:normal;line-height:1;font-family:Trench;-inkscape-font-specification:'Trench Thin';fill:#58d3e4;fill-opacity:1;stroke-width:0.44257277"
         id="path862"
         inkscape:connector-curvature="0" />
      <path
         d="m -263.44732,2226.1371 h 3.337 c 0.11507,0 0.21244,-0.097 0.21244,-0.2213 v -0.6196 c 0,-0.8321 -0.69927,-1.5313 -1.5313,-1.5313 h -0.68157 c -0.83203,0 -1.5313,0.6992 -1.5313,1.5313 v 0.6107 c 0,0.8498 0.63731,1.6021 1.5313,1.6021 h 1.64637 c 0.062,0 0.11507,-0.053 0.11507,-0.1239 0,-0.062 -0.0531,-0.1151 -0.11507,-0.1151 h -1.64637 c -0.49568,0 -0.97366,-0.3009 -1.17724,-0.77 z m 3.31045,-0.239 h -3.26619 v -0.6019 c 0,-0.7081 0.6019,-1.2923 1.29231,-1.2923 h 0.68157 c 0.69926,0 1.29231,0.593 1.29231,1.2923 z"
         style="font-style:normal;font-variant:normal;font-weight:100;font-stretch:normal;line-height:1;font-family:Trench;-inkscape-font-specification:'Trench Thin';fill:#58d3e4;fill-opacity:1;stroke-width:0.44257277"
         id="path864"
         inkscape:connector-curvature="0" />
      <path
         d="m -256.78219,2225.5529 v -1.5579 h 1.52245 c 0.0708,0 0.12392,-0.053 0.12392,-0.1239 0,-0.062 -0.0531,-0.1151 -0.12392,-0.1151 h -1.52245 v -1.0799 c 0,-0.062 -0.0531,-0.115 -0.12392,-0.115 -0.062,0 -0.11507,0.053 -0.11507,0.115 v 3.3193 c 0,0.8321 0.68156,1.5136 1.5136,1.5136 h 0.33635 c 0.062,0 0.11507,-0.053 0.11507,-0.115 0,-0.071 -0.0531,-0.124 -0.11507,-0.124 h -0.33635 c -0.69927,0 -1.27461,-0.5753 -1.27461,-1.2746 z"
         style="font-style:normal;font-variant:normal;font-weight:100;font-stretch:normal;line-height:1;font-family:Trench;-inkscape-font-specification:'Trench Thin';fill:#58d3e4;fill-opacity:1;stroke-width:0.44257277"
         id="path866"
         inkscape:connector-curvature="0" />
      <path
         d="m -252.54236,2223.7649 c -0.83204,0 -1.53131,0.6992 -1.53131,1.5313 v 0.6815 c 0,0.8321 0.69927,1.5313 1.53131,1.5313 h 0.68156 c 0.83203,0 1.5313,-0.6992 1.5313,-1.5313 v -0.6815 c 0,-0.8321 -0.69927,-1.5313 -1.5313,-1.5313 z m 0.68156,0.239 c 0.69041,0 1.29231,0.5842 1.29231,1.2923 v 0.6815 c 0,0.6993 -0.59305,1.2923 -1.29231,1.2923 h -0.68156 c -0.69927,0 -1.29232,-0.6019 -1.29232,-1.2923 v -0.6815 c 0,-0.717 0.61075,-1.2923 1.29232,-1.2923 z"
         style="font-style:normal;font-variant:normal;font-weight:100;font-stretch:normal;line-height:1;font-family:Trench;-inkscape-font-specification:'Trench Thin';fill:#58d3e4;fill-opacity:1;stroke-width:0.44257277"
         id="path868"
         inkscape:connector-curvature="0" />
      <path
         d="m -247.88651,2223.7649 c -0.83203,0 -1.5313,0.6992 -1.5313,1.5313 v 0.6815 c 0,0.8321 0.69927,1.5313 1.5313,1.5313 h 0.68156 c 0.83204,0 1.53131,-0.6992 1.53131,-1.5313 v -0.6815 c 0,-0.8321 -0.69927,-1.5313 -1.53131,-1.5313 z m 0.68156,0.239 c 0.69042,0 1.29232,0.5842 1.29232,1.2923 v 0.6815 c 0,0.6993 -0.59305,1.2923 -1.29232,1.2923 h -0.68156 c -0.69926,0 -1.29231,-0.6019 -1.29231,-1.2923 v -0.6815 c 0,-0.717 0.61075,-1.2923 1.29231,-1.2923 z"
         style="font-style:normal;font-variant:normal;font-weight:100;font-stretch:normal;line-height:1;font-family:Trench;-inkscape-font-specification:'Trench Thin';fill:#58d3e4;fill-opacity:1;stroke-width:0.44257277"
         id="path870"
         inkscape:connector-curvature="0" />
      <path
         d="m -244.76195,2227.394 c 0,0.062 0.0531,0.115 0.11507,0.115 0.0708,0 0.12392,-0.053 0.12392,-0.115 v -4.7179 c 0,-0.062 -0.0531,-0.115 -0.12392,-0.115 -0.062,0 -0.11507,0.053 -0.11507,0.115 z"
         style="font-style:normal;font-variant:normal;font-weight:100;font-stretch:normal;line-height:1;font-family:Trench;-inkscape-font-specification:'Trench Thin';fill:#58d3e4;fill-opacity:1;stroke-width:0.44257277"
         id="path872"
         inkscape:connector-curvature="0" />
      <path
         d="m -241.38071,2224.5172 v 2.8768 c 0,0.062 0.0531,0.115 0.11506,0.115 0.0708,0 0.12392,-0.053 0.12392,-0.115 v -1.2392 h 1.52245 c 0.0708,0 0.12393,-0.053 0.12393,-0.1151 0,-0.071 -0.0531,-0.1239 -0.12393,-0.1239 h -1.52245 v -1.8411 c 0,-0.7081 0.57535,-1.2746 1.27461,-1.2746 h 0.33636 c 0.062,0 0.11507,-0.053 0.11507,-0.124 0,-0.062 -0.0531,-0.115 -0.11507,-0.115 h -0.33636 c -0.83203,0 -1.51359,0.6815 -1.51359,1.5136 z"
         style="font-style:normal;font-variant:normal;font-weight:100;font-stretch:normal;line-height:1;font-family:Trench;-inkscape-font-specification:'Trench Thin';fill:#58d3e4;fill-opacity:1;stroke-width:0.44257277"
         id="path874"
         inkscape:connector-curvature="0" />
      <path
         d="m -236.9727,2223.7649 c -0.83204,0 -1.5313,0.6992 -1.5313,1.5313 v 0.6815 c 0,0.8321 0.69926,1.5313 1.5313,1.5313 h 0.68156 c 0.83204,0 1.5313,-0.6992 1.5313,-1.5313 v -0.6815 c 0,-0.8321 -0.69926,-1.5313 -1.5313,-1.5313 z m 0.68156,0.239 c 0.69042,0 1.29231,0.5842 1.29231,1.2923 v 0.6815 c 0,0.6993 -0.59304,1.2923 -1.29231,1.2923 h -0.68156 c -0.69926,0 -1.29231,-0.6019 -1.29231,-1.2923 v -0.6815 c 0,-0.717 0.61075,-1.2923 1.29231,-1.2923 z"
         style="font-style:normal;font-variant:normal;font-weight:100;font-stretch:normal;line-height:1;font-family:Trench;-inkscape-font-specification:'Trench Thin';fill:#58d3e4;fill-opacity:1;stroke-width:0.44257277"
         id="path876"
         inkscape:connector-curvature="0" />
      <path
         d="m -233.84814,2225.2873 v 2.0978 c 0,0.071 0.0531,0.1239 0.12392,0.1239 0.062,0 0.11506,-0.053 0.11506,-0.1239 v -2.1155 c 0.0177,-0.6904 0.61076,-1.2657 1.29232,-1.2657 h 0.47798 c 0.33635,0 0.66385,0.1416 0.9117,0.3806 0.0265,0.026 0.0531,0.035 0.0885,0.035 0.062,0 0.11507,-0.053 0.11507,-0.1239 0,-0.027 -0.009,-0.062 -0.0354,-0.08 -0.28324,-0.2921 -0.67271,-0.4514 -1.07987,-0.4514 h -0.47798 c -0.83204,0 -1.5136,0.6904 -1.5313,1.5136 z"
         style="font-style:normal;font-variant:normal;font-weight:100;font-stretch:normal;line-height:1;font-family:Trench;-inkscape-font-specification:'Trench Thin';fill:#58d3e4;fill-opacity:1;stroke-width:0.44257277"
         id="path878"
         inkscape:connector-curvature="0" />
      <path
         d="m -227.3158,2223.7649 h -0.11507 c -0.062,0 -0.11507,0.053 -0.11507,0.1239 0,0.062 0.0531,0.1151 0.11507,0.1151 h 1.56671 c 0.58419,0 1.11528,0.416 1.2569,0.9825 l 0.0354,0.1416 h -2.27483 c -0.66386,0 -1.19494,0.5311 -1.19494,1.1861 0,0.6638 0.53108,1.1949 1.19494,1.1949 h 0.98252 c 0.82318,0 1.54015,-0.6815 1.54015,-1.5313 v -0.6815 c 0,-0.8498 -0.71697,-1.5313 -1.54015,-1.5313 z m 1.00021,3.5051 h -0.53109 c -0.53108,0 -0.95595,-0.4248 -0.95595,-0.9559 0,-0.5222 0.42487,-0.9471 0.95595,-0.9471 h 2.27483 v 0.6107 c 0,0.6904 -0.57535,1.2923 -1.29231,1.2923 z"
         style="font-style:normal;font-variant:normal;font-weight:100;font-stretch:normal;line-height:1;font-family:Trench;-inkscape-font-specification:'Trench Thin';fill:#58d3e4;fill-opacity:1;stroke-width:0.44257277"
         id="path880"
         inkscape:connector-curvature="0" />
      <path
         d="m -220.56215,2227.27 h -1.31887 c -0.69927,0 -1.29231,-0.593 -1.29231,-1.2923 v -0.6815 c 0,-0.717 0.61075,-1.2923 1.29231,-1.2923 h 1.43393 c 0.062,0 0.11507,-0.053 0.11507,-0.1151 0,-0.071 -0.0531,-0.1239 -0.11507,-0.1239 h -1.43393 c -0.83204,0 -1.5313,0.6992 -1.5313,1.5313 v 0.6815 c 0,0.8321 0.69926,1.5313 1.5313,1.5313 h 1.43393 c 0.062,0 0.11507,-0.053 0.11507,-0.1239 0,-0.062 -0.0531,-0.1151 -0.11507,-0.1151 z"
         style="font-style:normal;font-variant:normal;font-weight:100;font-stretch:normal;line-height:1;font-family:Trench;-inkscape-font-specification:'Trench Thin';fill:#58d3e4;fill-opacity:1;stroke-width:0.44257277"
         id="path882"
         inkscape:connector-curvature="0" />
      <path
         d="m -215.86204,2225.2696 c 0,-0.8143 -0.69041,-1.5047 -1.50475,-1.5047 h -0.66386 c -0.81433,0 -1.50474,0.6904 -1.50474,1.5047 v 0.7347 c 0,0.8143 0.69041,1.5047 1.50474,1.5047 h 0.66386 c 0.39832,0 0.77893,-0.1593 1.06218,-0.4425 l 0.20358,-0.2036 v 2.3191 c 0,0.062 0.0531,0.115 0.12392,0.115 0.062,0 0.11507,-0.053 0.11507,-0.115 z m -0.23899,0.7612 c 0,0.6816 -0.6019,1.2392 -1.26576,1.2392 h -0.66386 c -0.69041,0 -1.26575,-0.5753 -1.26575,-1.2657 v -0.7347 c 0,-0.6904 0.57534,-1.2657 1.26575,-1.2657 h 0.66386 c 0.69042,0 1.26576,0.5753 1.26576,1.2657 v 0.5134 z"
         style="font-style:normal;font-variant:normal;font-weight:100;font-stretch:normal;line-height:1;font-family:Trench;-inkscape-font-specification:'Trench Thin';fill:#58d3e4;fill-opacity:1;stroke-width:0.44257277"
         id="path884"
         inkscape:connector-curvature="0" />
      <path
         d="m -214.85297,2225.9866 v 0.01 c 0.0177,0.8232 0.69926,1.5136 1.5313,1.5136 h 0.31865 c 0.83204,0 1.5136,-0.6904 1.5313,-1.5136 v -2.1066 c 0,-0.071 -0.0531,-0.1239 -0.12392,-0.1239 -0.062,0 -0.11507,0.053 -0.11507,0.1239 v 2.0889 c 0,0.6993 -0.59305,1.2923 -1.29231,1.2923 h -0.31865 c -0.68156,0 -1.27461,-0.5664 -1.29231,-1.2746 v -2.1066 c 0,-0.071 -0.0531,-0.1239 -0.11507,-0.1239 -0.0708,0 -0.12392,0.053 -0.12392,0.1239 z"
         style="font-style:normal;font-variant:normal;font-weight:100;font-stretch:normal;line-height:1;font-family:Trench;-inkscape-font-specification:'Trench Thin';fill:#58d3e4;fill-opacity:1;stroke-width:0.44257277"
         id="path886"
         inkscape:connector-curvature="0" />
      <path
         d="m -210.66624,2227.394 c 0,0.062 0.0531,0.115 0.12392,0.115 0.062,0 0.11507,-0.053 0.11507,-0.115 v -3.461 c 0,-0.071 -0.0531,-0.1239 -0.11507,-0.1239 -0.0708,0 -0.12392,0.053 -0.12392,0.1239 z m 0.12392,-4.6293 c -0.0885,0 -0.15932,0.071 -0.15932,0.1593 0,0.088 0.0708,0.1593 0.15932,0.1593 0.0885,0 0.15933,-0.071 0.15933,-0.1593 0,-0.088 -0.0708,-0.1593 -0.15933,-0.1593 z"
         style="font-style:normal;font-variant:normal;font-weight:100;font-stretch:normal;line-height:1;font-family:Trench;-inkscape-font-specification:'Trench Thin';fill:#58d3e4;fill-opacity:1;stroke-width:0.44257277"
         id="path888"
         inkscape:connector-curvature="0" />
      <path
         d="m -205.98383,2224.6854 c 0,-0.035 0.009,-0.062 0.009,-0.088 0,-0.1859 -0.10622,-0.3983 -0.23899,-0.5399 l -0.0266,-0.027 c -0.16817,-0.1682 -0.39831,-0.2655 -0.6373,-0.2655 h -1.44279 c -0.48683,0 -0.9117,0.3983 -0.9117,0.9117 0,1.0798 1.50475,1.0267 2.27483,1.1772 0.36291,0.071 0.83203,0.2301 0.83203,0.7435 0,0.3629 -0.30095,0.6639 -0.66386,0.6639 h -1.57555 c -0.30981,0 -0.65501,-0.2567 -0.65501,-0.5754 0,-0.027 0,-0.053 0,-0.097 0,-0.071 -0.0531,-0.1239 -0.12392,-0.1239 -0.11507,0 -0.12392,0.1416 -0.12392,0.2301 0,0.4337 0.44257,0.8143 0.90285,0.8143 h 1.57555 c 0.51339,0 0.9117,-0.4248 0.9117,-0.9117 0,-1.6021 -3.10686,-0.5753 -3.10686,-1.9207 0,-0.3629 0.30095,-0.6639 0.66386,-0.6639 h 1.44279 c 0.17703,0 0.34521,0.071 0.46913,0.1947 l 0.0354,0.035 c 0.0797,0.097 0.15048,0.2479 0.15048,0.363 0,0.018 0,0.044 0,0.08 0,0.062 0.0531,0.1151 0.11507,0.1151 0.0708,0 0.12392,-0.053 0.12392,-0.1151 z"
         style="font-style:normal;font-variant:normal;font-weight:100;font-stretch:normal;line-height:1;font-family:Trench;-inkscape-font-specification:'Trench Thin';fill:#58d3e4;fill-opacity:1;stroke-width:0.44257277"
         id="path890"
         inkscape:connector-curvature="0" />
      <path
         d="m -204.93937,2227.394 c 0,0.062 0.0531,0.115 0.12392,0.115 0.062,0 0.11507,-0.053 0.11507,-0.115 v -3.461 c 0,-0.071 -0.0531,-0.1239 -0.11507,-0.1239 -0.0708,0 -0.12392,0.053 -0.12392,0.1239 z m 0.12392,-4.6293 c -0.0885,0 -0.15933,0.071 -0.15933,0.1593 0,0.088 0.0708,0.1593 0.15933,0.1593 0.0885,0 0.15933,-0.071 0.15933,-0.1593 0,-0.088 -0.0708,-0.1593 -0.15933,-0.1593 z"
         style="font-style:normal;font-variant:normal;font-weight:100;font-stretch:normal;line-height:1;font-family:Trench;-inkscape-font-specification:'Trench Thin';fill:#58d3e4;fill-opacity:1;stroke-width:0.44257277"
         id="path892"
         inkscape:connector-curvature="0" />
      <path
         d="m -203.30187,2225.5529 v -1.5579 h 1.52245 c 0.0708,0 0.12392,-0.053 0.12392,-0.1239 0,-0.062 -0.0531,-0.1151 -0.12392,-0.1151 h -1.52245 v -1.0799 c 0,-0.062 -0.0531,-0.115 -0.12392,-0.115 -0.062,0 -0.11507,0.053 -0.11507,0.115 v 3.3193 c 0,0.8321 0.68157,1.5136 1.5136,1.5136 h 0.33636 c 0.062,0 0.11507,-0.053 0.11507,-0.115 0,-0.071 -0.0531,-0.124 -0.11507,-0.124 h -0.33636 c -0.69926,0 -1.27461,-0.5753 -1.27461,-1.2746 z"
         style="font-style:normal;font-variant:normal;font-weight:100;font-stretch:normal;line-height:1;font-family:Trench;-inkscape-font-specification:'Trench Thin';fill:#58d3e4;fill-opacity:1;stroke-width:0.44257277"
         id="path894"
         inkscape:connector-curvature="0" />
      <path
         d="m -200.55793,2227.394 c 0,0.062 0.0531,0.115 0.12392,0.115 0.062,0 0.11507,-0.053 0.11507,-0.115 v -3.461 c 0,-0.071 -0.0531,-0.1239 -0.11507,-0.1239 -0.0708,0 -0.12392,0.053 -0.12392,0.1239 z m 0.12392,-4.6293 c -0.0885,0 -0.15933,0.071 -0.15933,0.1593 0,0.088 0.0708,0.1593 0.15933,0.1593 0.0885,0 0.15932,-0.071 0.15932,-0.1593 0,-0.088 -0.0708,-0.1593 -0.15932,-0.1593 z"
         style="font-style:normal;font-variant:normal;font-weight:100;font-stretch:normal;line-height:1;font-family:Trench;-inkscape-font-specification:'Trench Thin';fill:#58d3e4;fill-opacity:1;stroke-width:0.44257277"
         id="path896"
         inkscape:connector-curvature="0" />
      <path
         d="m -197.62811,2223.7649 c -0.83203,0 -1.5313,0.6992 -1.5313,1.5313 v 0.6815 c 0,0.8321 0.69927,1.5313 1.5313,1.5313 h 0.68156 c 0.83204,0 1.53131,-0.6992 1.53131,-1.5313 v -0.6815 c 0,-0.8321 -0.69927,-1.5313 -1.53131,-1.5313 z m 0.68156,0.239 c 0.69042,0 1.29232,0.5842 1.29232,1.2923 v 0.6815 c 0,0.6993 -0.59305,1.2923 -1.29232,1.2923 h -0.68156 c -0.69926,0 -1.29231,-0.6019 -1.29231,-1.2923 v -0.6815 c 0,-0.717 0.61075,-1.2923 1.29231,-1.2923 z"
         style="font-style:normal;font-variant:normal;font-weight:100;font-stretch:normal;line-height:1;font-family:Trench;-inkscape-font-specification:'Trench Thin';fill:#58d3e4;fill-opacity:1;stroke-width:0.44257277"
         id="path898"
         inkscape:connector-curvature="0" />
      <path
         d="m -190.75939,2225.2873 v -0.01 c 0,-0.8144 -0.70812,-1.5136 -1.5313,-1.5136 h -0.68156 c -0.83204,0 -1.5136,0.6904 -1.53131,1.5136 v 2.1066 c 0,0.071 0.0531,0.1239 0.12393,0.1239 0.062,0 0.11506,-0.053 0.11506,-0.1239 v -2.1155 c 0.0177,-0.6815 0.6019,-1.2657 1.29232,-1.2657 h 0.68156 c 0.69041,0 1.29231,0.5842 1.29231,1.2923 v 2.0889 c 0,0.071 0.0531,0.1239 0.11507,0.1239 0.0708,0 0.12392,-0.053 0.12392,-0.1239 z"
         style="font-style:normal;font-variant:normal;font-weight:100;font-stretch:normal;line-height:1;font-family:Trench;-inkscape-font-specification:'Trench Thin';fill:#58d3e4;fill-opacity:1;stroke-width:0.44257277"
         id="path900"
         inkscape:connector-curvature="0" />
      <path
         d="m -189.03338,2227.0576 c 0.0443,-0.071 0.0177,-0.1505 -0.0531,-0.1947 -0.062,-0.035 -0.15048,-0.018 -0.18588,0.053 -0.44258,0.7524 -0.46913,0.8055 -0.49569,0.8497 -0.0354,0.071 -0.0177,0.1594 0.0531,0.1948 0.062,0.035 0.15048,0.018 0.19473,-0.053 z"
         style="font-style:normal;font-variant:normal;font-weight:100;font-stretch:normal;line-height:1;font-family:Trench;-inkscape-font-specification:'Trench Thin';fill:#58d3e4;fill-opacity:1;stroke-width:0.44257277"
         id="path902"
         inkscape:connector-curvature="0" />
      <path
         d="m -185.72296,2223.7649 h -0.11507 c -0.062,0 -0.11507,0.053 -0.11507,0.1239 0,0.062 0.0531,0.1151 0.11507,0.1151 h 1.56671 c 0.58419,0 1.11528,0.416 1.2569,0.9825 l 0.0354,0.1416 h -2.27482 c -0.66386,0 -1.19495,0.5311 -1.19495,1.1861 0,0.6638 0.53109,1.1949 1.19495,1.1949 h 0.98251 c 0.82318,0 1.54015,-0.6815 1.54015,-1.5313 v -0.6815 c 0,-0.8498 -0.71697,-1.5313 -1.54015,-1.5313 z m 1.00021,3.5051 h -0.53108 c -0.53109,0 -0.95596,-0.4248 -0.95596,-0.9559 0,-0.5222 0.42487,-0.9471 0.95596,-0.9471 h 2.27482 v 0.6107 c 0,0.6904 -0.57535,1.2923 -1.29231,1.2923 z"
         style="font-style:normal;font-variant:normal;font-weight:100;font-stretch:normal;line-height:1;font-family:Trench;-inkscape-font-specification:'Trench Thin';fill:#58d3e4;fill-opacity:1;stroke-width:0.44257277"
         id="path904"
         inkscape:connector-curvature="0" />
      <path
         d="m -178.07532,2225.2873 v -0.01 c 0,-0.8144 -0.70811,-1.5136 -1.5313,-1.5136 h -0.68156 c -0.83204,0 -1.5136,0.6904 -1.5313,1.5136 v 2.1066 c 0,0.071 0.0531,0.1239 0.12392,0.1239 0.062,0 0.11507,-0.053 0.11507,-0.1239 v -2.1155 c 0.0177,-0.6815 0.6019,-1.2657 1.29231,-1.2657 h 0.68156 c 0.69042,0 1.29231,0.5842 1.29231,1.2923 v 2.0889 c 0,0.071 0.0531,0.1239 0.11507,0.1239 0.0708,0 0.12392,-0.053 0.12392,-0.1239 z"
         style="font-style:normal;font-variant:normal;font-weight:100;font-stretch:normal;line-height:1;font-family:Trench;-inkscape-font-specification:'Trench Thin';fill:#58d3e4;fill-opacity:1;stroke-width:0.44257277"
         id="path906"
         inkscape:connector-curvature="0" />
      <path
         d="m -176.57059,2223.7649 h -0.11507 c -0.062,0 -0.11506,0.053 -0.11506,0.1239 0,0.062 0.0531,0.1151 0.11506,0.1151 h 1.56671 c 0.5842,0 1.11528,0.416 1.25691,0.9825 l 0.0354,0.1416 h -2.27482 c -0.66386,0 -1.19495,0.5311 -1.19495,1.1861 0,0.6638 0.53109,1.1949 1.19495,1.1949 h 0.98251 c 0.82319,0 1.54015,-0.6815 1.54015,-1.5313 v -0.6815 c 0,-0.8498 -0.71696,-1.5313 -1.54015,-1.5313 z m 1.00022,3.5051 h -0.53109 c -0.53109,0 -0.95596,-0.4248 -0.95596,-0.9559 0,-0.5222 0.42487,-0.9471 0.95596,-0.9471 h 2.27482 v 0.6107 c 0,0.6904 -0.57534,1.2923 -1.29231,1.2923 z"
         style="font-style:normal;font-variant:normal;font-weight:100;font-stretch:normal;line-height:1;font-family:Trench;-inkscape-font-specification:'Trench Thin';fill:#58d3e4;fill-opacity:1;stroke-width:0.44257277"
         id="path908"
         inkscape:connector-curvature="0" />
      <path
         d="m -172.66711,2227.394 c 0,0.062 0.0531,0.115 0.11506,0.115 0.0708,0 0.12392,-0.053 0.12392,-0.115 v -4.7179 c 0,-0.062 -0.0531,-0.115 -0.12392,-0.115 -0.062,0 -0.11506,0.053 -0.11506,0.115 z"
         style="font-style:normal;font-variant:normal;font-weight:100;font-stretch:normal;line-height:1;font-family:Trench;-inkscape-font-specification:'Trench Thin';fill:#58d3e4;fill-opacity:1;stroke-width:0.44257277"
         id="path910"
         inkscape:connector-curvature="0" />
      <path
         d="m -168.24139,2223.8799 v -0.018 -0.018 l -0.009,-0.01 -0.009,-0.01 -0.009,-0.018 -0.009,-0.01 -0.009,-0.01 -0.009,-0.01 -0.0177,-0.01 -0.009,-0.01 h -0.0177 -0.0177 -0.0177 -0.0177 l -0.0177,0.01 -0.0177,0.01 -0.0177,0.018 -0.009,0.018 -0.009,0.01 -0.009,0.018 v 0.018 l -0.009,0.01 v 1.3985 c 0,0.6904 -0.57534,1.2658 -1.26576,1.2658 -0.69041,0 -1.26576,-0.5754 -1.26576,-1.2658 v -1.3897 c 0,-0.062 -0.0531,-0.115 -0.12392,-0.115 -0.062,0 -0.11507,0.053 -0.11507,0.115 v 1.3897 c 0,0.8143 0.69042,1.5048 1.50475,1.5048 0.39832,0 0.77893,-0.1594 1.06218,-0.4426 l 0.20358,-0.2036 v 1.5933 c 0,0.6904 -0.57534,1.2657 -1.26576,1.2657 h -0.33635 c -0.062,0 -0.11507,0.053 -0.11507,0.1239 0,0.062 0.0531,0.1151 0.11507,0.1151 h 0.33635 c 0.81434,0 1.50475,-0.6904 1.50475,-1.5047 z"
         style="font-style:normal;font-variant:normal;font-weight:100;font-stretch:normal;line-height:1;font-family:Trench;-inkscape-font-specification:'Trench Thin';fill:#58d3e4;fill-opacity:1;stroke-width:0.44257277"
         id="path912"
         inkscape:connector-curvature="0" />
      <path
         d="m -163.85992,2224.6854 c 0,-0.035 0.009,-0.062 0.009,-0.088 0,-0.1859 -0.10622,-0.3983 -0.23899,-0.5399 l -0.0266,-0.027 c -0.16817,-0.1682 -0.39831,-0.2655 -0.6373,-0.2655 h -1.44279 c -0.48683,0 -0.9117,0.3983 -0.9117,0.9117 0,1.0798 1.50475,1.0267 2.27483,1.1772 0.3629,0.071 0.83203,0.2301 0.83203,0.7435 0,0.3629 -0.30095,0.6639 -0.66386,0.6639 h -1.57556 c -0.3098,0 -0.655,-0.2567 -0.655,-0.5754 0,-0.027 0,-0.053 0,-0.097 0,-0.071 -0.0531,-0.1239 -0.12392,-0.1239 -0.11507,0 -0.12392,0.1416 -0.12392,0.2301 0,0.4337 0.44257,0.8143 0.90284,0.8143 h 1.57556 c 0.51339,0 0.9117,-0.4248 0.9117,-0.9117 0,-1.6021 -3.10686,-0.5753 -3.10686,-1.9207 0,-0.3629 0.30095,-0.6639 0.66386,-0.6639 h 1.44279 c 0.17703,0 0.34521,0.071 0.46913,0.1947 l 0.0354,0.035 c 0.0797,0.097 0.15048,0.2479 0.15048,0.363 0,0.018 0,0.044 0,0.08 0,0.062 0.0531,0.1151 0.11506,0.1151 0.0708,0 0.12393,-0.053 0.12393,-0.1151 z"
         style="font-style:normal;font-variant:normal;font-weight:100;font-stretch:normal;line-height:1;font-family:Trench;-inkscape-font-specification:'Trench Thin';fill:#58d3e4;fill-opacity:1;stroke-width:0.44257277"
         id="path914"
         inkscape:connector-curvature="0" />
      <path
         d="m -162.81547,2227.394 c 0,0.062 0.0531,0.115 0.12392,0.115 0.062,0 0.11507,-0.053 0.11507,-0.115 v -3.461 c 0,-0.071 -0.0531,-0.1239 -0.11507,-0.1239 -0.0708,0 -0.12392,0.053 -0.12392,0.1239 z m 0.12392,-4.6293 c -0.0885,0 -0.15933,0.071 -0.15933,0.1593 0,0.088 0.0708,0.1593 0.15933,0.1593 0.0885,0 0.15933,-0.071 0.15933,-0.1593 0,-0.088 -0.0708,-0.1593 -0.15933,-0.1593 z"
         style="font-style:normal;font-variant:normal;font-weight:100;font-stretch:normal;line-height:1;font-family:Trench;-inkscape-font-specification:'Trench Thin';fill:#58d3e4;fill-opacity:1;stroke-width:0.44257277"
         id="path916"
         inkscape:connector-curvature="0" />
      <path
         d="m -158.13306,2224.6854 c 0,-0.035 0.009,-0.062 0.009,-0.088 0,-0.1859 -0.10621,-0.3983 -0.23898,-0.5399 l -0.0266,-0.027 c -0.16818,-0.1682 -0.39831,-0.2655 -0.6373,-0.2655 h -1.44279 c -0.48683,0 -0.9117,0.3983 -0.9117,0.9117 0,1.0798 1.50475,1.0267 2.27482,1.1772 0.36291,0.071 0.83204,0.2301 0.83204,0.7435 0,0.3629 -0.30095,0.6639 -0.66386,0.6639 h -1.57556 c -0.3098,0 -0.65501,-0.2567 -0.65501,-0.5754 0,-0.027 0,-0.053 0,-0.097 0,-0.071 -0.0531,-0.1239 -0.12392,-0.1239 -0.11506,0 -0.12392,0.1416 -0.12392,0.2301 0,0.4337 0.44258,0.8143 0.90285,0.8143 h 1.57556 c 0.51338,0 0.9117,-0.4248 0.9117,-0.9117 0,-1.6021 -3.10686,-0.5753 -3.10686,-1.9207 0,-0.3629 0.30095,-0.6639 0.66386,-0.6639 h 1.44279 c 0.17703,0 0.3452,0.071 0.46912,0.1947 l 0.0354,0.035 c 0.0797,0.097 0.15047,0.2479 0.15047,0.363 0,0.018 0,0.044 0,0.08 0,0.062 0.0531,0.1151 0.11507,0.1151 0.0708,0 0.12392,-0.053 0.12392,-0.1151 z"
         style="font-style:normal;font-variant:normal;font-weight:100;font-stretch:normal;line-height:1;font-family:Trench;-inkscape-font-specification:'Trench Thin';fill:#58d3e4;fill-opacity:1;stroke-width:0.44257277"
         id="path918"
         inkscape:connector-curvature="0" />
      <path
         d="m -301.52616,2232.8642 h -0.11507 c -0.062,0 -0.11507,0.053 -0.11507,0.1239 0,0.062 0.0531,0.1151 0.11507,0.1151 h 1.56671 c 0.58419,0 1.11528,0.416 1.2569,0.9825 l 0.0354,0.1416 h -2.27482 c -0.66386,0 -1.19495,0.5311 -1.19495,1.1861 0,0.6638 0.53109,1.1949 1.19495,1.1949 h 0.98251 c 0.82318,0 1.54015,-0.6815 1.54015,-1.5313 v -0.6815 c 0,-0.8498 -0.71697,-1.5313 -1.54015,-1.5313 z m 1.00021,3.5051 h -0.53108 c -0.53109,0 -0.95596,-0.4248 -0.95596,-0.9559 0,-0.5223 0.42487,-0.9471 0.95596,-0.9471 h 2.27482 v 0.6107 c 0,0.6904 -0.57534,1.2923 -1.29231,1.2923 z"
         style="font-style:normal;font-variant:normal;font-weight:100;font-stretch:normal;line-height:1;font-family:Trench;-inkscape-font-specification:'Trench Thin';fill:#58d3e4;fill-opacity:1;stroke-width:0.44257277"
         id="path920"
         inkscape:connector-curvature="0" />
      <path
         d="m -293.87852,2234.3866 v -0.01 c 0,-0.8144 -0.70812,-1.5136 -1.5313,-1.5136 h -0.68156 c -0.83204,0 -1.5136,0.6904 -1.5313,1.5136 v 2.1066 c 0,0.071 0.0531,0.1239 0.12392,0.1239 0.062,0 0.11506,-0.053 0.11506,-0.1239 v -2.1155 c 0.0177,-0.6816 0.6019,-1.2657 1.29232,-1.2657 h 0.68156 c 0.69041,0 1.29231,0.5841 1.29231,1.2923 v 2.0889 c 0,0.071 0.0531,0.1239 0.11507,0.1239 0.0708,0 0.12392,-0.053 0.12392,-0.1239 z"
         style="font-style:normal;font-variant:normal;font-weight:100;font-stretch:normal;line-height:1;font-family:Trench;-inkscape-font-specification:'Trench Thin';fill:#58d3e4;fill-opacity:1;stroke-width:0.44257277"
         id="path922"
         inkscape:connector-curvature="0" />
      <path
         d="m -289.23152,2231.7135 c 0,-0.071 -0.0531,-0.1239 -0.11507,-0.1239 -0.0708,0 -0.12392,0.053 -0.12392,0.1239 v 1.788 l -0.20359,-0.2125 c -0.27439,-0.2832 -0.67271,-0.4425 -1.07102,-0.4425 h -0.66386 c -0.83204,0 -1.5136,0.6904 -1.5136,1.5136 v 0.7346 c 0,0.8321 0.68156,1.5136 1.5136,1.5136 h 0.66386 c 0.83204,0 1.5136,-0.6815 1.5136,-1.5136 z m -0.23899,2.8678 v 0.5134 c 0,0.6993 -0.57535,1.2746 -1.27461,1.2746 h -0.66386 c -0.69927,0 -1.27461,-0.5753 -1.27461,-1.2746 v -0.7346 c 0,-0.6993 0.57534,-1.2747 1.27461,-1.2747 h 0.66386 c 0.67271,0 1.27461,0.5665 1.27461,1.2481 z"
         style="font-style:normal;font-variant:normal;font-weight:100;font-stretch:normal;line-height:1;font-family:Trench;-inkscape-font-specification:'Trench Thin';fill:#58d3e4;fill-opacity:1;stroke-width:0.44257277"
         id="path924"
         inkscape:connector-curvature="0" />
      <path
         d="m -282.92931,2233.7847 c 0,-0.035 0.009,-0.062 0.009,-0.089 0,-0.1859 -0.10622,-0.3983 -0.23899,-0.5399 l -0.0265,-0.027 c -0.16818,-0.1682 -0.39832,-0.2655 -0.63731,-0.2655 h -1.44278 c -0.48683,0 -0.9117,0.3983 -0.9117,0.9117 0,1.0798 1.50474,1.0267 2.27482,1.1772 0.36291,0.071 0.83204,0.2301 0.83204,0.7435 0,0.3629 -0.30095,0.6639 -0.66386,0.6639 h -1.57556 c -0.3098,0 -0.65501,-0.2567 -0.65501,-0.5754 0,-0.026 0,-0.053 0,-0.097 0,-0.071 -0.0531,-0.1239 -0.12392,-0.1239 -0.11507,0 -0.12392,0.1416 -0.12392,0.2301 0,0.4337 0.44257,0.8143 0.90285,0.8143 h 1.57556 c 0.51338,0 0.9117,-0.4248 0.9117,-0.9117 0,-1.6021 -3.10686,-0.5753 -3.10686,-1.9207 0,-0.3629 0.30095,-0.6639 0.66386,-0.6639 h 1.44278 c 0.17703,0 0.34521,0.071 0.46913,0.1947 l 0.0354,0.035 c 0.0797,0.097 0.15047,0.2479 0.15047,0.363 0,0.018 0,0.044 0,0.08 0,0.062 0.0531,0.1151 0.11507,0.1151 0.0708,0 0.12392,-0.053 0.12392,-0.1151 z"
         style="font-style:normal;font-variant:normal;font-weight:100;font-stretch:normal;line-height:1;font-family:Trench;-inkscape-font-specification:'Trench Thin';fill:#58d3e4;fill-opacity:1;stroke-width:0.44257277"
         id="path926"
         inkscape:connector-curvature="0" />
      <path
         d="m -281.68127,2234.6522 v -1.5579 h 1.52245 c 0.0708,0 0.12392,-0.053 0.12392,-0.1239 0,-0.062 -0.0531,-0.1151 -0.12392,-0.1151 h -1.52245 v -1.0799 c 0,-0.062 -0.0531,-0.115 -0.12392,-0.115 -0.062,0 -0.11507,0.053 -0.11507,0.115 v 3.3193 c 0,0.8321 0.68157,1.5136 1.5136,1.5136 h 0.33636 c 0.062,0 0.11507,-0.053 0.11507,-0.115 0,-0.071 -0.0531,-0.124 -0.11507,-0.124 h -0.33636 c -0.69926,0 -1.27461,-0.5753 -1.27461,-1.2746 z"
         style="font-style:normal;font-variant:normal;font-weight:100;font-stretch:normal;line-height:1;font-family:Trench;-inkscape-font-specification:'Trench Thin';fill:#58d3e4;fill-opacity:1;stroke-width:0.44257277"
         id="path928"
         inkscape:connector-curvature="0" />
      <path
         d="m -278.93733,2236.4933 c 0,0.062 0.0531,0.115 0.12392,0.115 0.062,0 0.11507,-0.053 0.11507,-0.115 v -3.461 c 0,-0.071 -0.0531,-0.1239 -0.11507,-0.1239 -0.0708,0 -0.12392,0.053 -0.12392,0.1239 z m 0.12392,-4.6294 c -0.0885,0 -0.15933,0.071 -0.15933,0.1594 0,0.089 0.0708,0.1593 0.15933,0.1593 0.0885,0 0.15933,-0.071 0.15933,-0.1593 0,-0.088 -0.0708,-0.1594 -0.15933,-0.1594 z"
         style="font-style:normal;font-variant:normal;font-weight:100;font-stretch:normal;line-height:1;font-family:Trench;-inkscape-font-specification:'Trench Thin';fill:#58d3e4;fill-opacity:1;stroke-width:0.44257277"
         id="path930"
         inkscape:connector-curvature="0" />
      <path
         d="m -271.01529,2234.3866 v -0.01 c -0.0177,-0.8321 -0.70812,-1.5136 -1.5313,-1.5136 h -0.31866 c -0.53993,0 -1.00906,0.2744 -1.31886,0.7435 l -0.0974,0.1682 -0.0974,-0.1682 c -0.2744,-0.4691 -0.78778,-0.7435 -1.31002,-0.7435 h -0.31865 c -0.83204,0 -1.5136,0.6904 -1.5313,1.5136 v 2.1066 c 0,0.071 0.0531,0.1239 0.12392,0.1239 0.062,0 0.11507,-0.053 0.11507,-0.1239 v -2.1155 c 0.0177,-0.6904 0.61075,-1.2657 1.29231,-1.2657 h 0.31865 c 0.69041,0 1.29231,0.5841 1.29231,1.2923 v 2.0889 c 0,0.071 0.0531,0.1239 0.11507,0.1239 0.0708,0 0.12392,-0.053 0.12392,-0.1239 v -2.1155 c 0.0177,-0.6727 0.5842,-1.2657 1.29231,-1.2657 h 0.31866 c 0.68156,0 1.28346,0.5753 1.28346,1.2923 v 2.0889 c 0,0.071 0.062,0.1239 0.12392,0.1239 0.0708,0 0.12392,-0.053 0.12392,-0.1239 z"
         style="font-style:normal;font-variant:normal;font-weight:100;font-stretch:normal;line-height:1;font-family:Trench;-inkscape-font-specification:'Trench Thin';fill:#58d3e4;fill-opacity:1;stroke-width:0.44257277"
         id="path932"
         inkscape:connector-curvature="0" />
      <path
         d="m -270.23637,2235.0859 v 0.01 c 0.0177,0.8232 0.69926,1.5136 1.5313,1.5136 h 0.31865 c 0.83204,0 1.5136,-0.6904 1.5313,-1.5136 v -2.1066 c 0,-0.071 -0.0531,-0.1239 -0.12392,-0.1239 -0.062,0 -0.11507,0.053 -0.11507,0.1239 v 2.0889 c 0,0.6993 -0.59304,1.2923 -1.29231,1.2923 h -0.31865 c -0.68156,0 -1.27461,-0.5665 -1.29231,-1.2746 v -2.1066 c 0,-0.071 -0.0531,-0.1239 -0.11507,-0.1239 -0.0708,0 -0.12392,0.053 -0.12392,0.1239 z"
         style="font-style:normal;font-variant:normal;font-weight:100;font-stretch:normal;line-height:1;font-family:Trench;-inkscape-font-specification:'Trench Thin';fill:#58d3e4;fill-opacity:1;stroke-width:0.44257277"
         id="path934"
         inkscape:connector-curvature="0" />
      <path
         d="m -266.08504,2236.4933 c 0,0.062 0.0531,0.115 0.11507,0.115 0.0708,0 0.12392,-0.053 0.12392,-0.115 v -4.7179 c 0,-0.062 -0.0531,-0.115 -0.12392,-0.115 -0.062,0 -0.11507,0.053 -0.11507,0.115 z"
         style="font-style:normal;font-variant:normal;font-weight:100;font-stretch:normal;line-height:1;font-family:Trench;-inkscape-font-specification:'Trench Thin';fill:#58d3e4;fill-opacity:1;stroke-width:0.44257277"
         id="path936"
         inkscape:connector-curvature="0" />
      <path
         d="m -264.63341,2236.4933 c 0,0.062 0.0531,0.115 0.12392,0.115 0.062,0 0.11507,-0.053 0.11507,-0.115 v -3.461 c 0,-0.071 -0.0531,-0.1239 -0.11507,-0.1239 -0.0708,0 -0.12392,0.053 -0.12392,0.1239 z m 0.12392,-4.6294 c -0.0885,0 -0.15932,0.071 -0.15932,0.1594 0,0.089 0.0708,0.1593 0.15932,0.1593 0.0885,0 0.15933,-0.071 0.15933,-0.1593 0,-0.088 -0.0708,-0.1594 -0.15933,-0.1594 z"
         style="font-style:normal;font-variant:normal;font-weight:100;font-stretch:normal;line-height:1;font-family:Trench;-inkscape-font-specification:'Trench Thin';fill:#58d3e4;fill-opacity:1;stroke-width:0.44257277"
         id="path938"
         inkscape:connector-curvature="0" />
      <path
         d="m -257.57882,2231.7135 c 0,-0.071 -0.0531,-0.1239 -0.11507,-0.1239 -0.0708,0 -0.12392,0.053 -0.12392,0.1239 v 1.788 l -0.20358,-0.2125 c -0.2744,-0.2832 -0.67272,-0.4425 -1.07103,-0.4425 h -0.66386 c -0.83204,0 -1.5136,0.6904 -1.5136,1.5136 v 0.7346 c 0,0.8321 0.68156,1.5136 1.5136,1.5136 h 0.66386 c 0.83204,0 1.5136,-0.6815 1.5136,-1.5136 z m -0.23899,2.8678 v 0.5134 c 0,0.6993 -0.57535,1.2746 -1.27461,1.2746 h -0.66386 c -0.69926,0 -1.27461,-0.5753 -1.27461,-1.2746 v -0.7346 c 0,-0.6993 0.57535,-1.2747 1.27461,-1.2747 h 0.66386 c 0.67271,0 1.27461,0.5665 1.27461,1.2481 z"
         style="font-style:normal;font-variant:normal;font-weight:100;font-stretch:normal;line-height:1;font-family:Trench;-inkscape-font-specification:'Trench Thin';fill:#58d3e4;fill-opacity:1;stroke-width:0.44257277"
         id="path940"
         inkscape:connector-curvature="0" />
      <path
         d="m -256.33077,2235.2364 h 3.33699 c 0.11507,0 0.21244,-0.097 0.21244,-0.2213 v -0.6196 c 0,-0.8321 -0.69926,-1.5313 -1.5313,-1.5313 h -0.68156 c -0.83204,0 -1.53131,0.6992 -1.53131,1.5313 v 0.6107 c 0,0.8498 0.63731,1.6021 1.53131,1.6021 h 1.64637 c 0.062,0 0.11507,-0.053 0.11507,-0.1239 0,-0.062 -0.0531,-0.1151 -0.11507,-0.1151 h -1.64637 c -0.49568,0 -0.97366,-0.3009 -1.17725,-0.77 z m 3.31044,-0.239 h -3.26619 v -0.6019 c 0,-0.7082 0.6019,-1.2923 1.29232,-1.2923 h 0.68156 c 0.69926,0 1.29231,0.593 1.29231,1.2923 z"
         style="font-style:normal;font-variant:normal;font-weight:100;font-stretch:normal;line-height:1;font-family:Trench;-inkscape-font-specification:'Trench Thin';fill:#58d3e4;fill-opacity:1;stroke-width:0.44257277"
         id="path942"
         inkscape:connector-curvature="0" />
      <path
         d="m -251.86965,2236.4933 c 0,0.062 0.0531,0.115 0.11507,0.115 0.0708,0 0.12392,-0.053 0.12392,-0.115 v -4.7179 c 0,-0.062 -0.0531,-0.115 -0.12392,-0.115 -0.062,0 -0.11507,0.053 -0.11507,0.115 z"
         style="font-style:normal;font-variant:normal;font-weight:100;font-stretch:normal;line-height:1;font-family:Trench;-inkscape-font-specification:'Trench Thin';fill:#58d3e4;fill-opacity:1;stroke-width:0.44257277"
         id="path944"
         inkscape:connector-curvature="0" />
      <path
         d="m -250.41801,2236.4933 c 0,0.062 0.0531,0.115 0.12392,0.115 0.062,0 0.11507,-0.053 0.11507,-0.115 v -3.461 c 0,-0.071 -0.0531,-0.1239 -0.11507,-0.1239 -0.0708,0 -0.12392,0.053 -0.12392,0.1239 z m 0.12392,-4.6294 c -0.0885,0 -0.15933,0.071 -0.15933,0.1594 0,0.089 0.0708,0.1593 0.15933,0.1593 0.0885,0 0.15932,-0.071 0.15932,-0.1593 0,-0.088 -0.0708,-0.1594 -0.15932,-0.1594 z"
         style="font-style:normal;font-variant:normal;font-weight:100;font-stretch:normal;line-height:1;font-family:Trench;-inkscape-font-specification:'Trench Thin';fill:#58d3e4;fill-opacity:1;stroke-width:0.44257277"
         id="path946"
         inkscape:connector-curvature="0" />
      <path
         d="m -247.96617,2236.1658 c 0.11507,0.2655 0.36291,0.4425 0.66386,0.4425 0.28325,0 0.53994,-0.1593 0.65501,-0.4425 l 1.31886,-3.1512 c 0.009,-0.01 0.009,-0.026 0.009,-0.044 0,-0.062 -0.0531,-0.1062 -0.11506,-0.1062 -0.0354,0 -0.0797,0.026 -0.0885,0.062 l -1.31887,3.16 c -0.0885,0.1859 -0.25669,0.3009 -0.46027,0.3009 -0.22129,0 -0.38061,-0.115 -0.46028,-0.3009 l -1.31886,-3.16 c -0.0177,-0.035 -0.062,-0.062 -0.0974,-0.062 -0.0708,0 -0.11507,0.053 -0.11507,0.1062 0,0.018 0,0.035 0.009,0.044 z"
         style="font-style:normal;font-variant:normal;font-weight:100;font-stretch:normal;line-height:1;font-family:Trench;-inkscape-font-specification:'Trench Thin';fill:#58d3e4;fill-opacity:1;stroke-width:0.44257277"
         id="path948"
         inkscape:connector-curvature="0" />
      <path
         d="m -244.58493,2235.2364 h 3.337 c 0.11507,0 0.21243,-0.097 0.21243,-0.2213 v -0.6196 c 0,-0.8321 -0.69926,-1.5313 -1.5313,-1.5313 h -0.68156 c -0.83204,0 -1.5313,0.6992 -1.5313,1.5313 v 0.6107 c 0,0.8498 0.6373,1.6021 1.5313,1.6021 h 1.64637 c 0.062,0 0.11507,-0.053 0.11507,-0.1239 0,-0.062 -0.0531,-0.1151 -0.11507,-0.1151 h -1.64637 c -0.49568,0 -0.97366,-0.3009 -1.17724,-0.77 z m 3.31044,-0.239 h -3.26618 v -0.6019 c 0,-0.7082 0.6019,-1.2923 1.29231,-1.2923 h 0.68156 c 0.69927,0 1.29231,0.593 1.29231,1.2923 z"
         style="font-style:normal;font-variant:normal;font-weight:100;font-stretch:normal;line-height:1;font-family:Trench;-inkscape-font-specification:'Trench Thin';fill:#58d3e4;fill-opacity:1;stroke-width:0.44257277"
         id="path950"
         inkscape:connector-curvature="0" />
      <path
         d="m -240.12381,2234.3866 v 2.0978 c 0,0.071 0.0531,0.1239 0.12392,0.1239 0.062,0 0.11507,-0.053 0.11507,-0.1239 v -2.1155 c 0.0177,-0.6904 0.61075,-1.2657 1.29232,-1.2657 h 0.47797 c 0.33636,0 0.66386,0.1416 0.9117,0.3806 0.0266,0.026 0.0531,0.035 0.0885,0.035 0.062,0 0.11507,-0.053 0.11507,-0.124 0,-0.026 -0.009,-0.062 -0.0354,-0.08 -0.28325,-0.2921 -0.67271,-0.4514 -1.07988,-0.4514 h -0.47797 c -0.83204,0 -1.5136,0.6904 -1.53131,1.5136 z"
         style="font-style:normal;font-variant:normal;font-weight:100;font-stretch:normal;line-height:1;font-family:Trench;-inkscape-font-specification:'Trench Thin';fill:#58d3e4;fill-opacity:1;stroke-width:0.44257277"
         id="path952"
         inkscape:connector-curvature="0" />
      <path
         d="m -233.09577,2232.9792 v -0.018 -0.018 l -0.009,-0.01 -0.009,-0.01 -0.009,-0.018 -0.009,-0.01 -0.009,-0.01 -0.009,-0.01 -0.0177,-0.01 -0.009,-0.01 h -0.0177 -0.0177 -0.0177 -0.0177 l -0.0177,0.01 -0.0177,0.01 -0.0177,0.018 -0.009,0.018 -0.009,0.01 -0.009,0.018 v 0.018 l -0.009,0.01 v 1.3985 c 0,0.6904 -0.57534,1.2658 -1.26576,1.2658 -0.69041,0 -1.26575,-0.5754 -1.26575,-1.2658 v -1.3897 c 0,-0.062 -0.0531,-0.115 -0.12392,-0.115 -0.062,0 -0.11507,0.053 -0.11507,0.115 v 1.3897 c 0,0.8143 0.69041,1.5048 1.50474,1.5048 0.39832,0 0.77893,-0.1594 1.06218,-0.4426 l 0.20358,-0.2036 v 1.5933 c 0,0.6904 -0.57534,1.2657 -1.26576,1.2657 h -0.33635 c -0.062,0 -0.11507,0.053 -0.11507,0.1239 0,0.062 0.0531,0.1151 0.11507,0.1151 h 0.33635 c 0.81434,0 1.50475,-0.6904 1.50475,-1.5047 z"
         style="font-style:normal;font-variant:normal;font-weight:100;font-stretch:normal;line-height:1;font-family:Trench;-inkscape-font-specification:'Trench Thin';fill:#58d3e4;fill-opacity:1;stroke-width:0.44257277"
         id="path954"
         inkscape:connector-curvature="0" />
      <path
         d="m -230.03319,2233.6165 v 2.8768 c 0,0.062 0.0531,0.115 0.11507,0.115 0.0708,0 0.12392,-0.053 0.12392,-0.115 v -1.2392 h 1.52245 c 0.0708,0 0.12392,-0.053 0.12392,-0.1151 0,-0.071 -0.0531,-0.1239 -0.12392,-0.1239 h -1.52245 v -1.8411 c 0,-0.7082 0.57535,-1.2746 1.27461,-1.2746 h 0.33636 c 0.062,0 0.11506,-0.053 0.11506,-0.124 0,-0.062 -0.0531,-0.115 -0.11506,-0.115 h -0.33636 c -0.83204,0 -1.5136,0.6815 -1.5136,1.5136 z"
         style="font-style:normal;font-variant:normal;font-weight:100;font-stretch:normal;line-height:1;font-family:Trench;-inkscape-font-specification:'Trench Thin';fill:#58d3e4;fill-opacity:1;stroke-width:0.44257277"
         id="path956"
         inkscape:connector-curvature="0" />
      <path
         d="m -225.62518,2232.8642 c -0.83203,0 -1.5313,0.6992 -1.5313,1.5313 v 0.6815 c 0,0.8321 0.69927,1.5313 1.5313,1.5313 h 0.68156 c 0.83204,0 1.53131,-0.6992 1.53131,-1.5313 v -0.6815 c 0,-0.8321 -0.69927,-1.5313 -1.53131,-1.5313 z m 0.68156,0.239 c 0.69042,0 1.29232,0.5841 1.29232,1.2923 v 0.6815 c 0,0.6993 -0.59305,1.2923 -1.29232,1.2923 h -0.68156 c -0.69926,0 -1.29231,-0.6019 -1.29231,-1.2923 v -0.6815 c 0,-0.717 0.61075,-1.2923 1.29231,-1.2923 z"
         style="font-style:normal;font-variant:normal;font-weight:100;font-stretch:normal;line-height:1;font-family:Trench;-inkscape-font-specification:'Trench Thin';fill:#58d3e4;fill-opacity:1;stroke-width:0.44257277"
         id="path958"
         inkscape:connector-curvature="0" />
      <path
         d="m -222.50062,2234.3866 v 2.0978 c 0,0.071 0.0531,0.1239 0.12392,0.1239 0.062,0 0.11507,-0.053 0.11507,-0.1239 v -2.1155 c 0.0177,-0.6904 0.61075,-1.2657 1.29231,-1.2657 h 0.47798 c 0.33636,0 0.66386,0.1416 0.9117,0.3806 0.0266,0.026 0.0531,0.035 0.0885,0.035 0.062,0 0.11507,-0.053 0.11507,-0.124 0,-0.026 -0.009,-0.062 -0.0354,-0.08 -0.28325,-0.2921 -0.67271,-0.4514 -1.07988,-0.4514 h -0.47798 c -0.83203,0 -1.5136,0.6904 -1.5313,1.5136 z"
         style="font-style:normal;font-variant:normal;font-weight:100;font-stretch:normal;line-height:1;font-family:Trench;-inkscape-font-specification:'Trench Thin';fill:#58d3e4;fill-opacity:1;stroke-width:0.44257277"
         id="path960"
         inkscape:connector-curvature="0" />
      <path
         d="m -214.43698,2231.6604 c -1.13298,0 -2.08009,0.9471 -2.08009,2.0801 v 0.7877 c 0,1.133 0.93826,2.0801 2.08009,2.0801 h 0.97366 c 1.11529,0 2.0801,-0.9382 2.0801,-2.0801 v -0.7877 c 0,-1.133 -0.94711,-2.0801 -2.0801,-2.0801 z m -1.8411,2.0801 c 0,-1.0091 0.83204,-1.8411 1.8411,-1.8411 h 0.97366 c 1.00022,0 1.84111,0.832 1.84111,1.8411 v 0.7877 c 0,1.0091 -0.84089,1.8411 -1.84111,1.8411 h -0.97366 c -1.00906,0 -1.8411,-0.832 -1.8411,-1.8411 z"
         style="font-style:normal;font-variant:normal;font-weight:100;font-stretch:normal;line-height:1;font-family:Trench;-inkscape-font-specification:'Trench Thin';fill:#58d3e4;fill-opacity:1;stroke-width:0.44257277"
         id="path962"
         inkscape:connector-curvature="0" />
      <path
         d="m -210.43613,2238.2813 c 0,0.062 0.0531,0.115 0.11506,0.115 0.0708,0 0.12392,-0.053 0.12392,-0.115 v -2.3191 l 0.20359,0.2036 c 0.28324,0.2832 0.66386,0.4425 1.06217,0.4425 h 0.66386 c 0.81434,0 1.50475,-0.6904 1.50475,-1.5047 v -0.7347 c 0,-0.8143 -0.69041,-1.5047 -1.50475,-1.5047 h -0.66386 c -0.81433,0 -1.50474,0.6904 -1.50474,1.5047 z m 0.23898,-3.399 v -0.5134 c 0,-0.6904 0.57535,-1.2657 1.26576,-1.2657 h 0.66386 c 0.69042,0 1.26576,0.5753 1.26576,1.2657 v 0.7347 c 0,0.6904 -0.57534,1.2657 -1.26576,1.2657 h -0.66386 c -0.66386,0 -1.26576,-0.5576 -1.26576,-1.2392 z"
         style="font-style:normal;font-variant:normal;font-weight:100;font-stretch:normal;line-height:1;font-family:Trench;-inkscape-font-specification:'Trench Thin';fill:#58d3e4;fill-opacity:1;stroke-width:0.44257277"
         id="path964"
         inkscape:connector-curvature="0" />
      <path
         d="m -205.58554,2235.2364 h 3.337 c 0.11507,0 0.21243,-0.097 0.21243,-0.2213 v -0.6196 c 0,-0.8321 -0.69926,-1.5313 -1.5313,-1.5313 h -0.68156 c -0.83204,0 -1.5313,0.6992 -1.5313,1.5313 v 0.6107 c 0,0.8498 0.6373,1.6021 1.5313,1.6021 h 1.64637 c 0.062,0 0.11507,-0.053 0.11507,-0.1239 0,-0.062 -0.0531,-0.1151 -0.11507,-0.1151 h -1.64637 c -0.49568,0 -0.97366,-0.3009 -1.17725,-0.77 z m 3.31044,-0.239 h -3.26618 v -0.6019 c 0,-0.7082 0.60189,-1.2923 1.29231,-1.2923 h 0.68156 c 0.69926,0 1.29231,0.593 1.29231,1.2923 z"
         style="font-style:normal;font-variant:normal;font-weight:100;font-stretch:normal;line-height:1;font-family:Trench;-inkscape-font-specification:'Trench Thin';fill:#58d3e4;fill-opacity:1;stroke-width:0.44257277"
         id="path966"
         inkscape:connector-curvature="0" />
      <path
         d="m -197.38026,2234.3866 v -0.01 c 0,-0.8144 -0.70811,-1.5136 -1.5313,-1.5136 h -0.68156 c -0.83204,0 -1.5136,0.6904 -1.5313,1.5136 v 2.1066 c 0,0.071 0.0531,0.1239 0.12392,0.1239 0.062,0 0.11507,-0.053 0.11507,-0.1239 v -2.1155 c 0.0177,-0.6816 0.6019,-1.2657 1.29231,-1.2657 h 0.68156 c 0.69042,0 1.29232,0.5841 1.29232,1.2923 v 2.0889 c 0,0.071 0.0531,0.1239 0.11506,0.1239 0.0708,0 0.12392,-0.053 0.12392,-0.1239 z"
         style="font-style:normal;font-variant:normal;font-weight:100;font-stretch:normal;line-height:1;font-family:Trench;-inkscape-font-specification:'Trench Thin';fill:#58d3e4;fill-opacity:1;stroke-width:0.44257277"
         id="path968"
         inkscape:connector-curvature="0" />
      <path
         d="m -193.00765,2231.9259 c -0.18588,-0.1682 -0.43372,-0.2655 -0.68156,-0.2655 h -1.73488 c -0.2567,0 -0.49569,0.097 -0.68157,0.2655 l -0.0265,0.027 c -0.18588,0.1858 -0.2921,0.4425 -0.2921,0.7081 v 2.9475 c 0,0.2656 0.10622,0.5222 0.2921,0.7081 l 0.0265,0.027 c 0.18588,0.1682 0.42487,0.2655 0.68157,0.2655 h 1.73488 c 0.86744,0 1.59326,-0.7258 1.59326,-1.5932 0,-0.5931 -0.33635,-1.1507 -0.90285,-1.434 l -0.14162,-0.071 0.11507,-0.1151 c 0.23014,-0.115 0.33635,-0.5133 0.33635,-0.7346 0,-0.2656 -0.10621,-0.5223 -0.30094,-0.7081 z m -2.87672,4.3018 -0.0797,-0.08 c -0.14163,-0.1417 -0.22129,-0.3364 -0.22129,-0.54 v -1.9473 h 2.50496 c 0.73467,0 1.34542,0.6196 1.34542,1.3543 0,0.7523 -0.6373,1.3542 -1.35427,1.3542 h -1.73488 c -0.16818,0 -0.32751,-0.053 -0.46028,-0.1504 z m 0,-4.1779 c 0.13277,-0.097 0.2921,-0.1504 0.46028,-0.1504 h 1.73488 c 0.15933,0 0.31865,0.053 0.45142,0.1504 l 0.009,-0.01 0.0797,0.08 c 0.14162,0.1417 0.22129,0.3364 0.22129,0.54 0,0.4248 -0.34521,0.7612 -0.75238,0.7612 h -2.50496 v -0.7612 c 0,-0.2036 0.0797,-0.3983 0.22129,-0.54 l 0.0797,-0.08 z"
         style="font-style:normal;font-variant:normal;font-weight:100;font-stretch:normal;line-height:1;font-family:Trench;-inkscape-font-specification:'Trench Thin';fill:#58d3e4;fill-opacity:1;stroke-width:0.44257277"
         id="path970"
         inkscape:connector-curvature="0" />
      <path
         d="m -189.21037,2231.6604 c -1.13299,0 -2.0801,0.9471 -2.0801,2.0801 v 0.7877 c 0,1.133 0.93826,2.0801 2.0801,2.0801 h 1.74373 c 0.0708,0 0.12392,-0.053 0.12392,-0.115 0,-0.071 -0.0531,-0.124 -0.12392,-0.124 h -1.74373 c -1.00907,0 -1.84111,-0.832 -1.84111,-1.8411 v -0.7877 c 0,-1.0091 0.83204,-1.8411 1.84111,-1.8411 h 1.74373 c 0.0708,0 0.12392,-0.053 0.12392,-0.124 0,-0.062 -0.0531,-0.115 -0.12392,-0.115 z"
         style="font-style:normal;font-variant:normal;font-weight:100;font-stretch:normal;line-height:1;font-family:Trench;-inkscape-font-specification:'Trench Thin';fill:#58d3e4;fill-opacity:1;stroke-width:0.44257277"
         id="path972"
         inkscape:connector-curvature="0" />
      <path
         d="m -186.25399,2231.7754 c 0,-0.062 -0.0531,-0.115 -0.12392,-0.115 -0.062,0 -0.11507,0.053 -0.11507,0.115 v 4.7179 c 0,0.062 0.0531,0.115 0.11507,0.115 0.0708,0 0.12392,-0.053 0.12392,-0.115 z"
         style="font-style:normal;font-variant:normal;font-weight:100;font-stretch:normal;line-height:1;font-family:Trench;-inkscape-font-specification:'Trench Thin';fill:#58d3e4;fill-opacity:1;stroke-width:0.44257277"
         id="path974"
         inkscape:connector-curvature="0" />
      <path
         d="m -184.79351,2236.1303 c -0.13277,0 -0.23899,0.1063 -0.23899,0.239 0,0.1328 0.10622,0.239 0.23899,0.239 0.13277,0 0.23899,-0.1062 0.23899,-0.239 0,-0.1327 -0.10622,-0.239 -0.23899,-0.239 z"
         style="font-style:normal;font-variant:normal;font-weight:100;font-stretch:normal;line-height:1;font-family:Trench;-inkscape-font-specification:'Trench Thin';fill:#58d3e4;fill-opacity:1;stroke-width:0.44257277"
         id="path976"
         inkscape:connector-curvature="0" />
    </g>
    <path
       style="opacity:1;fill:#58d3e4;fill-opacity:1;stroke:none;stroke-width:0.14078294;stroke-linecap:square;stroke-linejoin:miter;stroke-miterlimit:4;stroke-dasharray:none;stroke-dashoffset:0;stroke-opacity:1;paint-order:fill markers stroke"
       d="m -302.25192,2219.9685 h 144.225 v 0.8489 h -144.225 z"
       id="rect882"
       inkscape:connector-curvature="0" />
  </g>
</svg>
