<?xml version="1.0" encoding="UTF-8" standalone="no"?>
<!-- Created with Inkscape (http://www.inkscape.org/) -->

<svg
   xmlns:dc="http://purl.org/dc/elements/1.1/"
   xmlns:cc="http://creativecommons.org/ns#"
   xmlns:rdf="http://www.w3.org/1999/02/22-rdf-syntax-ns#"
   xmlns:svg="http://www.w3.org/2000/svg"
   xmlns="http://www.w3.org/2000/svg"
   xmlns:sodipodi="http://sodipodi.sourceforge.net/DTD/sodipodi-0.dtd"
   xmlns:inkscape="http://www.inkscape.org/namespaces/inkscape"
   width="657.33008"
   height="231.81691"
   viewBox="0 0 173.91858 61.334892"
   version="1.1"
   id="svg8"
   inkscape:version="0.92.4 5da689c313, 2019-01-14"
   sodipodi:docname="splash.svg"
   inkscape:export-filename="/home/yeison/Development/gcpds/eeg-framework/assets/splash.png"
   inkscape:export-xdpi="96"
   inkscape:export-ydpi="96">
  <defs
     id="defs2" />
  <sodipodi:namedview
     id="base"
     pagecolor="#ffffff"
     bordercolor="#666666"
     borderopacity="1.0"
     inkscape:pageopacity="0.0"
     inkscape:pageshadow="2"
     inkscape:zoom="0.95000001"
     inkscape:cx="451.79854"
     inkscape:cy="-86.505342"
     inkscape:document-units="px"
     inkscape:current-layer="layer1"
     showgrid="false"
     inkscape:window-width="1920"
     inkscape:window-height="1004"
     inkscape:window-x="0"
     inkscape:window-y="0"
     inkscape:window-maximized="1"
     units="px"
     inkscape:showpageshadow="false"
     showguides="true"
     inkscape:snap-bbox="true"
     inkscape:bbox-paths="true"
     inkscape:bbox-nodes="true"
     inkscape:snap-bbox-midpoints="true"
     inkscape:snap-bbox-edge-midpoints="true"
     inkscape:object-paths="true"
     inkscape:snap-intersection-paths="true"
     inkscape:snap-midpoints="true"
     inkscape:snap-smooth-nodes="true"
     inkscape:snap-object-midpoints="true"
     inkscape:snap-center="true"
     fit-margin-top="0"
     fit-margin-left="0"
     fit-margin-right="0"
     fit-margin-bottom="0"
     inkscape:snap-global="true" />
  <metadata
     id="metadata5">
    <rdf:RDF>
      <cc:Work
         rdf:about="">
        <dc:format>image/svg+xml</dc:format>
        <dc:type
           rdf:resource="http://purl.org/dc/dcmitype/StillImage" />
        <dc:title></dc:title>
      </cc:Work>
    </rdf:RDF>
  </metadata>
  <g
     inkscape:label="Capa 1"
     inkscape:groupmode="layer"
     id="layer1"
     transform="translate(318.21275,-2100.4602)">
    <circle
       cy="139.7252"
       cx="-591.70111"
       id="circle1545"
       style="opacity:0.67299996;fill:#aaaaff;fill-opacity:0.30136988;stroke:#000000;stroke-width:0.30404934;stroke-miterlimit:4;stroke-dasharray:none;stroke-opacity:1"
       r="0" />
    <circle
       r="0"
       style="opacity:0.67299996;fill:#aaaaff;fill-opacity:0.30136988;stroke:#000000;stroke-width:0.30404934;stroke-miterlimit:4;stroke-dasharray:none;stroke-opacity:1"
       id="ellipse1617"
       cx="-993.51282"
       cy="168.13614" />
    <circle
       r="0"
       cy="733.2077"
       cx="-958.14404"
       id="ellipse1906"
       style="opacity:0.67299996;fill:none;fill-opacity:0.30136988;stroke:#000000;stroke-width:0.79374999;stroke-miterlimit:4;stroke-dasharray:none;stroke-opacity:1" />
    <circle
       r="0"
       cy="582.33099"
       cx="-1500.9722"
       id="ellipse1926"
       style="opacity:0.67299996;fill:none;fill-opacity:0.30136988;stroke:#000000;stroke-width:0.79374999;stroke-miterlimit:4;stroke-dasharray:none;stroke-opacity:1" />
    <circle
       r="0"
       cy="255.9781"
       cx="-958.14404"
       id="ellipse1946"
       style="opacity:0.67299996;fill:none;fill-opacity:0.30136988;stroke:#000000;stroke-width:0.79374999;stroke-miterlimit:4;stroke-dasharray:none;stroke-opacity:1" />
    <g
       id="g898">
      <path
         inkscape:connector-curvature="0"
         id="rect857"
         d="m -316.80404,2100.5263 c -0.74386,0 -1.34256,0.5987 -1.34256,1.3426 v 18.8737 c 3.05248,2.9182 7.18739,4.714 11.74451,4.714 9.39102,0 17,-7.6111 16.99999,-17.0021 1e-5,-2.8644 -0.71125,-5.5608 -1.96164,-7.9282 z m 25.73744,0 c 1.2306,2.3749 1.93012,5.0692 1.93012,7.9282 1e-5,9.534 -7.7316,17.2656 -17.26561,17.2656 -4.53662,0 -8.66289,-1.7528 -11.74451,-4.6152 v 14.379 c 1.99163,-0.8022 4.16512,-1.248 6.44354,-1.248 9.53401,0 17.26769,7.7316 17.26768,17.2656 0,3.8281 -1.24888,7.3641 -3.35845,10.2273 h 14.4172 c -6.26909,-0.8912 -11.0939,-6.279 -11.09389,-12.7936 -10e-6,-4.4514 2.39405,-8.1849 5.82031,-10.5099 -0.22556,-1.3698 -0.42219,-2.7518 -0.42219,-4.1853 0,-8.7687 4.40804,-16.4921 11.1094,-21.1351 -3.30067,-2.3422 -5.59347,-6.005 -5.59346,-10.3591 0,-0.7572 0.0688,-1.498 0.19379,-2.2195 z m 7.97161,0 c -0.1275,0.721 -0.19792,1.4618 -0.19792,2.2195 0,4.2929 2.27287,7.898 5.5392,10.1875 4.10996,-2.7839 9.06505,-4.4121 14.40222,-4.4121 1.22352,0 2.39439,0.1939 3.57239,0.3591 1.04816,-1.8437 1.80867,-3.8614 1.80867,-6.1345 1e-5,-0.7577 -0.0705,-1.4985 -0.19792,-2.2195 z m 25.19588,0 c 0.12499,0.7215 0.1943,1.4623 0.1943,2.2195 0,2.2771 -0.74701,4.3056 -1.78128,6.164 12.35566,1.8773 21.8555,12.4509 21.85551,25.3302 0,1.3573 -0.19786,2.6621 -0.40049,3.9626 1.99974,-1.2688 4.23442,-2.1932 6.77736,-2.1932 6.68925,0 12.12979,5.1028 12.79457,11.6169 0.15044,-2.938 0.72563,-5.7605 1.78128,-8.3571 -6.22042,-2.6108 -10.59367,-8.7544 -10.59367,-15.9221 0,-1.8306 0.36275,-3.5609 0.89091,-5.2167 -10.01502,-1.2851 -18.25047,-8.2577 -21.2416,-17.6041 z m 10.55542,0 c 2.98541,9.2249 11.13693,16.0941 21.04317,17.3462 2.29922,-6.8346 8.68605,-11.791 16.29461,-11.791 2.63515,0 5.10554,0.6374 7.34012,1.6935 1.60941,-2.1843 2.8903,-4.623 3.75584,-7.2487 z m 48.71124,0 c -0.87053,2.6719 -2.1667,5.1539 -3.79925,7.3758 5.68506,2.7961 9.63192,8.5732 9.67951,15.3241 2.9882,0.014 5.81554,0.6211 8.48063,1.572 -1.31663,-3.092 -2.05053,-6.4922 -2.05053,-10.0645 0,-5.2726 1.59766,-10.1513 4.32739,-14.2074 z m 16.94419,0 c -2.75573,4.046 -4.37027,8.9294 -4.37028,14.2074 0,3.623 0.78271,7.0563 2.14664,10.1761 6.4888,2.4233 11.73849,7.3338 14.5309,13.6328 0.33404,0.1233 0.68531,0.2066 1.02578,0.3162 2.18169,-1.6811 4.7872,-2.8494 7.75353,-2.8494 2.96673,0 5.57013,1.1701 7.75198,2.8515 3.13586,-1.0084 6.00935,-2.6004 8.4894,-4.6462 v -32.3458 c 0,-0.7439 -0.59869,-1.3426 -1.34255,-1.3426 h -2.05259 c 0.0511,0.4645 0.0796,0.9362 0.0796,1.4149 0,7.1373 -5.7885,12.9253 -12.92582,12.9253 -7.13731,0 -12.92738,-5.788 -12.92738,-12.9253 0,-0.4787 0.0285,-0.9504 0.0796,-1.4149 z m 8.50594,0 c -0.0517,0.4647 -0.0811,0.9364 -0.0811,1.4149 0,6.9943 5.66744,12.6618 12.66176,12.6618 6.99433,0 12.66021,-5.6675 12.66021,-12.6618 0,-0.4785 -0.0295,-0.9502 -0.0811,-1.4149 z m -36.82359,5.8208 c -7.47362,0 -13.74776,4.8513 -16.02745,11.5528 0.97071,0.1123 1.92144,0.2951 2.9223,0.2951 8.31732,0 15.63024,-4.0469 20.27525,-10.2149 -2.18485,-1.0216 -4.59845,-1.633 -7.1701,-1.633 z m 7.4042,1.7596 c -4.69246,6.2499 -12.09351,10.3518 -20.50935,10.3518 -1.0282,0 -2.0057,-0.1854 -3.0024,-0.3028 -0.53102,1.6463 -0.89245,3.3682 -0.89245,5.1914 -1e-5,7.052 4.29242,13.0988 10.4066,15.674 3.86466,-9.2377 12.95895,-15.7328 23.58358,-15.7928 -0.047,-6.6722 -3.9571,-12.3801 -9.58598,-15.1216 z m -60.74978,0.678 c -5.24478,0 -10.114,1.5922 -14.16399,4.3103 2.00917,1.341 4.28725,2.3105 6.88485,2.3105 4.61371,0 8.47204,-2.591 10.68513,-6.2771 -1.12508,-0.152 -2.2392,-0.3437 -3.40599,-0.3437 z m 3.69745,0.3731 c -2.24582,3.8221 -6.22424,6.5133 -10.97659,6.5133 -2.68489,1e-4 -5.03865,-1.0119 -7.10551,-2.4138 -6.67919,4.5879 -11.07064,12.266 -11.07064,20.9827 0,1.3762 0.19447,2.7003 0.40462,4.0173 2.01687,-1.3012 4.28102,-2.2479 6.85901,-2.2479 7.13725,0 12.92584,5.7886 12.92583,12.9258 1e-5,3.5287 -1.43105,6.7137 -3.72432,9.0465 2.80399,1.0627 5.81337,1.7151 8.99015,1.7151 7.78904,0 14.67289,-3.5721 19.34197,-9.0821 -0.0729,-0.5557 -0.17002,-1.1039 -0.17002,-1.6795 0,-4.4707 2.41197,-8.2197 5.86321,-10.5409 0.22441,-1.3594 0.42013,-2.7312 0.42013,-4.1543 0,-12.7937 -9.4654,-23.2787 -21.75784,-25.0822 z m 66.63469,14.334 c -10.5056,0.062 -19.50091,6.4736 -23.33036,15.6017 1.96342,0.7917 4.09653,1.2516 6.3438,1.2516 9.34016,0 16.90476,-7.5325 16.98656,-16.8533 z m 0.26561,0 c -0.0797,9.4657 -7.76765,17.1209 -17.25217,17.1209 -2.27435,0 -4.4331,-0.466 -6.42183,-1.2655 -1.20734,2.9629 -1.90014,6.1908 -1.90014,9.588 0,4.6644 1.2551,9.0346 3.44475,12.7936 h 43.97509 c 0.62127,-1.067 1.16859,-2.1825 1.63297,-3.3404 -2.57734,-2.3632 -4.25245,-5.6819 -4.25245,-9.4532 0,-3.7713 1.67505,-7.0919 4.25245,-9.4552 -0.0966,-0.2407 -0.18159,-0.4838 -0.28525,-0.7209 -6.48827,-2.4225 -11.73832,-7.3308 -14.53141,-13.6286 -2.71172,-1.0011 -5.60552,-1.6247 -8.66201,-1.6387 z m 9.02116,1.7462 c 2.74975,6.0409 7.76934,10.7872 13.99243,13.1893 -2.74924,-6.041 -7.7698,-10.7867 -13.99243,-13.1893 z m -127.97048,9.2635 c -2.28138,0 -4.45604,0.4525 -6.44354,1.2671 v 24.6176 c 0,0.7439 0.5987,1.3426 1.34256,1.3426 h 18.68309 c 2.1463,-2.8461 3.41995,-6.3874 3.41995,-10.2273 1e-5,-9.391 -7.61104,-17 -17.00206,-17 z m 167.34275,0.048 c -2.4152,1.9593 -5.19024,3.4976 -8.2119,4.4969 2.9171,2.3703 4.89634,5.8384 4.89634,9.8888 0,6.5145 -4.82303,11.9024 -11.09183,12.7936 h 13.06484 c 0.74386,0 1.34255,-0.5987 1.34255,-1.3426 z m -137.18284,1.7193 c -2.57417,0 -4.83179,0.9585 -6.83007,2.2774 1.5209,8.8748 7.59208,16.149 15.76596,19.3497 2.29986,-2.2923 3.72433,-5.46 3.72432,-8.9648 2e-5,-6.9942 -5.66595,-12.6623 -12.66021,-12.6623 z m 50.28944,0 c -2.56658,0 -4.81572,0.9543 -6.81044,2.266 -0.77845,4.6009 -2.79718,8.733 -5.67407,12.1579 0.86387,6.1523 6.09353,10.9007 12.48451,10.9007 6.99433,0 12.66176,-5.668 12.66176,-12.6623 0,-6.9943 -5.66743,-12.6623 -12.66176,-12.6623 z m 70.65202,0 c -2.83722,0 -5.32444,1.1102 -7.43521,2.6856 2.36655,0.7268 4.83017,1.2325 7.43521,1.2325 2.60471,0 5.06737,-0.5059 7.43365,-1.2325 -2.11077,-1.5754 -4.59642,-2.6856 -7.43365,-2.6856 z m -128.01958,2.4438 c -3.29171,2.2861 -5.58365,5.9059 -5.58364,10.2185 -2e-5,6.9943 5.66749,12.6623 12.66176,12.6623 3.36893,0 6.39027,-1.3653 8.65839,-3.5099 -8.13336,-3.2556 -14.17663,-10.5227 -15.73651,-19.3709 z m 50.27187,0.014 c -3.28067,2.2877 -5.56452,5.9011 -5.56452,10.2051 0,0.4777 0.0891,0.9309 0.14056,1.3948 2.71053,-3.2944 4.64251,-7.225 5.42396,-11.5999 z m 69.14617,0.1406 c 0.0627,0.1472 0.0945,0.3081 0.15451,0.4568 0.12595,-0.1107 0.28577,-0.1752 0.41599,-0.2811 -0.18869,-0.062 -0.38377,-0.1087 -0.5705,-0.1757 z m 0.88676,0.2754 c -0.2064,0.1627 -0.45643,0.2643 -0.65215,0.4393 1.13749,2.9046 1.81642,6.0424 1.81642,9.3498 0,3.308 -0.67856,6.4444 -1.81642,9.3493 2.23945,2.0027 5.1252,3.313 8.36693,3.313 6.99433,0 12.66021,-5.668 12.66021,-12.6623 0,-4.0359 -2.00692,-7.4708 -4.94699,-9.7891 -2.45004,0.7751 -5.00705,1.3085 -7.71322,1.3085 -2.70616,0 -5.26474,-0.5334 -7.71478,-1.3085 z m -0.87901,0.5917 c -2.47492,2.3107 -4.06797,5.5432 -4.06797,9.1974 0,3.6543 1.59305,6.8866 4.06797,9.1974 1.11214,-2.8599 1.77973,-5.9439 1.77973,-9.1974 0,-3.2535 -0.66759,-6.3375 -1.77973,-9.1974 z m -49.26366,10.5095 c -0.60276,5.902 -5.12596,10.646 -10.9461,11.4851 h 14.30817 c -1.95164,-3.4146 -3.1488,-7.3199 -3.36207,-11.4851 z m -25.51369,0.7364 c -4.71651,5.4555 -11.60222,8.9803 -19.37866,8.9803 -3.25923,0 -6.34894,-0.6694 -9.21856,-1.7756 -1.91601,1.858 -4.38964,3.146 -7.15512,3.544 h 46.62971 c -5.58348,-0.8009 -9.98679,-5.1884 -10.87737,-10.7487 z m 74.92411,7.5623 c -0.4452,1.1023 -0.96688,2.1656 -1.5534,3.1864 h 8.22328 c -2.54471,-0.3802 -4.81553,-1.5568 -6.66988,-3.1864 z"
         style="opacity:1;fill:#58d3e4;fill-opacity:1;stroke:#58d3e4;stroke-width:0.13229167;stroke-linecap:square;stroke-linejoin:round;stroke-miterlimit:4;stroke-dasharray:none;stroke-dashoffset:0;stroke-opacity:1;paint-order:fill markers stroke" />
      <g
         style="fill:#216778;fill-opacity:1"
         transform="matrix(1.0776395,0,0,1.0776395,28.03647,-173.47977)"
         id="g891">
        <text
           xml:space="preserve"
           style="font-style:normal;font-variant:normal;font-weight:normal;font-stretch:normal;font-size:19.9039917px;line-height:0;font-family:Caladea;-inkscape-font-specification:Caladea;letter-spacing:0px;word-spacing:0px;fill:#216778;fill-opacity:1;stroke:none;stroke-width:0.99519962"
           x="-307.52621"
           y="2136.3977"
           id="text856"><tspan
             sodipodi:role="line"
             id="tspan854"
             x="-307.52621"
             y="2136.3977"
             style="font-style:normal;font-variant:normal;font-weight:normal;font-stretch:normal;font-family:TimeBurner;-inkscape-font-specification:TimeBurner;fill:#216778;fill-opacity:1;stroke-width:0.99519962">BCI-Framework</tspan></text>
        <text
           xml:space="preserve"
           style="font-style:normal;font-variant:normal;font-weight:normal;font-stretch:normal;font-size:8.21374321px;line-height:1;font-family:Caladea;-inkscape-font-specification:Caladea;letter-spacing:0px;word-spacing:0px;fill:#216778;fill-opacity:1;stroke:none;stroke-width:0.41068721"
           x="-307.36203"
           y="2145.5671"
           id="text860"><tspan
             sodipodi:role="line"
             id="tspan858"
             x="-307.36203"
             y="2145.5671"
             style="font-style:normal;font-variant:normal;font-weight:100;font-stretch:normal;line-height:1;font-family:Trench;-inkscape-font-specification:'Trench Thin';fill:#216778;fill-opacity:1;stroke-width:0.41068721">A real-time tool for acquisition, analysis</tspan><tspan
             sodipodi:role="line"
             x="-307.36203"
             y="2154.011"
             style="font-style:normal;font-variant:normal;font-weight:100;font-stretch:normal;line-height:1;font-family:Trench;-inkscape-font-specification:'Trench Thin';fill:#216778;fill-opacity:1;stroke-width:0.41068721"
             id="tspan946">and stimuli delivery for OpenBCI.</tspan></text>
        <rect
           style="opacity:1;fill:#216778;fill-opacity:1;stroke:none;stroke-width:0.1306401;stroke-linecap:square;stroke-linejoin:miter;stroke-miterlimit:4;stroke-dasharray:none;stroke-dashoffset:0;stroke-opacity:1;paint-order:fill markers stroke"
           id="rect873"
           width="133.83418"
           height="0.78774136"
           x="-307.52625"
           y="2138.5698" />
      </g>
    </g>
    <g
       id="g888"
       transform="translate(2.7850949,-57.654557)">
      <rect
         ry="0.97183073"
         y="2247.022"
         x="-319.81766"
         height="61.202415"
         width="173.78629"
         id="rect870"
         style="opacity:1;fill:#00222b;fill-opacity:1;stroke:#58d3e4;stroke-width:0;stroke-linecap:round;stroke-linejoin:round;stroke-miterlimit:4;stroke-dasharray:none;stroke-dashoffset:0;stroke-opacity:1;paint-order:fill markers stroke" />
      <path
         id="path1021"
         style="opacity:1;fill:#0b2228;fill-opacity:1;stroke:#164450;stroke-width:0.26458332;stroke-miterlimit:4;stroke-dasharray:none;stroke-dashoffset:0;stroke-opacity:1"
         d="m -177.70148,2303.7161 a 2.4469654,2.4469654 0 0 1 -2.447,2.447 2.4469654,2.4469654 0 0 1 -2.44694,-2.447 2.4469654,2.4469654 0 0 1 2.44694,-2.4472 2.4469654,2.4469654 0 0 1 2.447,2.4472 z m 1.68833,-10.4054 a 6.5570389,6.5570389 0 0 1 -6.55701,6.5572 6.5570389,6.5570389 0 0 1 -6.55704,-6.5572 6.5570389,6.5570389 0 0 1 6.55704,-6.5572 6.5570389,6.5570389 0 0 1 6.55701,6.5572 z m 7.03479,-30.122 a 14.105399,14.105399 0 0 1 -14.10539,14.1054 14.105399,14.105399 0 0 1 -14.1054,-14.1054 14.105399,14.105399 0 0 1 14.1054,-14.1054 14.105399,14.105399 0 0 1 14.10539,14.1054 z m -14.81321,1.8318 a 14.105399,14.105399 0 0 1 -14.1054,14.1053 14.105399,14.105399 0 0 1 -14.1054,-14.1053 14.105399,14.105399 0 0 1 14.1054,-14.1054 14.105399,14.105399 0 0 1 14.1054,14.1054 z m 27.87946,3.476 a 14.105399,14.105399 0 0 1 -14.10543,14.1052 14.105399,14.105399 0 0 1 -14.10539,-14.1052 14.105399,14.105399 0 0 1 14.10539,-14.1057 14.105399,14.105399 0 0 1 14.10543,14.1057 z m 4.45678,9.4642 a 14.105399,14.105399 0 0 1 -14.1054,14.1054 14.105399,14.105399 0 0 1 -14.10539,-14.1054 14.105399,14.105399 0 0 1 14.10539,-14.1054 14.105399,14.105399 0 0 1 14.1054,14.1054 z m -25.89438,2.2872 a 13.147267,13.147267 0 0 1 -13.14725,13.1472 13.147267,13.147267 0 0 1 -13.14729,-13.1472 13.147267,13.147267 0 0 1 13.14729,-13.1471 13.147267,13.147267 0 0 1 13.14725,13.1471 z m 20.70859,6.5289 a 14.105399,14.105399 0 0 1 -14.10543,14.1053 14.105399,14.105399 0 0 1 -14.1054,-14.1053 14.105399,14.105399 0 0 1 14.1054,-14.1054 14.105399,14.105399 0 0 1 14.10543,14.1054 z m -36.09525,-15.8203 a 14.105399,14.105399 0 0 1 -14.1054,14.1054 14.105399,14.105399 0 0 1 -14.10539,-14.1054 14.105399,14.105399 0 0 1 14.10539,-14.1056 14.105399,14.105399 0 0 1 14.1054,14.1056 z"
         inkscape:connector-curvature="0" />
    </g>
    <g
       style="fill:#58d3e4;fill-opacity:1"
       transform="matrix(1.0776395,0,0,1.0776395,29.150505,-84.638745)"
       id="g884">
      <text
         xml:space="preserve"
         style="font-style:normal;font-variant:normal;font-weight:normal;font-stretch:normal;font-size:19.9039917px;line-height:0;font-family:Caladea;-inkscape-font-specification:Caladea;letter-spacing:0px;word-spacing:0px;fill:#58d3e4;fill-opacity:1;stroke:none;stroke-width:0.99519962"
         x="-307.52621"
         y="2136.3977"
         id="text874"><tspan
           sodipodi:role="line"
           id="tspan872"
           x="-307.52621"
           y="2136.3977"
           style="font-style:normal;font-variant:normal;font-weight:normal;font-stretch:normal;font-family:TimeBurner;-inkscape-font-specification:TimeBurner;fill:#58d3e4;fill-opacity:1;stroke-width:0.99519962">BCI-Framework</tspan></text>
      <text
         xml:space="preserve"
         style="font-style:normal;font-variant:normal;font-weight:normal;font-stretch:normal;font-size:8.21374321px;line-height:1;font-family:Caladea;-inkscape-font-specification:Caladea;letter-spacing:0px;word-spacing:0px;fill:#58d3e4;fill-opacity:1;stroke:none;stroke-width:0.41068721"
         x="-307.36203"
         y="2145.5671"
         id="text880"><tspan
           sodipodi:role="line"
           id="tspan876"
           x="-307.36203"
           y="2145.5671"
           style="font-style:normal;font-variant:normal;font-weight:100;font-stretch:normal;line-height:1;font-family:Trench;-inkscape-font-specification:'Trench Thin';fill:#58d3e4;fill-opacity:1;stroke-width:0.41068721">A real-time tool for acquisition, analysis</tspan><tspan
           sodipodi:role="line"
           x="-307.36203"
           y="2154.011"
           style="font-style:normal;font-variant:normal;font-weight:100;font-stretch:normal;line-height:1;font-family:Trench;-inkscape-font-specification:'Trench Thin';fill:#58d3e4;fill-opacity:1;stroke-width:0.41068721"
           id="tspan878">and stimuli delivery for OpenBCI.</tspan></text>
      <rect
         style="opacity:1;fill:#58d3e4;fill-opacity:1;stroke:none;stroke-width:0.1306401;stroke-linecap:square;stroke-linejoin:miter;stroke-miterlimit:4;stroke-dasharray:none;stroke-dashoffset:0;stroke-opacity:1;paint-order:fill markers stroke"
         id="rect882"
         width="133.83418"
         height="0.78774136"
         x="-307.52625"
         y="2138.5698" />
    </g>
  </g>
</svg>
