<?xml version="1.0" encoding="UTF-8" standalone="no"?>
<svg
   xmlns:dc="http://purl.org/dc/elements/1.1/"
   xmlns:cc="http://creativecommons.org/ns#"
   xmlns:rdf="http://www.w3.org/1999/02/22-rdf-syntax-ns#"
   xmlns:svg="http://www.w3.org/2000/svg"
   xmlns="http://www.w3.org/2000/svg"
   xmlns:sodipodi="http://sodipodi.sourceforge.net/DTD/sodipodi-0.dtd"
   xmlns:inkscape="http://www.inkscape.org/namespaces/inkscape"
   width="656.83008"
   height="231.31622"
   viewBox="0 0 173.78629 61.202419"
   version="1.1"
   id="svg8"
   inkscape:version="1.0 (4035a4fb49, 2020-05-01)"
   sodipodi:docname="splash3.svg"
   inkscape:export-filename="/home/yeison/Development/gcpds/eeg-framework/assets/splash.png"
   inkscape:export-xdpi="96"
   inkscape:export-ydpi="96">
  <defs
     id="defs2" />
  <sodipodi:namedview
     id="base"
     pagecolor="#ffffff"
     bordercolor="#666666"
     borderopacity="1.0"
     inkscape:pageopacity="0.0"
     inkscape:pageshadow="2"
     inkscape:zoom="1.3744981"
     inkscape:cx="1523.5115"
     inkscape:cy="88.778335"
     inkscape:document-units="px"
     inkscape:current-layer="g965"
     showgrid="false"
     inkscape:window-width="1920"
     inkscape:window-height="1004"
     inkscape:window-x="0"
     inkscape:window-y="0"
     inkscape:window-maximized="1"
     units="px"
     inkscape:showpageshadow="false"
     showguides="true"
     inkscape:snap-bbox="true"
     inkscape:bbox-paths="true"
     inkscape:bbox-nodes="true"
     inkscape:snap-bbox-midpoints="true"
     inkscape:snap-bbox-edge-midpoints="true"
     inkscape:object-paths="true"
     inkscape:snap-intersection-paths="true"
     inkscape:snap-midpoints="true"
     inkscape:snap-smooth-nodes="true"
     inkscape:snap-object-midpoints="true"
     inkscape:snap-center="true"
     fit-margin-top="0"
     fit-margin-left="0"
     fit-margin-right="0"
     fit-margin-bottom="0"
     inkscape:snap-global="true"
     inkscape:document-rotation="0" />
  <metadata
     id="metadata5">
    <rdf:RDF>
      <cc:Work
         rdf:about="">
        <dc:format>image/svg+xml</dc:format>
        <dc:type
           rdf:resource="http://purl.org/dc/dcmitype/StillImage" />
        <dc:title />
      </cc:Work>
    </rdf:RDF>
  </metadata>
  <g
     inkscape:label="Capa 1"
     inkscape:groupmode="layer"
     id="layer1"
     transform="translate(317.03256,-2189.3674)">
    <circle
       cy="139.7252"
       cx="-591.70111"
       id="circle1545"
       style="opacity:0.67299996;fill:#aaaaff;fill-opacity:0.30136988;stroke:#000000;stroke-width:0.30404934;stroke-miterlimit:4;stroke-dasharray:none;stroke-opacity:1"
       r="0" />
    <circle
       r="0"
       style="opacity:0.67299996;fill:#aaaaff;fill-opacity:0.30136988;stroke:#000000;stroke-width:0.30404934;stroke-miterlimit:4;stroke-dasharray:none;stroke-opacity:1"
       id="ellipse1617"
       cx="-993.51282"
       cy="168.13614" />
    <circle
       r="0"
       cy="733.2077"
       cx="-958.14404"
       id="ellipse1906"
       style="opacity:0.67299996;fill:none;fill-opacity:0.30136988;stroke:#000000;stroke-width:0.79374999;stroke-miterlimit:4;stroke-dasharray:none;stroke-opacity:1" />
    <circle
       r="0"
       cy="582.33099"
       cx="-1500.9722"
       id="ellipse1926"
       style="opacity:0.67299996;fill:none;fill-opacity:0.30136988;stroke:#000000;stroke-width:0.79374999;stroke-miterlimit:4;stroke-dasharray:none;stroke-opacity:1" />
    <circle
       r="0"
       cy="255.9781"
       cx="-958.14404"
       id="ellipse1946"
       style="opacity:0.67299996;fill:none;fill-opacity:0.30136988;stroke:#000000;stroke-width:0.79374999;stroke-miterlimit:4;stroke-dasharray:none;stroke-opacity:1" />
    <g
       id="g898">
      <g
         style="fill:#216778;fill-opacity:1"
         transform="matrix(1.0776395,0,0,1.0776395,28.03647,-173.47977)"
         id="g891">
        <g
           id="g965"
           transform="translate(1.0337743,82.440409)">
          <path
             style="opacity:1;fill:#58d3e4;fill-opacity:1;stroke:#58d3e4;stroke-width:0.132292;stroke-linecap:square;stroke-linejoin:round;stroke-miterlimit:4;stroke-dasharray:none;stroke-dashoffset:0;stroke-opacity:1;paint-order:fill markers stroke"
             d="m -316.80404,2100.5263 c -0.74386,0 -1.34256,0.5987 -1.34256,1.3426 v 18.8737 c 3.05248,2.9182 7.18739,4.714 11.74451,4.714 9.39102,0 17,-7.6111 16.99999,-17.0021 1e-5,-2.8644 -0.71125,-5.5608 -1.96164,-7.9282 z m 25.73744,0 c 1.2306,2.3749 1.93012,5.0692 1.93012,7.9282 1e-5,9.534 -7.7316,17.2656 -17.26561,17.2656 -4.53662,0 -8.66289,-1.7528 -11.74451,-4.6152 v 14.379 c 1.99163,-0.8022 4.16512,-1.248 6.44354,-1.248 9.53401,0 17.26769,7.7316 17.26768,17.2656 0,3.8281 -1.24888,7.3641 -3.35845,10.2273 h 14.4172 c -6.26909,-0.8912 -11.0939,-6.279 -11.09389,-12.7936 -10e-6,-4.4514 2.39405,-8.1849 5.82031,-10.5099 -0.22556,-1.3698 -0.42219,-2.7518 -0.42219,-4.1853 0,-8.7687 4.40804,-16.4921 11.1094,-21.1351 -3.30067,-2.3422 -5.59347,-6.005 -5.59346,-10.3591 0,-0.7572 0.0688,-1.498 0.19379,-2.2195 z m 7.97161,0 c -0.1275,0.721 -0.19792,1.4618 -0.19792,2.2195 0,4.2929 2.27287,7.898 5.5392,10.1875 4.10996,-2.7839 9.06505,-4.4121 14.40222,-4.4121 1.22352,0 2.39439,0.1939 3.57239,0.3591 1.04816,-1.8437 1.80867,-3.8614 1.80867,-6.1345 1e-5,-0.7577 -0.0705,-1.4985 -0.19792,-2.2195 z m 25.19588,0 c 0.12499,0.7215 0.1943,1.4623 0.1943,2.2195 0,2.2771 -0.74701,4.3056 -1.78128,6.164 12.35566,1.8773 21.8555,12.4509 21.85551,25.3302 0,1.3573 -0.19786,2.6621 -0.40049,3.9626 1.99974,-1.2688 4.23442,-2.1932 6.77736,-2.1932 6.68925,0 12.12979,5.1028 12.79457,11.6169 0.15044,-2.938 0.72563,-5.7605 1.78128,-8.3571 -6.22042,-2.6108 -10.59367,-8.7544 -10.59367,-15.9221 0,-1.8306 0.36275,-3.5609 0.89091,-5.2167 -10.01502,-1.2851 -18.25047,-8.2577 -21.2416,-17.6041 z m 10.55542,0 c 2.98541,9.2249 11.13693,16.0941 21.04317,17.3462 2.29922,-6.8346 8.68605,-11.791 16.29461,-11.791 2.63515,0 5.10554,0.6374 7.34012,1.6935 1.60941,-2.1843 2.8903,-4.623 3.75584,-7.2487 z m 48.71124,0 c -0.87053,2.6719 -2.1667,5.1539 -3.79925,7.3758 5.68506,2.7961 9.63192,8.5732 9.67951,15.3241 2.9882,0.014 5.81554,0.6211 8.48063,1.572 -1.31663,-3.092 -2.05053,-6.4922 -2.05053,-10.0645 0,-5.2726 1.59766,-10.1513 4.32739,-14.2074 z m 16.94419,0 c -2.75573,4.046 -4.37027,8.9294 -4.37028,14.2074 0,3.623 0.78271,7.0563 2.14664,10.1761 6.4888,2.4233 11.73849,7.3338 14.5309,13.6328 0.33404,0.1233 0.68531,0.2066 1.02578,0.3162 2.18169,-1.6811 4.7872,-2.8494 7.75353,-2.8494 2.96673,0 5.57013,1.1701 7.75198,2.8515 3.13586,-1.0084 6.00935,-2.6004 8.4894,-4.6462 v -32.3458 c 0,-0.7439 -0.59869,-1.3426 -1.34255,-1.3426 h -2.05259 c 0.0511,0.4645 0.0796,0.9362 0.0796,1.4149 0,7.1373 -5.7885,12.9253 -12.92582,12.9253 -7.13731,0 -12.92738,-5.788 -12.92738,-12.9253 0,-0.4787 0.0285,-0.9504 0.0796,-1.4149 z m 8.50594,0 c -0.0517,0.4647 -0.0811,0.9364 -0.0811,1.4149 0,6.9943 5.66744,12.6618 12.66176,12.6618 6.99433,0 12.66021,-5.6675 12.66021,-12.6618 0,-0.4785 -0.0295,-0.9502 -0.0811,-1.4149 z m -36.82359,5.8208 c -7.47362,0 -13.74776,4.8513 -16.02745,11.5528 0.97071,0.1123 1.92144,0.2951 2.9223,0.2951 8.31732,0 15.63024,-4.0469 20.27525,-10.2149 -2.18485,-1.0216 -4.59845,-1.633 -7.1701,-1.633 z m 7.4042,1.7596 c -4.69246,6.2499 -12.09351,10.3518 -20.50935,10.3518 -1.0282,0 -2.0057,-0.1854 -3.0024,-0.3028 -0.53102,1.6463 -0.89245,3.3682 -0.89245,5.1914 -1e-5,7.052 4.29242,13.0988 10.4066,15.674 3.86466,-9.2377 12.95895,-15.7328 23.58358,-15.7928 -0.047,-6.6722 -3.9571,-12.3801 -9.58598,-15.1216 z m -60.74978,0.678 c -5.24478,0 -10.114,1.5922 -14.16399,4.3103 2.00917,1.341 4.28725,2.3105 6.88485,2.3105 4.61371,0 8.47204,-2.591 10.68513,-6.2771 -1.12508,-0.152 -2.2392,-0.3437 -3.40599,-0.3437 z m 3.69745,0.3731 c -2.24582,3.8221 -6.22424,6.5133 -10.97659,6.5133 -2.68489,1e-4 -5.03865,-1.0119 -7.10551,-2.4138 -6.67919,4.5879 -11.07064,12.266 -11.07064,20.9827 0,1.3762 0.19447,2.7003 0.40462,4.0173 2.01687,-1.3012 4.28102,-2.2479 6.85901,-2.2479 7.13725,0 12.92584,5.7886 12.92583,12.9258 1e-5,3.5287 -1.43105,6.7137 -3.72432,9.0465 2.80399,1.0627 5.81337,1.7151 8.99015,1.7151 7.78904,0 14.67289,-3.5721 19.34197,-9.0821 -0.0729,-0.5557 -0.17002,-1.1039 -0.17002,-1.6795 0,-4.4707 2.41197,-8.2197 5.86321,-10.5409 0.22441,-1.3594 0.42013,-2.7312 0.42013,-4.1543 0,-12.7937 -9.4654,-23.2787 -21.75784,-25.0822 z m 66.63469,14.334 c -10.5056,0.062 -19.50091,6.4736 -23.33036,15.6017 1.96342,0.7917 4.09653,1.2516 6.3438,1.2516 9.34016,0 16.90476,-7.5325 16.98656,-16.8533 z m 0.26561,0 c -0.0797,9.4657 -7.76765,17.1209 -17.25217,17.1209 -2.27435,0 -4.4331,-0.466 -6.42183,-1.2655 -1.20734,2.9629 -1.90014,6.1908 -1.90014,9.588 0,4.6644 1.2551,9.0346 3.44475,12.7936 h 43.97509 c 0.62127,-1.067 1.16859,-2.1825 1.63297,-3.3404 -2.57734,-2.3632 -4.25245,-5.6819 -4.25245,-9.4532 0,-3.7713 1.67505,-7.0919 4.25245,-9.4552 -0.0966,-0.2407 -0.18159,-0.4838 -0.28525,-0.7209 -6.48827,-2.4225 -11.73832,-7.3308 -14.53141,-13.6286 -2.71172,-1.0011 -5.60552,-1.6247 -8.66201,-1.6387 z m 9.02116,1.7462 c 2.74975,6.0409 7.76934,10.7872 13.99243,13.1893 -2.74924,-6.041 -7.7698,-10.7867 -13.99243,-13.1893 z m -127.97048,9.2635 c -2.28138,0 -4.45604,0.4525 -6.44354,1.2671 v 24.6176 c 0,0.7439 0.5987,1.3426 1.34256,1.3426 h 18.68309 c 2.1463,-2.8461 3.41995,-6.3874 3.41995,-10.2273 1e-5,-9.391 -7.61104,-17 -17.00206,-17 z m 167.34275,0.048 c -2.4152,1.9593 -5.19024,3.4976 -8.2119,4.4969 2.9171,2.3703 4.89634,5.8384 4.89634,9.8888 0,6.5145 -4.82303,11.9024 -11.09183,12.7936 h 13.06484 c 0.74386,0 1.34255,-0.5987 1.34255,-1.3426 z m -137.18284,1.7193 c -2.57417,0 -4.83179,0.9585 -6.83007,2.2774 1.5209,8.8748 7.59208,16.149 15.76596,19.3497 2.29986,-2.2923 3.72433,-5.46 3.72432,-8.9648 2e-5,-6.9942 -5.66595,-12.6623 -12.66021,-12.6623 z m 50.28944,0 c -2.56658,0 -4.81572,0.9543 -6.81044,2.266 -0.77845,4.6009 -2.79718,8.733 -5.67407,12.1579 0.86387,6.1523 6.09353,10.9007 12.48451,10.9007 6.99433,0 12.66176,-5.668 12.66176,-12.6623 0,-6.9943 -5.66743,-12.6623 -12.66176,-12.6623 z m 70.65202,0 c -2.83722,0 -5.32444,1.1102 -7.43521,2.6856 2.36655,0.7268 4.83017,1.2325 7.43521,1.2325 2.60471,0 5.06737,-0.5059 7.43365,-1.2325 -2.11077,-1.5754 -4.59642,-2.6856 -7.43365,-2.6856 z m -128.01958,2.4438 c -3.29171,2.2861 -5.58365,5.9059 -5.58364,10.2185 -2e-5,6.9943 5.66749,12.6623 12.66176,12.6623 3.36893,0 6.39027,-1.3653 8.65839,-3.5099 -8.13336,-3.2556 -14.17663,-10.5227 -15.73651,-19.3709 z m 50.27187,0.014 c -3.28067,2.2877 -5.56452,5.9011 -5.56452,10.2051 0,0.4777 0.0891,0.9309 0.14056,1.3948 2.71053,-3.2944 4.64251,-7.225 5.42396,-11.5999 z m 69.14617,0.1406 c 0.0627,0.1472 0.0945,0.3081 0.15451,0.4568 0.12595,-0.1107 0.28577,-0.1752 0.41599,-0.2811 -0.18869,-0.062 -0.38377,-0.1087 -0.5705,-0.1757 z m 0.88676,0.2754 c -0.2064,0.1627 -0.45643,0.2643 -0.65215,0.4393 1.13749,2.9046 1.81642,6.0424 1.81642,9.3498 0,3.308 -0.67856,6.4444 -1.81642,9.3493 2.23945,2.0027 5.1252,3.313 8.36693,3.313 6.99433,0 12.66021,-5.668 12.66021,-12.6623 0,-4.0359 -2.00692,-7.4708 -4.94699,-9.7891 -2.45004,0.7751 -5.00705,1.3085 -7.71322,1.3085 -2.70616,0 -5.26474,-0.5334 -7.71478,-1.3085 z m -0.87901,0.5917 c -2.47492,2.3107 -4.06797,5.5432 -4.06797,9.1974 0,3.6543 1.59305,6.8866 4.06797,9.1974 1.11214,-2.8599 1.77973,-5.9439 1.77973,-9.1974 0,-3.2535 -0.66759,-6.3375 -1.77973,-9.1974 z m -49.26366,10.5095 c -0.60276,5.902 -5.12596,10.646 -10.9461,11.4851 h 14.30817 c -1.95164,-3.4146 -3.1488,-7.3199 -3.36207,-11.4851 z m -25.51369,0.7364 c -4.71651,5.4555 -11.60222,8.9803 -19.37866,8.9803 -3.25923,0 -6.34894,-0.6694 -9.21856,-1.7756 -1.91601,1.858 -4.38964,3.146 -7.15512,3.544 h 46.62971 c -5.58348,-0.8009 -9.98679,-5.1884 -10.87737,-10.7487 z m 74.92411,7.5623 c -0.4452,1.1023 -0.96688,2.1656 -1.5534,3.1864 h 8.22328 c -2.54471,-0.3802 -4.81553,-1.5568 -6.66988,-3.1864 z"
             id="rect857"
             inkscape:connector-curvature="0"
             transform="matrix(0.9279541,0,0,0.9279541,-26.016554,160.98125)" />
          <path
             d="m -307.52625,2138.5698 h 133.83419 v 0.7878 h -133.83419 z m 108.99598,14.9975 c -0.12321,0 -0.22177,0.099 -0.22177,0.2218 0,0.1232 0.0986,0.2218 0.22177,0.2218 0.1232,0 0.22177,-0.099 0.22177,-0.2218 0,-0.1232 -0.0986,-0.2218 -0.22177,-0.2218 z m -1.35526,-4.0411 c 0,-0.057 -0.0493,-0.1068 -0.11499,-0.1068 -0.0575,0 -0.10678,0.049 -0.10678,0.1068 v 4.3779 c 0,0.057 0.0493,0.1068 0.10678,0.1068 0.0657,0 0.11499,-0.049 0.11499,-0.1068 z m -2.74339,-0.1068 c -1.05136,0 -1.93023,0.8789 -1.93023,1.9302 v 0.731 c 0,1.0514 0.87066,1.9303 1.93023,1.9303 h 1.61811 c 0.0657,0 0.11499,-0.049 0.11499,-0.1068 0,-0.066 -0.0493,-0.115 -0.11499,-0.115 h -1.61811 c -0.93637,0 -1.70846,-0.7721 -1.70846,-1.7085 v -0.731 c 0,-0.9364 0.77209,-1.7084 1.70846,-1.7084 h 1.61811 c 0.0657,0 0.11499,-0.049 0.11499,-0.115 0,-0.057 -0.0493,-0.1068 -0.11499,-0.1068 z m -3.52369,0.2464 c -0.17249,-0.1561 -0.40247,-0.2464 -0.63246,-0.2464 h -1.60989 c -0.2382,0 -0.45997,0.09 -0.63246,0.2464 l -0.0246,0.025 c -0.17249,0.1725 -0.27105,0.4107 -0.27105,0.6571 v 2.7352 c 0,0.2464 0.0986,0.4846 0.27105,0.6571 l 0.0246,0.025 c 0.17249,0.156 0.39426,0.2464 0.63246,0.2464 h 1.60989 c 0.80495,0 1.47848,-0.6736 1.47848,-1.4785 0,-0.5503 -0.31213,-1.0678 -0.8378,-1.3306 l -0.13142,-0.066 0.10677,-0.1068 c 0.21356,-0.1068 0.31213,-0.4764 0.31213,-0.6818 0,-0.2464 -0.0986,-0.4846 -0.27927,-0.6571 z m -2.66946,3.9919 -0.0739,-0.074 c -0.13142,-0.1314 -0.20534,-0.3121 -0.20534,-0.501 v -1.807 h 2.32449 c 0.68174,0 1.24849,0.575 1.24849,1.2567 0,0.6982 -0.59139,1.2567 -1.25671,1.2567 h -1.60989 c -0.15606,0 -0.30391,-0.049 -0.42711,-0.1396 z m 0,-3.8769 c 0.1232,-0.09 0.27105,-0.1396 0.42711,-0.1396 h 1.60989 c 0.14785,0 0.2957,0.049 0.4189,0.1396 l 0.008,-0.01 0.0739,0.074 c 0.13142,0.1314 0.20534,0.3121 0.20534,0.501 0,0.3943 -0.32033,0.7064 -0.69816,0.7064 h -2.32449 v -0.7064 c 0,-0.1889 0.0739,-0.3696 0.20534,-0.501 l 0.0739,-0.074 z m -1.38812,2.1684 v -0.01 c 0,-0.7557 -0.6571,-1.4045 -1.42098,-1.4045 h -0.63245 c -0.7721,0 -1.40455,0.6406 -1.42098,1.4045 v 1.9549 c 0,0.066 0.0493,0.115 0.11499,0.115 0.0575,0 0.10678,-0.049 0.10678,-0.115 v -1.9631 c 0.0164,-0.6325 0.55853,-1.1746 1.19921,-1.1746 h 0.63245 c 0.64068,0 1.19921,0.5421 1.19921,1.1992 v 1.9385 c 0,0.066 0.0493,0.115 0.10678,0.115 0.0657,0 0.11499,-0.049 0.11499,-0.115 z m -7.61413,0.7885 h 3.09658 c 0.10678,0 0.19713,-0.09 0.19713,-0.2053 v -0.575 c 0,-0.7721 -0.64888,-1.4209 -1.42098,-1.4209 h -0.63245 c -0.77209,0 -1.42098,0.6488 -1.42098,1.4209 v 0.5668 c 0,0.7885 0.59139,1.4867 1.42098,1.4867 h 1.52775 c 0.0575,0 0.10678,-0.049 0.10678,-0.115 0,-0.057 -0.0493,-0.1068 -0.10678,-0.1068 h -1.52775 c -0.45997,0 -0.90351,-0.2793 -1.09243,-0.7146 z m 3.07194,-0.2217 h -3.03087 v -0.5586 c 0,-0.6571 0.55854,-1.1992 1.19921,-1.1992 h 0.63245 c 0.64889,0 1.19921,0.5503 1.19921,1.1992 z m -7.57306,3.0473 c 0,0.058 0.0493,0.1067 0.10678,0.1067 0.0657,0 0.11499,-0.049 0.11499,-0.1067 v -2.152 l 0.18892,0.1889 c 0.26284,0.2628 0.61603,0.4107 0.98565,0.4107 h 0.61603 c 0.75566,0 1.39633,-0.6407 1.39633,-1.3964 v -0.6817 c 0,-0.7557 -0.64067,-1.3963 -1.39633,-1.3963 h -0.61603 c -0.75567,0 -1.39634,0.6406 -1.39634,1.3963 z m 0.22177,-3.1541 v -0.4764 c 0,-0.6407 0.53389,-1.1746 1.17457,-1.1746 h 0.61603 c 0.64067,0 1.17456,0.5339 1.17456,1.1746 v 0.6817 c 0,0.6407 -0.53389,1.1746 -1.17456,1.1746 h -0.61603 c -0.61603,0 -1.17457,-0.5175 -1.17457,-1.1499 z m -3.93436,-2.9898 c -1.05136,0 -1.93023,0.8789 -1.93023,1.9302 v 0.731 c 0,1.0514 0.87065,1.9303 1.93023,1.9303 h 0.90351 c 1.03493,0 1.93023,-0.8707 1.93023,-1.9303 v -0.731 c 0,-1.0513 -0.87887,-1.9302 -1.93023,-1.9302 z m -1.70846,1.9302 c 0,-0.9364 0.77209,-1.7084 1.70846,-1.7084 h 0.90351 c 0.92815,0 1.70846,0.772 1.70846,1.7084 v 0.731 c 0,0.9364 -0.78031,1.7085 -1.70846,1.7085 h -0.90351 c -0.93637,0 -1.70846,-0.7721 -1.70846,-1.7085 z m -5.77424,0.5996 v 1.9467 c 0,0.066 0.0493,0.115 0.11499,0.115 0.0575,0 0.10678,-0.049 0.10678,-0.115 v -1.9631 c 0.0164,-0.6407 0.56675,-1.1746 1.19921,-1.1746 h 0.44354 c 0.31212,0 0.61603,0.1314 0.84602,0.3532 0.0246,0.025 0.0493,0.033 0.0821,0.033 0.0575,0 0.10678,-0.049 0.10678,-0.115 0,-0.025 -0.008,-0.058 -0.0328,-0.074 -0.26284,-0.2711 -0.62425,-0.4189 -1.00208,-0.4189 h -0.44354 c -0.77209,0 -1.40455,0.6406 -1.42098,1.4045 z m -2.89944,-1.4127 c -0.77209,0 -1.42098,0.6488 -1.42098,1.4209 v 0.6325 c 0,0.7721 0.64889,1.421 1.42098,1.421 h 0.63246 c 0.77209,0 1.42097,-0.6489 1.42097,-1.421 v -0.6325 c 0,-0.7721 -0.64888,-1.4209 -1.42097,-1.4209 z m 0.63246,0.2217 c 0.64067,0 1.1992,0.5421 1.1992,1.1992 v 0.6325 c 0,0.6489 -0.55032,1.1992 -1.1992,1.1992 h -0.63246 c -0.64889,0 -1.19921,-0.5585 -1.19921,-1.1992 v -0.6325 c 0,-0.6653 0.56675,-1.1992 1.19921,-1.1992 z m -4.72289,0.4764 v 2.6695 c 0,0.057 0.0493,0.1068 0.10677,0.1068 0.0657,0 0.115,-0.049 0.115,-0.1068 v -1.1499 h 1.41276 c 0.0657,0 0.11499,-0.049 0.11499,-0.1068 0,-0.066 -0.0493,-0.115 -0.11499,-0.115 h -1.41276 v -1.7085 c 0,-0.6571 0.53389,-1.1827 1.18277,-1.1827 h 0.31213 c 0.0575,0 0.10678,-0.049 0.10678,-0.115 0,-0.057 -0.0493,-0.1068 -0.10678,-0.1068 h -0.31213 c -0.77209,0 -1.40454,0.6324 -1.40454,1.4045 z m -2.84193,-0.5914 v -0.016 -0.016 l -0.008,-0.01 -0.008,-0.01 -0.008,-0.016 -0.008,-0.01 -0.008,-0.01 -0.008,-0.01 -0.0164,-0.01 -0.008,-0.01 h -0.0164 -0.0164 -0.0164 -0.0164 l -0.0164,0.01 -0.0164,0.01 -0.0164,0.016 -0.008,0.016 -0.008,0.01 -0.008,0.017 v 0.016 l -0.008,0.01 v 1.2978 c 0,0.6407 -0.5339,1.1746 -1.17457,1.1746 -0.64067,0 -1.17456,-0.5339 -1.17456,-1.1746 v -1.2896 c 0,-0.057 -0.0493,-0.1067 -0.11499,-0.1067 -0.0575,0 -0.10678,0.049 -0.10678,0.1067 v 1.2896 c 0,0.7557 0.64067,1.3963 1.39633,1.3963 0.36962,0 0.72281,-0.1478 0.98565,-0.4107 l 0.18892,-0.1889 v 1.4785 c 0,0.6407 -0.5339,1.1746 -1.17457,1.1746 h -0.31212 c -0.0575,0 -0.10678,0.049 -0.10678,0.115 0,0.057 0.0493,0.1067 0.10678,0.1067 h 0.31212 c 0.75567,0 1.39634,-0.6406 1.39634,-1.3963 z m -6.5217,1.306 v 1.9467 c 0,0.066 0.0493,0.115 0.11499,0.115 0.0575,0 0.10678,-0.049 0.10678,-0.115 v -1.9631 c 0.0164,-0.6407 0.56675,-1.1746 1.19921,-1.1746 h 0.44354 c 0.31212,0 0.61603,0.1314 0.84601,0.3532 0.0247,0.025 0.0493,0.033 0.0821,0.033 0.0575,0 0.10678,-0.049 0.10678,-0.115 0,-0.025 -0.008,-0.058 -0.0328,-0.074 -0.26284,-0.2711 -0.62425,-0.4189 -1.00208,-0.4189 h -0.44354 c -0.77209,0 -1.40455,0.6406 -1.42098,1.4045 z m -4.13972,0.7885 h 3.09658 c 0.10678,0 0.19713,-0.09 0.19713,-0.2053 v -0.575 c 0,-0.7721 -0.64888,-1.4209 -1.42097,-1.4209 h -0.63246 c -0.77209,0 -1.42098,0.6488 -1.42098,1.4209 v 0.5668 c 0,0.7885 0.59139,1.4867 1.42098,1.4867 h 1.52775 c 0.0575,0 0.10678,-0.049 0.10678,-0.115 0,-0.057 -0.0493,-0.1068 -0.10678,-0.1068 h -1.52775 c -0.45997,0 -0.90351,-0.2793 -1.09243,-0.7146 z m 3.07194,-0.2217 h -3.03087 v -0.5586 c 0,-0.6571 0.55854,-1.1992 1.19921,-1.1992 h 0.63246 c 0.64888,0 1.1992,0.5503 1.1992,1.1992 z m -6.20957,1.0842 c 0.10678,0.2464 0.33676,0.4107 0.61603,0.4107 0.26284,0 0.50104,-0.1479 0.60782,-0.4107 l 1.22384,-2.9241 c 0.008,-0.01 0.008,-0.025 0.008,-0.041 0,-0.058 -0.0493,-0.099 -0.10678,-0.099 -0.0329,0 -0.0739,0.025 -0.0821,0.057 l -1.22385,2.9324 c -0.0821,0.1724 -0.2382,0.2792 -0.42711,0.2792 -0.20534,0 -0.35319,-0.1068 -0.42712,-0.2792 l -1.22384,-2.9324 c -0.0164,-0.033 -0.0575,-0.057 -0.0904,-0.057 -0.0657,0 -0.10678,0.049 -0.10678,0.099 0,0.016 0,0.033 0.008,0.041 z m -2.2752,0.3039 c 0,0.057 0.0493,0.1068 0.11499,0.1068 0.0575,0 0.10678,-0.049 0.10678,-0.1068 v -3.2116 c 0,-0.066 -0.0493,-0.115 -0.10678,-0.115 -0.0657,0 -0.11499,0.049 -0.11499,0.115 z m 0.11499,-4.2958 c -0.0821,0 -0.14784,0.066 -0.14784,0.1478 0,0.082 0.0657,0.1479 0.14784,0.1479 0.0821,0 0.14785,-0.066 0.14785,-0.1479 0,-0.082 -0.0657,-0.1478 -0.14785,-0.1478 z m -1.46204,4.2958 c 0,0.057 0.0493,0.1068 0.10678,0.1068 0.0657,0 0.11499,-0.049 0.11499,-0.1068 v -4.3779 c 0,-0.057 -0.0493,-0.1068 -0.11499,-0.1068 -0.0575,0 -0.10678,0.049 -0.10678,0.1068 z m -4.13972,-1.1664 h 3.09658 c 0.10678,0 0.19713,-0.09 0.19713,-0.2053 v -0.575 c 0,-0.7721 -0.64888,-1.4209 -1.42097,-1.4209 h -0.63246 c -0.77209,0 -1.42098,0.6488 -1.42098,1.4209 v 0.5668 c 0,0.7885 0.59139,1.4867 1.42098,1.4867 h 1.52775 c 0.0575,0 0.10678,-0.049 0.10678,-0.115 0,-0.057 -0.0493,-0.1068 -0.10678,-0.1068 h -1.52775 c -0.45997,0 -0.90351,-0.2793 -1.09243,-0.7146 z m 3.07194,-0.2217 h -3.03087 v -0.5586 c 0,-0.6571 0.55854,-1.1992 1.19921,-1.1992 h 0.63246 c 0.64888,0 1.1992,0.5503 1.1992,1.1992 z m -4.23007,-3.0473 c 0,-0.066 -0.0493,-0.115 -0.10678,-0.115 -0.0657,0 -0.11499,0.049 -0.11499,0.115 v 1.6591 l -0.18891,-0.1971 c -0.25463,-0.2628 -0.62425,-0.4107 -0.99387,-0.4107 h -0.61603 c -0.77209,0 -1.40455,0.6407 -1.40455,1.4046 v 0.6817 c 0,0.7721 0.63246,1.4046 1.40455,1.4046 h 0.61603 c 0.77209,0 1.40455,-0.6325 1.40455,-1.4046 z m -0.22177,2.6612 v 0.4764 c 0,0.6489 -0.53389,1.1828 -1.18278,1.1828 h -0.61603 c -0.64888,0 -1.18278,-0.5339 -1.18278,-1.1828 v -0.6817 c 0,-0.6489 0.5339,-1.1828 1.18278,-1.1828 h 0.61603 c 0.62425,0 1.18278,0.5257 1.18278,1.1581 z m -6.32455,1.7742 c 0,0.057 0.0493,0.1068 0.11499,0.1068 0.0575,0 0.10678,-0.049 0.10678,-0.1068 v -3.2116 c 0,-0.066 -0.0493,-0.115 -0.10678,-0.115 -0.0657,0 -0.11499,0.049 -0.11499,0.115 z m 0.11499,-4.2958 c -0.0821,0 -0.14785,0.066 -0.14785,0.1478 0,0.082 0.0657,0.1479 0.14785,0.1479 0.0821,0 0.14784,-0.066 0.14784,-0.1479 0,-0.082 -0.0657,-0.1478 -0.14784,-0.1478 z m -1.46205,4.2958 c 0,0.057 0.0493,0.1068 0.10678,0.1068 0.0657,0 0.11499,-0.049 0.11499,-0.1068 v -4.3779 c 0,-0.057 -0.0493,-0.1068 -0.11499,-0.1068 -0.0575,0 -0.10678,0.049 -0.10678,0.1068 z m -3.85224,-1.306 v 0.01 c 0.0164,0.7639 0.64889,1.4046 1.42098,1.4046 h 0.29569 c 0.77209,0 1.40455,-0.6407 1.42098,-1.4046 v -1.9549 c 0,-0.066 -0.0493,-0.1149 -0.11499,-0.1149 -0.0575,0 -0.10678,0.049 -0.10678,0.1149 v 1.9385 c 0,0.6489 -0.55032,1.1992 -1.19921,1.1992 h -0.29569 c -0.63246,0 -1.18278,-0.5257 -1.19921,-1.1828 v -1.9549 c 0,-0.066 -0.0493,-0.1149 -0.10678,-0.1149 -0.0657,0 -0.11499,0.049 -0.11499,0.1149 z m -0.7228,-0.6489 v -0.01 c -0.0164,-0.7721 -0.6571,-1.4045 -1.42098,-1.4045 h -0.29569 c -0.50104,0 -0.93637,0.2546 -1.22385,0.6899 l -0.0904,0.1561 -0.0904,-0.1561 c -0.25463,-0.4353 -0.73102,-0.6899 -1.21563,-0.6899 h -0.2957 c -0.77209,0 -1.40455,0.6406 -1.42098,1.4045 v 1.9549 c 0,0.066 0.0493,0.115 0.115,0.115 0.0575,0 0.10677,-0.049 0.10677,-0.115 v -1.9631 c 0.0164,-0.6407 0.56675,-1.1746 1.19921,-1.1746 h 0.2957 c 0.64067,0 1.1992,0.5421 1.1992,1.1992 v 1.9385 c 0,0.066 0.0493,0.115 0.10678,0.115 0.0657,0 0.11499,-0.049 0.11499,-0.115 v -1.9631 c 0.0164,-0.6243 0.54211,-1.1746 1.19921,-1.1746 h 0.29569 c 0.63246,0 1.191,0.5339 1.191,1.1992 v 1.9385 c 0,0.066 0.0575,0.115 0.11499,0.115 0.0657,0 0.11499,-0.049 0.11499,-0.115 z m -7.35129,1.9549 c 0,0.057 0.0493,0.1068 0.115,0.1068 0.0575,0 0.10678,-0.049 0.10678,-0.1068 v -3.2116 c 0,-0.066 -0.0493,-0.115 -0.10678,-0.115 -0.0657,0 -0.115,0.049 -0.115,0.115 z m 0.115,-4.2958 c -0.0821,0 -0.14785,0.066 -0.14785,0.1478 0,0.082 0.0657,0.1479 0.14785,0.1479 0.0821,0 0.14784,-0.066 0.14784,-0.1479 0,-0.082 -0.0657,-0.1478 -0.14784,-0.1478 z m -2.66124,2.5873 v -1.4456 h 1.41276 c 0.0657,0 0.11499,-0.049 0.11499,-0.115 0,-0.058 -0.0493,-0.1068 -0.11499,-0.1068 h -1.41276 v -1.002 c 0,-0.057 -0.0493,-0.1068 -0.11499,-0.1068 -0.0575,0 -0.10678,0.049 -0.10678,0.1068 v 3.0801 c 0,0.7721 0.63246,1.4046 1.40455,1.4046 h 0.31212 c 0.0575,0 0.10678,-0.049 0.10678,-0.1068 0,-0.066 -0.0493,-0.115 -0.10678,-0.115 h -0.31212 c -0.64889,0 -1.18278,-0.5339 -1.18278,-1.1828 z m -1.15813,-0.8049 c 0,-0.033 0.008,-0.057 0.008,-0.082 0,-0.1724 -0.0986,-0.3696 -0.22178,-0.501 l -0.0246,-0.025 c -0.15606,-0.1561 -0.36962,-0.2464 -0.59139,-0.2464 h -1.33884 c -0.45175,0 -0.84601,0.3696 -0.84601,0.846 0,1.002 1.39633,0.9528 2.11093,1.0924 0.33676,0.066 0.77209,0.2136 0.77209,0.6899 0,0.3368 -0.27927,0.6161 -0.61603,0.6161 h -1.46204 c -0.28749,0 -0.60782,-0.2382 -0.60782,-0.5339 0,-0.025 0,-0.049 0,-0.09 0,-0.066 -0.0493,-0.115 -0.11499,-0.115 -0.10678,0 -0.115,0.1315 -0.115,0.2136 0,0.4025 0.41069,0.7557 0.83781,0.7557 h 1.46204 c 0.4764,0 0.84602,-0.3943 0.84602,-0.8461 0,-1.4866 -2.88303,-0.5338 -2.88303,-1.7823 0,-0.3368 0.27927,-0.6161 0.61603,-0.6161 h 1.33884 c 0.16428,0 0.32034,0.066 0.43533,0.1807 l 0.0329,0.033 c 0.0739,0.09 0.13963,0.23 0.13963,0.3368 0,0.016 0,0.041 0,0.074 0,0.057 0.0493,0.1068 0.10678,0.1068 0.0657,0 0.11499,-0.049 0.11499,-0.1068 z m -5.84816,-1.922 c 0,-0.066 -0.0493,-0.115 -0.10678,-0.115 -0.0657,0 -0.11499,0.049 -0.11499,0.115 v 1.6591 l -0.18892,-0.1971 c -0.25462,-0.2628 -0.62424,-0.4107 -0.99386,-0.4107 h -0.61603 c -0.77209,0 -1.40455,0.6407 -1.40455,1.4046 v 0.6817 c 0,0.7721 0.63246,1.4046 1.40455,1.4046 h 0.61603 c 0.77209,0 1.40455,-0.6325 1.40455,-1.4046 z m -0.22177,2.6612 v 0.4764 c 0,0.6489 -0.5339,1.1828 -1.18278,1.1828 h -0.61603 c -0.64889,0 -1.18278,-0.5339 -1.18278,-1.1828 v -0.6817 c 0,-0.6489 0.53389,-1.1828 1.18278,-1.1828 h 0.61603 c 0.62424,0 1.18278,0.5257 1.18278,1.1581 z m -4.09043,-0.1807 v -0.01 c 0,-0.7557 -0.6571,-1.4045 -1.42098,-1.4045 h -0.63246 c -0.77209,0 -1.40454,0.6406 -1.42097,1.4045 v 1.9549 c 0,0.066 0.0493,0.115 0.11499,0.115 0.0575,0 0.10678,-0.049 0.10678,-0.115 v -1.9631 c 0.0164,-0.6325 0.55853,-1.1746 1.1992,-1.1746 h 0.63246 c 0.64067,0 1.19921,0.5421 1.19921,1.1992 v 1.9385 c 0,0.066 0.0493,0.115 0.10678,0.115 0.0657,0 0.11499,-0.049 0.11499,-0.115 z m -7.09666,-1.4127 h -0.10678 c -0.0575,0 -0.10678,0.049 -0.10678,0.1149 0,0.057 0.0493,0.1068 0.10678,0.1068 h 1.45384 c 0.5421,0 1.03493,0.3861 1.16635,0.9117 l 0.0328,0.1315 h -2.11093 c -0.61603,0 -1.10885,0.4928 -1.10885,1.1006 0,0.616 0.49282,1.1089 1.10885,1.1089 h 0.91173 c 0.76387,0 1.42919,-0.6325 1.42919,-1.421 v -0.6325 c 0,-0.7885 -0.66532,-1.4209 -1.42919,-1.4209 z m 0.92815,3.2526 h -0.49282 c -0.49282,0 -0.88708,-0.3943 -0.88708,-0.8871 0,-0.4846 0.39426,-0.8789 0.88708,-0.8789 h 2.11093 v 0.5668 c 0,0.6407 -0.53389,1.1992 -1.1992,1.1992 z m 132.13402,-10.8421 c 0,-0.033 0.008,-0.057 0.008,-0.082 0,-0.1725 -0.0986,-0.3696 -0.22178,-0.501 l -0.0246,-0.025 c -0.15606,-0.156 -0.36962,-0.2464 -0.59139,-0.2464 h -1.33884 c -0.45175,0 -0.84601,0.3696 -0.84601,0.846 0,1.0021 1.39633,0.9528 2.11093,1.0925 0.33676,0.066 0.77209,0.2135 0.77209,0.6899 0,0.3368 -0.27927,0.6161 -0.61603,0.6161 h -1.46204 c -0.28749,0 -0.60782,-0.2382 -0.60782,-0.5339 0,-0.025 0,-0.049 0,-0.09 0,-0.066 -0.0493,-0.115 -0.11499,-0.115 -0.10678,0 -0.115,0.1314 -0.115,0.2136 0,0.4024 0.41069,0.7556 0.83781,0.7556 h 1.46204 c 0.4764,0 0.84602,-0.3942 0.84602,-0.846 0,-1.4867 -2.88303,-0.5339 -2.88303,-1.7824 0,-0.3367 0.27927,-0.616 0.61603,-0.616 h 1.33884 c 0.16428,0 0.32034,0.066 0.43533,0.1807 l 0.0329,0.033 c 0.0739,0.09 0.13963,0.23 0.13963,0.3367 0,0.017 0,0.041 0,0.074 0,0.057 0.0493,0.1067 0.10678,0.1067 0.0657,0 0.11499,-0.049 0.11499,-0.1067 z m -4.34505,2.5134 c 0,0.057 0.0493,0.1067 0.11499,0.1067 0.0575,0 0.10678,-0.049 0.10678,-0.1067 v -3.2116 c 0,-0.066 -0.0493,-0.115 -0.10678,-0.115 -0.0657,0 -0.11499,0.049 -0.11499,0.115 z m 0.11499,-4.2958 c -0.0821,0 -0.14785,0.066 -0.14785,0.1478 0,0.082 0.0657,0.1479 0.14785,0.1479 0.0821,0 0.14785,-0.066 0.14785,-0.1479 0,-0.082 -0.0657,-0.1478 -0.14785,-0.1478 z m -1.0842,1.7824 c 0,-0.033 0.008,-0.057 0.008,-0.082 0,-0.1725 -0.0986,-0.3696 -0.22177,-0.501 l -0.0246,-0.025 c -0.15606,-0.156 -0.36962,-0.2464 -0.59139,-0.2464 h -1.33884 c -0.45175,0 -0.84601,0.3696 -0.84601,0.846 0,1.0021 1.39633,0.9528 2.11093,1.0925 0.33676,0.066 0.77209,0.2135 0.77209,0.6899 0,0.3368 -0.27927,0.6161 -0.61603,0.6161 h -1.46205 c -0.28748,0 -0.60781,-0.2382 -0.60781,-0.5339 0,-0.025 0,-0.049 0,-0.09 0,-0.066 -0.0493,-0.115 -0.115,-0.115 -0.10677,0 -0.11499,0.1314 -0.11499,0.2136 0,0.4024 0.41069,0.7556 0.8378,0.7556 h 1.46205 c 0.4764,0 0.84601,-0.3942 0.84601,-0.846 0,-1.4867 -2.88302,-0.5339 -2.88302,-1.7824 0,-0.3367 0.27927,-0.616 0.61603,-0.616 h 1.33884 c 0.16428,0 0.32034,0.066 0.43533,0.1807 l 0.0328,0.033 c 0.0739,0.09 0.13964,0.23 0.13964,0.3367 0,0.017 0,0.041 0,0.074 0,0.057 0.0493,0.1067 0.10678,0.1067 0.0657,0 0.11499,-0.049 0.11499,-0.1067 z m -4.06579,-0.7475 v -0.016 -0.016 l -0.008,-0.01 -0.008,-0.01 -0.008,-0.016 -0.008,-0.01 -0.008,-0.01 -0.008,-0.01 -0.0164,-0.01 -0.008,-0.01 h -0.0164 -0.0164 -0.0164 -0.0164 l -0.0164,0.01 -0.0164,0.01 -0.0164,0.016 -0.008,0.016 -0.008,0.01 -0.008,0.017 v 0.016 l -0.008,0.01 v 1.2978 c 0,0.6406 -0.5339,1.1745 -1.17457,1.1745 -0.64067,0 -1.17456,-0.5339 -1.17456,-1.1745 v -1.2896 c 0,-0.058 -0.0493,-0.1068 -0.11499,-0.1068 -0.0575,0 -0.10678,0.049 -0.10678,0.1068 v 1.2896 c 0,0.7556 0.64067,1.3963 1.39633,1.3963 0.36962,0 0.72281,-0.1478 0.98565,-0.4107 l 0.18892,-0.1889 v 1.4785 c 0,0.6406 -0.5339,1.1745 -1.17457,1.1745 h -0.31212 c -0.0575,0 -0.10678,0.049 -0.10678,0.115 0,0.057 0.0493,0.1068 0.10678,0.1068 h 0.31212 c 0.75567,0 1.39634,-0.6407 1.39634,-1.3963 z m -4.10687,3.2609 c 0,0.057 0.0493,0.1067 0.10677,0.1067 0.0657,0 0.115,-0.049 0.115,-0.1067 v -4.378 c 0,-0.057 -0.0493,-0.1067 -0.115,-0.1067 -0.0575,0 -0.10677,0.049 -0.10677,0.1067 z m -3.62225,-3.3677 h -0.10677 c -0.0575,0 -0.10678,0.049 -0.10678,0.115 0,0.057 0.0493,0.1068 0.10678,0.1068 h 1.45383 c 0.54211,0 1.03493,0.386 1.16635,0.9117 l 0.0328,0.1314 h -2.11093 c -0.61603,0 -1.10885,0.4929 -1.10885,1.1007 0,0.616 0.49282,1.1088 1.10885,1.1088 h 0.91173 c 0.76388,0 1.42919,-0.6324 1.42919,-1.4209 v -0.6325 c 0,-0.7885 -0.66531,-1.421 -1.42919,-1.421 z m 0.92816,3.2527 h -0.49283 c -0.49282,0 -0.88708,-0.3943 -0.88708,-0.8871 0,-0.4846 0.39426,-0.8789 0.88708,-0.8789 h 2.11093 v 0.5668 c 0,0.6406 -0.53389,1.1992 -1.1992,1.1992 z m -2.32448,-1.8399 v -0.01 c 0,-0.7557 -0.65709,-1.4046 -1.42097,-1.4046 h -0.63246 c -0.77209,0 -1.40455,0.6407 -1.42098,1.4046 v 1.9548 c 0,0.066 0.0493,0.115 0.11499,0.115 0.0575,0 0.10678,-0.049 0.10678,-0.115 v -1.963 c 0.0164,-0.6325 0.55854,-1.1746 1.19921,-1.1746 h 0.63246 c 0.64067,0 1.1992,0.5421 1.1992,1.1992 v 1.9384 c 0,0.066 0.0493,0.115 0.10678,0.115 0.0657,0 0.11499,-0.049 0.11499,-0.115 z m -7.09666,-1.4128 h -0.10677 c -0.0575,0 -0.10678,0.049 -0.10678,0.115 0,0.057 0.0493,0.1068 0.10678,0.1068 h 1.45383 c 0.5421,0 1.03493,0.386 1.16635,0.9117 l 0.0328,0.1314 h -2.11093 c -0.61603,0 -1.10885,0.4929 -1.10885,1.1007 0,0.616 0.49282,1.1088 1.10885,1.1088 h 0.91173 c 0.76388,0 1.42919,-0.6324 1.42919,-1.4209 v -0.6325 c 0,-0.7885 -0.66531,-1.421 -1.42919,-1.421 z m 0.92816,3.2527 h -0.49283 c -0.49282,0 -0.88708,-0.3943 -0.88708,-0.8871 0,-0.4846 0.39426,-0.8789 0.88708,-0.8789 h 2.11093 v 0.5668 c 0,0.6406 -0.53389,1.1992 -1.1992,1.1992 z m -4.00006,-0.1972 c 0.0411,-0.066 0.0164,-0.1396 -0.0493,-0.1807 -0.0575,-0.033 -0.13963,-0.016 -0.17249,0.049 -0.41068,0.6982 -0.43532,0.7475 -0.45997,0.7885 -0.0328,0.066 -0.0164,0.1479 0.0493,0.1807 0.0575,0.033 0.13963,0.017 0.1807,-0.049 z m -1.60167,-1.6427 v -0.01 c 0,-0.7557 -0.6571,-1.4046 -1.42098,-1.4046 h -0.63245 c -0.7721,0 -1.40455,0.6407 -1.42098,1.4046 v 1.9548 c 0,0.066 0.0493,0.115 0.11499,0.115 0.0575,0 0.10678,-0.049 0.10678,-0.115 v -1.963 c 0.0164,-0.6325 0.55853,-1.1746 1.19921,-1.1746 h 0.63245 c 0.64068,0 1.19921,0.5421 1.19921,1.1992 v 1.9384 c 0,0.066 0.0493,0.115 0.10678,0.115 0.0657,0 0.11499,-0.049 0.11499,-0.115 z m -6.37385,-1.4128 c -0.77209,0 -1.42098,0.6489 -1.42098,1.421 v 0.6325 c 0,0.7721 0.64889,1.4209 1.42098,1.4209 h 0.63245 c 0.7721,0 1.42098,-0.6488 1.42098,-1.4209 v -0.6325 c 0,-0.7721 -0.64888,-1.421 -1.42098,-1.421 z m 0.63245,0.2218 c 0.64068,0 1.19921,0.5421 1.19921,1.1992 v 0.6325 c 0,0.6488 -0.55032,1.1992 -1.19921,1.1992 h -0.63245 c -0.64889,0 -1.19921,-0.5586 -1.19921,-1.1992 v -0.6325 c 0,-0.6653 0.56675,-1.1992 1.19921,-1.1992 z m -3.3512,3.1459 c 0,0.057 0.0493,0.1067 0.115,0.1067 0.0575,0 0.10678,-0.049 0.10678,-0.1067 v -3.2116 c 0,-0.066 -0.0493,-0.115 -0.10678,-0.115 -0.0657,0 -0.115,0.049 -0.115,0.115 z m 0.115,-4.2958 c -0.0821,0 -0.14785,0.066 -0.14785,0.1478 0,0.082 0.0657,0.1479 0.14785,0.1479 0.0821,0 0.14784,-0.066 0.14784,-0.1479 0,-0.082 -0.0657,-0.1478 -0.14784,-0.1478 z m -2.66124,2.5873 v -1.4456 h 1.41276 c 0.0657,0 0.115,-0.049 0.115,-0.115 0,-0.057 -0.0493,-0.1068 -0.115,-0.1068 h -1.41276 v -1.0021 c 0,-0.057 -0.0493,-0.1067 -0.11499,-0.1067 -0.0575,0 -0.10678,0.049 -0.10678,0.1067 v 3.0802 c 0,0.7721 0.63246,1.4045 1.40455,1.4045 h 0.31212 c 0.0575,0 0.10678,-0.049 0.10678,-0.1067 0,-0.066 -0.0493,-0.115 -0.10678,-0.115 h -0.31212 c -0.64889,0 -1.18278,-0.5339 -1.18278,-1.1828 z m -1.51953,1.7085 c 0,0.057 0.0493,0.1067 0.11499,0.1067 0.0575,0 0.10678,-0.049 0.10678,-0.1067 v -3.2116 c 0,-0.066 -0.0493,-0.115 -0.10678,-0.115 -0.0657,0 -0.11499,0.049 -0.11499,0.115 z m 0.11499,-4.2958 c -0.0821,0 -0.14784,0.066 -0.14784,0.1478 0,0.082 0.0657,0.1479 0.14784,0.1479 0.0821,0 0.14785,-0.066 0.14785,-0.1479 0,-0.082 -0.0657,-0.1478 -0.14785,-0.1478 z m -1.0842,1.7824 c 0,-0.033 0.008,-0.057 0.008,-0.082 0,-0.1725 -0.0986,-0.3696 -0.22177,-0.501 l -0.0246,-0.025 c -0.15606,-0.156 -0.36962,-0.2464 -0.59139,-0.2464 h -1.33884 c -0.45176,0 -0.84602,0.3696 -0.84602,0.846 0,1.0021 1.39634,0.9528 2.11094,1.0925 0.33676,0.066 0.77209,0.2135 0.77209,0.6899 0,0.3368 -0.27927,0.6161 -0.61603,0.6161 h -1.46205 c -0.28748,0 -0.60782,-0.2382 -0.60782,-0.5339 0,-0.025 0,-0.049 0,-0.09 0,-0.066 -0.0493,-0.115 -0.11499,-0.115 -0.10678,0 -0.11499,0.1314 -0.11499,0.2136 0,0.4024 0.41069,0.7556 0.8378,0.7556 h 1.46205 c 0.47639,0 0.84601,-0.3942 0.84601,-0.846 0,-1.4867 -2.88302,-0.5339 -2.88302,-1.7824 0,-0.3367 0.27927,-0.616 0.61603,-0.616 h 1.33884 c 0.16427,0 0.32033,0.066 0.43533,0.1807 l 0.0328,0.033 c 0.0739,0.09 0.13964,0.23 0.13964,0.3367 0,0.017 0,0.041 0,0.074 0,0.057 0.0493,0.1067 0.10677,0.1067 0.0657,0 0.115,-0.049 0.115,-0.1067 z m -4.34506,2.5134 c 0,0.057 0.0493,0.1067 0.11499,0.1067 0.0575,0 0.10678,-0.049 0.10678,-0.1067 v -3.2116 c 0,-0.066 -0.0493,-0.115 -0.10678,-0.115 -0.0657,0 -0.11499,0.049 -0.11499,0.115 z m 0.11499,-4.2958 c -0.0821,0 -0.14784,0.066 -0.14784,0.1478 0,0.082 0.0657,0.1479 0.14784,0.1479 0.0821,0 0.14785,-0.066 0.14785,-0.1479 0,-0.082 -0.0657,-0.1478 -0.14785,-0.1478 z m -4.00008,2.9898 v 0.01 c 0.0164,0.7639 0.64888,1.4045 1.42097,1.4045 h 0.2957 c 0.77209,0 1.40455,-0.6406 1.42097,-1.4045 v -1.9549 c 0,-0.066 -0.0493,-0.115 -0.11499,-0.115 -0.0575,0 -0.10678,0.049 -0.10678,0.115 v 1.9385 c 0,0.6488 -0.55032,1.1992 -1.1992,1.1992 h -0.2957 c -0.63246,0 -1.18278,-0.5257 -1.1992,-1.1828 v -1.9549 c 0,-0.066 -0.0493,-0.115 -0.10678,-0.115 -0.0657,0 -0.11499,0.049 -0.11499,0.115 z m -0.93636,-0.6653 c 0,-0.7557 -0.64068,-1.3964 -1.39634,-1.3964 h -0.61603 c -0.75567,0 -1.39634,0.6407 -1.39634,1.3964 v 0.6817 c 0,0.7557 0.64067,1.3963 1.39634,1.3963 h 0.61603 c 0.36962,0 0.72281,-0.1478 0.98565,-0.4106 l 0.18891,-0.189 v 2.152 c 0,0.058 0.0493,0.1068 0.115,0.1068 0.0575,0 0.10678,-0.049 0.10678,-0.1068 z m -0.22178,0.7063 c 0,0.6325 -0.55853,1.15 -1.17456,1.15 h -0.61603 c -0.64067,0 -1.17457,-0.5339 -1.17457,-1.1746 v -0.6817 c 0,-0.6407 0.5339,-1.1746 1.17457,-1.1746 h 0.61603 c 0.64067,0 1.17456,0.5339 1.17456,1.1746 v 0.4764 z m -4.13972,1.15 h -1.22385 c -0.64888,0 -1.1992,-0.5504 -1.1992,-1.1992 v -0.6325 c 0,-0.6653 0.56674,-1.1992 1.1992,-1.1992 h 1.33063 c 0.0575,0 0.10678,-0.049 0.10678,-0.1068 0,-0.066 -0.0493,-0.115 -0.10678,-0.115 h -1.33063 c -0.77209,0 -1.42097,0.6489 -1.42097,1.421 v 0.6325 c 0,0.7721 0.64888,1.4209 1.42097,1.4209 h 1.33063 c 0.0575,0 0.10678,-0.049 0.10678,-0.115 0,-0.057 -0.0493,-0.1067 -0.10678,-0.1067 z m -6.26707,-3.2527 h -0.10678 c -0.0575,0 -0.10678,0.049 -0.10678,0.115 0,0.057 0.0493,0.1068 0.10678,0.1068 h 1.45383 c 0.54211,0 1.03493,0.386 1.16635,0.9117 l 0.0329,0.1314 h -2.11094 c -0.61603,0 -1.10885,0.4929 -1.10885,1.1007 0,0.616 0.49282,1.1088 1.10885,1.1088 h 0.91173 c 0.76388,0 1.42919,-0.6324 1.42919,-1.4209 v -0.6325 c 0,-0.7885 -0.66531,-1.421 -1.42919,-1.421 z m 0.92815,3.2527 h -0.49283 c -0.49282,0 -0.88708,-0.3943 -0.88708,-0.8871 0,-0.4846 0.39426,-0.8789 0.88708,-0.8789 h 2.11094 v 0.5668 c 0,0.6406 -0.5339,1.1992 -1.19921,1.1992 z m -6.98986,-1.8399 v 1.9466 c 0,0.066 0.0493,0.115 0.11499,0.115 0.0575,0 0.10678,-0.049 0.10678,-0.115 v -1.963 c 0.0164,-0.6407 0.56674,-1.1746 1.1992,-1.1746 h 0.44354 c 0.31213,0 0.61603,0.1314 0.84602,0.3532 0.0246,0.025 0.0493,0.033 0.0821,0.033 0.0575,0 0.10678,-0.049 0.10678,-0.1149 0,-0.025 -0.008,-0.057 -0.0329,-0.074 -0.26284,-0.271 -0.62424,-0.4189 -1.00208,-0.4189 h -0.44354 c -0.77209,0 -1.40455,0.6407 -1.42097,1.4046 z m -2.89945,-1.4128 c -0.77209,0 -1.42097,0.6489 -1.42097,1.421 v 0.6325 c 0,0.7721 0.64888,1.4209 1.42097,1.4209 h 0.63246 c 0.77209,0 1.42098,-0.6488 1.42098,-1.4209 v -0.6325 c 0,-0.7721 -0.64889,-1.421 -1.42098,-1.421 z m 0.63246,0.2218 c 0.64067,0 1.19921,0.5421 1.19921,1.1992 v 0.6325 c 0,0.6488 -0.55032,1.1992 -1.19921,1.1992 h -0.63246 c -0.64888,0 -1.1992,-0.5586 -1.1992,-1.1992 v -0.6325 c 0,-0.6653 0.56674,-1.1992 1.1992,-1.1992 z m -4.72289,0.4764 v 2.6695 c 0,0.057 0.0493,0.1067 0.10678,0.1067 0.0657,0 0.11499,-0.049 0.11499,-0.1067 v -1.15 h 1.41276 c 0.0657,0 0.115,-0.049 0.115,-0.1067 0,-0.066 -0.0493,-0.115 -0.115,-0.115 h -1.41276 v -1.7085 c 0,-0.6571 0.53389,-1.1828 1.18278,-1.1828 h 0.31212 c 0.0575,0 0.10678,-0.049 0.10678,-0.115 0,-0.057 -0.0493,-0.1067 -0.10678,-0.1067 h -0.31212 c -0.77209,0 -1.40455,0.6324 -1.40455,1.4045 z m -3.13764,2.6695 c 0,0.057 0.0493,0.1067 0.10678,0.1067 0.0657,0 0.115,-0.049 0.115,-0.1067 v -4.378 c 0,-0.057 -0.0493,-0.1067 -0.115,-0.1067 -0.0575,0 -0.10678,0.049 -0.10678,0.1067 z m -2.89944,-3.3677 c -0.77209,0 -1.42097,0.6489 -1.42097,1.421 v 0.6325 c 0,0.7721 0.64888,1.4209 1.42097,1.4209 h 0.63246 c 0.77209,0 1.42098,-0.6488 1.42098,-1.4209 v -0.6325 c 0,-0.7721 -0.64889,-1.421 -1.42098,-1.421 z m 0.63246,0.2218 c 0.64067,0 1.19921,0.5421 1.19921,1.1992 v 0.6325 c 0,0.6488 -0.55032,1.1992 -1.19921,1.1992 h -0.63246 c -0.64888,0 -1.1992,-0.5586 -1.1992,-1.1992 v -0.6325 c 0,-0.6653 0.56674,-1.1992 1.1992,-1.1992 z m -4.95288,-0.2218 c -0.77209,0 -1.42097,0.6489 -1.42097,1.421 v 0.6325 c 0,0.7721 0.64888,1.4209 1.42097,1.4209 h 0.63246 c 0.77209,0 1.42098,-0.6488 1.42098,-1.4209 v -0.6325 c 0,-0.7721 -0.64889,-1.421 -1.42098,-1.421 z m 0.63246,0.2218 c 0.64067,0 1.19921,0.5421 1.19921,1.1992 v 0.6325 c 0,0.6488 -0.55032,1.1992 -1.19921,1.1992 h -0.63246 c -0.64888,0 -1.1992,-0.5586 -1.1992,-1.1992 v -0.6325 c 0,-0.6653 0.56675,-1.1992 1.1992,-1.1992 z m -4.56682,1.4374 v -1.4456 h 1.41276 c 0.0657,0 0.11499,-0.049 0.11499,-0.115 0,-0.057 -0.0493,-0.1068 -0.11499,-0.1068 h -1.41276 v -1.0021 c 0,-0.057 -0.0493,-0.1067 -0.115,-0.1067 -0.0575,0 -0.10677,0.049 -0.10677,0.1067 v 3.0802 c 0,0.7721 0.63245,1.4045 1.40455,1.4045 h 0.31212 c 0.0575,0 0.10678,-0.049 0.10678,-0.1067 0,-0.066 -0.0493,-0.115 -0.10678,-0.115 h -0.31212 c -0.64889,0 -1.18278,-0.5339 -1.18278,-1.1828 z m -6.18493,0.5421 h 3.09658 c 0.10678,0 0.19713,-0.09 0.19713,-0.2053 v -0.575 c 0,-0.7721 -0.64888,-1.421 -1.42098,-1.421 h -0.63245 c -0.7721,0 -1.42098,0.6489 -1.42098,1.421 v 0.5668 c 0,0.7885 0.59139,1.4866 1.42098,1.4866 h 1.52775 c 0.0575,0 0.10678,-0.049 0.10678,-0.115 0,-0.057 -0.0493,-0.1067 -0.10678,-0.1067 h -1.52775 c -0.45997,0 -0.90351,-0.2793 -1.09243,-0.7146 z m 3.07194,-0.2218 h -3.03087 v -0.5585 c 0,-0.6571 0.55853,-1.1992 1.19921,-1.1992 h 0.63245 c 0.64889,0 1.19921,0.5503 1.19921,1.1992 z m -3.97544,-0.5667 v -0.01 c -0.0164,-0.7721 -0.6571,-1.4046 -1.42098,-1.4046 h -0.29569 c -0.50104,0 -0.93637,0.2547 -1.22385,0.69 l -0.0904,0.156 -0.0904,-0.156 c -0.25463,-0.4353 -0.73103,-0.69 -1.21564,-0.69 h -0.29569 c -0.77209,0 -1.40455,0.6407 -1.42098,1.4046 v 1.9548 c 0,0.066 0.0493,0.115 0.11499,0.115 0.0575,0 0.10678,-0.049 0.10678,-0.115 v -1.963 c 0.0164,-0.6407 0.56675,-1.1746 1.19921,-1.1746 h 0.29569 c 0.64068,0 1.19921,0.5421 1.19921,1.1992 v 1.9384 c 0,0.066 0.0493,0.115 0.10678,0.115 0.0657,0 0.11499,-0.049 0.11499,-0.115 v -1.963 c 0.0164,-0.6243 0.54211,-1.1746 1.19921,-1.1746 h 0.29569 c 0.63246,0 1.19099,0.5339 1.19099,1.1992 v 1.9384 c 0,0.066 0.0575,0.115 0.115,0.115 0.0657,0 0.11499,-0.049 0.11499,-0.115 z m -7.35129,1.9549 c 0,0.057 0.0493,0.1067 0.11499,0.1067 0.0575,0 0.10678,-0.049 0.10678,-0.1067 v -3.2116 c 0,-0.066 -0.0493,-0.115 -0.10678,-0.115 -0.0657,0 -0.11499,0.049 -0.11499,0.115 z m 0.11499,-4.2958 c -0.0821,0 -0.14784,0.066 -0.14784,0.1478 0,0.082 0.0657,0.1479 0.14784,0.1479 0.0821,0 0.14785,-0.066 0.14785,-0.1479 0,-0.082 -0.0657,-0.1478 -0.14785,-0.1478 z m -2.66123,2.5873 v -1.4456 h 1.41276 c 0.0657,0 0.11499,-0.049 0.11499,-0.115 0,-0.057 -0.0493,-0.1068 -0.11499,-0.1068 h -1.41276 v -1.0021 c 0,-0.057 -0.0493,-0.1067 -0.115,-0.1067 -0.0575,0 -0.10677,0.049 -0.10677,0.1067 v 3.0802 c 0,0.7721 0.63245,1.4045 1.40455,1.4045 h 0.31212 c 0.0575,0 0.10678,-0.049 0.10678,-0.1067 0,-0.066 -0.0493,-0.115 -0.10678,-0.115 h -0.31212 c -0.64889,0 -1.18278,-0.5339 -1.18278,-1.1828 z m -4.4847,0.082 c 1.14993,0 2.30806,0 3.45799,0 0.0657,0 0.11499,-0.049 0.11499,-0.1067 0,-0.066 -0.0493,-0.115 -0.11499,-0.115 -1.14993,0 -2.30806,0 -3.45799,0 -0.0657,0 -0.11499,0.049 -0.11499,0.115 0,0.057 0.0493,0.1067 0.11499,0.1067 z m -1.42919,1.6264 c 0,0.057 0.0493,0.1067 0.10678,0.1067 0.0657,0 0.11499,-0.049 0.11499,-0.1067 v -4.378 c 0,-0.057 -0.0493,-0.1067 -0.11499,-0.1067 -0.0575,0 -0.10678,0.049 -0.10678,0.1067 z m -3.62224,-3.3677 h -0.10678 c -0.0575,0 -0.10678,0.049 -0.10678,0.115 0,0.057 0.0493,0.1068 0.10678,0.1068 h 1.45383 c 0.54211,0 1.03493,0.386 1.16635,0.9117 l 0.0329,0.1314 h -2.11093 c -0.61604,0 -1.10886,0.4929 -1.10886,1.1007 0,0.616 0.49282,1.1088 1.10886,1.1088 h 0.91172 c 0.76388,0 1.42919,-0.6324 1.42919,-1.4209 v -0.6325 c 0,-0.7885 -0.66531,-1.421 -1.42919,-1.421 z m 0.92815,3.2527 h -0.49282 c -0.49283,0 -0.88709,-0.3943 -0.88709,-0.8871 0,-0.4846 0.39426,-0.8789 0.88709,-0.8789 h 2.11093 v 0.5668 c 0,0.6406 -0.5339,1.1992 -1.19921,1.1992 z m -5.57712,-1.0514 h 3.09658 c 0.10678,0 0.19713,-0.09 0.19713,-0.2053 v -0.575 c 0,-0.7721 -0.64889,-1.421 -1.42098,-1.421 h -0.63246 c -0.77209,0 -1.42098,0.6489 -1.42098,1.421 v 0.5668 c 0,0.7885 0.59139,1.4866 1.42098,1.4866 h 1.52776 c 0.0575,0 0.10678,-0.049 0.10678,-0.115 0,-0.057 -0.0493,-0.1067 -0.10678,-0.1067 h -1.52776 c -0.45997,0 -0.90351,-0.2793 -1.09243,-0.7146 z m 3.07194,-0.2218 h -3.03087 v -0.5585 c 0,-0.6571 0.55853,-1.1992 1.1992,-1.1992 h 0.63246 c 0.64889,0 1.19921,0.5503 1.19921,1.1992 z m -6.72704,-0.5667 v 1.9466 c 0,0.066 0.0493,0.115 0.11499,0.115 0.0575,0 0.10678,-0.049 0.10678,-0.115 v -1.963 c 0.0164,-0.6407 0.56674,-1.1746 1.1992,-1.1746 h 0.44354 c 0.31213,0 0.61604,0.1314 0.84602,0.3532 0.0246,0.025 0.0493,0.033 0.0821,0.033 0.0575,0 0.10678,-0.049 0.10678,-0.1149 0,-0.025 -0.008,-0.057 -0.0329,-0.074 -0.26284,-0.271 -0.62424,-0.4189 -1.00208,-0.4189 h -0.44354 c -0.77209,0 -1.40455,0.6407 -1.42097,1.4046 z m -4.41897,-2.4066 c -0.12321,-0.082 -0.27106,-0.1232 -0.4189,-0.1232 -0.13964,0 -0.27106,0.033 -0.39426,0.1067 l -0.0164,0.017 c -0.13142,0.082 -0.22177,0.1971 -0.27927,0.3367 l -1.66739,3.9919 c -0.008,0.016 -0.008,0.025 -0.008,0.041 0,0.057 0.0493,0.099 0.0986,0.099 0.0411,0 0.0739,-0.016 0.0904,-0.058 l 0.50103,-1.1992 h 3.35942 l 0.50104,1.1992 c 0.008,0.041 0.0411,0.058 0.0821,0.058 0.0575,0 0.0986,-0.049 0.0986,-0.1067 0,-0.01 0,-0.025 0,-0.033 l -1.66738,-3.9919 c -0.0575,-0.1314 -0.14785,-0.2464 -0.26284,-0.3285 h -0.008 z m -0.62425,0.115 c 0.0657,-0.025 0.13964,-0.041 0.20535,-0.041 0.11499,0 0.22177,0.033 0.31212,0.09 l 0.008,0.01 c 0.0904,0.057 0.15606,0.1478 0.18892,0.2382 l 1.09243,2.6037 h -3.19515 l 1.08422,-2.6037 c 0.0411,-0.099 0.11499,-0.1808 0.20534,-0.2465 l 0.0986,-0.066 z m 122.87144,-19.7442 h 1.035 v 9.952 l 4.976,-4.976 h 1.4729 l -4.976,4.976 4.976,4.976 h -1.4729 l -4.976,-4.976 v 4.976 h -1.035 z m -5.87166,14.928 h -1.035 v -4.976 q 0,-1.0748 0.39808,-2.0302 0.41798,-0.9554 1.11462,-1.652 0.71654,-0.7166 1.65203,-1.1147 0.95539,-0.4179 2.03021,-0.4179 v 1.0549 q -0.85587,0 -1.61222,0.3383 -0.75636,0.3185 -1.33357,0.8758 -0.55731,0.5573 -0.89568,1.3336 -0.31847,0.7563 -0.31847,1.6122 z m -7.80236,-10.1908 q 1.07481,0 2.0103,0.4179 0.95539,0.3981 1.65203,1.1147 0.71655,0.6966 1.11463,1.652 0.41798,0.9554 0.41798,2.0302 0,1.0748 -0.41798,2.0302 -0.39808,0.9355 -1.11463,1.652 -0.69664,0.6967 -1.65203,1.1147 -0.93549,0.398 -2.0103,0.398 -1.07482,0 -2.03021,-0.398 -0.93549,-0.418 -1.65203,-1.1147 -0.69664,-0.7165 -1.11463,-1.652 -0.39808,-0.9554 -0.39808,-2.0302 0,-1.0748 0.39808,-2.0302 0.41799,-0.9554 1.11463,-1.652 0.71654,-0.7166 1.65203,-1.1147 0.95539,-0.4179 2.03021,-0.4179 z m 0,1.0549 q -0.87578,0 -1.63213,0.3383 -0.75635,0.3185 -1.31367,0.8758 -0.55731,0.5573 -0.89568,1.3336 -0.31846,0.7563 -0.31846,1.6122 0,0.8559 0.31846,1.6122 0.33837,0.7564 0.89568,1.3336 0.55732,0.5573 1.31367,0.8957 0.75635,0.3184 1.63213,0.3184 0.85587,0 1.61222,-0.3184 0.75635,-0.3384 1.31366,-0.8957 0.57722,-0.5772 0.89568,-1.3336 0.33837,-0.7563 0.33837,-1.6122 0,-0.8559 -0.33837,-1.6122 -0.31846,-0.7763 -0.89568,-1.3336 -0.55731,-0.5573 -1.31366,-0.8758 -0.75635,-0.3383 -1.61222,-0.3383 z m -17.4757,9.3548 q -0.81606,0 -1.5326,-0.2985 -0.69664,-0.3185 -1.23405,-0.836 -0.51751,-0.5374 -0.83597,-1.234 -0.29856,-0.7166 -0.29856,-1.5326 v -6.2698 h 1.05491 v 6.2698 q 0,0.5971 0.21895,1.1345 0.21894,0.5175 0.59712,0.9156 0.39808,0.3782 0.91558,0.5971 0.5175,0.2189 1.11462,0.2189 0.59712,0 1.11463,-0.2189 0.5175,-0.2189 0.89568,-0.5971 0.39808,-0.3981 0.61702,-0.9156 0.23885,-0.5374 0.23885,-1.1345 v -6.2698 h 1.03501 v 6.2698 q 0,0.5971 0.21894,1.1345 0.23885,0.5175 0.61703,0.9156 0.39808,0.3782 0.91558,0.5971 0.5175,0.2189 1.11462,0.2189 0.59712,0 1.11463,-0.2189 0.5175,-0.2189 0.89568,-0.5971 0.39808,-0.3981 0.61702,-0.9156 0.23885,-0.5374 0.23885,-1.1345 v -6.2698 h 1.03501 v 6.2698 q 0,0.816 -0.31847,1.5326 -0.29856,0.6966 -0.83596,1.234 -0.51751,0.5175 -1.23405,0.836 -0.71655,0.2985 -1.51271,0.2985 -1.07481,0 -1.97049,-0.5175 -0.89568,-0.5374 -1.41319,-1.433 -0.5175,0.8956 -1.41318,1.433 -0.87578,0.5175 -1.9705,0.5175 z m -6.66782,-5.6726 q -0.0995,-0.7762 -0.4578,-1.4331 -0.35827,-0.6568 -0.91558,-1.1544 -0.53741,-0.4976 -1.25395,-0.7763 -0.69664,-0.2786 -1.4928,-0.2786 -0.79616,0 -1.51271,0.2786 -0.71654,0.2787 -1.27385,0.7763 -0.53741,0.4976 -0.89568,1.1544 -0.35827,0.6569 -0.45779,1.4331 z m -4.12013,5.7125 q -1.07482,0 -2.03021,-0.3981 -0.95539,-0.418 -1.67194,-1.1146 -0.69664,-0.7166 -1.11462,-1.6521 -0.39808,-0.9554 -0.39808,-2.0302 0,-1.0748 0.39808,-2.0302 0.41798,-0.9554 1.11462,-1.652 0.71655,-0.7166 1.67194,-1.1147 0.95539,-0.4179 2.03021,-0.4179 1.07481,0 2.0103,0.4179 0.95539,0.3981 1.65203,1.1147 0.71655,0.6966 1.11463,1.652 0.41798,0.9554 0.41798,2.0302 0,0.1393 0,0.2588 0,0.1194 -0.0199,0.2587 h -0.23885 -9.07622 q 0.0995,0.7763 0.45779,1.4331 0.35827,0.6568 0.89568,1.1544 0.55731,0.4976 1.27385,0.7763 0.71655,0.2786 1.51271,0.2786 0.57721,0 1.09472,-0.2189 0.5175,-0.2189 0.91558,-0.617 l 0.73645,0.7364 q -0.5175,0.5175 -1.23405,0.836 -0.69664,0.2986 -1.5127,0.2986 z m -17.97328,-10.4496 q 1.07481,0 1.97049,0.5374 0.89568,0.5374 1.41319,1.4331 0.5175,-0.8957 1.39328,-1.4331 0.89568,-0.5374 1.9904,-0.5374 0.79616,0 1.5127,0.3184 0.71654,0.2986 1.23405,0.836 0.53741,0.5175 0.83597,1.234 0.31846,0.7166 0.31846,1.5127 v 6.2897 h -1.05491 v -6.2897 q 0,-0.5971 -0.21895,-1.1146 -0.21894,-0.5175 -0.61702,-0.8957 -0.37818,-0.398 -0.89568,-0.617 -0.5175,-0.2189 -1.11462,-0.2189 -0.59712,0 -1.13453,0.2189 -0.51751,0.219 -0.91559,0.617 -0.37817,0.3782 -0.59712,0.8957 -0.21894,0.5175 -0.21894,1.1146 v 6.2897 h -1.03501 v -6.2897 q 0,-0.5971 -0.23885,-1.1146 -0.21894,-0.5175 -0.61702,-0.8957 -0.37818,-0.398 -0.89568,-0.617 -0.5175,-0.2189 -1.11462,-0.2189 -0.59712,0 -1.13453,0.2189 -0.51751,0.219 -0.91559,0.617 -0.37817,0.3782 -0.59712,0.8957 -0.21894,0.5175 -0.21894,1.1146 v 6.2897 h -1.03501 v -6.2897 q 0,-0.7961 0.29856,-1.5127 0.31847,-0.7165 0.83597,-1.234 0.53741,-0.5374 1.23405,-0.836 0.71654,-0.3184 1.53261,-0.3184 z m -10.82777,-0.02 q 1.07481,0 2.0302,0.4179 0.9554,0.3981 1.65204,1.1147 0.71654,0.6966 1.11462,1.652 0.41798,0.9554 0.41798,2.0302 v 4.976 h -1.05491 v -1.8511 q -0.69664,0.9554 -1.79136,1.5127 -1.07481,0.5573 -2.36857,0.5573 -1.07482,0 -2.03021,-0.398 -0.93549,-0.418 -1.65203,-1.1147 -0.69664,-0.7165 -1.11463,-1.652 -0.39808,-0.9554 -0.39808,-2.0302 0,-1.0748 0.39808,-2.0302 0.41799,-0.9554 1.11463,-1.652 0.71654,-0.7166 1.65203,-1.1147 0.95539,-0.4179 2.03021,-0.4179 z m 0,1.0549 q -0.85588,0 -1.61223,0.3383 -0.75635,0.3185 -1.33357,0.8758 -0.55731,0.5573 -0.89568,1.3336 -0.31846,0.7563 -0.31846,1.6122 0,0.8559 0.31846,1.6122 0.33837,0.7564 0.89568,1.3336 0.57722,0.5573 1.33357,0.8957 0.75635,0.3184 1.61223,0.3184 0.85587,0 1.61222,-0.3184 0.77626,-0.3384 1.33357,-0.8957 0.55731,-0.5772 0.87577,-1.3336 0.33837,-0.7563 0.33837,-1.6122 0,-0.8559 -0.33837,-1.6122 -0.31846,-0.7763 -0.87577,-1.3336 -0.55731,-0.5573 -1.33357,-0.8758 -0.75635,-0.3383 -1.61222,-0.3383 z m -9.85243,9.1558 h -1.03501 v -4.976 q 0,-1.0748 0.39808,-2.0302 0.41799,-0.9554 1.11463,-1.652 0.71654,-0.7166 1.65203,-1.1147 0.95539,-0.4179 2.03021,-0.4179 v 1.0549 q -0.85588,0 -1.61223,0.3383 -0.75635,0.3185 -1.33357,0.8758 -0.55731,0.5573 -0.89568,1.3336 -0.31846,0.7563 -0.31846,1.6122 z m -10.38984,-14.5697 v 0 0 h 8.71796 v 1.0549 h -7.68295 v 5.7124 h 6.70765 v 1.0549 h -6.70765 v 6.7475 h -1.03501 z m -11.44474,0 h 1.03501 v 14.5697 h -1.03501 z m -6.40905,-0.1792 q 1.45299,0 2.62733,0.7166 1.19424,0.6966 1.89088,1.8909 l -0.91559,0.5175 q -0.5374,-0.9554 -1.4928,-1.5127 -0.93548,-0.5773 -2.10982,-0.5773 -0.85587,0 -1.61222,0.3384 -0.75636,0.3185 -1.33357,0.8957 -0.55731,0.5573 -0.89568,1.3137 -0.31847,0.7563 -0.31847,1.6122 v 4.5779 q 0,0.8758 0.31847,1.6321 0.33837,0.7564 0.89568,1.3137 0.57721,0.5573 1.33357,0.8957 0.75635,0.3184 1.61222,0.3184 1.17434,0 2.10982,-0.5573 0.9554,-0.5772 1.4928,-1.5127 l 0.91559,0.5175 q -0.69664,1.1744 -1.89088,1.8909 -1.17434,0.6966 -2.62733,0.6966 -1.07482,0 -2.03021,-0.398 -0.93549,-0.418 -1.65203,-1.1147 -0.69664,-0.7165 -1.11462,-1.652 -0.39808,-0.9554 -0.39808,-2.0302 v -4.5779 q 0,-1.0748 0.39808,-2.0103 0.41798,-0.9554 1.11462,-1.6521 0.71654,-0.7165 1.65203,-1.1146 0.95539,-0.418 2.03021,-0.418 z m -11.52438,0.1792 q 0.79616,0 1.5127,0.3184 0.71655,0.2986 1.23405,0.836 0.53741,0.5175 0.83597,1.2341 0.31846,0.7165 0.31846,1.5326 0,1.035 -0.4976,1.9107 -0.47769,0.8559 -1.31366,1.3734 0.95539,0.4777 1.53261,1.4132 0.59712,0.9156 0.59712,2.0501 0,0.8161 -0.31847,1.5326 -0.29856,0.6967 -0.83597,1.2341 -0.5175,0.5175 -1.23404,0.8359 -0.71655,0.2986 -1.51271,0.2986 h -5.15513 v -6.7475 -1.0549 -6.7673 z m 0.31846,7.8023 q -0.0796,0 -0.15923,0.02 -0.0796,0 -0.15923,0 h -3.80167 v 5.7125 h 4.12013 q 0.59712,0 1.11463,-0.2189 0.5175,-0.219 0.89568,-0.5972 0.39808,-0.398 0.61702,-0.9156 0.23885,-0.5374 0.23885,-1.1345 0,-0.5971 -0.23885,-1.1146 -0.21894,-0.5175 -0.61702,-0.8957 -0.37818,-0.3981 -0.89568,-0.617 -0.51751,-0.2389 -1.11463,-0.2389 z m -0.31846,-1.035 q 0.59712,0 1.11462,-0.2189 0.51751,-0.219 0.89568,-0.5971 0.39808,-0.3981 0.61703,-0.9156 0.21894,-0.5175 0.21894,-1.1146 0,-0.5972 -0.21894,-1.1147 -0.21895,-0.5175 -0.61703,-0.8956 -0.37817,-0.3981 -0.89568,-0.6171 -0.5175,-0.2388 -1.11462,-0.2388 h -3.80167 v 5.7124 z"
             style="opacity:1;fill:#31363b;fill-opacity:1;stroke:none;stroke-width:0.13064;stroke-linecap:square;stroke-linejoin:miter;stroke-miterlimit:4;stroke-dasharray:none;stroke-dashoffset:0;stroke-opacity:1;paint-order:fill markers stroke"
             id="rect873" />
          <text
             id="text1181"
             y="2086.9775"
             x="-314.32211"
             style="font-style:normal;font-variant:normal;font-weight:normal;font-stretch:normal;font-size:9.82085px;line-height:1.25;font-family:Comfortaa;-inkscape-font-specification:Comfortaa;letter-spacing:0px;word-spacing:0px;stroke-width:0.245521"
             xml:space="preserve"><tspan
               style="font-style:normal;font-variant:normal;font-weight:normal;font-stretch:normal;font-family:Trench;-inkscape-font-specification:Trench;stroke-width:0.245521"
               y="2086.9775"
               x="-314.32211"
               id="tspan1179"
               sodipodi:role="line">A distributed processing tool, stimuli delivery, psychophysiological experiments, and real-time visualizations for OpenBCI.</tspan></text>
        </g>
      </g>
    </g>
    <g
       id="g955"
       transform="translate(1.0478847,150.10965)" />
  </g>
</svg>
