<?xml version="1.0" encoding="UTF-8" standalone="no"?>
<!-- Created with Inkscape (http://www.inkscape.org/) -->

<svg
   xmlns:dc="http://purl.org/dc/elements/1.1/"
   xmlns:cc="http://creativecommons.org/ns#"
   xmlns:rdf="http://www.w3.org/1999/02/22-rdf-syntax-ns#"
   xmlns:svg="http://www.w3.org/2000/svg"
   xmlns="http://www.w3.org/2000/svg"
   xmlns:sodipodi="http://sodipodi.sourceforge.net/DTD/sodipodi-0.dtd"
   xmlns:inkscape="http://www.inkscape.org/namespaces/inkscape"
   width="20"
   height="20"
   viewBox="0 0 5.2916664 5.2916664"
   version="1.1"
   id="svg8"
   inkscape:version="0.92.4 5da689c313, 2019-01-14"
   sodipodi:docname="brain.svg"
   inkscape:export-filename="/home/yeison/Development/piton/art/icon_lite.png"
   inkscape:export-xdpi="96"
   inkscape:export-ydpi="96">
  <defs
     id="defs2">
    <clipPath
       id="clipPath20"
       clipPathUnits="userSpaceOnUse">
      <path
         inkscape:connector-curvature="0"
         id="path18"
         d="M 0,708 V 5000 H 4292 V 708 Z" />
    </clipPath>
    <clipPath
       id="clipPath32"
       clipPathUnits="userSpaceOnUse">
      <path
         inkscape:connector-curvature="0"
         id="path30"
         d="m 4276,0 v 5000 h 724 V 0 Z" />
    </clipPath>
    <clipPath
       id="clipPath44"
       clipPathUnits="userSpaceOnUse">
      <path
         inkscape:connector-curvature="0"
         id="path42"
         d="M 0,724 H 4292 V 0 H 0 Z" />
    </clipPath>
  </defs>
  <sodipodi:namedview
     id="base"
     pagecolor="#ffffff"
     bordercolor="#666666"
     borderopacity="1.0"
     inkscape:pageopacity="0.0"
     inkscape:pageshadow="2"
     inkscape:zoom="39.829384"
     inkscape:cx="9.9948344"
     inkscape:cy="10.005203"
     inkscape:document-units="px"
     inkscape:current-layer="layer1"
     showgrid="true"
     inkscape:window-width="1920"
     inkscape:window-height="1004"
     inkscape:window-x="0"
     inkscape:window-y="0"
     inkscape:window-maximized="1"
     inkscape:showpageshadow="false"
     units="px"
     inkscape:pagecheckerboard="false"
     showguides="false"
     inkscape:snap-bbox="true"
     inkscape:bbox-paths="true"
     inkscape:bbox-nodes="true"
     inkscape:snap-bbox-edge-midpoints="true"
     inkscape:snap-bbox-midpoints="true"
     inkscape:snap-nodes="true"
     inkscape:object-paths="true"
     inkscape:snap-intersection-paths="true"
     inkscape:snap-smooth-nodes="true"
     inkscape:snap-midpoints="true"
     inkscape:snap-global="true"
     fit-margin-top="0"
     fit-margin-left="0"
     fit-margin-right="0"
     fit-margin-bottom="0"
     inkscape:guide-bbox="true">
    <inkscape:grid
       type="xygrid"
       id="grid974"
       empspacing="8"
       spacingx="0.26458332"
       spacingy="0.26458332"
       dotted="false"
       visible="true"
       enabled="true"
       snapvisiblegridlinesonly="true"
       originx="0"
       originy="0" />
  </sodipodi:namedview>
  <metadata
     id="metadata5">
    <rdf:RDF>
      <cc:Work
         rdf:about="">
        <dc:format>image/svg+xml</dc:format>
        <dc:type
           rdf:resource="http://purl.org/dc/dcmitype/StillImage" />
        <dc:title></dc:title>
      </cc:Work>
    </rdf:RDF>
  </metadata>
  <g
     inkscape:label="Layer 1"
     inkscape:groupmode="layer"
     id="layer1"
     transform="translate(0,-291.70835)">
    <g
       id="g847"
       transform="matrix(0.05207439,0,0,0.05207453,-0.90125164,282.41203)">
      <g
         id="g851">
        <g
           id="g1059"
           transform="matrix(1.9986219,0,0,1.9986185,17.324484,-313.52314)">
          <path
             inkscape:transform-center-y="3.175"
             style="opacity:1;fill:none;fill-opacity:0.49382719;stroke:#000000;stroke-width:0.07000433;stroke-linecap:round;stroke-linejoin:round;stroke-miterlimit:4;stroke-dasharray:none;stroke-dashoffset:0;stroke-opacity:1;paint-order:stroke fill markers"
             d="M 25.399999,271.60002 -8.0000008e-7,246.20002 H 50.799999 Z"
             id="path883"
             inkscape:connector-curvature="0"
             sodipodi:nodetypes="cccc" />
          <path
             sodipodi:nodetypes="cccc"
             inkscape:connector-curvature="0"
             id="path880"
             d="m 25.399999,271.60002 25.399999,25.4 H 0 Z"
             inkscape:transform-center-y="-3.1749995"
             style="opacity:1;fill:none;fill-opacity:0.49382719;stroke:#000000;stroke-width:0.07000433;stroke-linecap:round;stroke-linejoin:round;stroke-miterlimit:4;stroke-dasharray:none;stroke-dashoffset:0;stroke-opacity:1;paint-order:stroke fill markers" />
          <rect
             ry="5.0534658"
             y="253.84885"
             x="7.6487389"
             height="35.528759"
             width="35.528786"
             id="rect870"
             style="opacity:1;fill:none;fill-opacity:0.49382719;stroke:#000000;stroke-width:0.06184419;stroke-linecap:round;stroke-linejoin:round;stroke-miterlimit:4;stroke-dasharray:none;stroke-dashoffset:0;stroke-opacity:1;paint-order:stroke fill markers" />
          <circle
             r="25.396828"
             cy="271.60001"
             cx="25.4"
             id="path872"
             style="opacity:1;fill:none;fill-opacity:0.49382719;stroke:#000000;stroke-width:0.07635882;stroke-linecap:round;stroke-linejoin:round;stroke-miterlimit:4;stroke-dasharray:none;stroke-dashoffset:0;stroke-opacity:1;paint-order:stroke fill markers" />
          <circle
             transform="rotate(-45)"
             cx="-174.08969"
             cy="210.01071"
             r="12.656071"
             id="path876"
             style="opacity:1;fill:none;fill-opacity:0.49382719;stroke:#000000;stroke-width:0.07399406;stroke-linecap:round;stroke-linejoin:round;stroke-miterlimit:4;stroke-dasharray:none;stroke-dashoffset:0;stroke-opacity:1;paint-order:stroke fill markers" />
          <path
             inkscape:transform-center-x="-3.1749999"
             sodipodi:nodetypes="cccc"
             inkscape:connector-curvature="0"
             id="path904"
             d="m 25.4,271.60002 -25.40000040000004,25.4 v -50.8 z"
             style="opacity:1;fill:none;fill-opacity:0.49382719;stroke:#000000;stroke-width:0.07000433;stroke-linecap:round;stroke-linejoin:round;stroke-miterlimit:4;stroke-dasharray:none;stroke-dashoffset:0;stroke-opacity:1;paint-order:stroke fill markers" />
          <path
             inkscape:transform-center-x="3.175"
             style="opacity:1;fill:none;fill-opacity:0.49382719;stroke:#000000;stroke-width:0.07000433;stroke-linecap:round;stroke-linejoin:round;stroke-miterlimit:4;stroke-dasharray:none;stroke-dashoffset:0;stroke-opacity:1;paint-order:stroke fill markers"
             d="m 25.399999,271.60002 25.4,-25.4 v 50.8 z"
             id="path906"
             inkscape:connector-curvature="0"
             sodipodi:nodetypes="cccc" />
          <rect
             ry="5.0514922"
             y="256.39301"
             x="2.5663135"
             height="30.440479"
             width="45.693634"
             id="rect837"
             style="opacity:1;fill:none;fill-opacity:0.49382719;stroke:#000000;stroke-width:0.0657438;stroke-linecap:round;stroke-linejoin:round;stroke-miterlimit:4;stroke-dasharray:none;stroke-dashoffset:0;stroke-opacity:1;paint-order:stroke fill markers" />
          <rect
             style="opacity:1;fill:none;fill-opacity:0.49382719;stroke:#000000;stroke-width:0.0657438;stroke-linecap:round;stroke-linejoin:round;stroke-miterlimit:4;stroke-dasharray:none;stroke-dashoffset:0;stroke-opacity:1;paint-order:stroke fill markers"
             id="rect831"
             width="45.693588"
             height="30.44051"
             x="248.76645"
             y="-40.633385"
             ry="5.051497"
             transform="rotate(90)" />
        </g>
      </g>
    </g>
    <g
       style="fill:#0000ff;fill-opacity:1"
       id="g1111"
       transform="matrix(0.00744055,0,0,0.00744055,-6.3499996,290.65002)" />
    <g
       style="fill:#0000ff;fill-opacity:1"
       id="g1113"
       transform="matrix(0.00744055,0,0,0.00744055,-6.3499996,290.65002)" />
    <g
       style="fill:#0000ff;fill-opacity:1"
       id="g1115"
       transform="matrix(0.00744055,0,0,0.00744055,-6.3499996,290.65002)" />
    <g
       style="fill:#0000ff;fill-opacity:1"
       id="g1117"
       transform="matrix(0.00744055,0,0,0.00744055,-6.3499996,290.65002)" />
    <g
       style="fill:#0000ff;fill-opacity:1"
       id="g1119"
       transform="matrix(0.00744055,0,0,0.00744055,-6.3499996,290.65002)" />
    <g
       style="fill:#0000ff;fill-opacity:1"
       id="g1121"
       transform="matrix(0.00744055,0,0,0.00744055,-6.3499996,290.65002)" />
    <g
       style="fill:#0000ff;fill-opacity:1"
       id="g1123"
       transform="matrix(0.00744055,0,0,0.00744055,-6.3499996,290.65002)" />
    <g
       style="fill:#0000ff;fill-opacity:1"
       id="g1125"
       transform="matrix(0.00744055,0,0,0.00744055,-6.3499996,290.65002)" />
    <g
       style="fill:#0000ff;fill-opacity:1"
       id="g1127"
       transform="matrix(0.00744055,0,0,0.00744055,-6.3499996,290.65002)" />
    <g
       style="fill:#0000ff;fill-opacity:1"
       id="g1129"
       transform="matrix(0.00744055,0,0,0.00744055,-6.3499996,290.65002)" />
    <g
       style="fill:#0000ff;fill-opacity:1"
       id="g1131"
       transform="matrix(0.00744055,0,0,0.00744055,-6.3499996,290.65002)" />
    <g
       style="fill:#0000ff;fill-opacity:1"
       id="g1133"
       transform="matrix(0.00744055,0,0,0.00744055,-6.3499996,290.65002)" />
    <g
       style="fill:#0000ff;fill-opacity:1"
       id="g1135"
       transform="matrix(0.00744055,0,0,0.00744055,-6.3499996,290.65002)" />
    <g
       style="fill:#0000ff;fill-opacity:1"
       id="g1137"
       transform="matrix(0.00744055,0,0,0.00744055,-6.3499996,290.65002)" />
    <g
       style="fill:#0000ff;fill-opacity:1"
       id="g1139"
       transform="matrix(0.00744055,0,0,0.00744055,-6.3499996,290.65002)" />
    <g
       id="g1516"
       transform="matrix(0.00992187,0,0,0.00992187,0.2645844,291.97293)"
       style="fill:#0000ff">
      <path
         id="path1469"
         d="m 360,360 v -26.58594 l 34.97656,-13.98047 C 398.01172,318.21484 400.00391,315.27344 400,312 v -64 c 0,-2.67578 -1.33594,-5.17188 -3.55859,-6.65625 L 376,227.71875 V 144 c 0,-3.03125 -1.71094,-5.80469 -4.42578,-7.16016 L 344,123.05469 V 104 c 0,-2.51953 -1.1875,-4.890625 -3.19922,-6.398438 l -32,-24 C 307.41406,72.5625 305.73047,72 304,72 h -32 c -1.73047,0 -3.41406,0.5625 -4.80078,1.601562 L 240,94 212.80078,73.601562 C 211.41406,72.5625 209.73047,72 208,72 h -32 c -1.73047,0 -3.41406,0.5625 -4.80078,1.601562 l -32,24 C 137.1875,99.109375 136,101.48047 136,104 v 19.05469 l -27.57422,13.78515 C 105.71094,138.19531 104,140.96875 104,144 v 74.23047 l -18.527344,6.17578 C 82.203125,225.49609 80,228.55469 80,232 v 80 c -0.0039,3.27344 1.988281,6.21484 5.023438,7.43359 L 120,333.41406 V 360 c 0,1.81641 0.61719,3.58203 1.75391,5 l 32,40 c 1.51562,1.89844 3.8164,3 6.24609,3 h 48 c 1.73047,0 3.41406,-0.5625 4.80078,-1.60156 L 240,386 267.19922,406.39844 C 268.58594,407.4375 270.26953,408 272,408 h 48 c 2.42969,0 4.73047,-1.10156 6.24609,-3 l 32,-40 C 359.38281,363.58203 360,361.81641 360,360 Z M 205.33594,392 H 184 v -24 c 0,-2.12109 -0.84375,-4.15625 -2.34375,-5.65625 l -8,-8 -11.3125,11.3125 L 168,371.3125 V 392 h -4.16016 L 136,357.19141 V 330.39844 L 148.28125,312 h 5.19141 c 3.89453,11.01953 15.16406,17.63281 26.68359,15.65625 11.52344,-1.97656 19.94141,-11.96875 19.94141,-23.65625 0,-11.6875 -8.41797,-21.67969 -19.94141,-23.65625 C 168.63672,278.36719 157.36719,284.98047 153.47266,296 H 144 c -2.67578,0 -5.17188,1.33594 -6.65625,3.55859 L 124.94531,318.16016 96,306.58594 v -68.80078 l 13.83984,-4.61719 12.50391,12.50391 c 1.50391,1.49609 3.53516,2.33203 5.65625,2.32812 h 16 c 3.03125,0 5.80469,-1.71094 7.16016,-4.42578 l 5.9375,-11.87109 c 0.96093,0.16015 1.92968,0.25781 2.90234,0.29687 11.47656,0.0586 21.40234,-7.98047 23.73828,-19.21484 2.33203,-11.23828 -3.57422,-22.5625 -14.125,-27.07813 -10.55078,-4.51562 -22.82031,-0.97265 -29.33984,8.46875 -6.52344,9.44531 -5.48438,22.17578 2.48047,30.44141 L 139.05469,232 H 131.3125 L 120,220.6875 v -71.74219 l 22.39844,-11.20312 19.92187,19.92187 c 1.50781,1.50391 3.55078,2.34375 5.67969,2.33594 h 9.47266 c 3.89453,11.01953 15.16406,17.63281 26.68359,15.65625 11.52344,-1.97656 19.94141,-11.96875 19.94141,-23.65625 0,-11.6875 -8.41797,-21.67969 -19.94141,-23.65625 C 192.63672,126.36719 181.36719,132.98047 177.47266,144 H 171.3125 L 152,124.6875 V 108 l 26.66406,-20 h 26.67188 L 232,108 v 92 h -16.22266 c -2.12109,0 -4.15625,0.84375 -5.65625,2.34375 l -15.77734,15.77734 c -1.5,1.5 -2.34375,3.53516 -2.34375,5.65625 v 28.45313 L 186.23047,258 l 11.3125,11.32031 8.11328,-8.12109 c 1.5,-1.5 2.34375,-3.53516 2.34375,-5.65625 V 227.08984 L 219.08984,216 H 232 v 144 l -16,-12 v -12 h -16 v 16 c 0,2.51953 1.1875,4.89063 3.19922,6.39844 L 226.66406,376 Z M 168,304 c 0,-4.41797 3.58203,-8 8,-8 4.41797,0 8,3.58203 8,8 0,4.41797 -3.58203,8 -8,8 -4.41797,0 -8,-3.58203 -8,-8 z m -16,-96 c 0,-4.41797 3.58203,-8 8,-8 4.41797,0 8,3.58203 8,8 0,4.41797 -3.58203,8 -8,8 -4.41797,0 -8,-3.58203 -8,-8 z m 40,-56 c 0,-4.41797 3.58203,-8 8,-8 4.41797,0 8,3.58203 8,8 0,4.41797 -3.58203,8 -8,8 -4.41797,0 -8,-3.58203 -8,-8 z M 316.16016,392 H 304 v -20.6875 l 5.65625,-5.65625 -11.3125,-11.3125 -8,8 C 288.84375,363.84375 288,365.87891 288,368 v 24 H 274.66406 L 248,372 v -16 l 28.80078,-21.60156 C 278.8125,332.89062 280,330.51953 280,328 v -16 h -16 v 12 l -16,12 V 232 h 12.91016 L 272,243.08984 v 28.45313 c 0,2.12109 0.84375,4.15625 2.34375,5.65625 l 6.12891,6.1289 c -0.3086,1.53907 -0.46485,3.10157 -0.47266,4.67188 0,13.25391 10.74609,24 24,24 13.25391,0 24,-10.74609 24,-24 0,-13.25391 -10.74609,-24 -24,-24 -5.42969,0.0234 -10.6875,1.90625 -14.89453,5.33594 L 288,268.23047 v -28.45313 c 0,-2.12109 -0.84375,-4.15625 -2.34375,-5.65625 l -15.77734,-15.77734 c -1.5,-1.5 -3.53516,-2.34375 -5.65625,-2.34375 H 248 V 108 l 26.66406,-20 h 26.67188 L 328,108 v 16.6875 L 308.6875,144 h -6.16016 c -3.89453,-11.01953 -15.16406,-17.63281 -26.68359,-15.65625 -11.52344,1.97656 -19.94141,11.96875 -19.94141,23.65625 0,11.6875 8.41797,21.67969 19.94141,23.65625 11.51953,1.97656 22.78906,-4.63672 26.68359,-15.65625 H 312 c 2.12109,0 4.15625,-0.84375 5.65625,-2.34375 l 19.91797,-19.92188 22.40234,11.20313 v 79.74219 L 348.6875,240 h -7.74219 l -3.69922,-7.38281 c 7.875,-8.22266 8.875,-20.84766 2.39453,-30.20703 -6.48046,-9.35547 -18.65234,-12.85938 -29.11718,-8.38282 -10.46485,4.48047 -16.32813,15.70703 -14.03125,26.85547 2.29687,11.14844 12.125,19.14063 23.50781,19.11719 0.97266,-0.0391 1.94141,-0.13672 2.90234,-0.29688 l 5.9375,11.8711 C 330.19531,254.28906 332.96875,256 336,256 h 16 c 2.12109,0 4.15625,-0.84375 5.65625,-2.34375 L 369.01562,242.29687 384,252.28125 v 54.30469 l -28.13672,11.24609 -4.66406,-9.40625 C 349.83984,305.69922 347.04687,303.98437 344,304 h -16 v 16 h 11.05469 L 344,329.88672 v 27.30469 z M 296,288 c 0,-4.41797 3.58203,-8 8,-8 4.41797,0 8,3.58203 8,8 0,4.41797 -3.58203,8 -8,8 -4.41797,0 -8,-3.58203 -8,-8 z m -8,-136 c 0,4.41797 -3.58203,8 -8,8 -4.41797,0 -8,-3.58203 -8,-8 0,-4.41797 3.58203,-8 8,-8 4.41797,0 8,3.58203 8,8 z m 32,72 c -4.41797,0 -8,-3.58203 -8,-8 0,-4.41797 3.58203,-8 8,-8 4.41797,0 8,3.58203 8,8 0,4.41797 -3.58203,8 -8,8 z m 0,0"
         inkscape:connector-curvature="0"
         style="fill:#0000ff" />
      <path
         id="path1471"
         d="m 378.34375,18.34375 -48,48 11.3125,11.3125 L 387.3125,32 H 416 V 16 h -32 c -2.12109,0 -4.15625,0.84375 -5.65625,2.34375 z m 0,0"
         inkscape:connector-curvature="0"
         style="fill:#0000ff" />
      <path
         id="path1473"
         d="m 472,168 h -32 c -4.41797,0 -8,3.58203 -8,8 v 32 c 0,4.41797 3.58203,8 8,8 h 32 c 4.41797,0 8,-3.58203 8,-8 v -32 c 0,-4.41797 -3.58203,-8 -8,-8 z m -8,32 h -16 v -16 h 16 z m 0,0"
         inkscape:connector-curvature="0"
         style="fill:#0000ff" />
      <path
         id="path1475"
         d="m 472,432 h -32 c -4.41797,0 -8,3.58203 -8,8 v 32 c 0,4.41797 3.58203,8 8,8 h 32 c 4.41797,0 8,-3.58203 8,-8 v -32 c 0,-4.41797 -3.58203,-8 -8,-8 z m -8,32 h -16 v -16 h 16 z m 0,0"
         inkscape:connector-curvature="0"
         style="fill:#0000ff" />
      <path
         id="path1477"
         d="m 472,0 h -32 c -4.41797,0 -8,3.582031 -8,8 v 32 c 0,4.417969 3.58203,8 8,8 h 32 c 4.41797,0 8,-3.582031 8,-8 V 8 c 0,-4.417969 -3.58203,-8 -8,-8 z m -8,32 H 448 V 16 h 16 z m 0,0"
         inkscape:connector-curvature="0"
         style="fill:#0000ff" />
      <path
         id="path1479"
         d="m 392,184 h 24 v 16 h -24 z m 0,0"
         inkscape:connector-curvature="0"
         style="fill:#0000ff" />
      <path
         id="path1481"
         d="m 349.65625,410.34375 -11.3125,11.3125 40,40 c 1.5,1.5 3.53516,2.34375 5.65625,2.34375 h 32 v -16 h -28.6875 z m 0,0"
         inkscape:connector-curvature="0"
         style="fill:#0000ff" />
      <path
         id="path1483"
         d="m 138.34375,77.65625 11.3125,-11.3125 -48,-48 C 100.15625,16.84375 98.121094,16 96,16 H 64 v 16 h 28.6875 z m 0,0"
         inkscape:connector-curvature="0"
         style="fill:#0000ff" />
      <path
         id="path1485"
         d="M 40,168 H 8 c -4.417969,0 -8,3.58203 -8,8 v 32 c 0,4.41797 3.582031,8 8,8 h 32 c 4.417969,0 8,-3.58203 8,-8 v -32 c 0,-4.41797 -3.582031,-8 -8,-8 z m -8,32 H 16 v -16 h 16 z m 0,0"
         inkscape:connector-curvature="0"
         style="fill:#0000ff" />
      <path
         id="path1487"
         d="M 40,432 H 8 c -4.417969,0 -8,3.58203 -8,8 v 32 c 0,4.41797 3.582031,8 8,8 h 32 c 4.417969,0 8,-3.58203 8,-8 v -32 c 0,-4.41797 -3.582031,-8 -8,-8 z m -8,32 H 16 v -16 h 16 z m 0,0"
         inkscape:connector-curvature="0"
         style="fill:#0000ff" />
      <path
         id="path1489"
         d="M 40,0 H 8 C 3.582031,0 0,3.582031 0,8 v 32 c 0,4.417969 3.582031,8 8,8 h 32 c 4.417969,0 8,-3.582031 8,-8 V 8 C 48,3.582031 44.417969,0 40,0 Z M 32,32 H 16 V 16 h 16 z m 0,0"
         inkscape:connector-curvature="0"
         style="fill:#0000ff" />
      <path
         id="path1491"
         d="m 64,184 h 24 v 16 H 64 Z m 0,0"
         inkscape:connector-curvature="0"
         style="fill:#0000ff" />
      <path
         id="path1493"
         d="M 92.6875,448 H 64 v 16 h 32 c 2.121094,0 4.15625,-0.84375 5.65625,-2.34375 l 40,-40 -11.3125,-11.3125 z m 0,0"
         inkscape:connector-curvature="0"
         style="fill:#0000ff" />
    </g>
  </g>
</svg>
