<?xml version="1.0" encoding="UTF-8" standalone="no"?>
<!-- Generator: Adobe Illustrator 19.0.0, SVG Export Plug-In . SVG Version: 6.00 Build 0)  -->

<svg
   xmlns:dc="http://purl.org/dc/elements/1.1/"
   xmlns:cc="http://creativecommons.org/ns#"
   xmlns:rdf="http://www.w3.org/1999/02/22-rdf-syntax-ns#"
   xmlns:svg="http://www.w3.org/2000/svg"
   xmlns="http://www.w3.org/2000/svg"
   xmlns:sodipodi="http://sodipodi.sourceforge.net/DTD/sodipodi-0.dtd"
   xmlns:inkscape="http://www.inkscape.org/namespaces/inkscape"
   version="1.1"
   id="Capa_1"
   x="0px"
   y="0px"
   viewBox="0 0 512 512"
   style="enable-background:new 0 0 512 512;"
   xml:space="preserve"
   sodipodi:docname="cyton.svg"
   inkscape:version="0.92.4 5da689c313, 2019-01-14"><metadata
   id="metadata55"><rdf:RDF><cc:Work
       rdf:about=""><dc:format>image/svg+xml</dc:format><dc:type
         rdf:resource="http://purl.org/dc/dcmitype/StillImage" /><dc:title></dc:title></cc:Work></rdf:RDF></metadata><defs
   id="defs53">
	

		
	
	

		
	















	

	

	

		
	
		
	
		
	</defs><sodipodi:namedview
   pagecolor="#ffffff"
   bordercolor="#666666"
   borderopacity="1"
   objecttolerance="10"
   gridtolerance="10"
   guidetolerance="10"
   inkscape:pageopacity="0"
   inkscape:pageshadow="2"
   inkscape:window-width="1920"
   inkscape:window-height="1004"
   id="namedview51"
   showgrid="false"
   inkscape:snap-global="true"
   inkscape:snap-bbox="true"
   inkscape:bbox-paths="true"
   inkscape:snap-bbox-edge-midpoints="true"
   inkscape:snap-bbox-midpoints="true"
   inkscape:bbox-nodes="true"
   inkscape:object-paths="true"
   inkscape:snap-intersection-paths="true"
   inkscape:snap-smooth-nodes="true"
   inkscape:snap-midpoints="true"
   inkscape:snap-center="true"
   inkscape:snap-object-midpoints="true"
   inkscape:snap-text-baseline="true"
   inkscape:zoom="0.921875"
   inkscape:cx="413.12483"
   inkscape:cy="210.31529"
   inkscape:window-x="0"
   inkscape:window-y="0"
   inkscape:window-maximized="1"
   inkscape:current-layer="g923"
   showguides="false"
   inkscape:guide-bbox="true"><inkscape:grid
     type="xygrid"
     id="grid864" /><sodipodi:guide
     position="1119.7347,502.9448"
     orientation="0,1"
     id="guide2055"
     inkscape:locked="false" /></sodipodi:namedview>



<g
   id="g20">
</g>
<g
   id="g22">
</g>
<g
   id="g24">
</g>
<g
   id="g26">
</g>
<g
   id="g28">
</g>
<g
   id="g30">
</g>
<g
   id="g32">
</g>
<g
   id="g34">
</g>
<g
   id="g36">
</g>
<g
   id="g38">
</g>
<g
   id="g40">
</g>
<g
   id="g42">
</g>
<g
   id="g44">
</g>
<g
   id="g46">
</g>
<g
   id="g48">
</g>
<g
   id="g898"
   transform="translate(1258.328,-7.6788007)">
</g><g
   id="g900"
   transform="translate(1258.328,-7.6788007)">
</g><g
   id="g902"
   transform="translate(1258.328,-7.6788007)">
</g><g
   id="g904"
   transform="translate(1258.328,-7.6788007)">
</g><g
   id="g906"
   transform="translate(1258.328,-7.6788007)">
</g><g
   id="g908"
   transform="translate(1258.328,-7.6788007)">
</g><g
   id="g910"
   transform="translate(1258.328,-7.6788007)">
</g><g
   id="g912"
   transform="translate(1258.328,-7.6788007)">
</g><g
   id="g914"
   transform="translate(1258.328,-7.6788007)">
</g><g
   id="g916"
   transform="translate(1258.328,-7.6788007)">
</g><g
   id="g918"
   transform="translate(1258.328,-7.6788007)">
</g><g
   id="g920"
   transform="translate(1258.328,-7.6788007)">
</g><g
   id="g922"
   transform="translate(1258.328,-7.6788007)">
</g><g
   id="g924"
   transform="translate(1258.328,-7.6788007)">
</g><g
   id="g926"
   transform="translate(1258.328,-7.6788007)">
</g><g
   id="g1906"
   transform="translate(-545.46123,131.9006)">
</g><g
   id="g1908"
   transform="translate(-545.46123,131.9006)">
</g><g
   id="g1910"
   transform="translate(-545.46123,131.9006)">
</g><g
   id="g1912"
   transform="translate(-545.46123,131.9006)">
</g><g
   id="g1914"
   transform="translate(-545.46123,131.9006)">
</g><g
   id="g1916"
   transform="translate(-545.46123,131.9006)">
</g><g
   id="g1918"
   transform="translate(-545.46123,131.9006)">
</g><g
   id="g1920"
   transform="translate(-545.46123,131.9006)">
</g><g
   id="g1922"
   transform="translate(-545.46123,131.9006)">
</g><g
   id="g1924"
   transform="translate(-545.46123,131.9006)">
</g><g
   id="g1926"
   transform="translate(-545.46123,131.9006)">
</g><g
   id="g1928"
   transform="translate(-545.46123,131.9006)">
</g><g
   id="g1930"
   transform="translate(-545.46123,131.9006)">
</g><g
   id="g1932"
   transform="translate(-545.46123,131.9006)">
</g><g
   id="g1934"
   transform="translate(-545.46123,131.9006)">
</g><g
   id="g923"
   transform="rotate(-45,252.2505,252.86159)"><path
     inkscape:connector-curvature="0"
     id="path2137"
     d="m 255.92188,36.638672 c -17.37012,-5e-6 -34.72812,0.363679 -48.74415,1.101562 -7.00801,0.368942 -13.17356,0.829899 -18.16992,1.402344 -4.99636,0.572446 -8.44531,0.973762 -11.88476,2.398438 -3.43944,1.424668 -6.16187,3.578847 -10.09961,6.707031 -3.93774,3.128184 -8.6216,7.162889 -13.83789,11.857422 -10.43259,9.389065 -22.96357,21.404973 -35.2461,33.6875 C 105.65693,106.0755 93.639057,118.60844 84.25,129.04102 c -4.694529,5.21629 -8.72729,9.90015 -11.855469,13.83789 -3.128179,3.93773 -5.28432,6.66016 -6.708984,10.09961 -4.142554,10.00101 -4.223364,25.15357 -4.21875,59.85546 a 7.0007,7.0007 0 1 0 14,-0.002 c -0.0046,-34.49248 1.461884,-50.41025 3.154297,-54.49609 0.03181,-0.0768 1.89322,-3.17162 4.734375,-6.74805 2.841155,-3.57643 6.728944,-8.10168 11.300781,-13.18164 9.14367,-10.15992 21.03825,-22.5695 33.18164,-34.71289 12.14339,-12.143394 24.55296,-24.037959 34.71289,-33.181641 5.07997,-4.571842 9.60521,-8.45962 13.18164,-11.300781 3.57644,-2.841162 6.67122,-4.70255 6.74805,-4.734376 0.0768,-0.03182 3.58317,-0.90586 8.12109,-1.425781 4.53792,-0.519921 10.48765,-0.968825 17.3125,-1.328125 13.64971,-0.718599 30.83447,-1.083989 48.00782,-1.083984 17.17334,5e-6 34.3581,0.365381 48.00781,1.083984 6.82485,0.359302 12.77458,0.808206 17.3125,1.328125 4.53792,0.51992 8.04427,1.39396 8.12109,1.425781 0.11408,0.04725 6.04032,3.96803 12.58008,9.56836 6.53976,5.600329 14.71289,13.096085 23.4375,21.429687 a 7.0007,7.0007 0 1 0 9.66992,-10.123047 c -8.84852,-8.451961 -17.15128,-16.0765 -24,-21.941406 -6.84872,-5.864905 -11.22233,-9.753438 -16.33008,-11.86914 -3.43944,-1.42466 -6.8884,-1.825994 -11.88476,-2.398438 -4.99636,-0.572444 -11.16192,-1.031447 -18.16992,-1.40039 C 290.65,37.0043 273.29199,36.638677 255.92188,36.638672 Z m 139.45507,60.11914 a 7.0007,7.0007 0 0 0 -5.17383,11.896488 c 7.98217,8.38887 18.52402,20.03407 27.26172,30.13672 4.36885,5.05132 8.29346,9.72641 11.19336,13.37109 1.44995,1.82234 2.64616,3.39241 3.47657,4.56055 0.8304,1.16813 1.34185,2.2264 1.08789,1.61328 0.0318,0.0768 0.90586,3.58317 1.42578,8.12109 0.51991,4.53793 0.96882,10.48764 1.32812,17.3125 0.7186,13.64972 1.08399,30.83446 1.08399,48.00781 0,17.17336 -0.36539,34.35811 -1.08399,48.00782 -0.3593,6.82485 -0.8082,12.77458 -1.32812,17.3125 -0.51992,4.53791 -1.39397,8.04428 -1.42578,8.12109 0.1523,-0.36768 -1.53539,2.55506 -3.9961,5.76367 -2.46071,3.20862 -5.81655,7.29812 -9.6875,11.82031 -7.7419,9.0444 -17.56703,19.85258 -26.77734,29.38672 -11.69113,12.10226 -19.30925,18.28965 -31.33008,29.63867 a 7.0007,7.0007 0 0 0 0,0.002 c -7.87845,7.43819 -15.15388,14.02993 -20.95508,18.92773 -5.8012,4.89781 -11.00796,8.27669 -11.11328,8.32031 -0.0768,0.0318 -3.58317,0.90587 -8.12109,1.42579 -4.53792,0.51992 -10.48765,0.96882 -17.3125,1.32812 -13.64971,0.7186 -30.83446,1.08399 -48.00781,1.08399 -17.17336,-1e-5 -34.35811,-0.36539 -48.00782,-1.08399 -6.82485,-0.3593 -12.77458,-0.8082 -17.3125,-1.32812 -4.53792,-0.51992 -8.04427,-1.39397 -8.12109,-1.42579 -0.0768,-0.0318 -3.17161,-1.89321 -6.74805,-4.73437 -3.57643,-2.84116 -8.10167,-6.72894 -13.18164,-11.30078 -10.15993,-9.14368 -22.56949,-21.03825 -34.71289,-33.18164 -12.14339,-12.14339 -24.03796,-24.55296 -33.18164,-34.71289 -4.571838,-5.07997 -8.459627,-9.60521 -11.300781,-13.18164 -2.841155,-3.57644 -4.702559,-6.67124 -4.734375,-6.74805 -0.02587,-0.0625 -0.687888,-2.49815 -1.126953,-5.72852 -0.439066,-3.23036 -0.842972,-7.48633 -1.1875,-12.4375 -0.689056,-9.90233 -1.15089,-22.61033 -1.371094,-36.16992 A 7.0007,7.0007 0 1 0 60.9375,251.11133 c 0.223029,13.7335 0.685947,26.61686 1.402344,36.91211 0.358198,5.14762 0.77704,9.6419 1.28125,13.35156 0.50421,3.70966 0.906503,6.40562 2.064453,9.20117 1.424661,3.43946 3.580804,6.16187 6.708984,10.09961 3.128181,3.93774 7.160939,8.6216 11.855469,13.83789 9.38906,10.43259 21.40692,22.96357 33.68945,35.2461 12.28253,12.28252 24.81351,24.30039 35.2461,33.68945 5.21629,4.69453 9.90015,8.72729 13.83789,11.85547 3.93774,3.12818 6.66017,5.28432 10.09961,6.70898 3.43944,1.42467 6.8884,1.826 11.88476,2.39844 4.99636,0.57244 11.16192,1.03145 18.16992,1.40039 14.01602,0.73789 31.37403,1.10351 48.74415,1.10352 17.37011,0 34.72811,-0.36564 48.74414,-1.10352 7.00801,-0.36894 13.17356,-0.82794 18.16992,-1.40039 4.99636,-0.57245 8.44531,-0.97376 11.88476,-2.39844 4.71836,-1.95438 8.66829,-5.39098 14.78907,-10.55859 6.12077,-5.16761 13.53019,-11.88952 21.5332,-19.44531 11.71411,-11.05946 19.64555,-17.5232 31.78906,-30.09375 9.42614,-9.75757 19.3797,-20.70813 27.3418,-30.00977 3.98105,-4.65082 7.46081,-8.88197 10.16211,-12.4043 2.70129,-3.52232 4.50254,-5.73968 5.82226,-8.92578 1.42467,-3.43944 1.826,-6.88841 2.39844,-11.88476 0.57244,-4.99636 1.0334,-11.16192 1.40234,-18.16993 0.73789,-14.01601 1.10157,-31.37402 1.10157,-48.74414 0,-17.37011 -0.36368,-34.72811 -1.10157,-48.74414 -0.36894,-7.00801 -0.8299,-13.17356 -1.40234,-18.16992 -0.57244,-4.99636 -0.97378,-8.44533 -2.39844,-11.88476 -0.78074,-1.88487 -1.54623,-2.86892 -2.61132,-4.36719 -1.0651,-1.49827 -2.38279,-3.21937 -3.93165,-5.16602 -3.09771,-3.89329 -7.11107,-8.66796 -11.56054,-13.8125 -8.89895,-10.28908 -19.51174,-22.01398 -27.70899,-30.628904 a 7.0007,7.0007 0 0 0 -4.96875,-2.246094 z"
     style="color:#000000;font-style:normal;font-variant:normal;font-weight:normal;font-stretch:normal;font-size:medium;line-height:normal;font-family:sans-serif;font-variant-ligatures:normal;font-variant-position:normal;font-variant-caps:normal;font-variant-numeric:normal;font-variant-alternates:normal;font-feature-settings:normal;text-indent:0;text-align:start;text-decoration:none;text-decoration-line:none;text-decoration-style:solid;text-decoration-color:#000000;letter-spacing:normal;word-spacing:normal;text-transform:none;writing-mode:lr-tb;direction:ltr;text-orientation:mixed;dominant-baseline:auto;baseline-shift:baseline;text-anchor:start;white-space:normal;shape-padding:0;clip-rule:nonzero;display:inline;overflow:visible;visibility:visible;opacity:1;isolation:auto;mix-blend-mode:normal;color-interpolation:sRGB;color-interpolation-filters:linearRGB;solid-color:#000000;solid-opacity:1;vector-effect:none;fill:#0000ff;fill-opacity:1;fill-rule:nonzero;stroke:none;stroke-width:25.19999886;stroke-linecap:round;stroke-linejoin:round;stroke-miterlimit:4;stroke-dasharray:none;stroke-dashoffset:0;stroke-opacity:1;paint-order:fill markers stroke;color-rendering:auto;image-rendering:auto;shape-rendering:auto;text-rendering:auto;enable-background:accumulate" /><path
     inkscape:connector-curvature="0"
     id="rect2159"
     d="m 158.60742,233.35938 c 7.48866,0 13.6543,-6.16563 13.6543,-13.6543 v -55.51172 c 0,-7.48866 -6.16564,-13.6543 -13.6543,-13.6543 -7.48867,0 -13.6543,6.16564 -13.6543,13.6543 v 55.51172 c 0,7.48866 6.16564,13.6543 13.6543,13.6543 z m 0,-8.80665 c -2.7623,0 -4.84961,-2.08535 -4.84961,-4.84765 v -55.51172 c 0,-2.76228 2.08732,-4.84766 4.84961,-4.84766 2.76228,0 4.84766,2.08538 4.84766,4.84766 v 55.51172 c 0,2.76229 -2.08537,4.84765 -4.84766,4.84765 z"
     style="color:#000000;font-style:normal;font-variant:normal;font-weight:normal;font-stretch:normal;font-size:medium;line-height:normal;font-family:sans-serif;font-variant-ligatures:normal;font-variant-position:normal;font-variant-caps:normal;font-variant-numeric:normal;font-variant-alternates:normal;font-feature-settings:normal;text-indent:0;text-align:start;text-decoration:none;text-decoration-line:none;text-decoration-style:solid;text-decoration-color:#000000;letter-spacing:normal;word-spacing:normal;text-transform:none;writing-mode:lr-tb;direction:ltr;text-orientation:mixed;dominant-baseline:auto;baseline-shift:baseline;text-anchor:start;white-space:normal;shape-padding:0;clip-rule:nonzero;display:inline;overflow:visible;visibility:visible;opacity:1;isolation:auto;mix-blend-mode:normal;color-interpolation:sRGB;color-interpolation-filters:linearRGB;solid-color:#000000;solid-opacity:1;vector-effect:none;fill:#0000ff;fill-opacity:1;fill-rule:nonzero;stroke:none;stroke-width:25.19999886;stroke-linecap:round;stroke-linejoin:round;stroke-miterlimit:4;stroke-dasharray:none;stroke-dashoffset:0;stroke-opacity:1;paint-order:fill markers stroke;color-rendering:auto;image-rendering:auto;shape-rendering:auto;text-rendering:auto;enable-background:accumulate" /><path
     inkscape:connector-curvature="0"
     id="rect2161"
     d="m 223.30764,80.988581 c -5.29534,-5.295339 -14.01476,-5.295338 -19.3101,10e-7 l -39.25271,39.252708 c -5.29534,5.29534 -5.29534,14.01476 0,19.3101 5.29534,5.29534 14.01614,5.29671 19.31147,0.001 l 39.25272,-39.25271 c 5.29533,-5.295338 5.29396,-14.01614 -0.001,-19.311479 z m -6.22586,6.225858 c 1.9533,1.953297 1.95329,4.905093 0,6.858383 l -39.25271,39.252718 c -1.95329,1.95329 -4.90371,1.95191 -6.857,-10e-4 -1.95329,-1.95328 -1.95329,-4.90233 0,-6.85561 l 39.25271,-39.252716 c 1.95329,-1.953286 4.90372,-1.954669 6.857,-0.0014 z"
     style="color:#000000;font-style:normal;font-variant:normal;font-weight:normal;font-stretch:normal;font-size:medium;line-height:normal;font-family:sans-serif;font-variant-ligatures:normal;font-variant-position:normal;font-variant-caps:normal;font-variant-numeric:normal;font-variant-alternates:normal;font-feature-settings:normal;text-indent:0;text-align:start;text-decoration:none;text-decoration-line:none;text-decoration-style:solid;text-decoration-color:#000000;letter-spacing:normal;word-spacing:normal;text-transform:none;writing-mode:lr-tb;direction:ltr;text-orientation:mixed;dominant-baseline:auto;baseline-shift:baseline;text-anchor:start;white-space:normal;shape-padding:0;clip-rule:nonzero;display:inline;overflow:visible;visibility:visible;opacity:1;isolation:auto;mix-blend-mode:normal;color-interpolation:sRGB;color-interpolation-filters:linearRGB;solid-color:#000000;solid-opacity:1;vector-effect:none;fill:#0000ff;fill-opacity:1;fill-rule:nonzero;stroke:none;stroke-width:25.19999886;stroke-linecap:round;stroke-linejoin:round;stroke-miterlimit:4;stroke-dasharray:none;stroke-dashoffset:0;stroke-opacity:1;paint-order:fill markers stroke;color-rendering:auto;image-rendering:auto;shape-rendering:auto;text-rendering:auto;enable-background:accumulate" /><path
     sodipodi:nodetypes="sssssssss"
     inkscape:connector-curvature="0"
     id="rect2242"
     d="m 208.74609,192.65234 c -3.50196,0 -6.32226,2.8203 -6.32226,6.32227 v 62.90234 c 0,3.50196 2.82031,6.32032 6.32226,6.32032 h 18.86914 c 3.50196,0 6.32227,-2.81836 6.32227,-6.32032 v -62.90234 c 0,-3.50197 -2.82031,-6.32227 -6.32227,-6.32227 z"
     style="color:#000000;font-style:normal;font-variant:normal;font-weight:normal;font-stretch:normal;font-size:medium;line-height:normal;font-family:sans-serif;font-variant-ligatures:normal;font-variant-position:normal;font-variant-caps:normal;font-variant-numeric:normal;font-variant-alternates:normal;font-feature-settings:normal;text-indent:0;text-align:start;text-decoration:none;text-decoration-line:none;text-decoration-style:solid;text-decoration-color:#000000;letter-spacing:normal;word-spacing:normal;text-transform:none;writing-mode:lr-tb;direction:ltr;text-orientation:mixed;dominant-baseline:auto;baseline-shift:baseline;text-anchor:start;white-space:normal;shape-padding:0;clip-rule:nonzero;display:inline;overflow:visible;visibility:visible;opacity:1;isolation:auto;mix-blend-mode:normal;color-interpolation:sRGB;color-interpolation-filters:linearRGB;solid-color:#000000;solid-opacity:1;vector-effect:none;fill:#0000ff;fill-opacity:1;fill-rule:nonzero;stroke:#0000ff;stroke-width:10;stroke-linecap:round;stroke-linejoin:round;stroke-miterlimit:4;stroke-dasharray:none;stroke-dashoffset:0;stroke-opacity:1;paint-order:fill markers stroke;color-rendering:auto;image-rendering:auto;shape-rendering:auto;text-rendering:auto;enable-background:accumulate" /><path
     inkscape:connector-curvature="0"
     id="rect2244"
     d="m 387.62572,286.34096 c 5.24064,-5.24064 5.24064,-13.87334 0,-19.11398 l -80.44307,-80.44307 c -5.24064,-5.24064 -13.87334,-5.24064 -19.11398,0 -5.24064,5.24064 -5.24064,13.87334 0,19.11398 l 80.44307,80.44307 c 5.24064,5.24064 13.87334,5.24064 19.11398,0 z m -6.22723,-6.22723 c -1.8986,1.89859 -4.76092,1.89859 -6.65952,-10e-6 l -80.44306,-80.44306 c -1.8986,-1.8986 -1.8986,-4.76092 0,-6.65951 1.89859,-1.8986 4.76092,-1.89859 6.65951,0 l 80.44306,80.44306 c 1.8986,1.8986 1.8986,4.76092 10e-6,6.65952 z"
     style="color:#000000;font-style:normal;font-variant:normal;font-weight:normal;font-stretch:normal;font-size:medium;line-height:normal;font-family:sans-serif;font-variant-ligatures:normal;font-variant-position:normal;font-variant-caps:normal;font-variant-numeric:normal;font-variant-alternates:normal;font-feature-settings:normal;text-indent:0;text-align:start;text-decoration:none;text-decoration-line:none;text-decoration-style:solid;text-decoration-color:#000000;letter-spacing:normal;word-spacing:normal;text-transform:none;writing-mode:lr-tb;direction:ltr;text-orientation:mixed;dominant-baseline:auto;baseline-shift:baseline;text-anchor:start;white-space:normal;shape-padding:0;clip-rule:nonzero;display:inline;overflow:visible;visibility:visible;opacity:1;isolation:auto;mix-blend-mode:normal;color-interpolation:sRGB;color-interpolation-filters:linearRGB;solid-color:#000000;solid-opacity:1;vector-effect:none;fill:#0000ff;fill-opacity:1;fill-rule:nonzero;stroke:none;stroke-width:25.19999886;stroke-linecap:round;stroke-linejoin:round;stroke-miterlimit:4;stroke-dasharray:none;stroke-dashoffset:0;stroke-opacity:1;paint-order:fill markers stroke;color-rendering:auto;image-rendering:auto;shape-rendering:auto;text-rendering:auto;enable-background:accumulate" /><g
     style="stroke-width:25.19999886;stroke-miterlimit:4;stroke-dasharray:none"
     transform="translate(1.1865083)"
     id="g893"><path
       style="color:#000000;font-style:normal;font-variant:normal;font-weight:normal;font-stretch:normal;font-size:medium;line-height:normal;font-family:sans-serif;font-variant-ligatures:normal;font-variant-position:normal;font-variant-caps:normal;font-variant-numeric:normal;font-variant-alternates:normal;font-feature-settings:normal;text-indent:0;text-align:start;text-decoration:none;text-decoration-line:none;text-decoration-style:solid;text-decoration-color:#000000;letter-spacing:normal;word-spacing:normal;text-transform:none;writing-mode:lr-tb;direction:ltr;text-orientation:mixed;dominant-baseline:auto;baseline-shift:baseline;text-anchor:start;white-space:normal;shape-padding:0;clip-rule:nonzero;display:inline;overflow:visible;visibility:visible;opacity:1;isolation:auto;mix-blend-mode:normal;color-interpolation:sRGB;color-interpolation-filters:linearRGB;solid-color:#000000;solid-opacity:1;vector-effect:none;fill:#0000ff;fill-opacity:1;fill-rule:nonzero;stroke:none;stroke-width:25.19999886;stroke-linecap:round;stroke-linejoin:round;stroke-miterlimit:4;stroke-dasharray:none;stroke-dashoffset:0;stroke-opacity:1;color-rendering:auto;image-rendering:auto;shape-rendering:auto;text-rendering:auto;enable-background:accumulate"
       d="m 197.12109,414.82812 a 5.0005,5.0005 0 0 0 -4.92578,5.07032 v 44.0332 a 5.0005,5.0005 0 1 0 10,0 v -44.0332 a 5.0005,5.0005 0 0 0 -5.07422,-5.07032 z"
       id="path2246"
       inkscape:connector-curvature="0" /><path
       style="color:#000000;font-style:normal;font-variant:normal;font-weight:normal;font-stretch:normal;font-size:medium;line-height:normal;font-family:sans-serif;font-variant-ligatures:normal;font-variant-position:normal;font-variant-caps:normal;font-variant-numeric:normal;font-variant-alternates:normal;font-feature-settings:normal;text-indent:0;text-align:start;text-decoration:none;text-decoration-line:none;text-decoration-style:solid;text-decoration-color:#000000;letter-spacing:normal;word-spacing:normal;text-transform:none;writing-mode:lr-tb;direction:ltr;text-orientation:mixed;dominant-baseline:auto;baseline-shift:baseline;text-anchor:start;white-space:normal;shape-padding:0;clip-rule:nonzero;display:inline;overflow:visible;visibility:visible;opacity:1;isolation:auto;mix-blend-mode:normal;color-interpolation:sRGB;color-interpolation-filters:linearRGB;solid-color:#000000;solid-opacity:1;vector-effect:none;fill:#0000ff;fill-opacity:1;fill-rule:nonzero;stroke:none;stroke-width:25.19999886;stroke-linecap:round;stroke-linejoin:round;stroke-miterlimit:4;stroke-dasharray:none;stroke-dashoffset:0;stroke-opacity:1;color-rendering:auto;image-rendering:auto;shape-rendering:auto;text-rendering:auto;enable-background:accumulate"
       d="m 174.07227,414.91797 a 5.0005,5.0005 0 0 0 -4.92383,5.07031 v 44.03125 a 5.0005,5.0005 0 1 0 10,0 v -44.03125 a 5.0005,5.0005 0 0 0 -5.07617,-5.07031 z"
       id="path2254"
       inkscape:connector-curvature="0" /><path
       style="color:#000000;font-style:normal;font-variant:normal;font-weight:normal;font-stretch:normal;font-size:medium;line-height:normal;font-family:sans-serif;font-variant-ligatures:normal;font-variant-position:normal;font-variant-caps:normal;font-variant-numeric:normal;font-variant-alternates:normal;font-feature-settings:normal;text-indent:0;text-align:start;text-decoration:none;text-decoration-line:none;text-decoration-style:solid;text-decoration-color:#000000;letter-spacing:normal;word-spacing:normal;text-transform:none;writing-mode:lr-tb;direction:ltr;text-orientation:mixed;dominant-baseline:auto;baseline-shift:baseline;text-anchor:start;white-space:normal;shape-padding:0;clip-rule:nonzero;display:inline;overflow:visible;visibility:visible;opacity:1;isolation:auto;mix-blend-mode:normal;color-interpolation:sRGB;color-interpolation-filters:linearRGB;solid-color:#000000;solid-opacity:1;vector-effect:none;fill:#0000ff;fill-opacity:1;fill-rule:nonzero;stroke:none;stroke-width:25.19999886;stroke-linecap:round;stroke-linejoin:round;stroke-miterlimit:4;stroke-dasharray:none;stroke-dashoffset:0;stroke-opacity:1;color-rendering:auto;image-rendering:auto;shape-rendering:auto;text-rendering:auto;enable-background:accumulate"
       d="m 335.40234,414.73828 a 5.0005,5.0005 0 0 0 -4.92382,5.07227 v 44.03125 a 5.0005,5.0005 0 1 0 10,0 v -44.03125 a 5.0005,5.0005 0 0 0 -5.07618,-5.07227 z"
       id="path2256"
       inkscape:connector-curvature="0" /><path
       style="color:#000000;font-style:normal;font-variant:normal;font-weight:normal;font-stretch:normal;font-size:medium;line-height:normal;font-family:sans-serif;font-variant-ligatures:normal;font-variant-position:normal;font-variant-caps:normal;font-variant-numeric:normal;font-variant-alternates:normal;font-feature-settings:normal;text-indent:0;text-align:start;text-decoration:none;text-decoration-line:none;text-decoration-style:solid;text-decoration-color:#000000;letter-spacing:normal;word-spacing:normal;text-transform:none;writing-mode:lr-tb;direction:ltr;text-orientation:mixed;dominant-baseline:auto;baseline-shift:baseline;text-anchor:start;white-space:normal;shape-padding:0;clip-rule:nonzero;display:inline;overflow:visible;visibility:visible;opacity:1;isolation:auto;mix-blend-mode:normal;color-interpolation:sRGB;color-interpolation-filters:linearRGB;solid-color:#000000;solid-opacity:1;vector-effect:none;fill:#0000ff;fill-opacity:1;fill-rule:nonzero;stroke:none;stroke-width:25.19999886;stroke-linecap:round;stroke-linejoin:round;stroke-miterlimit:4;stroke-dasharray:none;stroke-dashoffset:0;stroke-opacity:1;color-rendering:auto;image-rendering:auto;shape-rendering:auto;text-rendering:auto;enable-background:accumulate"
       d="m 312.35547,414.73828 a 5.0005,5.0005 0 0 0 -4.92383,5.07227 v 44.03125 a 5.0005,5.0005 0 1 0 10,0 v -44.03125 a 5.0005,5.0005 0 0 0 -5.07617,-5.07227 z"
       id="path2258"
       inkscape:connector-curvature="0" /><path
       style="color:#000000;font-style:normal;font-variant:normal;font-weight:normal;font-stretch:normal;font-size:medium;line-height:normal;font-family:sans-serif;font-variant-ligatures:normal;font-variant-position:normal;font-variant-caps:normal;font-variant-numeric:normal;font-variant-alternates:normal;font-feature-settings:normal;text-indent:0;text-align:start;text-decoration:none;text-decoration-line:none;text-decoration-style:solid;text-decoration-color:#000000;letter-spacing:normal;word-spacing:normal;text-transform:none;writing-mode:lr-tb;direction:ltr;text-orientation:mixed;dominant-baseline:auto;baseline-shift:baseline;text-anchor:start;white-space:normal;shape-padding:0;clip-rule:nonzero;display:inline;overflow:visible;visibility:visible;opacity:1;isolation:auto;mix-blend-mode:normal;color-interpolation:sRGB;color-interpolation-filters:linearRGB;solid-color:#000000;solid-opacity:1;vector-effect:none;fill:#0000ff;fill-opacity:1;fill-rule:nonzero;stroke:none;stroke-width:25.19999886;stroke-linecap:round;stroke-linejoin:round;stroke-miterlimit:4;stroke-dasharray:none;stroke-dashoffset:0;stroke-opacity:1;color-rendering:auto;image-rendering:auto;shape-rendering:auto;text-rendering:auto;enable-background:accumulate"
       d="m 289.30859,414.73828 a 5.0005,5.0005 0 0 0 -4.92382,5.07227 v 44.03125 a 5.0005,5.0005 0 1 0 10,0 v -44.03125 a 5.0005,5.0005 0 0 0 -5.07618,-5.07227 z"
       id="path2260"
       inkscape:connector-curvature="0" /><path
       style="color:#000000;font-style:normal;font-variant:normal;font-weight:normal;font-stretch:normal;font-size:medium;line-height:normal;font-family:sans-serif;font-variant-ligatures:normal;font-variant-position:normal;font-variant-caps:normal;font-variant-numeric:normal;font-variant-alternates:normal;font-feature-settings:normal;text-indent:0;text-align:start;text-decoration:none;text-decoration-line:none;text-decoration-style:solid;text-decoration-color:#000000;letter-spacing:normal;word-spacing:normal;text-transform:none;writing-mode:lr-tb;direction:ltr;text-orientation:mixed;dominant-baseline:auto;baseline-shift:baseline;text-anchor:start;white-space:normal;shape-padding:0;clip-rule:nonzero;display:inline;overflow:visible;visibility:visible;opacity:1;isolation:auto;mix-blend-mode:normal;color-interpolation:sRGB;color-interpolation-filters:linearRGB;solid-color:#000000;solid-opacity:1;vector-effect:none;fill:#0000ff;fill-opacity:1;fill-rule:nonzero;stroke:none;stroke-width:25.19999886;stroke-linecap:round;stroke-linejoin:round;stroke-miterlimit:4;stroke-dasharray:none;stroke-dashoffset:0;stroke-opacity:1;color-rendering:auto;image-rendering:auto;shape-rendering:auto;text-rendering:auto;enable-background:accumulate"
       d="m 266.26172,414.73828 a 5.0005,5.0005 0 0 0 -4.92578,5.07227 v 44.03125 a 5.0005,5.0005 0 1 0 10,0 v -44.03125 a 5.0005,5.0005 0 0 0 -5.07422,-5.07227 z"
       id="path2262"
       inkscape:connector-curvature="0" /><path
       style="color:#000000;font-style:normal;font-variant:normal;font-weight:normal;font-stretch:normal;font-size:medium;line-height:normal;font-family:sans-serif;font-variant-ligatures:normal;font-variant-position:normal;font-variant-caps:normal;font-variant-numeric:normal;font-variant-alternates:normal;font-feature-settings:normal;text-indent:0;text-align:start;text-decoration:none;text-decoration-line:none;text-decoration-style:solid;text-decoration-color:#000000;letter-spacing:normal;word-spacing:normal;text-transform:none;writing-mode:lr-tb;direction:ltr;text-orientation:mixed;dominant-baseline:auto;baseline-shift:baseline;text-anchor:start;white-space:normal;shape-padding:0;clip-rule:nonzero;display:inline;overflow:visible;visibility:visible;opacity:1;isolation:auto;mix-blend-mode:normal;color-interpolation:sRGB;color-interpolation-filters:linearRGB;solid-color:#000000;solid-opacity:1;vector-effect:none;fill:#0000ff;fill-opacity:1;fill-rule:nonzero;stroke:none;stroke-width:25.19999886;stroke-linecap:round;stroke-linejoin:round;stroke-miterlimit:4;stroke-dasharray:none;stroke-dashoffset:0;stroke-opacity:1;color-rendering:auto;image-rendering:auto;shape-rendering:auto;text-rendering:auto;enable-background:accumulate"
       d="m 243.21484,414.82812 a 5.0005,5.0005 0 0 0 -4.92578,5.07032 v 44.0332 a 5.0005,5.0005 0 1 0 10,0 v -44.0332 a 5.0005,5.0005 0 0 0 -5.07422,-5.07032 z"
       id="path2264"
       inkscape:connector-curvature="0" /><path
       style="color:#000000;font-style:normal;font-variant:normal;font-weight:normal;font-stretch:normal;font-size:medium;line-height:normal;font-family:sans-serif;font-variant-ligatures:normal;font-variant-position:normal;font-variant-caps:normal;font-variant-numeric:normal;font-variant-alternates:normal;font-feature-settings:normal;text-indent:0;text-align:start;text-decoration:none;text-decoration-line:none;text-decoration-style:solid;text-decoration-color:#000000;letter-spacing:normal;word-spacing:normal;text-transform:none;writing-mode:lr-tb;direction:ltr;text-orientation:mixed;dominant-baseline:auto;baseline-shift:baseline;text-anchor:start;white-space:normal;shape-padding:0;clip-rule:nonzero;display:inline;overflow:visible;visibility:visible;opacity:1;isolation:auto;mix-blend-mode:normal;color-interpolation:sRGB;color-interpolation-filters:linearRGB;solid-color:#000000;solid-opacity:1;vector-effect:none;fill:#0000ff;fill-opacity:1;fill-rule:nonzero;stroke:none;stroke-width:25.19999886;stroke-linecap:round;stroke-linejoin:round;stroke-miterlimit:4;stroke-dasharray:none;stroke-dashoffset:0;stroke-opacity:1;color-rendering:auto;image-rendering:auto;shape-rendering:auto;text-rendering:auto;enable-background:accumulate"
       d="m 220.16797,414.82812 a 5.0005,5.0005 0 0 0 -4.92578,5.07032 v 44.0332 a 5.0005,5.0005 0 1 0 10,0 v -44.0332 a 5.0005,5.0005 0 0 0 -5.07422,-5.07032 z"
       id="path2266"
       inkscape:connector-curvature="0" /></g><g
     style="fill:#0000ff;stroke-width:19.49826241;stroke-miterlimit:4;stroke-dasharray:none"
     id="g1796"
     transform="matrix(-1.2924228,0,0,-1.2924228,961.31636,515.45645)">
	<g
   style="fill:#0000ff;stroke-width:19.49826241;stroke-miterlimit:4;stroke-dasharray:none"
   id="g1794">
		<path
   style="fill:#0000ff;stroke-width:19.49826241;stroke-miterlimit:4;stroke-dasharray:none"
   inkscape:connector-curvature="0"
   id="circle1792"
   d="m 439.234,169.47 a 9.7340002,9.7340002 0 0 1 -9.734,9.734 9.7340002,9.7340002 0 0 1 -9.734,-9.734 9.7340002,9.7340002 0 0 1 9.734,-9.734 9.7340002,9.7340002 0 0 1 9.734,9.734 z" />
	</g>
</g><g
     style="fill:#0000ff;stroke-width:19.49826241;stroke-miterlimit:4;stroke-dasharray:none"
     transform="matrix(-1.2924228,0,0,-1.2924228,660.86903,515.45645)"
     id="g2151">
	<g
   style="fill:#0000ff;stroke-width:19.49826241;stroke-miterlimit:4;stroke-dasharray:none"
   id="g2149">
		<path
   style="fill:#0000ff;stroke-width:19.49826241;stroke-miterlimit:4;stroke-dasharray:none"
   inkscape:connector-curvature="0"
   id="circle2147"
   d="m 439.234,169.47 a 9.7340002,9.7340002 0 0 1 -9.734,9.734 9.7340002,9.7340002 0 0 1 -9.734,-9.734 9.7340002,9.7340002 0 0 1 9.734,-9.734 9.7340002,9.7340002 0 0 1 9.734,9.734 z" />
	</g>
</g><g
     style="fill:#0000ff;stroke-width:19.49826241;stroke-miterlimit:4;stroke-dasharray:none"
     transform="matrix(-1.2924228,0,0,-1.2924228,961.31636,386.15188)"
     id="g2313">
	<g
   style="fill:#0000ff;stroke-width:19.49826241;stroke-miterlimit:4;stroke-dasharray:none"
   id="g2311">
		<path
   style="fill:#0000ff;stroke-width:19.49826241;stroke-miterlimit:4;stroke-dasharray:none"
   inkscape:connector-curvature="0"
   id="circle2309"
   d="m 439.234,169.47 a 9.7340002,9.7340002 0 0 1 -9.734,9.734 9.7340002,9.7340002 0 0 1 -9.734,-9.734 9.7340002,9.7340002 0 0 1 9.734,-9.734 9.7340002,9.7340002 0 0 1 9.734,9.734 z" />
	</g>
</g><g
     style="fill:#0000ff;stroke-width:19.49826241;stroke-miterlimit:4;stroke-dasharray:none"
     id="g2319"
     transform="matrix(-1.2924228,0,0,-1.2924228,660.86903,386.15188)">
	<g
   style="fill:#0000ff;stroke-width:19.49826241;stroke-miterlimit:4;stroke-dasharray:none"
   id="g2317">
		<path
   style="fill:#0000ff;stroke-width:19.49826241;stroke-miterlimit:4;stroke-dasharray:none"
   inkscape:connector-curvature="0"
   id="circle2315"
   d="m 439.234,169.47 a 9.7340002,9.7340002 0 0 1 -9.734,9.734 9.7340002,9.7340002 0 0 1 -9.734,-9.734 9.7340002,9.7340002 0 0 1 9.734,-9.734 9.7340002,9.7340002 0 0 1 9.734,9.734 z" />
	</g>
</g><path
     sodipodi:nodetypes="sssssssss"
     inkscape:connector-curvature="0"
     id="rect2240"
     d="m 236.10352,287.00586 c -2.97734,0 -5.37305,2.39767 -5.37305,5.375 v 64.79492 c 0,2.97734 2.39571,5.375 5.37305,5.375 h 64.79687 c 2.97734,0 5.375,-2.39765 5.375,-5.375 v -64.79492 c 0,-2.97734 -2.39766,-5.375 -5.375,-5.375 z"
     style="color:#000000;font-style:normal;font-variant:normal;font-weight:normal;font-stretch:normal;font-size:medium;line-height:normal;font-family:sans-serif;font-variant-ligatures:normal;font-variant-position:normal;font-variant-caps:normal;font-variant-numeric:normal;font-variant-alternates:normal;font-feature-settings:normal;text-indent:0;text-align:start;text-decoration:none;text-decoration-line:none;text-decoration-style:solid;text-decoration-color:#000000;letter-spacing:normal;word-spacing:normal;text-transform:none;writing-mode:lr-tb;direction:ltr;text-orientation:mixed;dominant-baseline:auto;baseline-shift:baseline;text-anchor:start;white-space:normal;shape-padding:0;clip-rule:nonzero;display:inline;overflow:visible;visibility:visible;opacity:1;isolation:auto;mix-blend-mode:normal;color-interpolation:sRGB;color-interpolation-filters:linearRGB;solid-color:#000000;solid-opacity:1;vector-effect:none;fill:#0000ff;fill-opacity:1;fill-rule:nonzero;stroke:#0000ff;stroke-width:10;stroke-linecap:round;stroke-linejoin:round;stroke-miterlimit:4;stroke-dasharray:none;stroke-dashoffset:0;stroke-opacity:1;paint-order:fill markers stroke;color-rendering:auto;image-rendering:auto;shape-rendering:auto;text-rendering:auto;enable-background:accumulate" /></g></svg>