<?xml version="1.0" encoding="UTF-8" standalone="no"?>
<svg
   xmlns:dc="http://purl.org/dc/elements/1.1/"
   xmlns:cc="http://creativecommons.org/ns#"
   xmlns:rdf="http://www.w3.org/1999/02/22-rdf-syntax-ns#"
   xmlns:svg="http://www.w3.org/2000/svg"
   xmlns="http://www.w3.org/2000/svg"
   xmlns:sodipodi="http://sodipodi.sourceforge.net/DTD/sodipodi-0.dtd"
   xmlns:inkscape="http://www.inkscape.org/namespaces/inkscape"
   inkscape:export-ydpi="96"
   inkscape:export-xdpi="96"
   inkscape:export-filename="/home/yeison/Development/piton/art/icon_lite.png"
   sodipodi:docname="documentation.svg"
   inkscape:version="1.0 (4035a4fb49, 2020-05-01)"
   id="svg8"
   version="1.1"
   viewBox="0 0 5.2916664 5.2916664"
   height="20"
   width="20">
  <defs
     id="defs2" />
  <sodipodi:namedview
     inkscape:document-rotation="0"
     inkscape:guide-bbox="true"
     fit-margin-bottom="0"
     fit-margin-right="0"
     fit-margin-left="0"
     fit-margin-top="0"
     inkscape:snap-global="false"
     inkscape:snap-midpoints="true"
     inkscape:snap-smooth-nodes="true"
     inkscape:snap-intersection-paths="true"
     inkscape:object-paths="true"
     inkscape:snap-nodes="true"
     inkscape:snap-bbox-midpoints="true"
     inkscape:snap-bbox-edge-midpoints="true"
     inkscape:bbox-nodes="true"
     inkscape:bbox-paths="true"
     inkscape:snap-bbox="true"
     showguides="true"
     inkscape:pagecheckerboard="false"
     units="px"
     inkscape:showpageshadow="false"
     inkscape:window-maximized="1"
     inkscape:window-y="0"
     inkscape:window-x="0"
     inkscape:window-height="1004"
     inkscape:window-width="1920"
     showgrid="false"
     inkscape:current-layer="layer1"
     inkscape:document-units="px"
     inkscape:cy="18.462463"
     inkscape:cx="14.156057"
     inkscape:zoom="17.575882"
     inkscape:pageshadow="2"
     inkscape:pageopacity="0.0"
     borderopacity="1.0"
     bordercolor="#666666"
     pagecolor="#ffffff"
     id="base">
    <inkscape:grid
       originy="0"
       originx="0"
       snapvisiblegridlinesonly="true"
       enabled="true"
       visible="true"
       dotted="false"
       spacingy="0.26458332"
       spacingx="0.26458332"
       empspacing="8"
       id="grid974"
       type="xygrid" />
  </sodipodi:namedview>
  <metadata
     id="metadata5">
    <rdf:RDF>
      <cc:Work
         rdf:about="">
        <dc:format>image/svg+xml</dc:format>
        <dc:type
           rdf:resource="http://purl.org/dc/dcmitype/StillImage" />
        <dc:title />
      </cc:Work>
    </rdf:RDF>
  </metadata>
  <g
     transform="translate(0,-291.70835)"
     id="layer1"
     inkscape:groupmode="layer"
     inkscape:label="Layer 1">
    <g
       transform="matrix(0.05207439,0,0,0.05207453,-0.90125164,282.41203)"
       id="g847">
      <g
         id="g851">
        <g
           transform="matrix(1.9986219,0,0,1.9986185,17.324484,-313.52314)"
           id="g1059">
          <path
             sodipodi:nodetypes="cccc"
             inkscape:connector-curvature="0"
             id="path883"
             d="M 25.399999,271.60002 -8.0000008e-7,246.20002 H 50.799999 Z"
             style="opacity:1;fill:none;fill-opacity:0.49382719;stroke:#000000;stroke-width:0.07000433;stroke-linecap:round;stroke-linejoin:round;stroke-miterlimit:4;stroke-dasharray:none;stroke-dashoffset:0;stroke-opacity:1;paint-order:stroke fill markers"
             inkscape:transform-center-y="3.175" />
          <path
             style="opacity:1;fill:none;fill-opacity:0.49382719;stroke:#000000;stroke-width:0.07000433;stroke-linecap:round;stroke-linejoin:round;stroke-miterlimit:4;stroke-dasharray:none;stroke-dashoffset:0;stroke-opacity:1;paint-order:stroke fill markers"
             inkscape:transform-center-y="-3.1749995"
             d="m 25.399999,271.60002 25.399999,25.4 H 0 Z"
             id="path880"
             inkscape:connector-curvature="0"
             sodipodi:nodetypes="cccc" />
          <rect
             style="opacity:1;fill:none;fill-opacity:0.49382719;stroke:#000000;stroke-width:0.06184419;stroke-linecap:round;stroke-linejoin:round;stroke-miterlimit:4;stroke-dasharray:none;stroke-dashoffset:0;stroke-opacity:1;paint-order:stroke fill markers"
             id="rect870"
             width="35.528786"
             height="35.528759"
             x="7.6487389"
             y="253.84885"
             ry="5.0534658" />
          <circle
             style="opacity:1;fill:none;fill-opacity:0.49382719;stroke:#000000;stroke-width:0.07635882;stroke-linecap:round;stroke-linejoin:round;stroke-miterlimit:4;stroke-dasharray:none;stroke-dashoffset:0;stroke-opacity:1;paint-order:stroke fill markers"
             id="path872"
             cx="25.4"
             cy="271.60001"
             r="25.396828" />
          <circle
             style="opacity:1;fill:none;fill-opacity:0.49382719;stroke:#000000;stroke-width:0.07399406;stroke-linecap:round;stroke-linejoin:round;stroke-miterlimit:4;stroke-dasharray:none;stroke-dashoffset:0;stroke-opacity:1;paint-order:stroke fill markers"
             id="path876"
             r="12.656071"
             cy="210.01071"
             cx="-174.08969"
             transform="rotate(-45)" />
          <path
             style="opacity:1;fill:none;fill-opacity:0.49382719;stroke:#000000;stroke-width:0.07000433;stroke-linecap:round;stroke-linejoin:round;stroke-miterlimit:4;stroke-dasharray:none;stroke-dashoffset:0;stroke-opacity:1;paint-order:stroke fill markers"
             d="m 25.4,271.60002 -25.40000040000004,25.4 v -50.8 z"
             id="path904"
             inkscape:connector-curvature="0"
             sodipodi:nodetypes="cccc"
             inkscape:transform-center-x="-3.1749999" />
          <path
             sodipodi:nodetypes="cccc"
             inkscape:connector-curvature="0"
             id="path906"
             d="m 25.399999,271.60002 25.4,-25.4 v 50.8 z"
             style="opacity:1;fill:none;fill-opacity:0.49382719;stroke:#000000;stroke-width:0.07000433;stroke-linecap:round;stroke-linejoin:round;stroke-miterlimit:4;stroke-dasharray:none;stroke-dashoffset:0;stroke-opacity:1;paint-order:stroke fill markers"
             inkscape:transform-center-x="3.175" />
          <rect
             style="opacity:1;fill:none;fill-opacity:0.49382719;stroke:#000000;stroke-width:0.0657438;stroke-linecap:round;stroke-linejoin:round;stroke-miterlimit:4;stroke-dasharray:none;stroke-dashoffset:0;stroke-opacity:1;paint-order:stroke fill markers"
             id="rect837"
             width="45.693634"
             height="30.440479"
             x="2.5663135"
             y="256.39301"
             ry="5.0514922" />
          <rect
             transform="rotate(90)"
             ry="5.051497"
             y="-40.633385"
             x="248.76645"
             height="30.44051"
             width="45.693588"
             id="rect831"
             style="opacity:1;fill:none;fill-opacity:0.49382719;stroke:#000000;stroke-width:0.0657438;stroke-linecap:round;stroke-linejoin:round;stroke-miterlimit:4;stroke-dasharray:none;stroke-dashoffset:0;stroke-opacity:1;paint-order:stroke fill markers" />
        </g>
      </g>
    </g>
    <g
       style="fill:#0000ff;fill-opacity:1"
       transform="matrix(0.07937499,0,0,0.07937499,0.26458348,292.61193)"
       fill-rule="nonzero"
       fill="#000000"
       id="046---Open-Book">
      <path
         transform="matrix(3.3333336,0,0,3.3333336,-3.3333356,-11.383686)"
         d="M 3.7558594 3.7207031 C 3.6583152 3.7021222 3.5585184 3.7325428 3.4882812 3.8027344 L 2.9492188 4.3398438 L 1.7167969 4.09375 C 1.5406918 4.0593096 1.3594484 4.1049568 1.2207031 4.21875 C 1.0819578 4.3325432 1.0006892 4.5022008 1 4.6816406 L 1 15.169922 C 0.99979915 15.455196 1.2009585 15.700758 1.4804688 15.757812 L 8.5644531 17.193359 C 8.7534531 17.571359 9.3169001 17.814453 10 17.814453 C 10.6831 17.814453 11.245053 17.569975 11.439453 17.171875 L 18.517578 15.757812 C 18.798511 15.702107 19.000028 15.456324 19 15.169922 L 19 4.6816406 C 19.000185 4.5029129 18.919475 4.3320522 18.78125 4.21875 C 18.641492 4.1032384 18.457122 4.058346 18.279297 4.09375 L 17.050781 4.3398438 L 16.511719 3.8027344 C 16.441091 3.7319581 16.340312 3.7014902 16.242188 3.7207031 L 14.150391 4.1191406 C 14.17838 4.1702206 14.199219 4.2258834 14.199219 4.2851562 L 14.199219 4.7207031 L 16 4.3769531 L 16 13.066406 L 10.675781 14.082031 C 10.543262 14.107246 10.417229 14.15456 10.300781 14.222656 L 10.300781 11.726562 L 10 11.427734 L 9.6992188 11.726562 L 9.6992188 14.222656 C 9.582853 14.154613 9.4566279 14.107303 9.3242188 14.082031 L 4 13.066406 L 4 4.3769531 L 4.9003906 4.5488281 L 5.8007812 4.7207031 L 5.8007812 4.2851562 C 5.8007812 4.2258834 5.8216196 4.1702206 5.8496094 4.1191406 L 4.9199219 3.9414062 L 3.7558594 3.7207031 z M 1.5996094 4.6816406 L 2.4394531 4.8496094 L 2.2871094 5.0039062 C 2.2311745 5.0603011 2.1989968 5.1354143 2.1992188 5.2148438 L 2.1992188 14.515625 C 2.1991897 14.658206 2.2997532 14.780078 2.4394531 14.808594 L 9.8242188 16.285156 C 9.9408371 16.308751 10.059163 16.308751 10.175781 16.285156 L 17.560547 14.808594 C 17.700247 14.780078 17.80081 14.658206 17.800781 14.515625 L 17.800781 5.2148438 C 17.800764 5.1352853 17.769155 5.0601541 17.712891 5.0039062 L 17.558594 4.8496094 L 18.400391 4.6816406 L 18.400391 15.169922 L 11.324219 16.585938 C 11.136416 16.627178 10.977974 16.753579 10.896484 16.927734 C 10.846384 17.027934 10.5316 17.214844 10 17.214844 C 9.4684 17.214844 9.1536156 17.026881 9.1035156 16.925781 C 9.021795 16.752103 8.8652008 16.627154 8.6777344 16.585938 L 1.5996094 15.169922 L 1.5996094 4.6816406 z M 3.4003906 4.7402344 L 3.4003906 13.191406 L 2.8007812 13.791016 L 2.8007812 5.3398438 L 3.4003906 4.7402344 z M 16.599609 4.7402344 L 17.199219 5.3398438 L 17.199219 13.791016 L 16.599609 13.191406 L 16.599609 4.7402344 z M 3.7988281 13.640625 L 9.2109375 14.671875 C 9.4933356 14.725481 9.6982255 14.972326 9.6992188 15.259766 L 9.6992188 15.648438 L 3.109375 14.330078 L 3.7988281 13.640625 z M 16.201172 13.640625 L 16.890625 14.330078 L 10.300781 15.648438 L 10.300781 15.416016 L 10.300781 15.259766 C 10.301801 14.972233 10.506545 14.725354 10.789062 14.671875 L 16.201172 13.640625 z "
         style="fill:#0000ff;fill-opacity:1;stroke-width:0.3"
         id="Shape-9" />
    </g>
    <g
       style="fill:#0000ff;fill-opacity:1"
       transform="matrix(0.01157252,0,0,0.01157252,-0.28577936,285.26977)"
       id="g918">
      <g
         transform="translate(0,4.4346479e-4)"
         id="g935">
        <g
           transform="translate(-528.20834,425.63478)"
           id="g1195">
          <g
             id="g1186">
            <g
               transform="translate(541.53368,180.68575)"
               id="g1146">
              <path
                 style="fill:#0000ff;fill-opacity:1"
                 d="m 282.34375,117.65625 11.3125,-11.3125 L 280,92.6875 V 72 h -16 v 24 c 0,2.121094 0.84375,4.15625 2.34375,5.65625 z m 0,0"
                 id="path877" />
              <path
                 style="fill:#0000ff;fill-opacity:1"
                 d="m 285.65625,130.34375 -11.3125,11.3125 L 280,147.3125 V 160 h 16 v -16 c 0,-2.12109 -0.84375,-4.15625 -2.34375,-5.65625 z m 0,0"
                 id="path879" />
              <path
                 style="fill:#0000ff;fill-opacity:1"
                 d="M 152,171.3125 V 184 c 0,3.66797 2.49609,6.86719 6.05469,7.76172 l 27.74609,6.93359 6.60547,19.83203 C 193.49609,221.79687 196.55469,224 200,224 h 24 c 2.12109,0 4.15625,-0.84375 5.65625,-2.34375 L 240,211.3125 l 10.34375,10.34375 c 1.5,1.5 3.53516,2.34375 5.65625,2.34375 h 24 c 3.44141,-0.004 6.49609,-2.20703 7.58594,-5.47266 l 6.61328,-19.83203 27.73828,-6.93359 C 325.5,190.87109 328,187.67187 328,184 v -12.6875 l 21.65625,-21.65625 C 351.15625,148.15625 352,146.12109 352,144 v -40 c -0.004,-1.57812 -0.46875,-3.125 -1.34375,-4.441406 L 336,77.601562 V 48 c 0,-2.121094 -0.84375,-4.15625 -2.34375,-5.65625 l -16,-16 C 316.15625,24.84375 314.12109,24 312,24 H 293.76953 L 287.58594,5.472656 C 286.49609,2.207031 283.44141,0.00390625 280,0 h -24 c -2.12109,0 -4.15625,0.84375 -5.65625,2.34375 L 240,12.6875 229.65625,2.34375 C 228.15625,0.84375 226.12109,0 224,0 h -24 c -3.44531,0 -6.50391,2.203125 -7.59375,5.472656 L 186.23047,24 H 168 c -2.12109,0 -4.15625,0.84375 -5.65625,2.34375 l -16,16 C 144.84375,43.84375 144,45.878906 144,48 V 77.601562 L 129.34375,99.585938 C 128.47266,100.89453 128.00781,102.42969 128,104 v 40 c 0,2.12109 0.84375,4.15625 2.34375,5.65625 z M 259.3125,16 h 14.91797 l 4.61719,13.839844 -12.50391,12.503906 C 264.84375,43.84375 264,45.878906 264,48 v 8 h 16 V 51.3125 L 291.3125,40 h 17.375 L 320,51.3125 v 25.375 L 306.34375,90.34375 C 304.84375,91.84375 304,93.878906 304,96 v 8 h 16 V 99.3125 L 326.76172,92.558594 336,106.39844 v 34.26562 l -8,8 V 136 h -16 v 41.75391 L 290.45703,183.14453 280,172.6875 V 168 h -16 v 8 c 0,2.12109 0.84375,4.15625 2.34375,5.65625 L 278.84766,194.16016 274.23047,208 H 259.3125 L 248,196.6875 V 27.3125 Z M 144,106.39844 153.23828,92.535156 160,99.289062 V 104 h 16 v -8 c 0,-2.121094 -0.84375,-4.15625 -2.34375,-5.65625 L 160,76.6875 V 51.3125 L 171.3125,40 h 17.375 L 200,51.3125 V 56 h 16 v -8 c 0,-2.121094 -0.84375,-4.15625 -2.34375,-5.65625 L 201.15234,29.839844 205.76953,16 H 220.6875 L 232,27.3125 v 169.375 L 220.6875,208 h -14.91797 l -4.61719,-13.83984 12.50391,-12.50391 C 215.15625,180.15625 216,178.12109 216,176 v -8 h -16 v 4.6875 L 189.54297,183.14453 168,177.75391 V 136 h -16 v 12.6875 l -8,-8 z m 0,0"
                 id="path881" />
              <path
                 style="fill:#0000ff;fill-opacity:1"
                 d="M 213.65625,101.65625 C 215.15625,100.15625 216,98.121094 216,96 V 72 h -16 v 20.6875 l -13.65625,13.65625 11.3125,11.3125 z m 0,0"
                 id="path883-3" />
              <path
                 style="fill:#0000ff;fill-opacity:1"
                 d="m 200,147.3125 5.65625,-5.65625 -11.3125,-11.3125 -8,8 C 184.84375,139.84375 184,141.87891 184,144 v 16 h 16 z m 0,0"
                 id="path885" />
            </g>
          </g>
        </g>
      </g>
    </g>
    <g
       transform="matrix(0.00930174,0,0,0.00930174,11.916828,293.02742)"
       id="g1139">
      <g
         transform="translate(0,-1)"
         id="g1077">
	<g
   id="g1075">
		<g
   id="g1073">
			<path
   d="m 494.944,129.021 h -17.067 v -17.067 c 0,-21.329 -44.267,-29.279 -73.82,-32.213 C 395.46,65.416 380.893,55.702 364.365,53.271 361.316,23.413 336.048,0.779 306.036,1.021 286.669,0.514 268.172,9.065 256.011,24.146 243.849,9.065 225.353,0.515 205.986,1.021 c -30.013,-0.245 -55.282,22.391 -58.329,52.25 -16.531,2.424 -31.101,12.141 -39.693,26.47 -29.553,2.934 -73.82,10.884 -73.82,32.213 v 17.067 H 17.077 C 7.656,129.032 0.021,136.667 0.01,146.088 v 315.733 c 0.011,9.421 7.645,17.056 17.067,17.067 h 190.646 c 7.24,20.458 26.586,34.133 48.287,34.133 21.701,0 41.047,-13.675 48.288,-34.133 h 190.646 c 9.421,-0.011 17.056,-7.646 17.067,-17.067 V 146.088 C 512,136.667 504.365,129.032 494.944,129.021 Z m -84.158,-31.34 c 33.598,4.233 48.506,11.744 50.024,14.274 V 416.57 c -29.877,-13.941 -89.359,-14.482 -98.133,-14.482 -8.774,0 -68.257,0.541 -98.133,14.482 v -87.992 c 12.86,14.221 31.143,22.328 50.317,22.309 2.458,0.018 4.915,-0.124 7.354,-0.425 1.025,-0.075 2.046,-0.225 2.825,-0.358 2.169,-0.289 4.317,-0.712 6.433,-1.267 0.933,-0.208 1.942,-0.492 2.942,-0.792 1.25,-0.375 2.496,-0.767 3.833,-1.25 1.975,-0.733 3.942,-1.525 5.687,-2.383 3.019,-1.408 5.931,-3.034 8.713,-4.867 0.846,-0.575 1.696,-1.158 2.408,-1.692 4.257,-3.093 8.135,-6.676 11.554,-10.675 0.717,-0.875 1.429,-1.75 2.125,-2.65 1.297,-1.67 2.502,-3.409 3.613,-5.208 0.354,-0.55 0.704,-1.108 1.008,-1.658 0.561,-0.899 1.073,-1.828 1.533,-2.783 0.377,-0.681 0.717,-1.382 1.017,-2.1 0.603,-1.155 1.135,-2.346 1.592,-3.567 0.7,-1.6 1.29,-3.245 1.766,-4.925 0.125,-0.367 0.25,-0.742 0.367,-1.125 25.643,-6.19 43.735,-29.104 43.808,-55.484 0.006,-3.182 -0.271,-6.359 -0.829,-9.492 -0.199,-1.232 -0.461,-2.453 -0.783,-3.658 -0.38,-1.853 -0.907,-3.672 -1.575,-5.442 -0.496,-1.533 -1.129,-3.058 -1.771,-4.525 l -0.041,-0.081 -0.03,-0.077 c -0.06,-0.128 -0.135,-0.248 -0.196,-0.376 -0.681,-1.494 -1.438,-2.951 -2.269,-4.368 12.229,-11.249 19.211,-27.09 19.265,-43.706 0,-1.208 -0.062,-2.417 -0.117,-3.042 0.017,-0.94 -0.05,-1.88 -0.2,-2.808 -0.071,-1.058 -0.204,-2.108 -0.383,-3.392 -0.208,-1.267 -0.479,-2.542 -0.708,-3.533 -0.268,-1.394 -0.637,-2.767 -1.104,-4.108 -2.617,-8.944 -7.342,-17.129 -13.779,-23.867 -0.556,-0.636 -1.149,-1.24 -1.775,-1.808 -2.748,-2.714 -5.752,-5.156 -8.971,-7.292 3.48,-9.05 4.385,-18.888 2.613,-28.422 z M 292.643,297.189 c 1.6,1.6 3.771,2.499 6.035,2.499 2.263,0.001 4.434,-0.898 6.035,-2.499 1.6,-1.6 2.499,-3.771 2.499,-6.035 v -25.6 c 0.001,-2.263 -0.898,-4.434 -2.499,-6.035 -1.6,-1.6 -3.771,-2.499 -6.035,-2.499 h -34.133 v -17.067 h 34.133 c 4.713,0 8.533,-3.82 8.533,-8.533 0,-4.713 -3.82,-8.533 -8.533,-8.533 h -34.133 v -25.6 h 42.667 c 2.263,0.001 4.434,-0.898 6.035,-2.499 1.6,-1.6 2.499,-3.771 2.499,-6.035 v -17.067 h 34.133 c 4.713,0 8.533,-3.82 8.533,-8.533 0,-4.713 -3.82,-8.533 -8.533,-8.533 h -42.667 c -2.263,-0.001 -4.434,0.898 -6.035,2.499 -1.6,1.6 -2.499,3.771 -2.499,6.035 v 17.067 h -34.133 v -42.667 h 34.133 c 4.713,0 8.533,-3.82 8.533,-8.533 0,-4.713 -3.82,-8.533 -8.533,-8.533 H 264.545 V 77.821 h 25.6 v 8.533 c 0,4.713 3.82,8.533 8.533,8.533 4.713,0 8.533,-3.821 8.533,-8.533 V 69.288 c 10e-4,-2.263 -0.898,-4.434 -2.499,-6.035 -1.6,-1.6 -3.771,-2.499 -6.035,-2.499 h -34.133 v -8.533 c 0,-0.189 -0.096,-0.347 -0.108,-0.533 0.012,-0.186 0.108,-0.344 0.108,-0.533 0,-21.475 21.379,-33.067 41.492,-33.067 20.61,-0.196 38.157,14.948 40.979,35.364 -6.56,1.02 -12.886,3.203 -18.68,6.444 -4.1,2.313 -5.553,7.508 -3.248,11.613 2.305,4.105 7.498,5.568 11.606,3.271 5.888,-3.33 12.54,-5.07 19.304,-5.05 l 0.029,-0.006 0.029,0.006 c 20.951,-0.295 38.19,16.417 38.546,37.367 -0.012,3.967 -0.682,7.904 -1.984,11.651 -6.112,-1.957 -12.49,-2.958 -18.908,-2.967 -4.713,0 -8.533,3.82 -8.533,8.533 0,4.713 3.82,8.533 8.533,8.533 6.808,-0.026 13.534,1.493 19.671,4.442 l 0.033,0.007 c 4.497,2.178 8.599,5.09 12.138,8.618 0.275,0.242 0.508,0.525 0.887,0.933 4.709,4.926 8.149,10.923 10.025,17.475 0.279,0.805 0.499,1.629 0.658,2.467 0.2,0.867 0.396,1.775 0.512,2.458 0.087,0.667 0.188,1.333 0.325,2.808 0.06,0.453 0.088,0.91 0.083,1.367 0.046,0.817 0.1,1.675 0.1,2.533 -0.07,11.394 -4.714,22.283 -12.889,30.221 -6.59,-6.205 -14.549,-10.771 -23.232,-13.329 -4.52,-1.339 -9.269,1.239 -10.608,5.758 -1.339,4.519 1.239,9.269 5.758,10.608 8.219,2.435 15.467,7.389 20.72,14.164 0.614,0.778 1.195,1.548 1.813,2.503 1.19,1.763 2.242,3.616 3.146,5.541 0.388,0.883 0.767,1.798 1.083,2.719 0.092,0.254 0.175,0.452 0.271,0.74 0.447,1.212 0.798,2.458 1.05,3.725 0.217,0.799 0.392,1.608 0.525,2.425 l 0.025,0.15 c 0.383,2.145 0.573,4.321 0.567,6.5 -0.089,15.884 -9.594,30.202 -24.198,36.45 -0.123,-14.064 -4.86,-27.699 -13.485,-38.808 -2.893,-3.702 -8.235,-4.37 -11.951,-1.494 -3.716,2.876 -4.408,8.215 -1.549,11.944 6.501,8.343 10.018,18.624 9.988,29.2 0.01,3.094 -0.288,6.181 -0.887,9.217 v 0.051 l -0.029,0.082 c -0.175,0.928 -0.4,1.846 -0.675,2.75 -0.042,0.133 -0.179,0.767 -0.213,0.908 l -0.417,1.3 c -0.35,1.216 -0.78,2.408 -1.287,3.567 -0.284,0.768 -0.618,1.517 -1,2.242 -0.137,0.25 -0.467,1.025 -0.579,1.292 -0.155,0.251 -0.297,0.51 -0.425,0.775 -0.225,0.504 -0.485,0.991 -0.779,1.458 -0.137,0.208 -0.358,0.6 -0.479,0.817 l -0.475,0.758 c -0.827,1.34 -1.723,2.636 -2.683,3.883 l -1.808,2.258 c -2.528,2.921 -5.389,5.536 -8.525,7.792 -0.613,0.467 -1.229,0.875 -1.825,1.283 -2.076,1.357 -4.248,2.56 -6.5,3.6 -1.365,0.657 -2.763,1.244 -4.187,1.758 -0.983,0.35 -1.971,0.658 -2.892,0.942 -0.596,0.175 -1.237,0.358 -2.196,0.583 -1.614,0.419 -3.251,0.74 -4.904,0.958 -0.467,0.075 -0.979,0.158 -1.946,0.25 -1.86,0.227 -3.732,0.336 -5.605,0.325 -27.369,0.367 -49.874,-21.482 -50.317,-48.85 0,-0.26 -0.125,-0.479 -0.148,-0.733 0.023,-0.254 0.148,-0.473 0.148,-0.733 v -9.417 h 25.6 v 17.067 c 10e-4,2.263 0.9,4.434 2.501,6.034 z M 106.886,145.53 c 3.425,-3.374 7.386,-6.156 11.721,-8.235 l 0.033,-0.007 c 6.137,-2.949 12.862,-4.467 19.671,-4.442 4.713,0 8.533,-3.82 8.533,-8.533 0,-4.713 -3.82,-8.533 -8.533,-8.533 -6.418,0.009 -12.796,1.01 -18.908,2.968 -1.302,-3.747 -1.972,-7.684 -1.984,-11.651 0.363,-20.969 17.634,-37.687 38.604,-37.367 6.532,-0.032 12.966,1.587 18.704,4.708 2.68,1.454 5.931,1.369 8.531,-0.225 2.599,-1.593 4.151,-4.452 4.071,-7.5 -0.08,-3.048 -1.78,-5.821 -4.46,-7.275 -5.569,-3.001 -11.61,-5.026 -17.862,-5.988 2.822,-20.416 20.37,-35.558 40.979,-35.362 20.112,0 41.492,11.592 41.492,33.067 0,0.189 0.096,0.347 0.108,0.533 -0.012,0.186 -0.108,0.344 -0.108,0.533 v 8.533 h -25.6 v -8.533 c 0,-4.713 -3.821,-8.533 -8.533,-8.533 -4.713,0 -8.533,3.82 -8.533,8.533 v 17.067 c -0.001,2.263 0.898,4.434 2.499,6.035 1.6,1.6 3.771,2.499 6.035,2.499 h 34.133 v 17.067 h -34.133 c -4.713,0 -8.533,3.82 -8.533,8.533 0,4.713 3.821,8.533 8.533,8.533 h 34.133 v 25.6 h -42.667 c -2.263,-0.001 -4.434,0.898 -6.035,2.499 -1.6,1.6 -2.499,3.771 -2.499,6.035 v 8.533 h -34.133 c -4.713,0 -8.533,3.82 -8.533,8.533 0,4.713 3.82,8.533 8.533,8.533 h 42.667 c 2.263,0.001 4.434,-0.898 6.035,-2.499 1.6,-1.6 2.499,-3.771 2.499,-6.035 v -8.533 h 34.133 v 42.667 h -34.133 c -4.713,0 -8.533,3.82 -8.533,8.533 0,4.713 3.821,8.533 8.533,8.533 h 34.133 v 42.667 h -34.133 v -17.067 c 0,-4.713 -3.821,-8.533 -8.533,-8.533 -4.712,0 -8.533,3.82 -8.533,8.533 v 25.6 c -0.001,2.263 0.898,4.434 2.499,6.035 1.6,1.6 3.771,2.499 6.035,2.499 h 42.667 v 9.417 c 0,0.26 0.125,0.479 0.148,0.733 -0.023,0.254 -0.148,0.473 -0.148,0.733 -0.442,27.368 -22.948,49.217 -50.317,48.85 -2.027,0.005 -4.052,-0.12 -6.063,-0.375 -0.508,-0.042 -1.021,-0.125 -1.65,-0.225 -1.719,-0.236 -3.422,-0.575 -5.1,-1.017 -0.6,-0.142 -1.242,-0.325 -1.766,-0.483 -0.992,-0.3 -1.979,-0.608 -2.875,-0.925 -1.51,-0.546 -2.991,-1.169 -4.437,-1.867 -2.19,-1.019 -4.304,-2.194 -6.325,-3.517 -0.608,-0.417 -1.225,-0.825 -1.971,-1.392 -3.07,-2.215 -5.872,-4.78 -8.35,-7.642 l -1.871,-2.333 c -0.952,-1.24 -1.841,-2.528 -2.662,-3.858 l -0.467,-0.742 c -0.146,-0.287 -0.309,-0.565 -0.487,-0.833 -0.294,-0.467 -0.554,-0.954 -0.779,-1.458 -0.129,-0.267 -0.475,-1.033 -0.629,-1.283 -0.112,-0.267 -0.237,-0.529 -0.375,-0.783 -0.432,-0.834 -0.812,-1.694 -1.138,-2.575 -0.453,-1.052 -0.838,-2.132 -1.15,-3.233 -0.046,-0.158 -0.341,-1.05 -0.4,-1.208 -0.055,-0.338 -0.131,-0.672 -0.229,-1 -0.275,-0.904 -0.5,-1.822 -0.675,-2.75 l -0.029,-0.082 v -0.051 c -0.6,-3.035 -0.897,-6.123 -0.888,-9.217 -0.03,-10.576 3.487,-20.857 9.988,-29.2 2.859,-3.729 2.166,-9.067 -1.549,-11.944 -3.716,-2.876 -9.057,-2.209 -11.951,1.494 -8.625,11.11 -13.363,24.744 -13.485,38.808 -14.604,-6.248 -24.109,-20.566 -24.198,-36.45 -0.004,-2.23 0.194,-4.456 0.592,-6.65 0.133,-0.808 0.304,-1.617 0.621,-2.817 0.273,-1.309 0.652,-2.594 1.133,-3.842 0.317,-0.962 0.724,-1.913 1.126,-2.83 0.941,-2.018 2.04,-3.959 3.286,-5.804 0.514,-0.795 1.08,-1.544 1.675,-2.298 0.076,-0.092 0.093,-0.137 0.175,-0.235 5.229,-6.706 12.432,-11.6 20.592,-13.992 4.52,-1.339 7.098,-6.089 5.758,-10.609 -1.339,-4.52 -6.089,-7.098 -10.608,-5.758 -8.683,2.559 -16.643,7.122 -23.239,13.322 -8.171,-7.937 -12.813,-18.822 -12.883,-30.213 0,-0.858 0.054,-1.717 0.117,-3.042 0.018,-0.556 0.071,-1.109 0.158,-1.658 0.046,-0.675 0.146,-1.342 0.2,-1.775 0.15,-0.917 0.346,-1.825 0.592,-2.9 0.193,-0.943 0.453,-1.87 0.779,-2.775 1.902,-6.424 5.332,-12.291 9.996,-17.1 0.359,-0.416 0.749,-0.808 1.163,-1.174 z M 51.211,112.51 c 2.076,-3.287 17.023,-10.663 50.025,-14.828 -1.772,9.531 -0.868,19.367 2.613,28.415 -3.073,2.017 -5.938,4.334 -8.554,6.917 -0.727,0.64 -1.413,1.325 -2.054,2.05 -6.392,6.622 -11.106,14.676 -13.75,23.492 -0.514,1.441 -0.923,2.917 -1.225,4.417 -0.275,1.2 -0.546,2.475 -0.787,3.975 -0.128,0.781 -0.215,1.568 -0.258,2.358 -0.176,1.024 -0.268,2.061 -0.275,3.1 -0.071,1.133 -0.134,2.342 -0.134,3.55 0.055,16.62 7.039,32.464 19.271,43.716 -0.908,1.558 -1.757,3.192 -2.546,4.9 -0.638,1.458 -1.271,2.983 -1.587,4.008 -0.051,0.129 -0.083,0.258 -0.132,0.388 l -0.047,0.12 -0.003,0.027 c -0.609,1.638 -1.103,3.316 -1.476,5.023 -0.371,1.375 -0.667,2.75 -0.867,3.975 -0.566,3.157 -0.848,6.359 -0.842,9.567 0.073,26.38 18.165,49.294 43.808,55.484 0.079,0.258 0.158,0.483 0.225,0.667 0.477,1.721 1.068,3.408 1.771,5.05 0.442,1.227 0.974,2.419 1.592,3.567 0.335,0.834 0.721,1.646 1.154,2.433 0.46,0.954 0.971,1.883 1.529,2.783 0.304,0.55 0.642,1.084 0.938,1.542 1.127,1.831 2.351,3.6 3.667,5.3 0.717,0.925 1.429,1.8 2.433,3.025 3.308,3.822 7.044,7.253 11.133,10.225 0.846,0.633 1.696,1.217 2.758,1.933 2.664,1.747 5.448,3.3 8.333,4.65 1.908,0.933 3.875,1.725 5.938,2.492 1.25,0.45 2.496,0.842 3.817,1.242 0.929,0.275 1.937,0.558 2.513,0.683 2.181,0.576 4.394,1.019 6.629,1.325 0.942,0.158 1.963,0.308 2.529,0.333 2.591,0.328 5.201,0.487 7.813,0.475 19.173,0.018 37.457,-8.088 50.317,-22.309 v 87.992 c -29.877,-13.941 -89.359,-14.482 -98.133,-14.482 -8.774,0 -68.257,0.541 -98.133,14.482 V 112.51 Z M 494.944,461.821 H 297.823 c -4.064,10e-4 -7.563,2.867 -8.367,6.85 -3.257,15.882 -17.234,27.283 -33.446,27.283 -16.212,0 -30.189,-11.401 -33.446,-27.283 -0.804,-3.983 -4.303,-6.848 -8.367,-6.85 H 17.077 V 146.088 h 17.067 v 290.133 c -0.06,4.773 3.697,8.722 8.467,8.9 2.217,0.081 4.371,-0.744 5.967,-2.284 1.596,-1.54 2.497,-3.664 2.495,-5.882 3.275,-6.392 38.913,-17.801 98.271,-17.801 59.358,0 94.996,11.408 98.133,17.067 -0.06,4.773 3.697,8.722 8.467,8.9 2.217,0.081 4.371,-0.744 5.967,-2.284 1.596,-1.54 2.497,-3.664 2.495,-5.882 3.275,-6.392 38.913,-17.801 98.271,-17.801 59.358,0 94.996,11.408 98.133,17.067 0,4.713 3.82,8.533 8.533,8.533 4.713,0 8.533,-3.82 8.533,-8.533 V 146.088 h 17.067 v 315.733 z"
   id="path1063" />

			<path
   d="m 170.677,214.355 h 8.533 c 4.713,0 8.533,-3.821 8.533,-8.533 0,-4.712 -3.82,-8.533 -8.533,-8.533 h -8.533 c -4.713,0 -8.533,3.82 -8.533,8.533 0,4.713 3.82,8.533 8.533,8.533 z"
   id="path1065" />

			<path
   d="m 170.677,111.955 h 8.533 c 4.713,0 8.533,-3.82 8.533,-8.533 0,-4.713 -3.82,-8.533 -8.533,-8.533 h -8.533 c -4.713,0 -8.533,3.82 -8.533,8.533 0,4.713 3.82,8.533 8.533,8.533 z"
   id="path1067" />

			<path
   d="m 341.344,120.488 h -8.533 c -4.713,0 -8.533,3.82 -8.533,8.533 0,4.713 3.821,8.533 8.533,8.533 h 8.533 c 4.713,0 8.533,-3.82 8.533,-8.533 0,-4.713 -3.82,-8.533 -8.533,-8.533 z"
   id="path1069" />

			<path
   d="m 332.811,239.955 h 8.533 c 4.713,0 8.533,-3.82 8.533,-8.533 0,-4.713 -3.82,-8.533 -8.533,-8.533 h -8.533 c -4.713,0 -8.533,3.82 -8.533,8.533 0,4.713 3.82,8.533 8.533,8.533 z"
   id="path1071" />

		</g>

	</g>

</g>
      <g
         id="g1079">
</g>
      <g
         id="g1081">
</g>
      <g
         id="g1083">
</g>
      <g
         id="g1085">
</g>
      <g
         id="g1087">
</g>
      <g
         id="g1089">
</g>
      <g
         id="g1091">
</g>
      <g
         id="g1093">
</g>
      <g
         id="g1095">
</g>
      <g
         id="g1097">
</g>
      <g
         id="g1099">
</g>
      <g
         id="g1101">
</g>
      <g
         id="g1103">
</g>
      <g
         id="g1105">
</g>
      <g
         id="g1107">
</g>
    </g>
  </g>
</svg>
