<?xml version="1.0" encoding="UTF-8" standalone="no"?>
<svg
   xmlns:dc="http://purl.org/dc/elements/1.1/"
   xmlns:cc="http://creativecommons.org/ns#"
   xmlns:rdf="http://www.w3.org/1999/02/22-rdf-syntax-ns#"
   xmlns:svg="http://www.w3.org/2000/svg"
   xmlns="http://www.w3.org/2000/svg"
   xmlns:sodipodi="http://sodipodi.sourceforge.net/DTD/sodipodi-0.dtd"
   xmlns:inkscape="http://www.inkscape.org/namespaces/inkscape"
   width="20"
   height="20"
   viewBox="0 0 5.2916664 5.2916664"
   version="1.1"
   id="svg8"
   inkscape:version="1.0 (4035a4fb49, 2020-05-01)"
   sodipodi:docname="home.svg"
   inkscape:export-filename="/home/yeison/Development/piton/art/icon_lite.png"
   inkscape:export-xdpi="96"
   inkscape:export-ydpi="96">
  <defs
     id="defs2" />
  <sodipodi:namedview
     id="base"
     pagecolor="#ffffff"
     bordercolor="#666666"
     borderopacity="1.0"
     inkscape:pageopacity="0.0"
     inkscape:pageshadow="2"
     inkscape:zoom="27.746975"
     inkscape:cx="19.052523"
     inkscape:cy="10.331507"
     inkscape:document-units="px"
     inkscape:current-layer="layer1"
     showgrid="false"
     inkscape:window-width="1920"
     inkscape:window-height="1004"
     inkscape:window-x="0"
     inkscape:window-y="0"
     inkscape:window-maximized="1"
     inkscape:showpageshadow="false"
     units="px"
     inkscape:pagecheckerboard="false"
     showguides="false"
     inkscape:snap-bbox="true"
     inkscape:bbox-paths="true"
     inkscape:bbox-nodes="true"
     inkscape:snap-bbox-edge-midpoints="true"
     inkscape:snap-bbox-midpoints="true"
     inkscape:snap-nodes="true"
     inkscape:object-paths="true"
     inkscape:snap-intersection-paths="true"
     inkscape:snap-smooth-nodes="true"
     inkscape:snap-midpoints="true"
     inkscape:snap-global="true"
     fit-margin-top="0"
     fit-margin-left="0"
     fit-margin-right="0"
     fit-margin-bottom="0"
     inkscape:guide-bbox="true"
     inkscape:document-rotation="0">
    <inkscape:grid
       type="xygrid"
       id="grid974"
       empspacing="8"
       spacingx="0.26458332"
       spacingy="0.26458332"
       dotted="false"
       visible="true"
       enabled="true"
       snapvisiblegridlinesonly="true"
       originx="0"
       originy="0" />
    <sodipodi:guide
       position="-4.7059658,3.7218202"
       orientation="1,0"
       id="guide955"
       inkscape:locked="false" />
    <sodipodi:guide
       position="-4.6265908,4.0348705"
       orientation="1,0"
       id="guide957"
       inkscape:locked="false" />
    <sodipodi:guide
       position="-4.4979165,0.89958332"
       orientation="0,1"
       id="guide961"
       inkscape:locked="false" />
    <sodipodi:guide
       position="-4.6662783,0.97895832"
       orientation="0,1"
       id="guide963"
       inkscape:locked="false" />
    <sodipodi:guide
       position="-2.1166666,1.1075457"
       orientation="1,0"
       id="guide967"
       inkscape:locked="false" />
    <sodipodi:guide
       position="-4.5295623,4.074558"
       orientation="0,1"
       id="guide969"
       inkscape:locked="false" />
    <sodipodi:guide
       position="-4.6662783,3.995183"
       orientation="0,1"
       id="guide971"
       inkscape:locked="false" />
  </sodipodi:namedview>
  <metadata
     id="metadata5">
    <rdf:RDF>
      <cc:Work
         rdf:about="">
        <dc:format>image/svg+xml</dc:format>
        <dc:type
           rdf:resource="http://purl.org/dc/dcmitype/StillImage" />
        <dc:title />
      </cc:Work>
    </rdf:RDF>
  </metadata>
  <g
     inkscape:label="Layer 1"
     inkscape:groupmode="layer"
     id="layer1"
     transform="translate(0,-291.70835)">
    <g
       id="g847"
       transform="matrix(0.05207439,0,0,0.05207453,-0.90125164,282.41203)">
      <g
         id="g851">
        <g
           id="g1059"
           transform="matrix(1.9986219,0,0,1.9986185,17.324484,-313.52314)">
          <path
             inkscape:transform-center-y="3.175"
             style="opacity:1;fill:none;fill-opacity:0.49382719;stroke:#000000;stroke-width:0.07000433;stroke-linecap:round;stroke-linejoin:round;stroke-miterlimit:4;stroke-dasharray:none;stroke-dashoffset:0;stroke-opacity:1;paint-order:stroke fill markers"
             d="M 25.399999,271.60002 -8.0000008e-7,246.20002 H 50.799999 Z"
             id="path883"
             inkscape:connector-curvature="0"
             sodipodi:nodetypes="cccc" />
          <path
             sodipodi:nodetypes="cccc"
             inkscape:connector-curvature="0"
             id="path880"
             d="m 25.399999,271.60002 25.399999,25.4 H 0 Z"
             inkscape:transform-center-y="-3.1749995"
             style="opacity:1;fill:none;fill-opacity:0.49382719;stroke:#000000;stroke-width:0.07000433;stroke-linecap:round;stroke-linejoin:round;stroke-miterlimit:4;stroke-dasharray:none;stroke-dashoffset:0;stroke-opacity:1;paint-order:stroke fill markers" />
          <rect
             ry="5.0534658"
             y="253.84885"
             x="7.6487389"
             height="35.528759"
             width="35.528786"
             id="rect870"
             style="opacity:1;fill:none;fill-opacity:0.49382719;stroke:#000000;stroke-width:0.06184419;stroke-linecap:round;stroke-linejoin:round;stroke-miterlimit:4;stroke-dasharray:none;stroke-dashoffset:0;stroke-opacity:1;paint-order:stroke fill markers" />
          <circle
             r="25.396828"
             cy="271.60001"
             cx="25.4"
             id="path872"
             style="opacity:1;fill:none;fill-opacity:0.49382719;stroke:#000000;stroke-width:0.07635882;stroke-linecap:round;stroke-linejoin:round;stroke-miterlimit:4;stroke-dasharray:none;stroke-dashoffset:0;stroke-opacity:1;paint-order:stroke fill markers" />
          <circle
             transform="rotate(-45)"
             cx="-174.08969"
             cy="210.01071"
             r="12.656071"
             id="path876"
             style="opacity:1;fill:none;fill-opacity:0.49382719;stroke:#000000;stroke-width:0.07399406;stroke-linecap:round;stroke-linejoin:round;stroke-miterlimit:4;stroke-dasharray:none;stroke-dashoffset:0;stroke-opacity:1;paint-order:stroke fill markers" />
          <path
             inkscape:transform-center-x="-3.1749999"
             sodipodi:nodetypes="cccc"
             inkscape:connector-curvature="0"
             id="path904"
             d="m 25.4,271.60002 -25.40000040000004,25.4 v -50.8 z"
             style="opacity:1;fill:none;fill-opacity:0.49382719;stroke:#000000;stroke-width:0.07000433;stroke-linecap:round;stroke-linejoin:round;stroke-miterlimit:4;stroke-dasharray:none;stroke-dashoffset:0;stroke-opacity:1;paint-order:stroke fill markers" />
          <path
             inkscape:transform-center-x="3.175"
             style="opacity:1;fill:none;fill-opacity:0.49382719;stroke:#000000;stroke-width:0.07000433;stroke-linecap:round;stroke-linejoin:round;stroke-miterlimit:4;stroke-dasharray:none;stroke-dashoffset:0;stroke-opacity:1;paint-order:stroke fill markers"
             d="m 25.399999,271.60002 25.4,-25.4 v 50.8 z"
             id="path906"
             inkscape:connector-curvature="0"
             sodipodi:nodetypes="cccc" />
          <rect
             ry="5.0514922"
             y="256.39301"
             x="2.5663135"
             height="30.440479"
             width="45.693634"
             id="rect837"
             style="opacity:1;fill:none;fill-opacity:0.49382719;stroke:#000000;stroke-width:0.0657438;stroke-linecap:round;stroke-linejoin:round;stroke-miterlimit:4;stroke-dasharray:none;stroke-dashoffset:0;stroke-opacity:1;paint-order:stroke fill markers" />
          <rect
             style="opacity:1;fill:none;fill-opacity:0.49382719;stroke:#000000;stroke-width:0.0657438;stroke-linecap:round;stroke-linejoin:round;stroke-miterlimit:4;stroke-dasharray:none;stroke-dashoffset:0;stroke-opacity:1;paint-order:stroke fill markers"
             id="rect831"
             width="45.693588"
             height="30.44051"
             x="248.76645"
             y="-40.633385"
             ry="5.051497"
             transform="rotate(90)" />
        </g>
      </g>
    </g>
    <g
       id="g897"
       transform="matrix(0.00951164,0,0,0.00951164,0.26458723,291.9192)"
       style="fill:#0000ff;fill-opacity:1">
      <path
         d="m 496.71094,196.34766 -63.38672,-51.3086 V 59.945312 c 0,-5.941406 -4.81641,-10.761718 -10.76172,-10.761718 h -64.57813 c -5.94531,0 -10.76562,4.820312 -10.76562,10.761718 V 75.335938 L 257.12109,2.394531 c -3.94922,-3.191406 -9.58984,-3.191406 -13.53906,0 L 3.992188,196.34766 c -4.621094,3.73828 -5.335938,10.51562 -1.59375,15.13671 0.00391,0.008 0.00781,0.0117 0.011718,0.0195 l 27.125,33.36328 c 3.742188,4.60547 10.507813,5.30859 15.121094,1.57422 l 22.722656,-18.3945 V 490.47266 H 35.085938 V 512 H 465.61328 V 490.47266 H 433.32422 V 228.04688 l 22.72265,18.39453 c 4.61329,3.73437 11.375,3.03125 15.1211,-1.57422 l 27.125,-33.36328 c 3.74609,-4.61328 3.04687,-11.39453 -1.56641,-15.14063 -0.004,-0.004 -0.0117,-0.0117 -0.0156,-0.0156 z M 368.74609,70.710938 h 43.05078 V 127.60547 L 368.74609,92.761719 Z M 411.80078,490.47266 H 88.902344 V 210.63281 L 250.35156,79.921875 411.80078,210.63281 Z M 461.24609,222.95703 257.12109,57.707031 c -3.94922,-3.195312 -9.58984,-3.195312 -13.53906,0 L 39.457031,222.95703 25.917969,206.32422 250.35156,24.609375 474.78516,206.32422 Z m 0,0"
         id="path10"
         style="fill:#0000ff;fill-opacity:1" />
      <g
         id="g888"
         transform="matrix(0.99791691,0,0,0.99791691,-359.98734,-461.39132)"
         style="fill:#0000ff;fill-opacity:1">
        <g
           id="g895"
           transform="translate(418.76065,474.93414)"
           style="fill:#0000ff;fill-opacity:1">
          <path
             d="M 288.5,277.60156 V 248 c 0,-2.12109 -0.84375,-4.15625 -2.34375,-5.65625 l -16,-16 C 268.65625,224.84375 266.62109,224 264.5,224 h -18.23047 l -6.17578,-18.52734 C 239.00391,202.20312 235.94531,200 232.5,200 h -24 c -2.12109,0 -4.15625,0.84375 -5.65625,2.34375 L 192.5,212.6875 182.15625,202.34375 C 180.65625,200.84375 178.62109,200 176.5,200 h -24 c -3.44531,0 -6.50391,2.20312 -7.59375,5.47266 L 138.73047,224 H 120.5 c -2.12109,0 -4.15625,0.84375 -5.65625,2.34375 l -16,16 c -1.5,1.5 -2.34375,3.53516 -2.34375,5.65625 v 29.60156 L 81.84375,299.58203 C 80.972656,300.89453 80.507812,302.42969 80.5,304 v 40 c 0,2.12109 0.84375,4.15625 2.34375,5.65625 L 104.5,371.3125 V 384 c 0,3.66797 2.49609,6.86719 6.05469,7.76172 l 27.74609,6.93359 6.60547,19.83203 C 145.99609,421.79688 149.05469,424 152.5,424 h 24 c 2.12109,0 4.15625,-0.84375 5.65625,-2.34375 L 192.5,411.3125 l 10.34375,10.34375 c 1.5,1.5 3.53516,2.34375 5.65625,2.34375 h 24 c 3.44531,0 6.50391,-2.20312 7.59375,-5.47266 l 6.60547,-19.83203 27.74609,-6.93359 C 278.00391,390.86719 280.5,387.66797 280.5,384 v -12.6875 l 21.65625,-21.65625 c 1.5,-1.5 2.34375,-3.53516 2.34375,-5.65625 v -40 c -0.004,-1.57812 -0.46875,-3.125 -1.34375,-4.44141 z M 173.1875,408 h -14.91797 l -4.61719,-13.83984 12.50391,-12.50391 c 1.5,-1.5 2.34375,-3.53516 2.34375,-5.65625 v -8 h -16 v 4.6875 L 142.04297,383.14453 120.5,377.75 V 336 h -16 v 12.6875 l -8,-8 v -34.28906 l 9.23828,-13.86328 6.76172,6.7539 V 304 h 16 v -8 c 0,-2.12109 -0.84375,-4.15625 -2.34375,-5.65625 L 112.5,276.6875 v -25.375 L 123.8125,240 h 17.375 L 152.5,251.3125 V 256 h 16 v -8 c 0,-2.12109 -0.84375,-4.15625 -2.34375,-5.65625 L 153.65234,229.83984 158.26953,216 H 173.1875 L 184.5,227.3125 v 169.375 z M 288.5,340.6875 l -8,8 V 336 h -16 v 41.75 L 242.95703,383.14453 232.5,372.6875 V 368 h -16 v 8 c 0,2.12109 0.84375,4.15625 2.34375,5.65625 L 231.34766,394.16016 226.73047,408 H 211.8125 L 200.5,396.6875 V 227.3125 L 211.8125,216 h 14.91797 l 4.61719,13.83984 -12.50391,12.50391 c -1.5,1.5 -2.34375,3.53516 -2.34375,5.65625 v 8 h 16 v -4.6875 L 243.8125,240 h 17.375 L 272.5,251.3125 v 25.375 l -13.65625,13.65625 c -1.5,1.5 -2.34375,3.53516 -2.34375,5.65625 v 8 h 16 v -4.6875 l 6.76172,-6.75391 9.23828,13.83985 z m 0,0"
             id="path862"
             style="fill:#0000ff;fill-opacity:1" />
          <path
             d="M 246.15625,306.34375 232.5,292.6875 V 272 h -16 v 24 c 0,2.12109 0.84375,4.15625 2.34375,5.65625 l 16,16 z m 0,0"
             id="path864"
             style="fill:#0000ff;fill-opacity:1" />
          <path
             d="m 238.15625,330.34375 -11.3125,11.3125 5.65625,5.65625 V 360 h 16 v -16 c 0,-2.12109 -0.84375,-4.15625 -2.34375,-5.65625 z m 0,0"
             id="path866"
             style="fill:#0000ff;fill-opacity:1" />
          <path
             d="m 152.5,292.6875 -13.65625,13.65625 11.3125,11.3125 16,-16 c 1.5,-1.5 2.34375,-3.53516 2.34375,-5.65625 v -24 h -16 z m 0,0"
             id="path868"
             style="fill:#0000ff;fill-opacity:1" />
          <path
             d="m 138.84375,338.34375 c -1.5,1.5 -2.34375,3.53516 -2.34375,5.65625 v 16 h 16 v -12.6875 l 5.65625,-5.65625 -11.3125,-11.3125 z m 0,0"
             id="path870"
             style="fill:#0000ff;fill-opacity:1" />
        </g>
      </g>
    </g>
  </g>
</svg>
