<?xml version="1.0" encoding="UTF-8" standalone="no"?>
<!-- Created with Inkscape (http://www.inkscape.org/) -->

<svg
   width="810.68335mm"
   height="411.0657mm"
   viewBox="0 0 810.68335 411.0657"
   version="1.1"
   id="svg5"
   inkscape:version="1.1 (c4e8f9ed74, 2021-05-24)"
   sodipodi:docname="eyes.svg"
   xmlns:inkscape="http://www.inkscape.org/namespaces/inkscape"
   xmlns:sodipodi="http://sodipodi.sourceforge.net/DTD/sodipodi-0.dtd"
   xmlns="http://www.w3.org/2000/svg"
   xmlns:svg="http://www.w3.org/2000/svg">
  <sodipodi:namedview
     id="namedview7"
     pagecolor="#ffffff"
     bordercolor="#111111"
     borderopacity="1"
     inkscape:pageshadow="0"
     inkscape:pageopacity="0"
     inkscape:pagecheckerboard="false"
     inkscape:document-units="mm"
     showgrid="false"
     fit-margin-top="0"
     fit-margin-left="0"
     fit-margin-right="0"
     fit-margin-bottom="0"
     inkscape:zoom="0.15484736"
     inkscape:cx="1352.9452"
     inkscape:cy="1352.9452"
     inkscape:window-width="1920"
     inkscape:window-height="1006"
     inkscape:window-x="0"
     inkscape:window-y="0"
     inkscape:window-maximized="1"
     inkscape:current-layer="layer1" />
  <defs
     id="defs2" />
  <g
     inkscape:label="Layer 1"
     inkscape:groupmode="layer"
     id="layer1"
     transform="translate(282.44243,623.14011)">
    <path
       style="fill:#000000;stroke-width:0.352778"
       d="M 110.07729,-212.33414 C 53.427932,-214.62172 -1.9019376,-228.408 -60.016036,-254.71538 -124.72606,-284.00864 -191.2351,-329.31833 -249.45771,-383.77369 c -11.37474,-10.63875 -32.98472,-32.81679 -32.98472,-33.85179 0,-1.035 21.60998,-23.21304 32.98472,-33.85179 46.36052,-43.36079 98.94223,-81.64687 150.812509,-109.8104 65.831519,-35.74395 130.385607,-55.98193 193.829944,-60.76651 19.199477,-1.4479 36.229537,-1.4479 55.429017,0 51.08568,3.85257 102.20272,17.52716 155.20077,41.51859 64.64763,29.26501 131.27522,74.65548 189.44168,129.05832 11.37475,10.63875 32.98472,32.81679 32.98472,33.85179 0,1.13971 -26.56822,28.10519 -37.74722,38.31163 -25.63792,23.40744 -51.18111,44.00161 -78.14028,63.00049 -83.92757,59.14607 -169.99685,94.1151 -251.59996,102.22228 -18.61111,1.84898 -34.63745,2.40464 -50.67618,1.75694 z m 23.4399,-19.72419 c 46.27513,-2.45918 89.02136,-21.36334 121.3036,-53.64561 27.15122,-27.15122 44.95899,-61.8501 51.31837,-99.99515 7.39853,-44.3783 -0.78384,-89.63808 -23.02376,-127.35278 -23.82414,-40.40123 -62.53498,-70.33804 -107.47587,-83.11583 -30.84357,-8.76957 -64.11472,-9.68001 -95.250005,-2.60645 -34.224829,7.77548 -64.943132,24.69446 -89.4736686,49.28019 -42.4558904,42.55142 -61.3508974,102.937 -51.2523804,163.79487 6.316483,38.06575 24.164027,72.84495 51.3142294,99.99515 37.3502386,37.35024 88.3058256,56.5277 142.5394846,53.64561 z m -19.08461,-66.20941 c -14.942995,-1.46457 -25.142154,-3.85336 -36.651282,-8.58428 -45.218264,-18.58732 -74.4592456,-62.0893 -74.4592456,-110.77346 0,-65.99767 53.4394816,-119.5052 119.4323476,-119.58443 9.25322,-0.0111 20.98139,1.35623 28.19068,3.28663 l 1.76389,0.47231 -3.175,1.61522 c -22.16809,11.27761 -32.85363,37.1297 -25.02556,60.54573 5.80761,17.37215 19.74353,29.71345 37.94175,33.60019 5.2138,1.11356 14.4321,1.12028 19.60583,0.0143 21.29219,-4.55161 36.7011,-20.94 39.93727,-42.47589 l 0.56931,-3.78844 2.52021,4.14122 c 8.77059,14.41175 14.31375,30.2896 16.54165,47.38172 0.78422,6.01664 1.04789,17.89706 0.53573,24.14276 -4.76391,58.09834 -50.00661,104.10591 -107.89829,109.72245 -4.58897,0.44521 -16.45091,0.61509 -19.82929,0.28397 z M 3.1135504,-251.41299 c -0.184326,-0.16425 -1.684514,-1.30598 -3.33374995,-2.53721 -10.28247145,-7.67624 -25.81900945,-22.45924 -34.09564245,-32.44194 -28.228425,-34.04718 -44.505779,-73.7862 -47.746139,-116.56595 -0.51273,-6.76912 -0.51273,-22.56566 0,-29.33478 2.92615,-38.63154 16.828538,-75.6302 40.221025,-107.04095 11.103731,-14.90976 28.023398,-31.93029 42.06111845,-42.31185 1.68936395,-1.24937 3.02049695,-2.32266 2.95806595,-2.38509 -0.317913,-0.31791 -23.3570194,7.87976 -33.2390584,11.82697 -61.345881,24.50358 -124.49835,63.91406 -182.70799,114.01947 -12.30891,10.5952 -28.87961,25.9525 -38.97665,36.12256 l -4.40443,4.43628 4.40443,4.43628 c 10.09704,10.17006 26.66774,25.52736 38.97665,36.12256 61.2354,52.7099 127.090169,93.05543 191.911119,117.5732 5.857925,2.21569 23.3835064,8.32821 23.9712514,8.36059 0.211667,0.0116 0.211667,-0.0915 0,-0.28014 z m 247.5328196,-2.37705 c 66.30363,-22.48511 133.04429,-61.10368 196.80845,-113.88049 16.49123,-13.64959 36.51388,-31.84523 50.08915,-45.51867 l 4.40443,-4.43628 -4.40443,-4.43628 c -10.09706,-10.17006 -26.66774,-25.52736 -38.97665,-36.12256 -58.19518,-50.09295 -121.37736,-89.52199 -182.70799,-114.01947 -9.88205,-3.94721 -32.92116,-12.14488 -33.23905,-11.82697 -0.0624,0.0624 1.2687,1.13572 2.95805,2.38509 10.27091,7.59583 26.14397,22.66495 34.53603,32.78685 28.22299,34.04064 44.50637,73.79441 47.74611,116.56595 0.51276,6.76912 0.51276,22.56566 0,29.33478 -2.92616,38.63154 -16.82853,75.6302 -40.22101,107.04095 -11.00977,14.78361 -27.55452,31.46598 -41.62076,41.96694 -3.34476,2.49699 -3.75885,2.83584 -3.46558,2.83584 0.11179,0 3.75376,-1.20407 8.09325,-2.67568 z"
       id="path836" />
  </g>
</svg>
